<?xml version="1.0" encoding="utf-8"?>
<!-- Generator: Adobe Illustrator 24.0.2, SVG Export Plug-In . SVG Version: 6.00 Build 0)  -->
<svg version="1.1" id="Capa_1" xmlns="http://www.w3.org/2000/svg" xmlns:xlink="http://www.w3.org/1999/xlink" x="0px" y="0px"
	 viewBox="0 0 501.3 164.5" style="enable-background:new 0 0 501.3 164.5;" xml:space="preserve">
<style type="text/css">
	.st0{fill:#FFFFFF;}
	.st1{fill:none;stroke:#FFFFFF;stroke-width:2.5;stroke-miterlimit:10;}
	.st2{fill-rule:evenodd;clip-rule:evenodd;fill:#FFFFFF;}
</style>
<title>prop whiteRecurso 1</title>
<g id="Capa_2_2_">
	<g id="Слой_1_1_">
		<path class="st0" d="M17.4,69.5l-6,15.3c-0.6,1.9-2.5,3.1-4.5,2.9H2.6c-0.7,0-1.4-0.3-1.9-0.8C0.2,86.5,0,85.8,0,85.1
			c0-0.6,0.2-1.1,0.5-1.6l28.4-72.8c0.7-2.3,2.8-3.8,5.2-3.7H41c2.4-0.1,4.5,1.5,5.2,3.7l28.2,73c0.3,0.5,0.4,1.1,0.4,1.6
			c0,0.7-0.2,1.4-0.7,1.9c-0.5,0.5-1.2,0.8-1.9,0.8h-4.2c-2,0.2-3.9-1.1-4.5-3.1l-6-15.4L17.4,69.5z M53.5,59.1l-16-41.3L21.5,59
			L53.5,59.1z"/>
		<path class="st0" d="M96.3,17.6c-0.6,0.6-1.4,0.9-2.2,0.9h-6.6c-0.8,0-1.6-0.3-2.2-0.9c-0.6-0.6-0.9-1.3-0.9-2.1V8.8
			c0-0.8,0.3-1.6,0.9-2.2C86,6,86.7,5.6,87.6,5.7h6.6c0.8,0,1.6,0.3,2.2,0.9c0.6,0.6,0.9,1.4,0.9,2.2v6.7
			C97.3,16.3,96.9,17,96.3,17.6z M95.2,86.9c-0.6,0.6-1.4,0.9-2.2,0.9h-4.3c-1.7,0-3.1-1.4-3.1-3.1v-54c0-1.7,1.4-3.1,3.1-3.1H93
			c1.7,0,3.1,1.4,3.1,3.1v53.9C96.1,85.5,95.8,86.3,95.2,86.9L95.2,86.9z"/>
		<path class="st0" d="M146.2,28.6c0.6,0.6,0.9,1.4,0.9,2.2v3.7c0,1.7-1.4,3.1-3.1,3.1h-6.7c-3.6-0.3-7.2,1-9.9,3.4
			c-2.4,2.7-3.7,6.3-3.4,9.9v33.7c0,1.7-1.4,3.1-3.1,3.1h-4.3c-1.7,0-3.1-1.4-3.1-3.1v-54c0-1.7,1.4-3.1,3.1-3.1h4.3
			c1.7,0,3.1,1.4,3.1,3.1v3.6c1.4-2.2,3.3-3.9,5.6-5.1c2.7-1.2,5.5-1.7,8.4-1.6h6C144.9,27.6,145.6,28,146.2,28.6z"/>
		<path class="st0" d="M208.1,86.9c-0.6,0.6-1.4,0.9-2.2,0.9h-4.3c-0.8,0-1.6-0.3-2.2-0.9c-0.6-0.6-0.9-1.4-0.9-2.2V37.6h-24.4v47.1
			c0,1.7-1.4,3.1-3.1,3.1h-4.3c-1.7,0-3.1-1.4-3.1-3.1V37.6h-9.7c-1.7,0-3.1-1.4-3.1-3.1v-3.7c0-1.7,1.4-3.1,3.1-3.1h9.7v-5.8
			c0-6.6,1.5-11.6,4.6-14.8c3.1-3.2,7.9-4.9,14.5-4.9h7.3c0.8,0,1.6,0.3,2.2,0.9c0.6,0.6,0.9,1.4,0.9,2.2V9c0,0.8-0.3,1.6-0.9,2.2
			c-0.6,0.6-1.4,0.9-2.2,0.9h-6.1c-3.7,0-6.4,0.9-7.7,2.7c-1.5,2.3-2.2,4.9-2,7.6v5.2h24.4V5.3c0-0.8,0.3-1.6,0.9-2.2
			c0.6-0.6,1.4-0.9,2.2-0.9h4.3c0.8,0,1.6,0.3,2.2,0.9c0.6,0.6,0.9,1.4,0.9,2.2v79.4C209,85.5,208.7,86.3,208.1,86.9z"/>
		<path class="st0" d="M278.6,57.8c0,1.9,0,3.6-0.2,5.3c-0.3,7-3.2,13.7-8.2,18.7c-4.7,4.7-11.2,7-19.3,7c-8.1,0-14.5-2.3-19.3-7
			c-4.9-5-7.8-11.7-8.2-18.7c0-0.8-0.1-2.6-0.1-5.3s0-4.7,0.1-5.6c0.3-7,3.2-13.7,8.1-18.7c4.8-4.7,11.2-7,19.3-7s14.5,2.3,19.3,7
			c4.9,5,7.8,11.7,8.1,18.7C278.6,54,278.6,55.8,278.6,57.8z M263,40.9c-6.8-6-17.1-6-23.9,0c-2.9,3.3-4.7,7.5-4.9,11.9
			c0,0.9-0.1,2.6-0.1,5s0,3.9,0.1,4.7c0.2,4.4,2,8.6,4.9,11.9c6.8,6,17.1,6,23.9,0c2.9-3.3,4.7-7.5,4.9-11.9
			c0.1-1.7,0.2-3.3,0.2-4.7s0-3.1-0.2-5C267.6,48.4,265.9,44.2,263,40.9z"/>
		<path class="st0" d="M362.6,30.5c0.5-1.7,2.1-2.9,3.9-2.8h3.7c0.7,0,1.4,0.3,1.9,0.8c0.6,0.5,0.9,1.2,1,2l-0.1,0.9l-17.7,53.2
			c-0.7,2.2-1.9,3.2-3.5,3.2h-3.6c-0.8,0-1.6-0.3-2.2-0.9c-0.6-0.7-1.1-1.5-1.4-2.4l-13.8-38.4l-13.8,38.4c-0.3,0.9-0.8,1.7-1.4,2.4
			c-0.6,0.6-1.4,0.9-2.2,0.9H310c-1.6,0-2.8-1.1-3.5-3.2l-17.7-53.3v-0.9c0-0.7,0.3-1.4,0.8-2c0.5-0.5,1.2-0.8,2-0.8h3.7
			c1.8-0.1,3.4,1,3.9,2.8l13,38.6l13.9-38.6c0.4-1.6,1.9-2.8,3.6-2.8h2.5c1.7,0,3.2,1.1,3.6,2.8l13.9,38.6L362.6,30.5z"/>
		<path class="st0" d="M41.3,122.3c-0.3,0.3-0.8,0.5-1.3,0.5h-3.4c-0.5,0-1-0.1-1.5-0.4c-0.4-0.4-0.8-0.9-1-1.4
			c-1.1-1.9-2.6-3.6-4.5-4.9c-2.5-1.7-5.4-2.6-8.4-2.4c-2.8-0.1-5.7,0.7-8.1,2.2c-2.1,1.3-3.4,3.7-3.3,6.2c-0.1,1.7,0.5,3.3,1.6,4.5
			c1.4,1.3,3.1,2.4,5,3c2.2,0.8,5.6,1.9,10.1,3c6.1,1.6,10.3,3.6,12.8,5.9c2.6,2.5,3.9,6,3.7,9.5c0.1,3.1-0.9,6.1-2.7,8.5
			c-2,2.6-4.6,4.6-7.6,5.8c-3.6,1.5-7.5,2.2-11.4,2.1c-3.7,0-7.4-0.7-10.9-2.2c-3-1.3-5.6-3.3-7.7-5.8c-1.7-2-2.7-4.4-2.9-7
			c0-0.5,0.2-0.9,0.5-1.3c0.4-0.3,0.8-0.5,1.3-0.5h3.2c0.5,0,1,0.1,1.4,0.4c0.5,0.4,0.8,0.9,1,1.4c1.1,2.2,2.7,4,4.7,5.3
			c2.8,1.8,6,2.6,9.3,2.4c3.5,0.1,6.9-0.8,9.9-2.5c2.5-1.3,4.1-3.8,4.1-6.6c0-1.7-0.8-3.4-2.1-4.5c-1.7-1.4-3.7-2.4-5.8-3.1
			c-2.5-0.8-6.1-1.9-10.9-3.1c-4.2-0.8-8.1-2.8-11.2-5.8c-2.3-2.6-3.5-5.9-3.5-9.4c0-2.7,0.7-5.4,2.2-7.7c1.6-2.4,3.9-4.4,6.5-5.6
			c3.3-1.5,6.9-2.3,10.5-2.2c3.7-0.1,7.3,0.6,10.6,2.2c2.8,1.4,5.2,3.4,7.1,5.9c1.5,1.8,2.4,4,2.7,6.4
			C41.8,121.6,41.6,122,41.3,122.3z"/>
		<path class="st0" d="M53.1,122.5c0.4-0.4,1-0.7,1.5-0.7h3c0.6,0,1.1,0.2,1.5,0.7c0.4,0.4,0.6,0.9,0.6,1.5v21.2
			c-0.2,3.3,0.7,6.6,2.8,9.2c2.1,2.2,5.1,3.3,8.1,3.1c3,0.2,5.9-1,8-3.1c2.1-2.6,3.1-5.9,2.8-9.2V124c0-1.2,1-2.2,2.2-2.2h3
			c0.6,0,1.1,0.2,1.5,0.7c0.4,0.4,0.7,0.9,0.7,1.5v37.5c0,0.6-0.2,1.1-0.7,1.5c-0.4,0.4-0.9,0.6-1.5,0.6h-3c-0.6,0-1.1-0.2-1.5-0.6
			c-0.4-0.4-0.6-1-0.6-1.5V159c-2.9,3.7-7.4,5.7-12,5.5c-4.6,0.2-9.1-1.5-12.3-4.8c-3.2-3.6-4.9-8.3-4.6-13.1V124
			C52.5,123.4,52.7,122.9,53.1,122.5z"/>
		<path class="st0" d="M112.6,122.5c2-1.1,4.2-1.6,6.4-1.5c6.3,0,10.7,2.3,13.1,7c1.4-2.1,3.2-3.9,5.3-5.2c2.4-1.3,5.1-2,7.8-1.9
			c5.3,0,9.2,1.6,11.7,4.8c2.5,3.2,3.8,7.6,3.7,13.4v22.3c0,0.6-0.2,1.1-0.7,1.5c-0.4,0.4-0.9,0.6-1.5,0.6h-2.8
			c-0.6,0-1.1-0.2-1.5-0.6c-0.4-0.4-0.6-1-0.6-1.5V140c0-8-3.2-12.1-9.5-12.1c-2.6-0.1-5.2,1-6.9,2.9c-1.9,2.5-2.8,5.5-2.6,8.6v22
			c0,1.2-1,2.2-2.2,2.2h0h-2.9c-1.2,0-2.2-1-2.2-2.2v0V140c0-8-3.2-12.1-9.5-12.1c-2.7-0.2-5.3,0.9-7.1,2.9
			c-1.9,2.5-2.8,5.5-2.6,8.6v22c0,0.6-0.2,1.1-0.6,1.5c-0.4,0.4-1,0.6-1.5,0.6H103c-0.6,0-1.1-0.2-1.5-0.6c-0.4-0.4-0.7-1-0.7-1.5
			V124c0-0.6,0.2-1.1,0.7-1.5c0.4-0.4,0.9-0.7,1.5-0.7h3c1.2,0,2.2,1,2.2,2.2v2.5C109.4,124.9,110.9,123.6,112.6,122.5z"/>
		<path class="st0" d="M184.1,122.5c2-1.1,4.2-1.6,6.4-1.5c6.3,0,10.7,2.3,13.1,7c1.4-2.1,3.2-3.9,5.3-5.2c2.4-1.3,5.1-2,7.8-1.9
			c5.2,0,9.2,1.6,11.7,4.8s3.7,7.6,3.7,13.4v22.3c0,1.2-1,2.2-2.2,2.2h0h-3c-1.2-0.1-2.1-1-2.1-2.2V140c0-8-3.1-12.1-9.4-12.1
			c-2.6-0.1-5.2,1-6.9,2.9c-1.9,2.5-2.8,5.5-2.6,8.6v22c0,0.6-0.2,1.1-0.6,1.5c-0.4,0.4-1,0.6-1.5,0.6h-3c-0.6,0-1.1-0.2-1.5-0.6
			c-0.4-0.4-0.7-1-0.7-1.5V140c0-8-3.1-12.1-9.5-12.1c-2.6-0.1-5.2,1-6.9,2.9c-1.9,2.5-2.8,5.5-2.6,8.6v22c0,0.6-0.2,1.1-0.7,1.5
			c-0.4,0.4-0.9,0.6-1.5,0.6h-3.1c-1.2-0.1-2.1-1-2.1-2.2V124c0-0.6,0.2-1.1,0.6-1.5c0.4-0.4,1-0.7,1.5-0.7h2.9
			c0.6,0,1.1,0.2,1.5,0.7c0.4,0.4,0.7,0.9,0.7,1.5v2.5C181,124.9,182.5,123.6,184.1,122.5z"/>
		<path class="st0" d="M251.6,114.8c-0.4,0.4-1,0.6-1.5,0.6h-4.6c-1.2,0-2.2-1-2.2-2.2v0v-4.6c0-1.2,1-2.2,2.2-2.2l0,0h4.6
			c1.2,0,2.2,1,2.2,2.2v0v4.6C252.2,113.9,252,114.4,251.6,114.8z M250.8,163c-0.4,0.4-1,0.6-1.5,0.6h-3c-1.2,0-2.2-1-2.2-2.2v0V124
			c0-0.6,0.2-1.1,0.6-1.5c0.4-0.4,1-0.7,1.5-0.7h3c0.6,0,1.1,0.2,1.5,0.7c0.4,0.4,0.6,0.9,0.6,1.5v37.5
			C251.4,162.1,251.2,162.6,250.8,163z"/>
		<path class="st0" d="M275.8,154.9c1.4,1.4,3.4,2.1,5.3,1.9h4.3c1.2,0,2.2,1,2.2,2.2v2.6c0,1.2-1,2.2-2.2,2.2h-5.1
			c-4.6,0-7.9-1.2-10-3.6c-2.3-3-3.5-6.7-3.2-10.5v-20.9h-6c-1.2,0-2.2-1-2.2-2.2V124c0-0.6,0.2-1.1,0.6-1.5
			c0.4-0.4,0.9-0.7,1.5-0.7h6v-13.1c0-1.2,1-2.2,2.2-2.2l0,0h3c0.6,0,1.1,0.2,1.5,0.6c0.4,0.4,0.7,1,0.7,1.5v13.1h10.2
			c0.6,0,1.1,0.2,1.5,0.7c0.4,0.4,0.6,0.9,0.6,1.5v2.6c0,1.2-1,2.2-2.2,2.2h-10.2v20.8C274.3,151.5,274.8,153.3,275.8,154.9z"/>
		<path class="st0" d="M342.2,129.5c0.8-1.8,1.2-3.7,1.1-5.6c-0.5-6-5.8-10.5-11.8-9.9c-2.3,0.2-4.5,1.1-6.3,2.7
			c-1.9,2-3.2,4.6-3.7,7.3c-0.1,0.5-0.4,1-0.8,1.4c-0.3,0.3-0.8,0.5-1.3,0.5h-3.7c-0.5,0-0.9-0.2-1.2-0.5c-0.3-0.3-0.5-0.8-0.5-1.2
			c0.1-2.9,1-5.7,2.5-8.1c1.6-2.7,3.9-5,6.6-6.6c3-1.8,6.5-2.6,10-2.6c3.4-0.1,6.8,0.7,9.8,2.3c2.6,1.4,4.7,3.5,6.1,6.1
			c1.4,2.7,2.1,5.7,2.1,8.7c0.1,3-0.5,5.9-1.7,8.7c-1.5,2.8-3.5,5.3-5.9,7.3l-17.9,16.7h24.6c1.2,0,2.2,1,2.2,2.2v0v2.9
			c0,1.2-1,2.2-2.2,2.2l0,0h-34.6c-1.2,0-2.1-1-2.1-2.2v-2.9c0-0.5,0.1-1,0.4-1.5c0.4-0.6,0.9-1.1,1.4-1.6l23.6-21.5
			C340,132.8,341.2,131.2,342.2,129.5z"/>
		<path class="st0" d="M396.8,158.4c-3.4,4-8.5,6.1-15.2,6.1c-6.7,0-11.8-2-15.2-6.1c-3.6-4.6-5.5-10.2-5.3-16l-0.1-6.9l0.1-6.8
			c-0.2-5.8,1.7-11.5,5.3-16.1c3.4-4.1,8.5-6.1,15.2-6.1c6.7,0,11.8,2,15.2,6.1c3.6,4.6,5.5,10.3,5.3,16.1c0,1.6,0,3.9,0,6.8
			s0,5.2,0,6.8C402.3,148.1,400.4,153.8,396.8,158.4z M394.5,142.3c0-1.6,0-3.9,0-6.8s0-5.2,0-6.8c-0.2-10-4.5-15-13-15
			c-8.4,0-12.7,5-13,15v6.8v6.8c0.2,9.9,4.5,14.9,13,14.9C390,157.2,394.3,152.3,394.5,142.3z"/>
		<path class="st0" d="M440,129.5c0.8-1.8,1.2-3.7,1.1-5.6c0.1-2.7-0.8-5.3-2.6-7.2c-4.5-3.6-11-3.6-15.5,0
			c-1.9,2.1-3.2,4.6-3.7,7.3c-0.1,0.5-0.4,1-0.8,1.4c-0.4,0.3-0.8,0.5-1.3,0.5h-3.7c-0.5,0-0.9-0.2-1.3-0.5
			c-0.3-0.3-0.5-0.8-0.5-1.2c0.2-2.9,1-5.7,2.5-8.1c1.6-2.7,3.8-5,6.6-6.6c3-1.8,6.5-2.6,10-2.6c3.4-0.1,6.8,0.7,9.8,2.3
			c2.6,1.4,4.7,3.6,6.1,6.2c1.4,2.7,2.1,5.7,2.1,8.7c0.1,3-0.5,5.9-1.7,8.7c-1.5,2.8-3.5,5.3-5.9,7.3l-17.9,16.7h24.6
			c1.2-0.1,2.2,0.8,2.3,2c0,0,0,0,0,0v2.9c0,1.2-1,2.2-2.2,2.2l0,0h-34.7c-0.6,0-1.1-0.2-1.5-0.6c-0.4-0.4-0.7-1-0.7-1.5v-2.9
			c0-0.5,0.1-1,0.4-1.5c0.4-0.6,0.9-1.1,1.4-1.6l23.6-21.5C437.8,132.8,439.1,131.2,440,129.5z"/>
		<path class="st0" d="M494.7,158.4c-3.4,4-8.5,6.1-15.2,6.1c-6.7,0-11.8-2-15.3-6.1c-3.6-4.6-5.4-10.2-5.3-16v-6.8v-6.8
			c-0.2-5.8,1.7-11.5,5.3-16.1c3.4-4.1,8.5-6.1,15.3-6.1c6.8,0,11.8,2,15.2,6.1c3.6,4.6,5.4,10.3,5.3,16.1c0,1.6,0,3.9,0,6.8
			s0,5.2,0,6.8C500.1,148.2,498.3,153.8,494.7,158.4z M492.4,142.3c0-1.6,0-3.9,0-6.8s0-5.2,0-6.8c-0.2-10-4.5-15-13-15
			c-8.4,0-12.7,5-13,15l-0.1,6.7l0.1,6.8c0.2,9.9,4.5,14.9,13,14.9C487.9,157.2,492.2,152.2,492.4,142.3z"/>
		<path class="st1" d="M474.9,27.1l15,15.4c8.6,8.9,9.9,28.4,10.1,44.7c0,0.4-0.3,0.8-0.8,0.8c-0.2,0-0.4-0.1-0.6-0.2l-24.2-25.2"/>
		<path class="st1" d="M474.2,63l-15.4,15c-8.8,8.8-28.3,9.9-44.7,10.1c-0.4,0-0.8-0.3-0.8-0.8c0-0.2,0.1-0.4,0.2-0.6l24.7-24.2"/>
		<path class="st2" d="M458.8,78c4.8-4.7,7.1-14.1-2.2-33.3c15,6.7,20.4,15.6,17.8,18.1L458.8,78z"/>
		<path class="st1" d="M438.3,62.3l-15-15.4c-8.7-9-9.9-28.4-10.1-44.8c0-0.4,0.3-0.8,0.8-0.8c0.2,0,0.4,0.1,0.6,0.2l24.2,25"/>
		<path class="st2" d="M423.3,46.8c4.7,4.8,14.1,7.1,33.3-2.2c-6.7,15-15.6,20.4-18.1,17.8L423.3,46.8z"/>
		<path class="st1" d="M439,26.4l15.4-15c8.8-8.7,28.3-9.9,44.7-10.1c0.4,0,0.8,0.3,0.8,0.8c0,0.2-0.1,0.4-0.2,0.6L475,26.7"/>
		<path class="st2" d="M454.4,11.4c-4.8,4.7-7.1,14,2.2,33.3c-15-6.7-20.4-15.6-17.8-18.1L454.4,11.4z"/>
		<path class="st2" d="M489.9,42.5c-4.7-4.8-14.1-7.1-33.3,2.2c6.7-15,15.6-20.3,18.1-17.8L489.9,42.5z"/>
		<circle class="st0" cx="456.6" cy="44.7" r="1.9"/>
	</g>
</g>
</svg>
