<svg width="900" height="509" viewBox="0 0 900 509" fill="none" xmlns="http://www.w3.org/2000/svg">
<path d="M714.342 490.673C682.033 490.673 654.503 486.088 631.751 476.916C608.999 467.745 590.342 455.079 575.781 438.92C561.219 422.761 550.298 404.2 543.017 383.237C535.737 361.837 531.414 339.126 530.049 315.106C529.594 303.314 529.139 290.431 528.684 276.455C528.684 262.043 528.684 247.631 528.684 233.218C529.139 218.806 529.594 205.486 530.049 193.257C530.959 169.237 535.282 146.745 543.017 125.782C550.753 104.382 561.902 85.8204 576.463 70.0979C591.48 54.3755 610.364 41.9286 633.116 32.7572C655.868 23.5857 682.943 19 714.342 19C746.195 19 773.498 23.5857 796.25 32.7572C819.002 41.9286 837.659 54.3755 852.22 70.0979C867.237 85.8204 878.385 104.382 885.666 125.782C893.402 146.745 897.725 169.237 898.635 193.257C899.545 205.486 900 218.806 900 233.218C900 247.631 900 262.043 900 276.455C900 290.431 899.545 303.314 898.635 315.106C897.725 339.126 893.629 361.837 886.349 383.237C879.068 404.2 868.147 422.761 853.585 438.92C839.024 455.079 820.14 467.745 796.932 476.916C774.18 486.088 746.65 490.673 714.342 490.673ZM714.342 415.337C743.919 415.337 765.534 406.165 779.186 387.822C793.292 369.043 800.573 343.712 801.028 311.831C801.938 299.165 802.393 286.5 802.393 273.835C802.393 260.733 802.393 247.631 802.393 234.529C802.393 221.426 801.938 208.98 801.028 197.188C800.573 166.18 793.292 141.286 779.186 122.506C765.534 103.29 743.919 93.6816 714.342 93.6816C685.219 93.6816 663.604 103.29 649.498 122.506C635.846 141.286 628.566 166.18 627.656 197.188C627.656 208.98 627.428 221.426 626.973 234.529C626.973 247.631 626.973 260.733 626.973 273.835C627.428 286.5 627.656 299.165 627.656 311.831C628.566 343.712 636.074 369.043 650.18 387.822C664.287 406.165 685.674 415.337 714.342 415.337Z" fill="#00D658"/>
<path d="M417.719 483.886C413.179 483.886 409.32 482.361 406.142 479.312C402.964 476.262 401.375 472.559 401.375 468.203V403.512C401.375 398.72 402.964 394.799 406.142 391.75C409.32 388.7 413.179 387.176 417.719 387.176H485.817C490.357 387.176 494.216 388.7 497.394 391.75C500.572 394.799 502.161 398.72 502.161 403.512V468.203C502.161 472.559 500.572 476.262 497.394 479.312C494.216 482.361 490.357 483.886 485.817 483.886H417.719Z" fill="#00D658"/>
<path d="M187.085 490.672C155.221 490.672 127.682 486.961 104.467 479.541C81.2522 472.12 61.9065 462.517 46.4299 450.731C31.4085 438.508 20.0286 425.413 12.2903 411.445C4.55199 397.04 0.455195 382.853 0 368.885C0 364.956 1.3656 361.9 4.09676 359.718C7.28312 357.099 10.9247 355.789 15.0214 355.789H76.4727C81.0246 355.789 84.8937 356.662 88.0801 358.408C91.2664 360.154 93.9976 363.646 96.2736 368.885C100.37 380.67 106.971 390.056 116.075 397.04C125.634 404.024 136.558 409.044 148.849 412.099C161.139 414.719 174.112 416.028 187.768 416.028C215.079 416.028 236.701 409.917 252.633 397.694C269.02 385.036 277.213 367.139 277.213 344.003C277.213 320.868 269.703 304.281 254.681 294.241C239.66 283.765 218.721 278.526 191.864 278.526H121.537C116.53 278.526 112.433 277.217 109.247 274.598C106.06 271.542 104.467 267.614 104.467 262.812V235.312C104.467 230.946 105.377 227.236 107.198 224.18C109.474 220.688 111.75 217.851 114.026 215.668L236.246 101.084H40.9675C35.9603 101.084 31.8635 99.5559 28.6772 96.5003C25.946 93.4447 24.5804 89.7344 24.5804 85.3692V42.1544C24.5804 37.3528 25.946 33.4241 28.6772 30.3686C31.8635 27.313 35.9603 25.7852 40.9675 25.7852H333.885C338.892 25.7852 342.989 27.313 346.175 30.3686C349.362 33.4241 350.955 37.3528 350.955 42.1544V81.4406C350.955 85.3692 350.044 88.8613 348.224 91.9169C346.403 94.9725 344.355 97.5916 342.079 99.7742L223.956 216.323L232.149 216.978C259.916 219.161 284.496 225.272 305.891 235.312C327.74 244.915 344.582 259.102 356.417 277.872C368.707 296.642 374.853 320.213 374.853 348.587C374.853 378.27 366.659 403.806 350.272 425.195C334.34 446.147 312.263 462.298 284.041 473.648C255.819 484.997 223.501 490.672 187.085 490.672Z" fill="#00D658"/>
</svg>
