<?xml version="1.0" encoding="UTF-8"?>
<svg id="Layer_1" xmlns="http://www.w3.org/2000/svg" version="1.1" viewBox="0 0 288 156.9">
  <!-- Generator: Adobe Illustrator 29.2.1, SVG Export Plug-In . SVG Version: 2.1.0 Build 116)  -->
  <defs>
    <style>
      .st0 {
        fill: #0eb6ff;
      }
    </style>
  </defs>
  <path class="st0" d="M228.7,156.9c-10.3,0-19.1-1.5-26.4-4.6-7.3-3.1-13.2-7.3-17.9-12.6-4.7-5.4-8.1-11.5-10.5-18.5-2.3-7.1-3.7-14.7-4.1-22.7-.1-3.9-.3-8.2-.4-12.9v-14.4c.1-4.8.3-9.2.4-13.3.3-8,1.7-15.5,4.1-22.4,2.5-7.1,6-13.3,10.7-18.5,4.8-5.2,10.8-9.4,18.1-12.4,7.3-3,15.9-4.6,26-4.6s18.9,1.5,26.2,4.6c7.3,3,13.2,7.2,17.9,12.4,4.8,5.2,8.4,11.4,10.7,18.5,2.5,7,3.9,14.5,4.1,22.4.3,4.1.4,8.5.4,13.3v14.4c0,4.6-.1,8.9-.4,12.9-.3,8-1.6,15.5-3.9,22.7-2.3,7-5.8,13.1-10.5,18.5-4.7,5.4-10.7,9.6-18.1,12.6-7.3,3-16.1,4.6-26.4,4.6ZM228.7,131.8c9.5,0,16.4-3,20.7-9.1,4.5-6.2,6.8-14.7,7-25.3.3-4.2.4-8.4.4-12.6v-13.1c0-4.4-.1-8.5-.4-12.4-.1-10.3-2.5-18.6-7-24.8-4.4-6.4-11.3-9.6-20.7-9.6s-16.2,3.2-20.7,9.6c-4.4,6.2-6.7,14.5-7,24.8,0,3.9,0,8.1-.2,12.4v13.1c.1,4.2.2,8.4.2,12.6.3,10.6,2.7,19,7.2,25.3,4.5,6.1,11.3,9.1,20.5,9.1Z"/>
  <path class="st0" d="M133.6,154.7c-1.5,0-2.7-.5-3.7-1.5-1-1-1.5-2.3-1.5-3.7v-21.6c0-1.6.5-2.9,1.5-3.9,1-1,2.3-1.5,3.7-1.5h21.8c1.5,0,2.7.5,3.7,1.5s1.5,2.3,1.5,3.9v21.6c0,1.5-.5,2.7-1.5,3.7s-2.3,1.5-3.7,1.5h-21.8Z"/>
  <path class="st0" d="M59.8,156.9c-10.2,0-19-1.2-26.4-3.7-7.4-2.5-13.6-5.7-18.5-9.6-4.8-4.1-8.4-8.4-10.9-13.1-2.5-4.8-3.8-9.5-3.9-14.2,0-1.3.4-2.3,1.3-3,1-.9,2.2-1.3,3.5-1.3h19.6c1.5,0,2.7.3,3.7.9,1,.6,1.9,1.7,2.6,3.5,1.3,3.9,3.4,7,6.3,9.4,3.1,2.3,6.5,4,10.5,5,3.9.9,8.1,1.3,12.4,1.3,8.7,0,15.6-2,20.7-6.1,5.2-4.2,7.9-10.2,7.9-17.9s-2.4-13.2-7.2-16.6c-4.8-3.5-11.5-5.2-20.1-5.2h-22.5c-1.6,0-2.9-.4-3.9-1.3-1-1-1.5-2.3-1.5-3.9v-9.1c0-1.5.3-2.7.9-3.7.7-1.2,1.5-2.1,2.2-2.8l39-38.1H13.1c-1.6,0-2.9-.5-3.9-1.5-.9-1-1.3-2.3-1.3-3.7V7.6c0-1.6.4-2.9,1.3-3.9,1-1,2.3-1.5,3.9-1.5h93.6c1.6,0,2.9.5,3.9,1.5,1,1,1.5,2.3,1.5,3.9v13.1c0,1.3-.3,2.5-.9,3.5s-1.2,1.9-2,2.6l-37.7,38.8,2.6.2c8.9.7,16.7,2.8,23.6,6.1,7,3.2,12.4,7.9,16.1,14.2,3.9,6.2,5.9,14.1,5.9,23.5s-2.6,18.4-7.9,25.5c-5.1,7-12.1,12.3-21.2,16.1-9,3.8-19.3,5.7-31,5.7Z"/>
</svg>