<svg width="691" height="139" viewBox="0 0 691 139" fill="none" xmlns="http://www.w3.org/2000/svg">
<g clip-path="url(#clip0_841_367)">
<path fill-rule="evenodd" clip-rule="evenodd" d="M109.815 19.5475C109.75 19.5475 104.041 25.5253 97.0991 32.8026C90.2223 40.0799 84.4484 46.0577 84.3835 46.1226C84.2538 46.2526 83.1509 45.213 76.2092 38.5854C71.7977 34.362 67.9052 30.7234 67.6457 30.4635C67.3862 30.2036 66.8023 29.7487 66.3482 29.4239C65.894 29.099 65.0507 28.5792 64.4668 28.1893C63.8829 27.7995 62.8449 27.2797 62.1313 26.9548C61.4825 26.6299 60.2499 26.1101 59.4065 25.7852C58.5631 25.4603 57.071 25.0055 56.0979 24.6806C55.1247 24.4207 53.438 23.9659 52.4 23.706C51.362 23.5111 49.7401 23.1862 48.7669 22.9913C47.7938 22.8613 45.6529 22.5364 44.031 22.3415C42.4092 22.1466 40.1385 21.9516 38.9708 21.8217C37.8679 21.7567 35.9865 21.6268 34.8187 21.5618C33.651 21.5618 31.7696 21.4318 30.6667 21.3669C29.499 21.3669 26.9688 21.3669 25.0874 21.3019C23.1412 21.3019 21.3895 21.3019 21.1949 21.3019C20.9354 21.3019 20.8057 21.3669 20.7408 21.6268C20.6759 21.8217 20.7408 21.9516 20.8705 22.1466C21.0003 22.2765 26.9688 27.9944 34.17 34.8168C41.3712 41.6393 47.2748 47.2272 47.3397 47.2922C47.4046 47.3572 45.8476 49.1115 39.6195 55.6741C35.3377 60.2224 31.5101 64.3159 31.1208 64.7707C30.7965 65.2255 30.3423 65.8103 30.1477 66.1352C29.9531 66.3951 29.5638 67.0448 29.2395 67.5647C28.98 68.0845 28.461 69.0591 28.1366 69.7738C27.8122 70.4886 27.3581 71.5282 27.1634 72.113C26.9688 72.6977 26.5796 73.7374 26.3849 74.3871C26.1903 75.0369 25.8659 76.1415 25.6713 76.8562C25.4767 77.5709 25.2172 78.7405 25.0226 79.5202C24.8279 80.2999 24.5684 81.7943 24.3738 82.8989C24.1143 84.1985 23.8548 86.4076 23.5953 89.2016C23.3358 91.6057 23.1412 94.2047 23.0763 95.0494C23.0763 95.8941 22.9465 97.3885 22.9465 98.4282C22.9465 99.4678 22.8168 101.807 22.8168 103.626C22.8168 105.446 22.8168 107.785 22.8168 108.889C22.8168 110.449 22.8168 110.839 22.9465 110.968C23.0114 111.033 23.1412 111.098 23.2709 111.098C23.3358 111.098 23.5304 111.033 23.6602 110.904C23.7899 110.774 29.4341 104.861 36.246 97.7134C43.0579 90.5661 48.7021 84.5883 48.7669 84.5233C48.8967 84.3934 49.3508 84.7183 56.9412 91.9956C61.3528 96.219 65.3102 99.8576 65.6345 100.182C66.0238 100.507 66.7374 101.027 67.2564 101.417C67.7754 101.742 68.6188 102.262 69.0729 102.587C69.5919 102.911 70.5651 103.366 71.2787 103.691C71.9923 104.016 73.0303 104.471 73.6142 104.666C74.1981 104.861 75.2361 105.251 75.8849 105.446C76.5336 105.64 77.6365 105.965 78.3501 106.16C79.0637 106.355 80.2964 106.615 81.0749 106.81C81.8534 107.005 83.2806 107.265 84.1889 107.395C85.162 107.59 87.3678 107.85 89.1843 108.045C91.0008 108.239 93.4012 108.499 94.5041 108.564C95.607 108.629 97.4884 108.759 98.5912 108.824C99.6941 108.824 101.576 108.954 102.743 108.954C103.911 108.954 106.441 109.019 108.323 109.019C110.204 109.019 111.891 109.019 112.085 109.019C112.345 109.019 112.475 108.889 112.539 108.759C112.539 108.629 112.539 108.499 112.539 108.434C112.539 108.369 106.506 102.587 99.1751 95.6342C91.8442 88.6818 85.8757 82.9639 85.8757 82.8989C85.8757 82.8989 89.3141 79.1953 93.531 74.777C97.7479 70.3586 101.381 66.525 101.576 66.2651C101.835 66.0052 102.289 65.4204 102.614 64.9656C102.938 64.5108 103.457 63.6661 103.846 63.0163C104.235 62.3666 104.754 61.327 105.079 60.6772C105.403 60.0275 105.857 58.9229 106.117 58.2731C106.376 57.5584 106.766 56.4538 106.96 55.804C107.155 55.1543 107.479 54.0497 107.674 53.27C107.868 52.5552 108.193 51.3207 108.323 50.541C108.517 49.7613 108.777 48.1369 108.971 46.9673C109.231 45.6028 109.49 43.4586 109.75 41.0545C109.944 38.9753 110.204 36.3113 110.269 35.0118C110.269 33.7772 110.399 31.698 110.463 30.3985C110.463 29.099 110.593 26.8898 110.593 25.3954C110.593 23.9009 110.593 22.0166 110.593 21.1719C110.593 19.8074 110.593 19.6125 110.399 19.4176C110.269 19.2876 110.204 19.2227 110.139 19.2227C110.139 19.2227 110.009 19.2227 109.944 19.2227L109.815 19.5475Z" fill="white"/>
<path d="M72.2513 37.4152C72.0567 36.8305 71.9269 36.3107 71.9269 36.2457C71.9269 36.2457 74.8463 39.0396 84.7723 48.4611V49.0459C84.6425 49.3708 84.5128 49.9556 84.383 50.3454C84.2533 50.7353 83.9289 51.385 83.7343 51.7099C83.5396 52.0998 83.1504 52.6846 82.8909 53.0094C82.6314 53.3993 82.1124 54.049 81.7231 54.5039C81.3339 54.9587 80.6202 55.7384 80.1012 56.2582C79.5822 56.778 78.5442 57.6877 77.7657 58.3374C76.9872 58.9872 75.7546 59.8969 74.9761 60.4167C74.1976 60.9365 73.1596 61.6512 72.5108 61.9761C71.9269 62.301 70.6943 63.0157 69.8509 63.4705C68.9427 63.9254 68.229 64.3152 68.229 64.3152C68.229 64.3152 68.229 64.5101 68.3588 64.77C68.4237 65.0299 68.4885 65.4198 68.4237 65.6147C68.4237 65.8097 68.2939 66.1345 68.229 66.2645C68.0993 66.4594 68.0993 66.4594 68.8129 66.7843C69.2022 66.9792 69.9807 67.3041 70.4997 67.499C71.0187 67.694 72.1864 68.1488 73.0947 68.5386C74.003 68.8635 75.4951 69.3833 76.3385 69.7082C77.1818 69.9681 78.4793 70.358 79.193 70.5529C79.9066 70.7478 80.8797 71.0077 81.3987 71.0727C81.9177 71.2027 83.2152 71.3976 84.2533 71.5925C85.4859 71.7874 86.6536 71.9174 87.497 71.9174C88.2107 71.9174 89.1838 71.9174 89.6379 71.9174C90.1569 71.9174 91.0003 71.8524 91.5193 71.7874C92.0383 71.7225 92.8168 71.5925 93.2061 71.5275C93.5953 71.4626 94.3089 71.2676 94.7631 71.0727C95.2172 70.9427 95.6713 70.8128 95.6713 70.8128C95.6713 70.8128 92.9466 73.7367 83.4748 83.678L82.6314 83.5481C81.9177 83.4831 81.5934 83.3531 80.9446 83.0282C80.4905 82.8333 79.712 82.3785 79.2579 82.0536C78.8037 81.7287 78.0252 81.1439 77.5062 80.7541C76.9872 80.3642 76.2087 79.5845 75.6897 79.1297C75.1707 78.6099 74.0678 77.3754 73.2244 76.2708C72.3811 75.1662 71.2782 73.7367 70.8889 73.087C70.4348 72.4372 69.7861 71.3326 69.3968 70.6828C69.0075 70.0331 68.4237 68.9935 68.0993 68.3437C67.7749 67.694 67.5154 67.1742 67.5154 67.1742C67.5154 67.1742 67.3208 67.1742 67.0613 67.3041C66.8018 67.3691 66.4125 67.4341 66.2179 67.3691C66.0233 67.3691 65.6989 67.2391 65.5692 67.1742C65.3745 67.0442 65.3745 67.0442 65.0502 67.7589C64.8555 68.2138 64.5311 69.0584 64.2716 69.6432C64.0121 70.293 63.6229 71.3326 63.2985 72.0473C63.039 72.7621 62.5849 73.9966 62.3254 74.8413C62.0659 75.686 61.6766 76.9205 61.482 77.5703C61.2874 78.22 61.0279 79.3246 60.8333 80.1043C60.6386 81.079 60.444 82.1836 60.1845 84.0679C59.9899 85.7572 59.8601 87.0567 59.8601 87.6415C59.8601 88.1613 59.8601 89.071 59.9899 89.6558C59.9899 90.3055 60.1845 91.2802 60.3142 91.865C60.444 92.4497 60.6386 93.2944 60.8333 93.7492C60.963 94.2041 61.0928 94.5939 61.0279 94.5939C61.0279 94.5939 58.1085 91.865 48.1177 82.3785L48.2474 81.5338C48.3772 80.949 48.5069 80.4942 48.7664 79.8444C48.9611 79.3896 49.4152 78.6099 49.7396 78.1551C50.0639 77.7002 50.6478 76.9205 51.0371 76.4007C51.4263 75.8809 52.2048 75.1012 52.7238 74.5814C53.2428 74.0616 54.4755 73.022 55.4486 72.2423C56.4217 71.4626 57.7192 70.4879 58.3031 70.0981C58.887 69.7082 59.925 69.0584 60.6386 68.6036C61.3523 68.1488 62.52 67.499 63.2985 67.1092C64.077 66.7193 64.6609 66.3944 64.6609 66.3944C64.6609 66.3944 64.6609 66.1345 64.5311 65.8746C64.4014 65.4848 64.4014 65.2899 64.6609 64.2502L63.8175 63.8604C63.3634 63.6655 62.5849 63.3406 62.1308 63.1457C61.6766 62.9507 60.7035 62.5609 59.8601 62.236C59.0816 61.9111 57.7192 61.4563 56.8759 61.1964C56.0325 60.9365 54.7998 60.5466 54.1511 60.3517C53.5023 60.1568 52.3346 59.8969 51.5561 59.7019C50.5829 59.507 49.3503 59.2471 47.7284 59.0522C46.3012 58.8573 44.9388 58.7923 44.3549 58.7923C43.8359 58.7923 42.8628 58.7923 42.214 58.9222C41.5653 58.9222 40.5921 59.1172 40.0731 59.1821C39.5541 59.3121 38.7108 59.507 38.1269 59.637C37.6079 59.8319 37.0889 59.8969 37.0889 59.8969C37.0889 59.8969 39.8136 56.973 49.2854 47.0317H49.8693C50.1937 47.1616 50.7776 47.2916 51.1668 47.4215C51.5561 47.5515 52.2697 47.8763 52.659 48.1362C53.1131 48.3961 53.8267 48.916 54.3457 49.3058C54.8647 49.6957 55.7081 50.4104 56.2271 50.9302C56.7461 51.45 57.6544 52.3597 58.2382 53.0744C58.8221 53.7242 59.6655 54.8288 60.1845 55.4785C60.6386 56.1283 61.3523 57.1679 61.7415 57.7527C62.1308 58.3374 62.8444 59.442 63.2985 60.2217C63.7526 61.0015 64.3365 62.0411 64.596 62.5609C64.8555 63.0807 65.0501 63.4705 65.115 63.5355C65.115 63.5355 65.3745 63.5355 65.634 63.4705C65.8935 63.4056 66.2828 63.3406 66.4774 63.4056C66.672 63.4056 66.9315 63.4705 67.0613 63.5355C67.2559 63.6655 67.2559 63.5355 67.7749 62.4309C68.0993 61.7812 68.6832 60.3517 69.0724 59.2471C69.4617 58.2075 70.1104 56.5181 70.4348 55.4785C70.7592 54.5039 71.1484 53.2044 71.2782 52.6846C71.4079 52.0998 71.6674 51.1251 71.7972 50.4104C71.9269 49.7606 72.1864 48.4611 72.3162 47.5515C72.4459 46.5768 72.5757 45.3423 72.6406 44.4326C72.6406 43.5879 72.6406 42.4184 72.6406 41.7686C72.6406 41.1189 72.5108 40.0792 72.3811 39.4945C72.2513 38.8447 72.0567 37.8701 71.8621 37.2853L72.2513 37.4152Z" fill="#0C0D0F"/>
<path d="M137.815 62.8216C137.556 62.8216 137.361 62.7566 137.102 62.5617C136.907 62.3668 136.842 62.1718 136.842 61.847C136.842 61.5221 136.842 61.5871 136.907 61.4571L147.871 32.0231C147.936 31.6982 148.131 31.4383 148.39 31.2434C148.65 30.9835 149.039 30.8535 149.493 30.8535H154.488C154.943 30.8535 155.267 30.9835 155.526 31.2434C155.786 31.4383 155.981 31.6982 156.045 32.0231L167.009 61.4571C167.009 61.5871 167.009 61.717 167.009 61.847C167.009 62.1069 166.944 62.3668 166.75 62.5617C166.555 62.7566 166.361 62.8216 166.101 62.8216H162.144C161.69 62.8216 161.43 62.7566 161.171 62.5617C160.976 62.3668 160.846 62.1718 160.781 61.9769L158.64 56.389H145.081L142.941 61.9769C142.941 62.1718 142.746 62.3668 142.551 62.5617C142.357 62.7566 142.032 62.8216 141.643 62.8216H137.686H137.815ZM146.833 51.126H157.213L152.023 37.0262L146.898 51.126H146.833Z" fill="white"/>
<path d="M171.161 62.8216C170.837 62.8216 170.577 62.6917 170.382 62.4967C170.188 62.3018 170.058 62.0419 170.058 61.717V31.9581C170.058 31.6332 170.188 31.3733 170.382 31.1784C170.577 30.9835 170.837 30.8535 171.161 30.8535H175.443C175.767 30.8535 176.027 30.9835 176.221 31.1784C176.416 31.3733 176.546 31.6332 176.546 31.9581V61.717C176.546 62.0419 176.416 62.3018 176.221 62.4967C176.027 62.6917 175.767 62.8216 175.443 62.8216H171.161Z" fill="white"/>
<path d="M183.423 62.8241C183.099 62.8241 182.839 62.6941 182.645 62.4992C182.45 62.3043 182.32 62.0444 182.32 61.7195V31.9606C182.32 31.6357 182.45 31.3758 182.645 31.1159C182.839 30.921 183.099 30.791 183.423 30.791H195.231C198.928 30.791 201.783 31.6357 203.924 33.3251C206.065 35.0144 207.103 37.4835 207.103 40.7973C207.103 44.1111 206.519 44.9557 205.416 46.3852C204.313 47.8797 202.821 48.9842 201.004 49.634L207.687 61.2647C207.751 61.4596 207.816 61.5895 207.816 61.7845C207.816 62.0444 207.687 62.3043 207.492 62.4992C207.297 62.6941 207.103 62.7591 206.843 62.7591H202.691C202.172 62.7591 201.783 62.6292 201.523 62.3693C201.264 62.1094 201.004 61.8494 200.875 61.5246L194.971 50.6736H188.613V61.6545C188.613 61.9794 188.483 62.2393 188.289 62.4342C188.094 62.6292 187.835 62.7591 187.51 62.7591H183.358L183.423 62.8241ZM188.678 45.6055H195.101C196.982 45.6055 198.345 45.2156 199.253 44.371C200.161 43.5263 200.615 42.3567 200.615 40.7973C200.615 39.2379 200.161 38.0683 199.253 37.2236C198.345 36.314 196.982 35.9241 195.101 35.9241H188.678V45.6055Z" fill="white"/>
<path d="M212.746 62.8241C212.422 62.8241 212.163 62.6941 211.968 62.4992C211.773 62.3043 211.644 62.0444 211.644 61.7195V31.9606C211.644 31.6357 211.773 31.3758 211.968 31.1159C212.163 30.921 212.422 30.791 212.746 30.791H232.533C232.858 30.791 233.117 30.921 233.377 31.1159C233.571 31.3108 233.701 31.5707 233.701 31.9606V35.1444C233.701 35.4693 233.571 35.7292 233.377 35.9891C233.182 36.184 232.858 36.249 232.533 36.249H217.872V44.9557H231.625C231.95 44.9557 232.209 45.0857 232.469 45.2806C232.663 45.4755 232.793 45.7355 232.793 46.1253V49.3091C232.793 49.634 232.663 49.8939 232.469 50.0888C232.274 50.2838 231.95 50.4137 231.625 50.4137H217.872V61.7195C217.872 62.0444 217.742 62.3043 217.547 62.4992C217.353 62.6941 217.028 62.8241 216.704 62.8241H212.682H212.746Z" fill="white"/>
<path d="M238.761 62.8216C238.437 62.8216 238.177 62.6917 237.983 62.4967C237.788 62.3018 237.658 62.0419 237.658 61.717V31.9581C237.658 31.6332 237.788 31.3733 237.983 31.1784C238.177 30.9835 238.437 30.8535 238.761 30.8535H242.978C243.302 30.8535 243.562 30.9835 243.756 31.1784C243.951 31.3733 244.081 31.6332 244.081 31.9581V57.4286H258.548C258.872 57.4286 259.132 57.5586 259.391 57.7535C259.586 57.9484 259.716 58.2083 259.716 58.5982V61.782C259.716 62.1069 259.586 62.3668 259.391 62.5617C259.197 62.7566 258.872 62.8866 258.548 62.8866H238.761V62.8216Z" fill="white"/>
<path d="M274.637 63.2781C271.913 63.2781 269.577 62.8233 267.631 61.9786C265.685 61.069 264.192 59.7045 263.09 57.8202C261.987 55.9359 261.403 53.5967 261.338 50.8028C261.338 49.5033 261.338 48.2038 261.338 46.9042C261.338 45.6047 261.338 44.3052 261.338 43.0057C261.403 40.2117 262.052 37.9376 263.154 36.0533C264.257 34.169 265.814 32.8045 267.761 31.8299C269.707 30.8552 272.042 30.4004 274.637 30.4004C277.232 30.4004 279.568 30.8552 281.514 31.8299C283.46 32.8045 285.017 34.169 286.185 36.0533C287.353 37.9376 287.937 40.2117 288.002 43.0057C288.002 44.3702 288.067 45.6697 288.067 46.9042C288.067 48.1388 288.067 49.5033 288.002 50.8028C287.937 53.5967 287.288 55.9359 286.25 57.8202C285.147 59.7045 283.59 61.069 281.644 61.9786C279.698 62.8883 277.362 63.2781 274.637 63.2781ZM274.637 58.0151C276.584 58.0151 278.205 57.4303 279.503 56.2608C280.736 55.0912 281.449 53.1419 281.514 50.4779C281.514 49.1134 281.579 47.8789 281.579 46.7743C281.579 45.6697 281.579 44.3702 281.514 43.0707C281.514 41.3163 281.125 39.8869 280.541 38.7823C279.957 37.6777 279.179 36.833 278.141 36.3782C277.167 35.8584 276 35.5985 274.702 35.5985C273.405 35.5985 272.302 35.8584 271.264 36.3782C270.291 36.833 269.447 37.6777 268.863 38.7823C268.28 39.8869 267.955 41.3163 267.89 43.0707C267.89 44.3702 267.89 45.6047 267.89 46.7743C267.89 47.9439 267.89 49.1134 267.89 50.4779C267.955 53.1419 268.669 55.0262 269.901 56.2608C271.134 57.4303 272.756 58.0151 274.702 58.0151H274.637Z" fill="white"/>
<path d="M297.539 62.8227C297.085 62.8227 296.695 62.6927 296.436 62.4328C296.176 62.1729 296.047 61.848 295.917 61.4582L290.467 32.1541C290.467 32.0891 290.467 31.9591 290.467 31.8942V31.7642C290.467 31.5043 290.532 31.2444 290.727 31.0495C290.921 30.8546 291.181 30.7896 291.44 30.7896H295.463C296.241 30.7896 296.63 31.1145 296.76 31.6992L300.523 52.3615L304.61 38.9765C304.675 38.7166 304.87 38.5217 305.064 38.2618C305.324 38.0019 305.648 37.8719 306.102 37.8719H308.568C309.087 37.8719 309.411 38.0019 309.606 38.2618C309.8 38.5217 309.93 38.7166 309.995 38.9765L314.147 52.2966L317.91 31.6343C317.974 31.0495 318.429 30.7246 319.207 30.7246H323.229C323.489 30.7246 323.683 30.7896 323.878 30.9845C324.073 31.1794 324.138 31.3744 324.138 31.6992V31.8292C324.138 31.8292 324.138 31.9591 324.138 32.0891L318.688 61.3932C318.688 61.783 318.429 62.1079 318.169 62.3678C317.91 62.6277 317.52 62.7577 317.066 62.7577H314.017C313.563 62.7577 313.174 62.6277 312.914 62.3678C312.655 62.1079 312.525 61.848 312.395 61.5881L307.27 46.3188L302.145 61.5881C302.015 61.848 301.82 62.1079 301.626 62.3678C301.366 62.6277 301.042 62.7577 300.523 62.7577H297.474L297.539 62.8227Z" fill="white"/>
<path d="M152.607 103.954C149.428 103.954 146.833 103.499 144.692 102.589C142.616 101.614 140.994 100.445 139.826 98.9504C138.723 97.391 138.14 95.8315 138.075 94.1422C138.075 93.8173 138.204 93.5574 138.399 93.3625C138.594 93.1675 138.853 93.0376 139.178 93.0376H143.719C144.173 93.0376 144.497 93.1675 144.692 93.3625C144.952 93.5574 145.146 93.7523 145.276 94.0122C145.471 94.662 145.86 95.3117 146.444 95.9615C147.028 96.5463 147.806 97.0661 148.779 97.5209C149.817 97.9108 151.05 98.1057 152.607 98.1057C155.072 98.1057 156.889 97.7158 158.056 96.8711C159.289 96.0265 159.873 94.9219 159.873 93.5574C159.873 92.1929 159.548 91.803 158.9 91.2183C158.251 90.6335 157.278 90.0487 155.915 89.5939C154.618 89.0741 152.801 88.5542 150.596 88.0344C148.066 87.4497 145.925 86.6699 144.173 85.8253C142.486 84.9156 141.189 83.811 140.28 82.5115C139.437 81.212 138.983 79.5226 138.983 77.4434C138.983 75.3642 139.502 73.7398 140.54 72.1803C141.643 70.6209 143.135 69.4514 145.146 68.5417C147.157 67.632 149.493 67.2422 152.282 67.2422C155.072 67.2422 156.434 67.5671 158.121 68.1518C159.808 68.7366 161.235 69.5163 162.338 70.491C163.441 71.4656 164.284 72.5052 164.868 73.6098C165.452 74.7144 165.776 75.754 165.841 76.7936C165.841 77.0535 165.712 77.3134 165.517 77.5733C165.322 77.7683 165.063 77.8982 164.738 77.8982H160.003C159.743 77.8982 159.484 77.8332 159.159 77.7033C158.9 77.5733 158.64 77.3134 158.51 76.9236C158.316 75.884 157.667 74.9743 156.499 74.1946C155.396 73.4149 153.969 73.09 152.153 73.09C150.336 73.09 148.844 73.4149 147.741 74.1296C146.638 74.7794 146.054 75.884 146.054 77.3134C146.054 78.7429 146.314 79.0678 146.898 79.7175C147.482 80.3023 148.39 80.8871 149.623 81.3419C150.855 81.7968 152.542 82.3166 154.553 82.9014C157.408 83.5511 159.808 84.2658 161.624 85.1755C163.441 86.0202 164.803 87.1248 165.647 88.4243C166.49 89.7238 166.944 91.3482 166.944 93.3625C166.944 95.3767 166.36 97.5209 165.128 99.1453C163.96 100.705 162.273 101.939 160.067 102.784C157.927 103.629 155.396 104.083 152.477 104.083L152.607 103.954Z" fill="white"/>
<path d="M185.563 103.951C182.579 103.951 180.049 103.431 177.908 102.456C175.767 101.417 174.08 99.8573 172.848 97.843C171.68 95.7638 171.096 93.0348 171.096 89.786V69.0588C171.096 68.6689 171.226 68.409 171.421 68.1491C171.68 67.8892 171.94 67.8242 172.264 67.8242H176.87C177.259 67.8242 177.519 67.9542 177.713 68.1491C177.973 68.409 178.038 68.6689 178.038 69.0588V89.786C178.038 92.58 178.687 94.6592 180.049 96.0237C181.347 97.3232 183.163 98.038 185.499 98.038C187.834 98.038 189.586 97.3882 190.883 96.0237C192.181 94.6592 192.894 92.58 192.894 89.786V69.0588C192.894 68.6689 193.024 68.409 193.219 68.1491C193.478 67.8892 193.738 67.8242 194.127 67.8242H198.733C199.122 67.8242 199.382 67.9542 199.576 68.1491C199.836 68.409 199.901 68.6689 199.901 69.0588V89.786C199.901 93.0348 199.317 95.7638 198.149 97.843C196.981 99.9223 195.36 101.482 193.154 102.456C191.013 103.431 188.483 103.951 185.499 103.951H185.563Z" fill="white"/>
<path d="M207.362 103.431C206.972 103.431 206.713 103.301 206.453 103.106C206.194 102.911 206.129 102.586 206.129 102.261V69.0588C206.129 68.6689 206.259 68.409 206.453 68.1491C206.713 67.8892 206.972 67.8242 207.362 67.8242H211.384C211.838 67.8242 212.227 67.9542 212.422 68.2141C212.681 68.474 212.811 68.6689 212.876 68.7989L222.672 87.122L232.598 68.7989C232.663 68.6689 232.793 68.474 233.052 68.2141C233.312 67.9542 233.636 67.8242 234.09 67.8242H238.048C238.437 67.8242 238.696 67.9542 238.956 68.1491C239.215 68.409 239.345 68.6689 239.345 69.0588V102.261C239.345 102.586 239.215 102.911 238.956 103.106C238.696 103.366 238.437 103.431 238.048 103.431H233.766C233.377 103.431 233.117 103.301 232.858 103.106C232.663 102.846 232.533 102.586 232.533 102.261V80.1696L225.397 93.7496C225.202 94.0744 225.008 94.3343 224.748 94.5942C224.489 94.7892 224.099 94.9191 223.71 94.9191H221.634C221.18 94.9191 220.791 94.7892 220.531 94.5942C220.272 94.3343 220.077 94.0744 219.947 93.7496L212.811 80.1696V102.261C212.811 102.586 212.681 102.911 212.487 103.106C212.292 103.301 211.968 103.431 211.643 103.431H207.362Z" fill="white"/>
<path d="M247.13 103.431C246.741 103.431 246.481 103.301 246.222 103.106C245.962 102.846 245.897 102.586 245.897 102.261V69.0588C245.897 68.6689 246.027 68.409 246.222 68.1491C246.481 67.8892 246.741 67.8242 247.13 67.8242H251.152C251.606 67.8242 251.996 67.9542 252.19 68.2141C252.45 68.474 252.58 68.6689 252.644 68.7989L262.441 87.122L272.367 68.7989C272.431 68.6689 272.561 68.474 272.821 68.2141C273.08 67.9542 273.405 67.8242 273.859 67.8242H277.816C278.205 67.8242 278.465 67.9542 278.724 68.1491C278.984 68.409 279.049 68.6689 279.049 69.0588V102.261C279.049 102.586 278.919 102.911 278.724 103.106C278.465 103.366 278.205 103.431 277.816 103.431H273.534C273.145 103.431 272.886 103.301 272.626 103.106C272.431 102.846 272.302 102.586 272.302 102.261V80.1696L265.165 93.7496C264.971 94.0744 264.776 94.3343 264.517 94.5942C264.257 94.7892 263.868 94.9191 263.479 94.9191H261.403C260.949 94.9191 260.559 94.7892 260.3 94.5942C260.04 94.3343 259.846 94.0744 259.716 93.7496L252.58 80.1696V102.261C252.58 102.586 252.45 102.911 252.255 103.106C252.061 103.301 251.736 103.431 251.412 103.431H247.13Z" fill="white"/>
<path d="M286.769 103.431C286.445 103.431 286.121 103.301 285.926 103.106C285.666 102.846 285.602 102.586 285.602 102.261V68.9938C285.602 68.6689 285.731 68.344 285.926 68.1491C286.185 67.8892 286.445 67.8242 286.769 67.8242H291.57C291.959 67.8242 292.219 67.9542 292.413 68.1491C292.673 68.409 292.738 68.6689 292.738 68.9938V102.261C292.738 102.586 292.608 102.911 292.413 103.106C292.219 103.366 291.894 103.431 291.57 103.431H286.769Z" fill="white"/>
<path d="M308.307 103.432C307.983 103.432 307.659 103.302 307.464 103.108C307.269 102.913 307.14 102.588 307.14 102.263V74.0633H297.733C297.408 74.0633 297.084 73.9334 296.889 73.7384C296.63 73.4785 296.565 73.2186 296.565 72.8938V69.1252C296.565 68.7353 296.695 68.4754 296.889 68.2155C297.149 67.9556 297.408 67.8906 297.733 67.8906H323.683C324.072 67.8906 324.332 68.0206 324.591 68.2155C324.851 68.4754 324.915 68.7353 324.915 69.1252V72.8938C324.915 73.2186 324.786 73.5435 324.591 73.7384C324.332 73.9984 324.072 74.0633 323.683 74.0633H314.341V102.263C314.341 102.588 314.211 102.913 314.016 103.108C313.822 103.302 313.497 103.432 313.108 103.432H308.437H308.307Z" fill="white"/>
<path d="M325.045 62.8215C324.656 62.8215 324.267 62.7565 323.878 62.5616C323.553 62.4317 323.229 62.1718 322.969 61.9119C322.71 61.652 322.515 61.3271 322.321 61.0022C322.191 60.6773 322.061 60.2875 322.061 59.8326C322.061 59.3778 322.126 59.0529 322.321 58.6631C322.45 58.3382 322.71 58.0133 322.969 57.7534C323.229 57.4935 323.553 57.2986 323.878 57.1037C324.202 56.9737 324.591 56.8438 325.045 56.8438C325.499 56.8438 325.824 56.9087 326.213 57.1037C326.537 57.2336 326.862 57.4935 327.121 57.7534C327.381 58.0133 327.575 58.3382 327.77 58.6631C327.9 58.988 328.03 59.3778 328.03 59.8326C328.03 60.2875 327.965 60.6123 327.77 61.0022C327.64 61.3271 327.381 61.652 327.121 61.9119C326.862 62.1718 326.537 62.3667 326.213 62.5616C325.889 62.6916 325.499 62.8215 325.045 62.8215ZM325.045 62.3017C325.37 62.3017 325.694 62.3017 325.954 62.1068C326.213 61.9768 326.473 61.7819 326.732 61.587C326.927 61.3921 327.121 61.1322 327.251 60.8073C327.381 60.4824 327.446 60.2225 327.446 59.8326C327.446 59.4428 327.446 59.1829 327.251 58.858C327.121 58.5331 326.927 58.2732 326.732 58.0783C326.537 57.8834 326.278 57.6884 325.954 57.5585C325.694 57.4285 325.37 57.3636 325.045 57.3636C324.721 57.3636 324.397 57.3636 324.137 57.5585C323.878 57.6884 323.618 57.8834 323.359 58.0783C323.164 58.2732 322.969 58.5331 322.84 58.858C322.71 59.1829 322.645 59.4428 322.645 59.8326C322.645 60.2225 322.645 60.4824 322.84 60.8073C322.969 61.1322 323.164 61.3921 323.359 61.587C323.553 61.7819 323.813 61.9768 324.137 62.1068C324.397 62.2367 324.721 62.3017 325.045 62.3017ZM324.137 61.3271C324.007 61.3271 323.942 61.3271 323.942 61.1322V58.4681C323.942 58.3382 323.942 58.2732 324.137 58.2732H325.24C325.435 58.2732 325.629 58.2732 325.824 58.3382C326.018 58.3382 326.148 58.4681 326.278 58.6631C326.408 58.793 326.408 58.9879 326.408 59.2479C326.408 59.5078 326.408 59.6377 326.278 59.7677C326.148 59.8976 326.018 60.0276 325.889 60.0925L326.408 61.0022C326.408 61.0022 326.408 61.0022 326.408 61.0672C326.408 61.0672 326.408 61.1322 326.408 61.1971C326.408 61.1971 326.343 61.1971 326.278 61.1971H326.083H325.954C325.954 61.1971 325.889 61.1322 325.824 61.0672L325.305 60.1575H324.656V61.0672C324.656 61.1971 324.656 61.2621 324.461 61.2621H324.202L324.137 61.3271ZM324.526 59.7027H325.175C325.37 59.7027 325.564 59.7027 325.629 59.5727C325.694 59.4428 325.759 59.3778 325.759 59.2479C325.759 59.1179 325.759 59.0529 325.629 58.923C325.499 58.793 325.435 58.793 325.175 58.793H324.526V59.6377V59.7027Z" fill="white"/>
<path d="M354 19V121" stroke="white"/>
<path d="M399.528 62.38C397.197 62.38 395.171 62 393.448 61.24C391.725 60.48 390.383 59.34 389.42 57.82C388.457 56.2747 387.925 54.3493 387.824 52.044C387.799 50.9547 387.786 49.8653 387.786 48.776C387.786 47.6867 387.799 46.5847 387.824 45.47C387.925 43.19 388.457 41.2773 389.42 39.732C390.408 38.1613 391.763 36.9833 393.486 36.198C395.209 35.4127 397.223 35.02 399.528 35.02C401.808 35.02 403.809 35.4127 405.532 36.198C407.28 36.9833 408.648 38.1613 409.636 39.732C410.624 41.2773 411.156 43.19 411.232 45.47C411.283 46.5847 411.308 47.6867 411.308 48.776C411.308 49.8653 411.283 50.9547 411.232 52.044C411.131 54.3493 410.599 56.2747 409.636 57.82C408.673 59.34 407.331 60.48 405.608 61.24C403.885 62 401.859 62.38 399.528 62.38ZM399.528 56.908C400.871 56.908 401.96 56.5027 402.796 55.692C403.657 54.8813 404.113 53.5893 404.164 51.816C404.215 50.7013 404.24 49.65 404.24 48.662C404.24 47.674 404.215 46.648 404.164 45.584C404.113 44.3933 403.885 43.4307 403.48 42.696C403.1 41.936 402.568 41.3787 401.884 41.024C401.2 40.6693 400.415 40.492 399.528 40.492C398.667 40.492 397.894 40.6693 397.21 41.024C396.526 41.3787 395.981 41.936 395.576 42.696C395.171 43.4307 394.943 44.3933 394.892 45.584C394.867 46.648 394.854 47.674 394.854 48.662C394.854 49.65 394.867 50.7013 394.892 51.816C394.968 53.5893 395.424 54.8813 396.26 55.692C397.096 56.5027 398.185 56.908 399.528 56.908ZM421.413 62C421.134 62 420.906 61.9113 420.729 61.734C420.551 61.5567 420.463 61.3287 420.463 61.05V36.35C420.463 36.0713 420.551 35.8433 420.729 35.666C420.906 35.4887 421.134 35.4 421.413 35.4H425.441C425.871 35.4 426.175 35.5013 426.353 35.704C426.555 35.8813 426.682 36.0207 426.733 36.122L436.005 50.752V36.35C436.005 36.0713 436.093 35.8433 436.271 35.666C436.448 35.4887 436.676 35.4 436.955 35.4H441.515C441.793 35.4 442.021 35.4887 442.199 35.666C442.376 35.8433 442.465 36.0713 442.465 36.35V61.05C442.465 61.3033 442.376 61.5313 442.199 61.734C442.021 61.9113 441.793 62 441.515 62H437.449C437.043 62 436.739 61.8987 436.537 61.696C436.359 61.4933 436.245 61.354 436.195 61.278L426.923 47.218V61.05C426.923 61.3287 426.834 61.5567 426.657 61.734C426.479 61.9113 426.251 62 425.973 62H421.413ZM453.475 62C453.197 62 452.969 61.9113 452.791 61.734C452.614 61.5567 452.525 61.3287 452.525 61.05V36.35C452.525 36.0713 452.614 35.8433 452.791 35.666C452.969 35.4887 453.197 35.4 453.475 35.4H458.491C458.745 35.4 458.96 35.4887 459.137 35.666C459.34 35.8433 459.441 36.0713 459.441 36.35V56.262H470.917C471.196 56.262 471.424 56.3633 471.601 56.566C471.804 56.7433 471.905 56.9713 471.905 57.25V61.05C471.905 61.3287 471.804 61.5567 471.601 61.734C471.424 61.9113 471.196 62 470.917 62H453.475ZM480.899 62C480.62 62 480.392 61.9113 480.215 61.734C480.038 61.5567 479.949 61.3287 479.949 61.05V36.35C479.949 36.0713 480.038 35.8433 480.215 35.666C480.392 35.4887 480.62 35.4 480.899 35.4H485.991C486.27 35.4 486.498 35.4887 486.675 35.666C486.852 35.8433 486.941 36.0713 486.941 36.35V61.05C486.941 61.3287 486.852 61.5567 486.675 61.734C486.498 61.9113 486.27 62 485.991 62H480.899ZM497.969 62C497.691 62 497.463 61.9113 497.285 61.734C497.108 61.5567 497.019 61.3287 497.019 61.05V36.35C497.019 36.0713 497.108 35.8433 497.285 35.666C497.463 35.4887 497.691 35.4 497.969 35.4H501.997C502.428 35.4 502.732 35.5013 502.909 35.704C503.112 35.8813 503.239 36.0207 503.289 36.122L512.561 50.752V36.35C512.561 36.0713 512.65 35.8433 512.827 35.666C513.005 35.4887 513.233 35.4 513.511 35.4H518.071C518.35 35.4 518.578 35.4887 518.755 35.666C518.933 35.8433 519.021 36.0713 519.021 36.35V61.05C519.021 61.3033 518.933 61.5313 518.755 61.734C518.578 61.9113 518.35 62 518.071 62H514.005C513.6 62 513.296 61.8987 513.093 61.696C512.916 61.4933 512.802 61.354 512.751 61.278L503.479 47.218V61.05C503.479 61.3287 503.391 61.5567 503.213 61.734C503.036 61.9113 502.808 62 502.529 62H497.969ZM530.032 62C529.753 62 529.525 61.9113 529.348 61.734C529.171 61.5567 529.082 61.3287 529.082 61.05V36.35C529.082 36.0713 529.171 35.8433 529.348 35.666C529.525 35.4887 529.753 35.4 530.032 35.4H547.778C548.057 35.4 548.285 35.4887 548.462 35.666C548.639 35.8433 548.728 36.0713 548.728 36.35V39.922C548.728 40.2007 548.639 40.4287 548.462 40.606C548.285 40.7833 548.057 40.872 547.778 40.872H535.656V46.002H546.942C547.221 46.002 547.449 46.1033 547.626 46.306C547.803 46.4833 547.892 46.7113 547.892 46.99V50.296C547.892 50.5493 547.803 50.7773 547.626 50.98C547.449 51.1573 547.221 51.246 546.942 51.246H535.656V56.528H548.082C548.361 56.528 548.589 56.6167 548.766 56.794C548.943 56.9713 549.032 57.1993 549.032 57.478V61.05C549.032 61.3287 548.943 61.5567 548.766 61.734C548.589 61.9113 548.361 62 548.082 62H530.032ZM389.61 98C389.331 98 389.103 97.9113 388.926 97.734C388.749 97.5567 388.66 97.3287 388.66 97.05V72.35C388.66 72.0713 388.749 71.8433 388.926 71.666C389.103 71.4887 389.331 71.4 389.61 71.4H399.946C403.214 71.4 405.785 72.16 407.66 73.68C409.56 75.1747 410.51 77.3027 410.51 80.064C410.51 81.8627 410.067 83.3827 409.18 84.624C408.319 85.8653 407.179 86.8027 405.76 87.436L411.004 96.784C411.08 96.936 411.118 97.0753 411.118 97.202C411.118 97.4047 411.029 97.5947 410.852 97.772C410.7 97.924 410.51 98 410.282 98H405.266C404.785 98 404.43 97.886 404.202 97.658C403.974 97.4047 403.809 97.1767 403.708 96.974L399.376 88.614H395.462V97.05C395.462 97.3287 395.373 97.5567 395.196 97.734C395.019 97.9113 394.791 98 394.512 98H389.61ZM395.462 83.256H399.87C401.061 83.256 401.947 82.9647 402.53 82.382C403.138 81.7993 403.442 81.0013 403.442 79.988C403.442 79 403.151 78.202 402.568 77.594C402.011 76.986 401.111 76.682 399.87 76.682H395.462V83.256ZM420.633 98C420.355 98 420.127 97.9113 419.949 97.734C419.772 97.5567 419.683 97.3287 419.683 97.05V72.35C419.683 72.0713 419.772 71.8433 419.949 71.666C420.127 71.4887 420.355 71.4 420.633 71.4H438.379C438.658 71.4 438.886 71.4887 439.063 71.666C439.241 71.8433 439.329 72.0713 439.329 72.35V75.922C439.329 76.2007 439.241 76.4287 439.063 76.606C438.886 76.7833 438.658 76.872 438.379 76.872H426.257V82.002H437.543C437.822 82.002 438.05 82.1033 438.227 82.306C438.405 82.4833 438.493 82.7113 438.493 82.99V86.296C438.493 86.5493 438.405 86.7773 438.227 86.98C438.05 87.1573 437.822 87.246 437.543 87.246H426.257V92.528H438.683C438.962 92.528 439.19 92.6167 439.367 92.794C439.545 92.9713 439.633 93.1993 439.633 93.478V97.05C439.633 97.3287 439.545 97.5567 439.367 97.734C439.19 97.9113 438.962 98 438.683 98H420.633ZM459.386 98.38C456.98 98.38 454.915 97.9873 453.192 97.202C451.495 96.4167 450.165 95.264 449.202 93.744C448.265 92.224 447.746 90.3367 447.644 88.082C447.619 87.0433 447.606 85.9287 447.606 84.738C447.606 83.5473 447.619 82.4073 447.644 81.318C447.746 79.114 448.278 77.252 449.24 75.732C450.203 74.1867 451.546 73.0213 453.268 72.236C454.991 71.4253 457.03 71.02 459.386 71.02C461.058 71.02 462.604 71.2353 464.022 71.666C465.441 72.0713 466.682 72.6793 467.746 73.49C468.81 74.2753 469.634 75.238 470.216 76.378C470.824 77.4927 471.141 78.7593 471.166 80.178C471.192 80.406 471.116 80.596 470.938 80.748C470.786 80.9 470.596 80.976 470.368 80.976H465.238C464.909 80.976 464.656 80.9127 464.478 80.786C464.301 80.634 464.149 80.368 464.022 79.988C463.668 78.6453 463.085 77.7333 462.274 77.252C461.489 76.7453 460.514 76.492 459.348 76.492C457.955 76.492 456.853 76.8847 456.042 77.67C455.232 78.43 454.788 79.7093 454.712 81.508C454.636 83.5853 454.636 85.7133 454.712 87.892C454.788 89.6907 455.232 90.9827 456.042 91.768C456.853 92.528 457.955 92.908 459.348 92.908C460.514 92.908 461.502 92.6547 462.312 92.148C463.123 91.6413 463.693 90.7293 464.022 89.412C464.124 89.032 464.263 88.7787 464.44 88.652C464.643 88.5 464.909 88.424 465.238 88.424H470.368C470.596 88.424 470.786 88.5 470.938 88.652C471.116 88.804 471.192 88.994 471.166 89.222C471.141 90.6407 470.824 91.92 470.216 93.06C469.634 94.1747 468.81 95.1373 467.746 95.948C466.682 96.7333 465.441 97.3413 464.022 97.772C462.604 98.1773 461.058 98.38 459.386 98.38ZM490.78 98.38C488.449 98.38 486.423 98 484.7 97.24C482.977 96.48 481.635 95.34 480.672 93.82C479.709 92.2747 479.177 90.3493 479.076 88.044C479.051 86.9547 479.038 85.8653 479.038 84.776C479.038 83.6867 479.051 82.5847 479.076 81.47C479.177 79.19 479.709 77.2773 480.672 75.732C481.66 74.1613 483.015 72.9833 484.738 72.198C486.461 71.4127 488.475 71.02 490.78 71.02C493.06 71.02 495.061 71.4127 496.784 72.198C498.532 72.9833 499.9 74.1613 500.888 75.732C501.876 77.2773 502.408 79.19 502.484 81.47C502.535 82.5847 502.56 83.6867 502.56 84.776C502.56 85.8653 502.535 86.9547 502.484 88.044C502.383 90.3493 501.851 92.2747 500.888 93.82C499.925 95.34 498.583 96.48 496.86 97.24C495.137 98 493.111 98.38 490.78 98.38ZM490.78 92.908C492.123 92.908 493.212 92.5027 494.048 91.692C494.909 90.8813 495.365 89.5893 495.416 87.816C495.467 86.7013 495.492 85.65 495.492 84.662C495.492 83.674 495.467 82.648 495.416 81.584C495.365 80.3933 495.137 79.4307 494.732 78.696C494.352 77.936 493.82 77.3787 493.136 77.024C492.452 76.6693 491.667 76.492 490.78 76.492C489.919 76.492 489.146 76.6693 488.462 77.024C487.778 77.3787 487.233 77.936 486.828 78.696C486.423 79.4307 486.195 80.3933 486.144 81.584C486.119 82.648 486.106 83.674 486.106 84.662C486.106 85.65 486.119 86.7013 486.144 87.816C486.22 89.5893 486.676 90.8813 487.512 91.692C488.348 92.5027 489.437 92.908 490.78 92.908ZM512.665 98C512.386 98 512.158 97.9113 511.981 97.734C511.803 97.5567 511.715 97.3287 511.715 97.05V72.35C511.715 72.0713 511.803 71.8433 511.981 71.666C512.158 71.4887 512.386 71.4 512.665 71.4H516.693C517.123 71.4 517.427 71.5013 517.605 71.704C517.807 71.8813 517.934 72.0207 517.985 72.122L527.257 86.752V72.35C527.257 72.0713 527.345 71.8433 527.523 71.666C527.7 71.4887 527.928 71.4 528.207 71.4H532.767C533.045 71.4 533.273 71.4887 533.451 71.666C533.628 71.8433 533.717 72.0713 533.717 72.35V97.05C533.717 97.3033 533.628 97.5313 533.451 97.734C533.273 97.9113 533.045 98 532.767 98H528.701C528.295 98 527.991 97.8987 527.789 97.696C527.611 97.4933 527.497 97.354 527.447 97.278L518.175 83.218V97.05C518.175 97.3287 518.086 97.5567 517.909 97.734C517.731 97.9113 517.503 98 517.225 98H512.665ZM544.727 98C544.449 98 544.221 97.9113 544.043 97.734C543.866 97.5567 543.777 97.3287 543.777 97.05V72.35C543.777 72.0713 543.866 71.8433 544.043 71.666C544.221 71.4887 544.449 71.4 544.727 71.4H548.755C549.186 71.4 549.49 71.5013 549.667 71.704C549.87 71.8813 549.997 72.0207 550.047 72.122L559.319 86.752V72.35C559.319 72.0713 559.408 71.8433 559.585 71.666C559.763 71.4887 559.991 71.4 560.269 71.4H564.829C565.108 71.4 565.336 71.4887 565.513 71.666C565.691 71.8433 565.779 72.0713 565.779 72.35V97.05C565.779 97.3033 565.691 97.5313 565.513 97.734C565.336 97.9113 565.108 98 564.829 98H560.763C560.358 98 560.054 97.8987 559.851 97.696C559.674 97.4933 559.56 97.354 559.509 97.278L550.237 83.218V97.05C550.237 97.3287 550.149 97.5567 549.971 97.734C549.794 97.9113 549.566 98 549.287 98H544.727ZM576.79 98C576.511 98 576.283 97.9113 576.106 97.734C575.928 97.5567 575.84 97.3287 575.84 97.05V72.35C575.84 72.0713 575.928 71.8433 576.106 71.666C576.283 71.4887 576.511 71.4 576.79 71.4H594.536C594.814 71.4 595.042 71.4887 595.22 71.666C595.397 71.8433 595.486 72.0713 595.486 72.35V75.922C595.486 76.2007 595.397 76.4287 595.22 76.606C595.042 76.7833 594.814 76.872 594.536 76.872H582.414V82.002H593.7C593.978 82.002 594.206 82.1033 594.384 82.306C594.561 82.4833 594.65 82.7113 594.65 82.99V86.296C594.65 86.5493 594.561 86.7773 594.384 86.98C594.206 87.1573 593.978 87.246 593.7 87.246H582.414V92.528H594.84C595.118 92.528 595.346 92.6167 595.524 92.794C595.701 92.9713 595.79 93.1993 595.79 93.478V97.05C595.79 97.3287 595.701 97.5567 595.524 97.734C595.346 97.9113 595.118 98 594.84 98H576.79ZM615.543 98.38C613.136 98.38 611.071 97.9873 609.349 97.202C607.651 96.4167 606.321 95.264 605.359 93.744C604.421 92.224 603.902 90.3367 603.801 88.082C603.775 87.0433 603.763 85.9287 603.763 84.738C603.763 83.5473 603.775 82.4073 603.801 81.318C603.902 79.114 604.434 77.252 605.397 75.732C606.359 74.1867 607.702 73.0213 609.425 72.236C611.147 71.4253 613.187 71.02 615.543 71.02C617.215 71.02 618.76 71.2353 620.179 71.666C621.597 72.0713 622.839 72.6793 623.903 73.49C624.967 74.2753 625.79 75.238 626.373 76.378C626.981 77.4927 627.297 78.7593 627.323 80.178C627.348 80.406 627.272 80.596 627.095 80.748C626.943 80.9 626.753 80.976 626.525 80.976H621.395C621.065 80.976 620.812 80.9127 620.635 80.786C620.457 80.634 620.305 80.368 620.179 79.988C619.824 78.6453 619.241 77.7333 618.431 77.252C617.645 76.7453 616.67 76.492 615.505 76.492C614.111 76.492 613.009 76.8847 612.199 77.67C611.388 78.43 610.945 79.7093 610.869 81.508C610.793 83.5853 610.793 85.7133 610.869 87.892C610.945 89.6907 611.388 90.9827 612.199 91.768C613.009 92.528 614.111 92.908 615.505 92.908C616.67 92.908 617.658 92.6547 618.469 92.148C619.279 91.6413 619.849 90.7293 620.179 89.412C620.28 89.032 620.419 88.7787 620.597 88.652C620.799 88.5 621.065 88.424 621.395 88.424H626.525C626.753 88.424 626.943 88.5 627.095 88.652C627.272 88.804 627.348 88.994 627.323 89.222C627.297 90.6407 626.981 91.92 626.373 93.06C625.79 94.1747 624.967 95.1373 623.903 95.948C622.839 96.7333 621.597 97.3413 620.179 97.772C618.76 98.1773 617.215 98.38 615.543 98.38ZM642.87 98C642.592 98 642.364 97.9113 642.186 97.734C642.009 97.5567 641.92 97.3287 641.92 97.05V77.366H635.156C634.878 77.366 634.65 77.2773 634.472 77.1C634.295 76.8973 634.206 76.6693 634.206 76.416V72.35C634.206 72.0713 634.295 71.8433 634.472 71.666C634.65 71.4887 634.878 71.4 635.156 71.4H655.6C655.879 71.4 656.107 71.4887 656.284 71.666C656.462 71.8433 656.55 72.0713 656.55 72.35V76.416C656.55 76.6693 656.462 76.8973 656.284 77.1C656.107 77.2773 655.879 77.366 655.6 77.366H648.836V97.05C648.836 97.3287 648.748 97.5567 648.57 97.734C648.393 97.9113 648.165 98 647.886 98H642.87Z" fill="white"/>
</g>
<defs>
<clipPath id="clip0_841_367">
<rect width="691" height="139" fill="white"/>
</clipPath>
</defs>
</svg>
