<svg xmlns="http://www.w3.org/2000/svg" viewBox="0 0 501.25 184.69"><defs><style>.cls-1,.cls-3,.cls-4{fill:#fff;}.cls-2{fill:none;stroke:#fff;stroke-miterlimit:10;stroke-width:2.5px;}.cls-3{fill-rule:evenodd;}.cls-4{font-size:79.3px;font-family:Rubik-Regular, Rubik;letter-spacing:0.01em;}</style></defs><g id="Capa_1" data-name="Capa 1"><path class="cls-1" d="M17.44,69.51l-6,15.32A4.32,4.32,0,0,1,6.9,87.74H2.63A2.51,2.51,0,0,1,.75,87,2.42,2.42,0,0,1,0,85.09a4.43,4.43,0,0,1,.47-1.63L28.88,10.62a5.31,5.31,0,0,1,5.21-3.75H41a5.32,5.32,0,0,1,5.22,3.75l28.23,73a4.41,4.41,0,0,1,.45,1.63,2.38,2.38,0,0,1-.75,1.88,2.41,2.41,0,0,1-1.87.77H68.1a4.3,4.3,0,0,1-4.5-3.06l-6-15.37ZM53.53,59.09l-16-41.3L21.51,59Z"/><path class="cls-1" d="M96.33,17.56a3,3,0,0,1-2.19.92h-6.6a3.11,3.11,0,0,1-3.09-3V8.77a3,3,0,0,1,.93-2.2,3,3,0,0,1,2.2-.91h6.6a3,3,0,0,1,2.19.91,3,3,0,0,1,.92,2.2v6.69A3,3,0,0,1,96.33,17.56ZM95.17,86.93a3,3,0,0,1-2.19.94H88.7a3.17,3.17,0,0,1-3.13-3.13v-54a3.13,3.13,0,0,1,3.13-3.13H93a3.13,3.13,0,0,1,3.11,3.13v53.9a3,3,0,0,1-.92,2.19Z"/><path class="cls-1" d="M146.18,28.59a3,3,0,0,1,.94,2.21v3.75A3.21,3.21,0,0,1,144,37.68h-6.71a13.29,13.29,0,0,0-9.88,3.41A13.34,13.34,0,0,0,124,51V84.72a3.17,3.17,0,0,1-3.12,3.13h-4.27a3.17,3.17,0,0,1-3.13-3.13v-54a3.13,3.13,0,0,1,3.13-3.13h4.27A3.13,3.13,0,0,1,124,30.76v3.58a14.52,14.52,0,0,1,5.62-5.1A19.11,19.11,0,0,1,138,27.63h6A2.94,2.94,0,0,1,146.18,28.59Z"/><path class="cls-1" d="M208.07,86.85a2.94,2.94,0,0,1-2.19.94H201.6a2.94,2.94,0,0,1-2.19-.94,3,3,0,0,1-.94-2.19V37.58H174.1V84.66A3.17,3.17,0,0,1,171,87.79h-4.33a3.17,3.17,0,0,1-3.12-3.13V37.58h-9.73a3.16,3.16,0,0,1-3.11-3.13V30.7a3.12,3.12,0,0,1,3.11-3.07h9.73V21.84c0-6.62,1.54-11.57,4.64-14.8s7.89-4.87,14.45-4.87h7.29a3,3,0,0,1,2.2.94A3,3,0,0,1,193,5.3V9.05a3,3,0,0,1-.92,2.21,3,3,0,0,1-2.2.92h-6.11c-3.75,0-6.35.88-7.7,2.66a12.44,12.44,0,0,0-2,7.63v5.22h24.37V5.3a3,3,0,0,1,.94-2.19,2.94,2.94,0,0,1,2.19-.94h4.28a2.94,2.94,0,0,1,2.19.94A3,3,0,0,1,209,5.3V84.66A3,3,0,0,1,208.07,86.85Z"/><path class="cls-1" d="M278.64,57.81a39.89,39.89,0,0,1-.23,5.33,28.91,28.91,0,0,1-8.15,18.75q-7.12,7-19.26,7t-19.27-7a28.91,28.91,0,0,1-8.15-18.75c0-.85-.12-2.63-.12-5.33s0-4.68.12-5.62a28.28,28.28,0,0,1,8.1-18.75q7.15-7,19.32-7t19.32,7a28.27,28.27,0,0,1,8.09,18.75C278.56,54,278.64,55.81,278.64,57.81ZM263,40.94a18.12,18.12,0,0,0-24,0,19.45,19.45,0,0,0-4.91,11.91c0,.91-.11,2.58-.11,5s0,3.9.11,4.75A19.52,19.52,0,0,0,239,74.48a18.12,18.12,0,0,0,24,0,19.61,19.61,0,0,0,4.93-11.92c.15-1.69.22-3.27.22-4.75a40.3,40.3,0,0,0-.22-5A19.55,19.55,0,0,0,263,40.94Z"/><path class="cls-1" d="M362.63,30.46a3.87,3.87,0,0,1,3.94-2.77h3.75a2.59,2.59,0,0,1,1.87.8,2.71,2.71,0,0,1,1,2l-.13.92L355.34,84.6c-.7,2.16-1.88,3.25-3.47,3.25h-3.58A2.8,2.8,0,0,1,346.1,87a6.92,6.92,0,0,1-1.39-2.37L330.93,46.19,317.17,84.6A7.74,7.74,0,0,1,315.78,87a2.9,2.9,0,0,1-2.19.88H310c-1.64,0-2.8-1.09-3.49-3.25L288.8,31.32v-.86a2.78,2.78,0,0,1,.81-2,2.64,2.64,0,0,1,2-.8h3.75a3.87,3.87,0,0,1,3.93,2.77l13,38.64,13.85-38.64a3.73,3.73,0,0,1,3.6-2.77h2.53a3.73,3.73,0,0,1,3.6,2.77L349.68,69.1Z"/><path class="cls-2" d="M474.9,27.07l15,15.39c8.65,8.87,9.88,28.36,10.11,44.69a.81.81,0,0,1-.78.83.81.81,0,0,1-.61-.24l-24.2-25.18"/><path class="cls-2" d="M474.2,63,458.79,78c-8.75,8.75-28.35,9.9-44.68,10.12a.79.79,0,0,1-.82-.78.78.78,0,0,1,.24-.6l24.69-24.23"/><path class="cls-3" d="M458.79,78c4.84-4.73,7.09-14.06-2.19-33.32,15,6.75,20.36,15.6,17.77,18.13Z"/><path class="cls-2" d="M438.32,62.33l-15-15.41c-8.66-9-9.9-28.42-10.12-44.75a.79.79,0,0,1,.78-.83.75.75,0,0,1,.6.25l24.21,25"/><path class="cls-3" d="M423.3,46.85c4.73,4.83,14.06,7.08,33.32-2.2-6.75,15-15.6,20.36-18.13,17.78Z"/><path class="cls-2" d="M439,26.37l15.41-15c8.85-8.66,28.35-9.89,44.68-10.12a.81.81,0,0,1,.83.78.86.86,0,0,1-.25.61L475,26.71"/><path class="cls-3" d="M454.42,11.36c-4.83,4.7-7.08,14,2.2,33.29-15-6.73-20.36-15.58-17.78-18.11Z"/><path class="cls-3" d="M489.91,42.46c-4.72-4.84-14.06-7.07-33.31,2.19,6.75-15,15.6-20.34,18.13-17.75Z"/><circle class="cls-1" cx="456.6" cy="44.65" r="1.86"/></g><g id="Layer_2" data-name="Layer 2"><text class="cls-4" transform="translate(1.08 163.2)">Summit 2021</text></g></svg>