<?xml version="1.0" encoding="UTF-8"?><svg id="Layer_1" xmlns="http://www.w3.org/2000/svg" viewBox="0 0 308.3 133.39"><defs><style>.cls-1{fill:#565c62;}.cls-2{fill:none;stroke:#565c62;stroke-width:2px;}</style></defs><path class="cls-1" d="m1.96,132.93h3.19c1.28,0,2.11-.58,2.52-1.78l1.24-3.35h9.93l1.28,3.39c.46,1.16,1.32,1.74,2.57,1.74h3.35c1.66,0,2.32-1.03,1.74-2.57l-9.68-24.66c-.46-1.16-1.28-1.74-2.57-1.74h-3.23c-1.28,0-2.15.58-2.61,1.74L.22,130.37c-.62,1.53.08,2.57,1.74,2.57Zm8.28-11.09l3.68-9.93,3.52,9.93h-7.2Z"/><path class="cls-1" d="m34.32,109.47c2.73,0,4.3-1.53,4.3-3.56s-1.45-3.56-4.3-3.56-4.26,1.57-4.26,3.56,1.57,3.56,4.26,3.56Zm-1.49,23.46h2.98c1.45,0,2.23-.79,2.23-2.23v-17.05c0-1.45-.79-2.24-2.23-2.24h-2.98c-1.45,0-2.23.79-2.23,2.24v17.05c0,1.45.79,2.23,2.23,2.23Z"/><path class="cls-1" d="m44.54,132.93h2.98c1.45,0,2.23-.79,2.23-2.23v-6.83c0-3.85,1.53-5.83,4.51-5.83.33,0,.62,0,.99.04.95.12,1.61-.41,1.61-1.66v-3.72c0-.79-.21-1.7-1.28-1.7-.08-.04-.58-.04-.62-.04-1.49,0-4.76.91-5.46,5.09v-2.4c0-1.45-.83-2.24-2.23-2.24h-2.73c-1.45,0-2.23.79-2.23,2.24v17.05c0,1.45.79,2.23,2.23,2.23Z"/><path class="cls-1" d="m62.95,132.93h2.81c1.45,0,2.23-.79,2.23-2.23v-13.82h3.23c.7,0,1.16-.41,1.16-1.16v-2.73c0-.75-.46-1.16-1.16-1.16h-3.35v-1.12c0-1.99,1.49-2.81,4.01-2.81.91,0,2.9,0,4.43.41v22.39c0,1.45.79,2.23,2.23,2.23h2.98c1.45,0,2.23-.79,2.23-2.23v-24.66c0-1.32-.62-2.19-1.94-2.48-3.72-.83-7.7-.99-9.85-.99-6.25,0-11.3,1.7-11.3,8.15v1.12h-1.61c-.74,0-1.16.41-1.16,1.16v2.73c0,.75.41,1.16,1.16,1.16h1.61v13.82c0,1.45.83,2.23,2.28,2.23Z"/><path class="cls-1" d="m98.87,133.39c7.12,0,12.17-5.01,12.17-11.21s-5.05-11.21-12.17-11.21-12.17,5.01-12.17,11.21,5.09,11.21,12.17,11.21Zm0-5.88c-2.98,0-5.17-2.32-5.17-5.34s2.19-5.3,5.17-5.3,5.21,2.23,5.21,5.3-2.24,5.34-5.21,5.34Z"/><path class="cls-1" d="m120.81,132.93h1.99c1.28,0,2.15-.58,2.52-1.86l2.69-8.94,2.69,8.94c.37,1.28,1.24,1.86,2.57,1.86h1.99c1.28,0,2.11-.54,2.52-1.78l6.08-17.17c.54-1.53-.21-2.57-1.82-2.57h-3.43c-1.32,0-2.15.58-2.48,1.9l-2.65,9.56-2.69-9.02c-.37-1.28-1.2-1.86-2.48-1.86h-.54c-1.32,0-2.11.58-2.48,1.86l-2.73,9.02-2.65-9.56c-.29-1.32-1.12-1.9-2.44-1.9h-3.44c-1.65,0-2.4,1.04-1.82,2.57l6.08,17.17c.41,1.2,1.24,1.78,2.52,1.78Z"/><path class="cls-1" d="m165.46,133.39c6.25,0,11.42-2.94,11.42-8.85-.08-3.85-2.19-6.75-8.24-8.81l-3.48-1.24c-2.19-.79-2.73-1.74-2.73-2.65,0-1.57,1.57-2.4,3.31-2.4,1.45,0,2.48.54,3.1,1.45.87,1.08,1.61,1.57,2.9,1.2l1.94-.54c1.41-.41,2.07-1.49,1.32-2.86-1.74-3.27-4.88-5.17-9.39-5.17-6,0-10.63,3.48-10.63,8.9.08,5.3,5.67,7.53,8.11,8.32l3.52,1.28c2.15.7,2.86,1.74,2.86,2.81,0,1.7-1.61,2.65-4.01,2.65-2.23,0-3.85-.87-4.76-2.28-.74-1.2-1.45-1.74-2.73-1.45l-2.07.5c-1.41.33-2.15,1.32-1.61,2.73,1.61,4.01,5.63,6.41,11.17,6.41Z"/><path class="cls-1" d="m187.41,133.39c3.06,0,5.17-1.32,6.29-3.48v.79c0,1.45.79,2.23,2.24,2.23h2.98c1.45,0,2.24-.79,2.24-2.23v-17.05c0-1.45-.79-2.24-2.24-2.24h-2.98c-1.45,0-2.24.79-2.24,2.24v9.15c0,2.85-1.32,4.72-3.52,4.72s-2.98-1.9-2.98-4.22v-9.64c0-1.45-.79-2.24-2.23-2.24h-2.98c-1.45,0-2.23.79-2.23,2.24v10.26c0,4.3,1.45,9.48,7.65,9.48Z"/><path class="cls-1" d="m207.57,132.93h2.98c1.45,0,2.23-.79,2.23-2.23v-9.31c0-2.85,1.16-4.51,2.94-4.51s2.53,1.65,2.53,4.01v9.81c0,1.45.79,2.23,2.23,2.23h2.98c1.45,0,2.24-.79,2.24-2.23v-9.44c.04-2.81,1.2-4.39,2.94-4.39s2.52,1.65,2.52,4.01v9.81c0,1.45.79,2.23,2.24,2.23h2.98c1.45,0,2.24-.79,2.24-2.23v-10.22c0-4.3-1.99-9.52-7.74-9.52-2.36,0-4.63.45-6.74,3.39-1.24-2.23-3.35-3.39-5.96-3.39s-4.63,1.32-5.38,3.52v-.83c0-1.45-.79-2.24-2.23-2.24h-2.98c-1.45,0-2.23.79-2.23,2.24v17.05c0,1.45.79,2.23,2.23,2.23Z"/><path class="cls-1" d="m244.73,132.93h2.98c1.45,0,2.23-.79,2.23-2.23v-9.31c0-2.85,1.16-4.51,2.94-4.51s2.52,1.65,2.52,4.01v9.81c0,1.45.79,2.23,2.24,2.23h2.98c1.45,0,2.24-.79,2.24-2.23v-9.44c.04-2.81,1.2-4.39,2.94-4.39s2.52,1.65,2.52,4.01v9.81c0,1.45.79,2.23,2.23,2.23h2.98c1.45,0,2.24-.79,2.24-2.23v-10.22c0-4.3-1.99-9.52-7.74-9.52-2.36,0-4.63.45-6.74,3.39-1.24-2.23-3.35-3.39-5.96-3.39s-4.63,1.32-5.38,3.52v-.83c0-1.45-.79-2.24-2.23-2.24h-2.98c-1.45,0-2.23.79-2.23,2.24v17.05c0,1.45.79,2.23,2.23,2.23Z"/><path class="cls-1" d="m283.39,109.47c2.73,0,4.3-1.53,4.3-3.56s-1.45-3.56-4.3-3.56-4.26,1.57-4.26,3.56,1.57,3.56,4.26,3.56Zm-1.49,23.46h2.98c1.45,0,2.23-.79,2.23-2.23v-17.05c0-1.45-.79-2.24-2.23-2.24h-2.98c-1.45,0-2.23.79-2.23,2.24v17.05c0,1.45.79,2.23,2.23,2.23Z"/><path class="cls-1" d="m300.73,133.39c3.81,0,7.57-1.74,7.57-7.03-.04-.46-.08-1.08-.29-1.66-.17-.62-.66-.87-1.28-.87h-2.77c-.79,0-1.04.41-.95,1.2.04.25.04.5.04.7,0,.95-.5,1.82-1.49,1.82-.74,0-1.37-.5-1.37-1.78v-8.9h4.35c.74,0,1.16-.41,1.16-1.16v-3.14c0-.75-.41-1.16-1.16-1.16h-4.35v-3.93c0-.99-.54-1.53-1.57-1.53h-2.61c-.95,0-1.57.46-1.7,1.41l-.74,4.06h-2.61c-.74,0-1.16.41-1.16,1.16v3.14c0,.75.41,1.16,1.16,1.16h1.95v8.77c0,6.13,4.1,7.74,7.82,7.74Z"/><path class="cls-1" d="m195.71,1.28c.4-.41,1.1-.12,1.09.45-.11,7.95-.47,16.67-1.85,24.48-1.38,7.81-3.78,14.68-7.96,18.96l-1.69,1.73h0c-2.18,1.41-5.33,2.4-9.11,2.4-4.93.01-11.42-1.52-20.02-5.49.1-.21.15-.44.14-.69,0-.3-.09-.58-.23-.82h.01c6.5-3.12,10.95-6.6,13.54-9.63,1.4-1.63,2.24-3.13,2.6-4.36.33-1.17.2-2.08-.31-2.64L195.71,1.28Z"/><path class="cls-1" d="m153.74,44.5s0,0,0,0c.27.18.6.29.95.28.32,0,.62-.1.87-.25,0,0,.02-.01.03-.02v.02c3.1,6.41,6.55,10.8,9.56,13.37,1.63,1.39,3.12,2.24,4.36,2.59.81.23,1.5.24,2.03.05h0c.15-.06.29-.13.41-.21.04,0,.08,0,.12,0h0s24.45,23.87,24.45,23.87c.41.4.12,1.1-.45,1.09-7.95-.11-16.67-.47-24.47-1.85-7.81-1.38-14.67-3.78-18.96-7.95l-1.76-1.72c-1.41-2.17-2.59-5.53-2.6-9.31,0-4.92,1.52-11.4,5.46-19.96Z"/><path class="cls-1" d="m161.04,21.6c0,4.93-1.53,11.43-5.5,20.03l-.13.03c-.23-.12-.49-.18-.77-.18-.3,0-.58.09-.82.23h0c-3.11-6.52-6.6-10.97-9.63-13.57-1.63-1.39-3.12-2.24-4.36-2.59-1.18-.33-2.08-.2-2.65.32L112.8,2.08c-.41-.4-.12-1.1.45-1.09,3.98.06,8.14.17,12.29.45,4.15.28,8.28.71,12.18,1.4,7.81,1.38,14.68,3.78,18.96,7.95l2.06,2.01c1.4,2.18,2.3,5.03,2.3,8.79Z"/><path class="cls-1" d="m153.24,42.3h0c-.15.25-.23.55-.23.86,0,.23.05.45.14.64h-.04c-6.44,3.1-10.86,6.57-13.44,9.59-1.4,1.63-2.24,3.13-2.59,4.36-.3,1.04-.11,2.14.3,2.79,0,.02.02.04.03.06l-23.78,24.38-.03.03c-.4.41-1.1.12-1.09-.45.11-7.95.47-16.67,1.85-24.48,1.38-7.81,3.78-14.68,7.95-18.96l13.49-13.83-11.5,11.79c2.17-1.41,5.04-2.32,8.82-2.32,4.95,0,11.48,1.54,20.12,5.54Z"/><path class="cls-2" d="m113.5,84.98l23.78-24.38h0s.04-.05.04-.05"/><path class="cls-2" d="m136.8,26.13h0"/><path class="cls-2" d="m113.47,85c-.4.41-1.1.12-1.09-.45.11-7.95.47-16.67,1.85-24.48,1.38-7.81,3.78-14.68,7.95-18.96l13.49-13.83"/><path class="cls-2" d="m171.93,60.35l24.45,23.85c.41.4.12,1.1-.45,1.09-7.95-.11-16.67-.47-24.47-1.85-7.81-1.38-14.67-3.78-18.96-7.95l-1.76-1.72-13.24-12.92s-.11-.11-.16-.17c-.02-.03-.04-.06-.06-.09-.01-.02-.02-.04-.03-.06,0-.01,0-.03,0-.04"/><path class="cls-2" d="m153.62,44.47s-.01.03-.02.04h0c-3.94,8.57-5.47,15.04-5.46,19.96,0,3.78,1.19,7.14,2.6,9.31"/><path class="cls-2" d="m137.49,60.86c-.08-.07-.15-.16-.21-.26-.01-.02-.02-.04-.04-.05-.41-.65-.6-1.75-.3-2.79.35-1.23,1.2-2.73,2.6-4.36,2.58-3.02,7-6.48,13.44-9.58"/><path class="cls-2" d="m186.99,45.28l-.12-.11-1.69,1.73-.39.4"/><path class="cls-2" d="m171.72,25.75l.07-.07L195.58,1.29c.4-.41,1.1-.12,1.09.45-.11,7.95-.47,16.67-1.85,24.48-1.38,7.81-3.78,14.68-7.96,18.96"/><path class="cls-2" d="m171.95,60.33s0,0-.01,0c-.04,0-.08,0-.13,0-.04,0-.08,0-.12,0"/><path class="cls-2" d="m171.88,60.29s-.05.04-.08.06c-.12.08-.26.15-.42.21"/><path class="cls-2" d="m172.2,60.23l-.12-.11c-.06.06-.12.12-.19.17"/><path class="cls-2" d="m155.99,43.79s.03.01.05.02h0c8.6,3.97,15.09,5.5,20.02,5.49,3.78,0,6.93-.99,9.11-2.4l-13.1,13.21"/><path class="cls-2" d="m171.39,60.55h0c-.53.19-1.22.19-2.03-.05-1.23-.35-2.72-1.2-4.36-2.59-3.01-2.57-6.46-6.96-9.54-13.37"/><path class="cls-2" d="m137.13,25.95l-.07-.07L112.67,2.09c-.41-.4-.12-1.1.45-1.09,3.98.06,8.14.17,12.29.45,4.15.28,8.28.71,12.18,1.4,7.81,1.38,14.68,3.78,18.95,7.95l2.06,2.01,12.94,12.63c.09.09.15.19.16.29"/><path class="cls-2" d="m171.82,25.48l-.11.11s.05.05.08.08c.51.56.64,1.47.31,2.64-.35,1.23-1.2,2.73-2.59,4.36-2.59,3.03-7.04,6.52-13.54,9.62"/><path class="cls-2" d="m155.42,41.64c3.97-8.6,5.5-15.1,5.5-20.03,0-3.77-.91-6.62-2.3-8.79,0,0,0-.02-.01-.02l13.12,12.8"/><path class="cls-2" d="m153.11,42.3c-8.65-4-15.17-5.55-20.12-5.54-3.78,0-6.64.91-8.82,2.32l11.5-11.79,1.13-1.16"/><path class="cls-2" d="m136.81,26.13h0s.16-.17.16-.17c.02-.02.05-.05.07-.07.56-.51,1.47-.65,2.65-.32,1.23.35,2.72,1.2,4.36,2.59,3.04,2.59,6.52,7.05,9.63,13.56"/><path class="cls-2" d="m153.61,44.51s0,0,0,0c-.25-.17-.46-.42-.58-.7-.09-.2-.13-.41-.14-.64,0-.31.08-.6.23-.86.14-.24.34-.44.58-.58.24-.14.52-.23.82-.23.28,0,.54.06.77.18.28.14.51.36.67.63.14.24.23.52.23.82,0,.25-.05.48-.14.69h0"/><path class="cls-2" d="m155.41,44.54c-.25.16-.55.25-.86.25-.35,0-.68-.1-.95-.28,0,0,0,0,0,0"/><path class="cls-2" d="m156.04,43.82h0c-.13.29-.33.53-.6.7,0,0-.02.01-.03.02"/></svg>