<?xml version="1.0" encoding="UTF-8"?>
<svg id="Layer_1" xmlns="http://www.w3.org/2000/svg" version="1.1" viewBox="0 0 87 87">
  <!-- Generator: Adobe Illustrator 29.2.1, SVG Export Plug-In . SVG Version: 2.1.0 Build 116)  -->
  <defs>
    <style>
      .st0 {
        fill: #fff;
      }
    </style>
  </defs>
  <path class="st0" d="M87,1.8c0-.7-.4-1.3-1.1-1.6-.7-.3-1.4-.1-1.9.4l-23.2,23.8-14.5-14.2c-4.6-4.4-11.8-6.9-19.7-8.3C18.7.5,9.8.1,1.8,0,.2,0-.5,1.9.6,2.9l23.8,23.2-14.2,14.5C1.6,49.5.2,68.1,0,85.2c0,.7.4,1.3,1.1,1.6.2,0,.4.1.7.1.5,0,.9-.2,1.2-.5l23.2-23.8,14.5,14.2c8.8,8.5,27.4,9.9,44.5,10.2h0c.7,0,1.3-.4,1.6-1.1.3-.7.1-1.4-.4-1.9l-23.8-23.2,14.2-14.5c8.5-8.8,9.9-27.4,10.2-44.5h0ZM36.6,68.8l-10.1-9.9c.4-1.8,2-4.2,4.6-6.5,2.7-2.5,6.3-4.9,10.5-7-4.3,9.6-6,17.5-4.9,23.4h0ZM18.1,36.6l9.9-10.1c1.8.4,4.2,2,6.5,4.6,2.5,2.7,4.9,6.3,7,10.5-9.6-4.3-17.5-6-23.4-4.9h0ZM43.5,45.3c-1,0-1.8-.8-1.8-1.8,0-1,.8-1.8,1.8-1.8,1,0,1.8.8,1.8,1.8,0,1-.8,1.8-1.8,1.8ZM50.4,18.2l10.1,9.9c-.4,1.8-2,4.2-4.6,6.5-2.7,2.5-6.3,4.9-10.5,7,4.3-9.6,6-17.5,4.9-23.4h0ZM59,60.5c-1.8-.4-4.2-2-6.5-4.6-2.5-2.7-4.9-6.3-7-10.5,9.6,4.3,17.5,6,23.4,4.9l-9.9,10.1h0Z"/>
</svg>