<?xml version="1.0" encoding="utf-8"?>
<!-- Generator: Adobe Illustrator 24.0.1, SVG Export Plug-In . SVG Version: 6.00 Build 0)  -->
<svg version="1.1" id="Capa_1" xmlns="http://www.w3.org/2000/svg" xmlns:xlink="http://www.w3.org/1999/xlink" x="0px" y="0px"
	 viewBox="0 0 501.3 161" style="enable-background:new 0 0 501.3 161;" xml:space="preserve">
<style type="text/css">
	.st0{fill:#FFFFFF;}
	.st1{fill:none;stroke:#FFFFFF;stroke-width:2.5;stroke-miterlimit:10;}
	.st2{fill-rule:evenodd;clip-rule:evenodd;fill:#FFFFFF;}
</style>
<path class="st0" d="M17.4,69.5l-6,15.3c-0.6,1.9-2.5,3.1-4.5,2.9H2.6c-0.7,0-1.4-0.2-1.9-0.7C0.2,86.5,0,85.8,0,85.1
	c0.1-0.6,0.2-1.1,0.5-1.6l28.4-72.8c0.7-2.3,2.8-3.8,5.2-3.8H41c2.4-0.1,4.5,1.5,5.2,3.8l28.2,73c0.3,0.5,0.4,1.1,0.4,1.6
	c0,0.7-0.2,1.4-0.8,1.9c-0.5,0.5-1.2,0.8-1.9,0.8h-4.2c-2,0.2-3.9-1.1-4.5-3.1l-6-15.4L17.4,69.5z M53.5,59.1l-16-41.3L21.5,59
	L53.5,59.1z"/>
<path class="st0" d="M96.3,17.6c-0.6,0.6-1.4,0.9-2.2,0.9h-6.6c-1.7,0-3-1.3-3.1-3V8.8c0-1.7,1.4-3.1,3.1-3.1h6.6
	c0.8,0,1.6,0.3,2.2,0.9c0.6,0.6,0.9,1.4,0.9,2.2v6.7C97.3,16.3,96.9,17,96.3,17.6z M95.2,86.9c-0.6,0.6-1.4,0.9-2.2,0.9h-4.3
	c-1.7,0-3.1-1.4-3.1-3.1v-54c0-1.7,1.4-3.1,3.1-3.1H93c1.7,0,3.1,1.4,3.1,3.1c0,0,0,0,0,0v53.9C96.1,85.5,95.8,86.3,95.2,86.9
	L95.2,86.9z"/>
<path class="st0" d="M146.2,28.6c0.6,0.6,0.9,1.4,0.9,2.2v3.8c0,1.7-1.4,3.1-3.1,3.1h-6.7c-3.6-0.3-7.2,1-9.9,3.4
	c-2.4,2.7-3.7,6.3-3.4,9.9v33.7c0,1.7-1.4,3.1-3.1,3.1h-4.3c-1.7,0-3.1-1.4-3.1-3.1v-54c0-1.7,1.4-3.1,3.1-3.1h4.3
	c1.7,0,3.1,1.4,3.1,3.1v3.6c1.4-2.2,3.3-3.9,5.6-5.1c2.6-1.2,5.5-1.7,8.4-1.6h6C144.8,27.6,145.6,28,146.2,28.6z"/>
<path class="st0" d="M208.1,86.8c-0.6,0.6-1.4,1-2.2,0.9h-4.3c-0.8,0-1.6-0.3-2.2-0.9c-0.6-0.6-0.9-1.4-0.9-2.2V37.6h-24.4v47.1
	c0,1.7-1.4,3.1-3.1,3.1h-4.3c-1.7,0-3.1-1.4-3.1-3.1V37.6h-9.7c-1.7,0-3.1-1.4-3.1-3.1v-3.8c0-1.7,1.4-3.1,3.1-3.1h9.7v-5.8
	c0-6.6,1.5-11.6,4.6-14.8s7.9-4.9,14.4-4.9h7.3c0.8,0,1.6,0.3,2.2,0.9c0.6,0.6,0.9,1.4,0.9,2.2v3.8c0,0.8-0.3,1.6-0.9,2.2
	c-0.6,0.6-1.4,0.9-2.2,0.9h-6.1c-3.8,0-6.4,0.9-7.7,2.7c-1.5,2.3-2.2,4.9-2,7.6v5.2h24.4V5.3c0-0.8,0.3-1.6,0.9-2.2
	c0.6-0.6,1.4-0.9,2.2-0.9h4.3c0.8,0,1.6,0.3,2.2,0.9c0.6,0.6,1,1.4,1,2.2v79.4C209,85.5,208.7,86.3,208.1,86.8z"/>
<path class="st0" d="M278.6,57.8c0,1.8,0,3.6-0.2,5.3c-0.3,7-3.2,13.7-8.1,18.8c-4.7,4.7-11.2,7-19.3,7c-8.1,0-14.5-2.3-19.3-7
	c-4.9-5.1-7.8-11.7-8.1-18.8c0-0.8-0.1-2.6-0.1-5.3s0-4.7,0.1-5.6c0.3-7,3.2-13.7,8.1-18.8c4.8-4.7,11.2-7,19.3-7
	c8.1,0,14.6,2.3,19.3,7c4.9,5,7.8,11.7,8.1,18.8C278.6,54,278.6,55.8,278.6,57.8z M263,40.9c-6.9-6.1-17.1-6.1-24,0
	c-2.9,3.3-4.7,7.5-4.9,11.9c0,0.9-0.1,2.6-0.1,5s0,3.9,0.1,4.8c0.2,4.4,2,8.6,4.9,11.9c6.9,6.1,17.1,6.1,24,0
	c2.9-3.3,4.7-7.5,4.9-11.9c0.1-1.7,0.2-3.3,0.2-4.8c0-1.7,0-3.3-0.2-5C267.7,48.4,265.9,44.2,263,40.9z"/>
<path class="st0" d="M362.6,30.5c0.5-1.7,2.1-2.9,3.9-2.8h3.8c0.7,0,1.4,0.3,1.9,0.8c0.6,0.5,1,1.2,1,2l-0.1,0.9l-17.7,53.2
	c-0.7,2.2-1.9,3.3-3.5,3.3h-3.6c-0.8,0-1.6-0.3-2.2-0.8c-0.6-0.7-1.1-1.5-1.4-2.4l-13.8-38.4l-13.8,38.4c-0.3,0.9-0.8,1.7-1.4,2.4
	c-0.6,0.6-1.4,0.9-2.2,0.9H310c-1.6,0-2.8-1.1-3.5-3.3l-17.7-53.3v-0.9c0-0.7,0.3-1.5,0.8-2c0.5-0.5,1.3-0.8,2-0.8h3.8
	c1.8-0.1,3.4,1,3.9,2.8l13,38.6l13.9-38.6c0.4-1.6,1.9-2.8,3.6-2.8h2.5c1.7,0,3.2,1.1,3.6,2.8l13.8,38.7L362.6,30.5z"/>
<path class="st1" d="M474.9,27.1l15,15.4c8.6,8.9,9.9,28.4,10.1,44.7c0,0.4-0.3,0.8-0.8,0.8c0,0,0,0,0,0c-0.2,0-0.4-0.1-0.6-0.2
	l-24.2-25.2"/>
<path class="st1" d="M474.2,63l-15.4,15c-8.8,8.8-28.4,9.9-44.7,10.1c-0.4,0-0.8-0.3-0.8-0.7c0,0,0,0,0,0l0,0c0-0.2,0.1-0.4,0.2-0.6
	l24.7-24.2"/>
<path class="st2" d="M458.8,78c4.8-4.7,7.1-14.1-2.2-33.3c15,6.8,20.4,15.6,17.8,18.1L458.8,78z"/>
<path class="st1" d="M438.3,62.3l-15-15.4c-8.7-9-9.9-28.4-10.1-44.8c0-0.4,0.3-0.8,0.7-0.8c0,0,0,0,0,0l0,0c0.2,0,0.4,0.1,0.6,0.3
	l24.2,25"/>
<path class="st2" d="M423.3,46.8c4.7,4.8,14.1,7.1,33.3-2.2c-6.8,15-15.6,20.4-18.1,17.8L423.3,46.8z"/>
<path class="st1" d="M439,26.4l15.4-15c8.9-8.7,28.4-9.9,44.7-10.1c0.4,0,0.8,0.3,0.8,0.8c0,0.2-0.1,0.5-0.3,0.6L475,26.7"/>
<path class="st2" d="M454.4,11.4c-4.8,4.7-7.1,14,2.2,33.3c-15-6.7-20.4-15.6-17.8-18.1L454.4,11.4z"/>
<path class="st2" d="M489.9,42.5c-4.7-4.8-14.1-7.1-33.3,2.2c6.8-15,15.6-20.3,18.1-17.8L489.9,42.5z"/>
<circle class="st0" cx="456.6" cy="44.7" r="1.9"/>
<path class="st0" d="M10.8,158.4c-3.3-1.4-5.8-3.3-7.5-5.5c-1.7-2.3-2.6-4.8-2.7-7.4c0-0.4,0.2-0.8,0.5-1.1c0.3-0.3,0.7-0.5,1.2-0.5
	h4c1,0,1.6,0.5,2,1.6c0.5,2.3,1.9,4.2,4.2,5.9c2.3,1.6,5.6,2.5,9.8,2.5c4.6,0,8-0.8,10.3-2.4s3.4-3.9,3.4-6.7c0-1.8-0.6-3.3-1.7-4.5
	c-1.1-1.2-2.8-2.2-4.9-3.1c-2.2-0.9-5.5-2-9.8-3.3c-4.2-1.2-7.5-2.5-9.9-3.8c-2.5-1.3-4.3-3-5.5-5c-1.2-2-1.9-4.5-1.9-7.5
	c0-2.9,0.8-5.5,2.3-7.8c1.6-2.3,3.8-4.1,6.8-5.4c3-1.3,6.5-2,10.5-2c4.2,0,7.8,0.7,10.8,2.2c3,1.5,5.3,3.3,6.8,5.6
	c1.6,2.2,2.4,4.5,2.5,6.8c0,0.5-0.2,0.9-0.5,1.2c-0.3,0.3-0.7,0.5-1.2,0.5h-4c-0.4,0-0.8-0.1-1.2-0.4c-0.4-0.3-0.6-0.7-0.8-1.2
	c-0.3-2.3-1.6-4.2-3.9-5.8s-5.1-2.3-8.5-2.3c-3.7,0-6.6,0.7-8.7,2.1c-2.2,1.4-3.2,3.6-3.2,6.4c0,1.9,0.5,3.4,1.5,4.6
	c1,1.2,2.5,2.2,4.6,3.2c2.1,0.9,5.1,2,9.1,3.2c4.6,1.3,8.2,2.6,10.8,3.9c2.6,1.3,4.6,2.9,5.9,4.8c1.3,1.9,1.9,4.4,1.9,7.4
	c0,5.1-1.9,9-5.8,11.9c-3.9,2.8-9.1,4.3-15.7,4.3C17.9,160.5,14.1,159.8,10.8,158.4z"/>
<path class="st0" d="M57.2,155.6c-2.8-3.3-4.2-7.7-4.2-13.2v-22.8c0-0.5,0.2-1,0.5-1.3c0.4-0.4,0.8-0.5,1.3-0.5h3.7
	c0.5,0,1,0.2,1.3,0.5c0.4,0.4,0.5,0.8,0.5,1.3v22.4c0,8.2,3.6,12.3,10.7,12.3c3.5,0,6.2-1.1,8.2-3.3c2-2.2,3-5.2,3-9v-22.4
	c0-0.5,0.2-1,0.5-1.3c0.4-0.4,0.8-0.5,1.3-0.5H88c0.5,0,1,0.2,1.3,0.5c0.4,0.4,0.5,0.8,0.5,1.3v38.4c0,0.5-0.2,1-0.5,1.3
	c-0.4,0.4-0.8,0.5-1.3,0.5h-3.5c-0.5,0-1-0.2-1.3-0.5c-0.4-0.4-0.5-0.8-0.5-1.3v-3.6c-1.6,2.1-3.4,3.7-5.5,4.7s-4.8,1.6-8,1.6
	C64,160.5,60.1,158.9,57.2,155.6z"/>
<path class="st0" d="M102.6,159.2c-0.4-0.4-0.5-0.8-0.5-1.3v-38.4c0-0.5,0.2-1,0.5-1.3c0.4-0.4,0.8-0.5,1.3-0.5h3.4
	c0.5,0,1,0.2,1.3,0.5c0.3,0.4,0.5,0.8,0.5,1.3v2.8c2.9-3.6,6.9-5.4,11.8-5.4c5.9,0,10.2,2.5,12.6,7.5c1.3-2.3,3.1-4.1,5.5-5.4
	c2.4-1.3,5.1-2,8.1-2c4.4,0,8,1.5,10.9,4.5c2.8,3,4.2,7.4,4.2,13.1v23.4c0,0.5-0.2,1-0.5,1.3c-0.4,0.4-0.8,0.5-1.3,0.5h-3.5
	c-0.5,0-1-0.2-1.3-0.5c-0.4-0.4-0.5-0.8-0.5-1.3v-22.7c0-4.3-0.9-7.4-2.7-9.3c-1.8-1.9-4.1-2.8-7-2.8c-2.6,0-4.8,1-6.7,2.9
	c-1.9,1.9-2.8,5-2.8,9.2v22.7c0,0.5-0.2,1-0.5,1.3c-0.4,0.4-0.8,0.5-1.3,0.5h-3.6c-0.5,0-1-0.2-1.3-0.5c-0.4-0.4-0.5-0.8-0.5-1.3
	v-22.7c0-4.3-0.9-7.3-2.8-9.2c-1.9-1.9-4.2-2.8-6.9-2.8c-2.6,0-4.8,0.9-6.7,2.8c-1.9,1.9-2.8,4.9-2.8,9.2v22.8c0,0.5-0.2,1-0.5,1.3
	c-0.4,0.4-0.8,0.5-1.3,0.5h-3.6C103.4,159.7,102.9,159.6,102.6,159.2z"/>
<path class="st0" d="M174.5,159.2c-0.4-0.4-0.5-0.8-0.5-1.3v-38.4c0-0.5,0.2-1,0.5-1.3c0.4-0.4,0.8-0.5,1.3-0.5h3.4
	c0.5,0,1,0.2,1.3,0.5c0.3,0.4,0.5,0.8,0.5,1.3v2.8c2.9-3.6,6.9-5.4,11.8-5.4c5.9,0,10.2,2.5,12.6,7.5c1.3-2.3,3.1-4.1,5.5-5.4
	c2.4-1.3,5.1-2,8.1-2c4.4,0,8,1.5,10.9,4.5s4.2,7.4,4.2,13.1v23.4c0,0.5-0.2,1-0.5,1.3c-0.4,0.4-0.8,0.5-1.3,0.5h-3.5
	c-0.5,0-1-0.2-1.3-0.5c-0.4-0.4-0.5-0.8-0.5-1.3v-22.7c0-4.3-0.9-7.4-2.7-9.3c-1.8-1.9-4.1-2.8-7-2.8c-2.6,0-4.8,1-6.7,2.9
	c-1.9,1.9-2.8,5-2.8,9.2v22.7c0,0.5-0.2,1-0.5,1.3c-0.4,0.4-0.8,0.5-1.3,0.5h-3.6c-0.5,0-1-0.2-1.3-0.5c-0.4-0.4-0.5-0.8-0.5-1.3
	v-22.7c0-4.3-0.9-7.3-2.8-9.2c-1.9-1.9-4.2-2.8-6.9-2.8c-2.6,0-4.8,0.9-6.7,2.8c-1.9,1.9-2.8,4.9-2.8,9.2v22.8c0,0.5-0.2,1-0.5,1.3
	c-0.4,0.4-0.8,0.5-1.3,0.5h-3.6C175.3,159.7,174.8,159.6,174.5,159.2z"/>
<path class="st0" d="M245.8,109.1c-0.4-0.4-0.5-0.8-0.5-1.3v-4.2c0-0.5,0.2-1,0.5-1.4c0.4-0.4,0.8-0.6,1.3-0.6h4.8
	c0.5,0,1,0.2,1.4,0.6c0.4,0.4,0.6,0.8,0.6,1.4v4.2c0,0.5-0.2,1-0.6,1.3c-0.4,0.4-0.8,0.5-1.4,0.5h-4.8
	C246.6,109.7,246.1,109.5,245.8,109.1z M246.4,159.2c-0.4-0.4-0.5-0.8-0.5-1.3v-38.4c0-0.5,0.2-1,0.5-1.3c0.4-0.4,0.8-0.5,1.3-0.5
	h3.6c0.5,0,1,0.2,1.3,0.5c0.4,0.4,0.5,0.8,0.5,1.3v38.4c0,0.5-0.2,1-0.5,1.3c-0.4,0.4-0.8,0.5-1.3,0.5h-3.6
	C247.2,159.7,246.8,159.6,246.4,159.2z"/>
<path class="st0" d="M269,145.6v-21.7h-6.4c-0.5,0-1-0.2-1.3-0.5c-0.3-0.3-0.5-0.8-0.5-1.3v-2.6c0-0.5,0.2-1,0.5-1.3
	c0.3-0.4,0.8-0.5,1.3-0.5h6.4v-13.5c0-0.5,0.2-1,0.5-1.3c0.3-0.4,0.8-0.5,1.3-0.5h3.6c0.5,0,1,0.2,1.3,0.5c0.4,0.4,0.5,0.8,0.5,1.3
	v13.5h10c0.5,0,1,0.2,1.3,0.5c0.4,0.4,0.5,0.8,0.5,1.3v2.6c0,0.5-0.2,1-0.5,1.3c-0.4,0.3-0.8,0.5-1.3,0.5h-10V145
	c0,2.8,0.4,4.8,1.3,6.2c0.9,1.4,2.4,2.1,4.6,2.1h4.9c0.5,0,1,0.2,1.3,0.5c0.3,0.4,0.5,0.8,0.5,1.3v2.7c0,0.5-0.2,1-0.5,1.3
	c-0.3,0.4-0.8,0.5-1.3,0.5h-5.5C273.2,159.7,269,155,269,145.6z"/>
<path class="st0" d="M315.1,159.2c-0.4-0.4-0.5-0.8-0.5-1.3v-2.4c0-1.2,0.7-2.4,2-3.6l17.7-17.6c4-3.4,6.7-6.2,8.3-8.3
	c1.5-2.2,2.3-4.5,2.3-6.9c0-3.2-0.9-5.7-2.7-7.5c-1.8-1.8-4.4-2.7-7.8-2.7c-3.2,0-5.8,0.9-7.7,2.8c-1.9,1.9-3.1,4.4-3.5,7.6
	c-0.1,0.6-0.4,1.1-0.8,1.4c-0.4,0.3-0.9,0.5-1.3,0.5h-3.9c-0.5,0-0.9-0.2-1.2-0.5c-0.3-0.3-0.5-0.7-0.5-1.1c0.1-2.9,0.9-5.6,2.3-8.3
	c1.4-2.7,3.5-4.9,6.4-6.6c2.8-1.7,6.2-2.6,10.2-2.6c6,0,10.6,1.6,13.6,4.7c3,3.2,4.6,7.2,4.6,12c0,3.4-0.8,6.5-2.5,9.2
	c-1.6,2.7-4.2,5.6-7.7,8.6l-16,16.2h25.5c0.6,0,1.1,0.2,1.4,0.5c0.3,0.3,0.5,0.8,0.5,1.4v3.1c0,0.5-0.2,1-0.5,1.3
	c-0.4,0.4-0.8,0.5-1.3,0.5h-35.5C315.9,159.7,315.5,159.6,315.1,159.2z"/>
<path class="st0" d="M368.2,154.4c-3.2-4.1-4.9-9.4-5.1-16l-0.1-7l0.1-7.2c0.2-6.5,1.9-11.8,5.1-15.9c3.3-4.1,8.4-6.1,15.3-6.1
	c7,0,12.1,2,15.3,6.1c3.3,4.1,5,9.4,5.1,15.9c0.1,1.5,0.1,3.9,0.1,7.2c0,3.2,0,5.5-0.1,7c-0.2,6.6-1.9,11.9-5.1,16
	c-3.2,4.1-8.3,6.1-15.3,6.1C376.5,160.5,371.4,158.5,368.2,154.4z M392.9,149.7c2.1-2.8,3.2-6.6,3.3-11.7c0.1-1.6,0.1-3.8,0.1-6.7
	c0-3,0-5.2-0.1-6.6c-0.1-5-1.2-8.8-3.4-11.6c-2.1-2.8-5.3-4.2-9.4-4.2c-4.1,0-7.2,1.4-9.3,4.2c-2.1,2.8-3.2,6.7-3.3,11.6l-0.1,6.6
	l0.1,6.7c0.1,5,1.2,8.9,3.3,11.7c2.1,2.8,5.2,4.1,9.3,4.1C387.7,153.8,390.8,152.4,392.9,149.7z"/>
<path class="st0" d="M413.7,159.2c-0.4-0.4-0.5-0.8-0.5-1.3v-2.4c0-1.2,0.7-2.4,2-3.6l17.7-17.6c4-3.4,6.7-6.2,8.3-8.3
	c1.5-2.2,2.3-4.5,2.3-6.9c0-3.2-0.9-5.7-2.7-7.5c-1.8-1.8-4.4-2.7-7.8-2.7c-3.2,0-5.8,0.9-7.7,2.8c-1.9,1.9-3.1,4.4-3.5,7.6
	c-0.1,0.6-0.4,1.1-0.8,1.4c-0.4,0.3-0.9,0.5-1.3,0.5h-3.9c-0.5,0-0.9-0.2-1.2-0.5c-0.3-0.3-0.5-0.7-0.5-1.1c0.1-2.9,0.9-5.6,2.3-8.3
	c1.4-2.7,3.5-4.9,6.4-6.6c2.8-1.7,6.2-2.6,10.2-2.6c6,0,10.6,1.6,13.6,4.7c3,3.2,4.6,7.2,4.6,12c0,3.4-0.8,6.5-2.5,9.2
	c-1.6,2.7-4.2,5.6-7.7,8.6l-16,16.2h25.5c0.6,0,1.1,0.2,1.4,0.5c0.3,0.3,0.5,0.8,0.5,1.4v3.1c0,0.5-0.2,1-0.5,1.3
	c-0.4,0.4-0.8,0.5-1.3,0.5H415C414.5,159.7,414,159.6,413.7,159.2z"/>
<path class="st0" d="M461,159.2c-0.4-0.4-0.5-0.8-0.5-1.3v-2.4c0-1.2,0.7-2.4,2-3.6l17.7-17.6c4-3.4,6.7-6.2,8.3-8.3
	c1.5-2.2,2.3-4.5,2.3-6.9c0-3.2-0.9-5.7-2.7-7.5c-1.8-1.8-4.4-2.7-7.8-2.7c-3.2,0-5.8,0.9-7.7,2.8c-1.9,1.9-3.1,4.4-3.5,7.6
	c-0.1,0.6-0.4,1.1-0.8,1.4c-0.4,0.3-0.9,0.5-1.3,0.5H463c-0.5,0-0.9-0.2-1.2-0.5c-0.3-0.3-0.5-0.7-0.5-1.1c0.1-2.9,0.9-5.6,2.3-8.3
	c1.4-2.7,3.5-4.9,6.4-6.6c2.8-1.7,6.2-2.6,10.2-2.6c6,0,10.6,1.6,13.6,4.7c3,3.2,4.6,7.2,4.6,12c0,3.4-0.8,6.5-2.5,9.2
	c-1.6,2.7-4.2,5.6-7.7,8.6l-16,16.2h25.5c0.6,0,1.1,0.2,1.4,0.5c0.3,0.3,0.5,0.8,0.5,1.4v3.1c0,0.5-0.2,1-0.5,1.3
	c-0.4,0.4-0.8,0.5-1.3,0.5h-35.5C461.8,159.7,461.3,159.6,461,159.2z"/>
</svg>
