<svg width="267" height="94" viewBox="0 0 267 94" fill="none" xmlns="http://www.w3.org/2000/svg">
<path d="M237 6V83" stroke="white"/>
<path fill-rule="evenodd" clip-rule="evenodd" d="M74.2162 13.2197C74.1723 13.2197 70.314 17.2622 65.6226 22.1836C60.975 27.1049 57.0729 31.1474 57.029 31.1914C56.9413 31.2792 56.196 30.5762 51.5046 26.0943C48.5231 23.2381 45.8924 20.7775 45.717 20.6017C45.5417 20.4259 45.1471 20.1184 44.8401 19.8987C44.5332 19.679 43.9632 19.3274 43.5686 19.0638C43.174 18.8001 42.4725 18.4486 41.9902 18.2289C41.5518 18.0092 40.7187 17.6577 40.1487 17.438C39.5788 17.2183 38.5703 16.9107 37.9126 16.691C37.255 16.5152 36.115 16.2077 35.4135 16.0319C34.712 15.9001 33.6159 15.6804 32.9582 15.5485C32.3005 15.4607 30.8536 15.241 29.7575 15.1091C28.6614 14.9773 27.1268 14.8455 26.3376 14.7576C25.5922 14.7137 24.3207 14.6258 23.5315 14.5819C22.7423 14.5819 21.4708 14.494 20.7255 14.45C19.9363 14.45 18.2263 14.45 16.9548 14.4061C15.6395 14.4061 14.4556 14.4061 14.3241 14.4061C14.1487 14.4061 14.061 14.45 14.0172 14.6258C13.9734 14.7576 14.0172 14.8455 14.1049 14.9773C14.1926 15.0652 18.2263 18.932 23.0931 23.5457C27.9599 28.1595 31.9497 31.9383 31.9936 31.9823C32.0374 32.0262 30.9852 33.2126 26.7761 37.6506C23.8823 40.7264 21.2954 43.4947 21.0324 43.8023C20.8132 44.1098 20.5062 44.5053 20.3747 44.725C20.2432 44.9008 19.9801 45.3402 19.7609 45.6917C19.5855 46.0432 19.2347 46.7023 19.0155 47.1857C18.7963 47.669 18.4894 48.3721 18.3578 48.7675C18.2263 49.163 17.9632 49.8661 17.8317 50.3055C17.7002 50.7449 17.4809 51.4918 17.3494 51.9752C17.2179 52.4585 17.0425 53.2495 16.911 53.7768C16.7794 54.304 16.604 55.3147 16.4725 56.0617C16.2971 56.9405 16.1218 58.4344 15.9464 60.3239C15.771 61.9497 15.6395 63.7073 15.5956 64.2785C15.5956 64.8497 15.5079 65.8604 15.5079 66.5634C15.5079 67.2665 15.4202 68.8483 15.4202 70.0787C15.4202 71.309 15.4202 72.8909 15.4202 73.6378C15.4202 74.6924 15.4202 74.9561 15.5079 75.0439C15.5518 75.0879 15.6395 75.1318 15.7272 75.1318C15.771 75.1318 15.9025 75.0879 15.9902 75C16.0779 74.9121 19.8924 70.9135 24.4961 66.0801C29.0998 61.2466 32.9143 57.2041 32.9582 57.1602C33.0459 57.0723 33.3528 57.292 38.4826 62.2133C41.4641 65.0695 44.1386 67.5301 44.3578 67.7498C44.6209 67.9695 45.1032 68.321 45.454 68.5847C45.8047 68.8044 46.3747 69.1559 46.6816 69.3756C47.0324 69.5953 47.6901 69.9029 48.1723 70.1226C48.6546 70.3423 49.3562 70.6499 49.7508 70.7817C50.1454 70.9135 50.8469 71.1772 51.2853 71.309C51.7238 71.4408 52.4691 71.6605 52.9514 71.7923C53.4337 71.9242 54.2668 72.0999 54.7929 72.2318C55.3191 72.3636 56.2836 72.5393 56.8975 72.6272C57.5551 72.759 59.0459 72.9348 60.2735 73.0666C61.5012 73.1984 63.1234 73.3742 63.8688 73.4181C64.6142 73.4621 65.8857 73.55 66.631 73.5939C67.3764 73.5939 68.6479 73.6818 69.4371 73.6818C70.2263 73.6818 71.9363 73.7257 73.2078 73.7257C74.4793 73.7257 75.6192 73.7257 75.7508 73.7257C75.9261 73.7257 76.0138 73.6378 76.0577 73.55C76.0577 73.4621 76.0577 73.3742 76.0577 73.3303C76.0577 73.2863 71.9801 69.3756 67.0256 64.674C62.0712 59.9724 58.0374 56.1056 58.0374 56.0617C58.0374 56.0617 60.3612 53.5571 63.2111 50.5691C66.0611 47.5811 68.5164 44.9887 68.6479 44.8129C68.8233 44.6371 69.1302 44.2417 69.3494 43.9341C69.5686 43.6265 69.9194 43.0553 70.1825 42.6159C70.4455 42.1765 70.7963 41.4734 71.0155 41.034C71.2347 40.5946 71.5417 39.8476 71.717 39.4082C71.8924 38.9249 72.1555 38.1779 72.287 37.7385C72.4186 37.2991 72.6378 36.5521 72.7693 36.0248C72.9008 35.5415 73.1201 34.7066 73.2078 34.1793C73.3393 33.652 73.5147 32.5535 73.6462 31.7626C73.8216 30.8398 73.997 29.3898 74.1723 27.764C74.3039 26.3579 74.4793 24.5563 74.5231 23.6775C74.5231 22.8427 74.6108 21.4366 74.6546 20.5578C74.6546 19.679 74.7423 18.185 74.7423 17.1743C74.7423 16.1637 74.7423 14.8894 74.7423 14.3182C74.7423 13.3955 74.7423 13.2636 74.6108 13.1318C74.5231 13.0439 74.4793 13 74.4354 13C74.4354 13 74.3477 13 74.3039 13L74.2162 13.2197Z" fill="white"/>
<path d="M48.8298 25.3026C48.6983 24.9072 48.6106 24.5557 48.6106 24.5117C48.6106 24.5117 50.5836 26.4012 57.2919 32.7725V33.168C57.2042 33.3877 57.1165 33.7832 57.0288 34.0468C56.9411 34.3104 56.7219 34.7498 56.5904 34.9695C56.4588 35.2332 56.1958 35.6287 56.0204 35.8484C55.845 36.112 55.4943 36.5514 55.2312 36.859C54.9681 37.1666 54.4858 37.6939 54.1351 38.0454C53.7843 38.3969 53.0828 39.0121 52.5566 39.4515C52.0305 39.8909 51.1975 40.506 50.6713 40.8576C50.1452 41.2091 49.4437 41.6924 49.0052 41.9121C48.6106 42.1318 47.7776 42.6152 47.2076 42.9228C46.5937 43.2304 46.1115 43.494 46.1115 43.494C46.1115 43.494 46.1115 43.6258 46.1991 43.8016C46.243 43.9773 46.2868 44.241 46.243 44.3728C46.243 44.5046 46.1553 44.7243 46.1115 44.8122C46.0238 44.944 46.0238 44.944 46.5061 45.1637C46.7691 45.2956 47.2953 45.5153 47.646 45.6471C47.9968 45.7789 48.786 46.0865 49.3998 46.3501C50.0136 46.5698 51.0221 46.9214 51.5921 47.1411C52.162 47.3168 53.0389 47.5805 53.5212 47.7123C54.0035 47.8441 54.6612 48.0199 55.012 48.0638C55.3627 48.1517 56.2396 48.2835 56.9411 48.4153C57.7742 48.5471 58.5634 48.635 59.1334 48.635C59.6157 48.635 60.2733 48.635 60.5803 48.635C60.931 48.635 61.501 48.5911 61.8518 48.5472C62.2025 48.5032 62.7287 48.4153 62.9917 48.3714C63.2548 48.3274 63.7371 48.1956 64.044 48.0638C64.3509 47.9759 64.6578 47.888 64.6578 47.888C64.6578 47.888 62.8163 49.8654 56.415 56.5883L55.845 56.5004C55.3627 56.4564 55.1435 56.3686 54.705 56.1488C54.3981 56.017 53.872 55.7094 53.5651 55.4897C53.2582 55.27 52.732 54.8746 52.3813 54.6109C52.0305 54.3473 51.5044 53.82 51.1536 53.5124C50.8029 53.1609 50.0575 52.326 49.4875 51.579C48.9175 50.8321 48.1722 49.8654 47.9091 49.426C47.6022 48.9866 47.1637 48.2396 46.9007 47.8002C46.6376 47.3608 46.243 46.6577 46.0238 46.2183C45.8045 45.7789 45.6292 45.4274 45.6292 45.4274C45.6292 45.4274 45.4976 45.4274 45.3222 45.5153C45.1469 45.5592 44.8838 45.6031 44.7523 45.5592C44.6207 45.5592 44.4015 45.4713 44.3138 45.4274C44.1823 45.3395 44.1823 45.3395 43.9631 45.8228C43.8315 46.1304 43.6123 46.7017 43.4369 47.0971C43.2615 47.5365 42.9985 48.2396 42.7792 48.7229C42.6039 49.2063 42.2969 50.0411 42.1216 50.6124C41.9462 51.1836 41.6831 52.0184 41.5516 52.4579C41.4201 52.8973 41.2447 53.6442 41.1131 54.1715C40.9816 54.8306 40.8501 55.5776 40.6747 56.8519C40.5432 57.9944 40.4555 58.8732 40.4555 59.2686C40.4555 59.6201 40.4555 60.2353 40.5432 60.6308C40.5432 61.0702 40.6747 61.7293 40.7624 62.1248C40.8501 62.5202 40.9816 63.0914 41.1131 63.399C41.2008 63.7066 41.2885 63.9703 41.2447 63.9703C41.2447 63.9703 39.2717 62.1248 32.5195 55.7094L32.6072 55.1382C32.6949 54.7428 32.7826 54.4352 32.958 53.9958C33.0895 53.6882 33.3964 53.1609 33.6157 52.8533C33.8349 52.5457 34.2295 52.0184 34.4926 51.6669C34.7556 51.3154 35.2818 50.7881 35.6325 50.4366C35.9833 50.0851 36.8163 49.382 37.474 48.8547C38.1317 48.3274 39.0086 47.6683 39.4032 47.4047C39.7978 47.1411 40.4993 46.7017 40.9816 46.3941C41.4639 46.0865 42.2531 45.6471 42.7792 45.3834C43.3054 45.1198 43.7 44.9001 43.7 44.9001C43.7 44.9001 43.7 44.7243 43.6123 44.5486C43.5246 44.2849 43.5246 44.1531 43.7 43.4501L43.13 43.1864C42.8231 43.0546 42.2969 42.8349 41.99 42.7031C41.6831 42.5712 41.0254 42.3076 40.4555 42.0879C39.9293 41.8682 39.0086 41.5606 38.4386 41.3849C37.8686 41.2091 37.0356 40.9454 36.5971 40.8136C36.1587 40.6818 35.3695 40.506 34.8433 40.3742C34.1856 40.2424 33.3526 40.0666 32.2565 39.9348C31.2919 39.803 30.3711 39.7591 29.9765 39.7591C29.6258 39.7591 28.9681 39.7591 28.5297 39.8469C28.0912 39.8469 27.4335 39.9788 27.0828 40.0227C26.732 40.1106 26.162 40.2424 25.7674 40.3303C25.4167 40.4621 25.0659 40.506 25.0659 40.506C25.0659 40.506 26.9074 38.5287 33.3088 31.8058H33.7034C33.9226 31.8937 34.3172 31.9816 34.5803 32.0695C34.8433 32.1574 35.3256 32.3771 35.5887 32.5528C35.8956 32.7286 36.3779 33.0801 36.7287 33.3437C37.0794 33.6074 37.6494 34.0907 38.0002 34.4423C38.3509 34.7938 38.9647 35.409 39.3593 35.8923C39.7539 36.3317 40.3239 37.0787 40.6747 37.5181C40.9816 37.9575 41.4639 38.6605 41.727 39.056C41.99 39.4515 42.4723 40.1985 42.7792 40.7257C43.0862 41.253 43.4808 41.9561 43.6561 42.3076C43.8315 42.6591 43.9631 42.9228 44.0069 42.9667C44.0069 42.9667 44.1823 42.9667 44.3577 42.9228C44.533 42.8788 44.7961 42.8349 44.9276 42.8788C45.0592 42.8788 45.2346 42.9228 45.3222 42.9667C45.4538 43.0546 45.4538 42.9667 45.8045 42.2197C46.0238 41.7803 46.4184 40.8136 46.6814 40.0666C46.9445 39.3636 47.3829 38.2211 47.6022 37.5181C47.8214 36.859 48.0845 35.9802 48.1722 35.6287C48.2598 35.2332 48.4352 34.5741 48.5229 34.0907C48.6106 33.6513 48.786 32.7725 48.8737 32.1574C48.9614 31.4982 49.0491 30.6634 49.0929 30.0482C49.0929 29.477 49.0929 28.6861 49.0929 28.2467C49.0929 27.8073 49.0052 27.1042 48.9175 26.7087C48.8298 26.2693 48.6983 25.6102 48.5668 25.2148L48.8298 25.3026Z" fill="#0C0D0F"/>
<path d="M93.1401 42.4839C92.9647 42.4839 92.8332 42.44 92.6578 42.3082C92.5263 42.1764 92.4824 42.0445 92.4824 41.8248C92.4824 41.6051 92.4824 41.6491 92.5263 41.5612L99.936 21.6562C99.9799 21.4365 100.111 21.2607 100.287 21.1289C100.462 20.9531 100.725 20.8652 101.032 20.8652H104.408C104.715 20.8652 104.934 20.9531 105.11 21.1289C105.285 21.2607 105.417 21.4365 105.461 21.6562L112.87 41.5612C112.87 41.6491 112.87 41.737 112.87 41.8248C112.87 42.0006 112.826 42.1764 112.695 42.3082C112.563 42.44 112.432 42.4839 112.256 42.4839H109.582C109.275 42.4839 109.1 42.44 108.924 42.3082C108.793 42.1764 108.705 42.0445 108.661 41.9127L107.214 38.1338H98.0507L96.6038 41.9127C96.6038 42.0445 96.4723 42.1764 96.3408 42.3082C96.2092 42.44 95.99 42.4839 95.7269 42.4839H93.0524H93.1401ZM99.2345 34.5747H106.25L102.742 25.0396L99.2784 34.5747H99.2345Z" fill="white"/>
<path d="M115.676 42.4839C115.457 42.4839 115.281 42.3961 115.15 42.2642C115.018 42.1324 114.931 41.9567 114.931 41.737V21.6122C114.931 21.3925 115.018 21.2168 115.15 21.0849C115.281 20.9531 115.457 20.8652 115.676 20.8652H118.57C118.789 20.8652 118.964 20.9531 119.096 21.0849C119.227 21.2168 119.315 21.3925 119.315 21.6122V41.737C119.315 41.9567 119.227 42.1324 119.096 42.2642C118.964 42.3961 118.789 42.4839 118.57 42.4839H115.676Z" fill="white"/>
<path d="M123.963 42.4849C123.744 42.4849 123.569 42.397 123.437 42.2652C123.305 42.1334 123.218 41.9576 123.218 41.7379V21.6132C123.218 21.3935 123.305 21.2177 123.437 21.042C123.569 20.9101 123.744 20.8223 123.963 20.8223H131.943C134.442 20.8223 136.371 21.3935 137.818 22.5359C139.265 23.6784 139.967 25.3481 139.967 27.5891C139.967 29.8301 139.572 30.4013 138.827 31.368C138.081 32.3786 137.073 33.1256 135.845 33.565L140.361 41.4303C140.405 41.5622 140.449 41.65 140.449 41.7819C140.449 41.9576 140.361 42.1334 140.23 42.2652C140.098 42.397 139.967 42.441 139.791 42.441H136.985C136.634 42.441 136.371 42.3531 136.196 42.1773C136.02 42.0016 135.845 41.8258 135.757 41.6061L131.768 34.2681H127.471V41.694C127.471 41.9137 127.383 42.0895 127.251 42.2213C127.12 42.3531 126.945 42.441 126.725 42.441H123.919L123.963 42.4849ZM127.515 30.8407H131.855C133.127 30.8407 134.047 30.5771 134.661 30.0058C135.275 29.4346 135.582 28.6437 135.582 27.5891C135.582 26.5345 135.275 25.7436 134.661 25.1724C134.047 24.5572 133.127 24.2936 131.855 24.2936H127.515V30.8407Z" fill="white"/>
<path d="M143.781 42.4849C143.562 42.4849 143.386 42.397 143.255 42.2652C143.123 42.1334 143.036 41.9576 143.036 41.7379V21.6132C143.036 21.3935 143.123 21.2177 143.255 21.042C143.386 20.9101 143.562 20.8223 143.781 20.8223H157.154C157.373 20.8223 157.548 20.9101 157.724 21.042C157.855 21.1738 157.943 21.3496 157.943 21.6132V23.7663C157.943 23.986 157.855 24.1617 157.724 24.3375C157.592 24.4693 157.373 24.5133 157.154 24.5133H147.245V30.4013H156.54C156.759 30.4013 156.934 30.4892 157.11 30.621C157.241 30.7528 157.329 30.9286 157.329 31.1922V33.3453C157.329 33.565 157.241 33.7408 157.11 33.8726C156.978 34.0044 156.759 34.0923 156.54 34.0923H147.245V41.7379C147.245 41.9576 147.157 42.1334 147.026 42.2652C146.894 42.397 146.675 42.4849 146.456 42.4849H143.737H143.781Z" fill="white"/>
<path d="M161.363 42.4839C161.143 42.4839 160.968 42.3961 160.836 42.2642C160.705 42.1324 160.617 41.9567 160.617 41.737V21.6122C160.617 21.3925 160.705 21.2168 160.836 21.0849C160.968 20.9531 161.143 20.8652 161.363 20.8652H164.212C164.432 20.8652 164.607 20.9531 164.739 21.0849C164.87 21.2168 164.958 21.3925 164.958 21.6122V38.8369H174.735C174.954 38.8369 175.13 38.9248 175.305 39.0566C175.437 39.1884 175.524 39.3642 175.524 39.6278V41.7809C175.524 42.0006 175.437 42.1764 175.305 42.3082C175.174 42.44 174.954 42.5279 174.735 42.5279H161.363V42.4839Z" fill="white"/>
<path d="M185.609 42.7925C183.767 42.7925 182.189 42.4849 180.874 41.9137C179.558 41.2985 178.55 40.3757 177.804 39.1015C177.059 37.8272 176.664 36.2453 176.621 34.3559C176.621 33.4771 176.621 32.5983 176.621 31.7195C176.621 30.8407 176.621 29.9619 176.621 29.083C176.664 27.1936 177.103 25.6557 177.848 24.3814C178.594 23.1071 179.646 22.1844 180.961 21.5253C182.277 20.8662 183.855 20.5586 185.609 20.5586C187.363 20.5586 188.941 20.8662 190.256 21.5253C191.572 22.1844 192.624 23.1071 193.413 24.3814C194.202 25.6557 194.597 27.1936 194.641 29.083C194.641 30.0058 194.685 30.8846 194.685 31.7195C194.685 32.5543 194.685 33.4771 194.641 34.3559C194.597 36.2453 194.159 37.8272 193.457 39.1015C192.712 40.3757 191.659 41.2985 190.344 41.9137C189.029 42.5288 187.45 42.7925 185.609 42.7925ZM185.609 39.2333C186.924 39.2333 188.02 38.8378 188.897 38.0469C189.73 37.256 190.213 35.9378 190.256 34.1362C190.256 33.2134 190.3 32.3786 190.3 31.6316C190.3 30.8846 190.3 30.0058 190.256 29.127C190.256 27.9406 189.993 26.9739 189.599 26.2269C189.204 25.4799 188.678 24.9087 187.976 24.6011C187.319 24.2496 186.53 24.0738 185.653 24.0738C184.776 24.0738 184.03 24.2496 183.329 24.6011C182.671 24.9087 182.101 25.4799 181.707 26.2269C181.312 26.9739 181.093 27.9406 181.049 29.127C181.049 30.0058 181.049 30.8407 181.049 31.6316C181.049 32.4225 181.049 33.2134 181.049 34.1362C181.093 35.9378 181.575 37.212 182.408 38.0469C183.241 38.8378 184.337 39.2333 185.653 39.2333H185.609Z" fill="white"/>
<path d="M201.086 42.4839C200.779 42.4839 200.516 42.3961 200.341 42.2203C200.165 42.0445 200.078 41.8248 199.99 41.5612L196.307 21.744C196.307 21.7001 196.307 21.6122 196.307 21.5683V21.4804C196.307 21.3046 196.351 21.1289 196.483 20.997C196.614 20.8652 196.789 20.8213 196.965 20.8213H199.683C200.209 20.8213 200.472 21.041 200.56 21.4365L203.103 35.4095L205.865 26.3578C205.909 26.182 206.041 26.0502 206.172 25.8744C206.348 25.6987 206.567 25.6108 206.874 25.6108H208.54C208.891 25.6108 209.11 25.6987 209.241 25.8744C209.373 26.0502 209.461 26.182 209.504 26.3578L212.311 35.3656L214.854 21.3925C214.897 20.997 215.204 20.7773 215.73 20.7773H218.449C218.624 20.7773 218.756 20.8213 218.887 20.9531C219.019 21.0849 219.063 21.2167 219.063 21.4365V21.5243C219.063 21.5243 219.063 21.6122 219.063 21.7001L215.38 41.5172C215.38 41.7809 215.204 42.0006 215.029 42.1763C214.854 42.3521 214.59 42.44 214.284 42.44H212.223C211.916 42.44 211.653 42.3521 211.477 42.1763C211.302 42.0006 211.214 41.8248 211.127 41.6491L207.663 31.3231L204.199 41.6491C204.112 41.8248 203.98 42.0006 203.848 42.1763C203.673 42.3521 203.454 42.44 203.103 42.44H201.042L201.086 42.4839Z" fill="white"/>
<path d="M103.137 70.299C100.988 70.299 99.2345 69.9914 97.7876 69.3763C96.3846 68.7172 95.2885 67.9262 94.4992 66.9156C93.7539 65.861 93.3593 64.8065 93.3154 63.664C93.3154 63.4443 93.4031 63.2685 93.5347 63.1367C93.6662 63.0049 93.8416 62.917 94.0608 62.917H97.1299C97.4369 62.917 97.6561 63.0049 97.7876 63.1367C97.963 63.2685 98.0945 63.4004 98.1822 63.5761C98.3137 64.0155 98.5768 64.4549 98.9714 64.8943C99.366 65.2898 99.8922 65.6413 100.55 65.9489C101.251 66.2126 102.084 66.3444 103.137 66.3444C104.803 66.3444 106.03 66.0807 106.82 65.5095C107.653 64.9383 108.047 64.1913 108.047 63.2685C108.047 62.3458 107.828 62.0822 107.39 61.6867C106.951 61.2912 106.294 60.8958 105.373 60.5882C104.496 60.2367 103.268 59.8851 101.777 59.5336C100.068 59.1381 98.6207 58.6109 97.4369 58.0396C96.2969 57.4245 95.42 56.6775 94.8062 55.7987C94.2362 54.9199 93.9293 53.7774 93.9293 52.3713C93.9293 50.9652 94.28 49.8667 94.9815 48.8121C95.7269 47.7576 96.7353 46.9666 98.0945 46.3515C99.4537 45.7363 101.032 45.4727 102.917 45.4727C104.803 45.4727 105.724 45.6924 106.863 46.0878C108.003 46.4833 108.968 47.0106 109.713 47.6697C110.459 48.3288 111.029 49.0318 111.423 49.7788C111.818 50.5258 112.037 51.2289 112.081 51.9319C112.081 52.1077 111.993 52.2834 111.862 52.4592C111.73 52.591 111.555 52.6789 111.336 52.6789H108.135C107.96 52.6789 107.784 52.635 107.565 52.5471C107.39 52.4592 107.214 52.2834 107.127 52.0198C106.995 51.3167 106.557 50.7016 105.767 50.1743C105.022 49.647 104.057 49.4273 102.83 49.4273C101.602 49.4273 100.594 49.647 99.8483 50.1303C99.103 50.5697 98.7083 51.3167 98.7083 52.2834C98.7083 53.2501 98.8837 53.4698 99.2783 53.9092C99.6729 54.3047 100.287 54.7002 101.12 55.0077C101.953 55.3153 103.093 55.6668 104.452 56.0623C106.381 56.5017 108.003 56.9851 109.231 57.6002C110.459 58.1714 111.38 58.9184 111.949 59.7972C112.519 60.6761 112.826 61.7746 112.826 63.1367C112.826 64.4989 112.432 65.9489 111.599 67.0474C110.81 68.102 109.67 68.9369 108.179 69.5081C106.732 70.0793 105.022 70.3869 103.049 70.3869L103.137 70.299Z" fill="white"/>
<path d="M125.41 70.2981C123.393 70.2981 121.683 69.9466 120.236 69.2875C118.789 68.5844 117.649 67.5298 116.816 66.1677C116.027 64.7616 115.632 62.9161 115.632 60.7191V46.7021C115.632 46.4384 115.72 46.2627 115.852 46.0869C116.027 45.9111 116.202 45.8672 116.422 45.8672H119.535C119.798 45.8672 119.973 45.9551 120.104 46.0869C120.28 46.2627 120.324 46.4384 120.324 46.7021V60.7191C120.324 62.6085 120.762 64.0146 121.683 64.9373C122.56 65.8162 123.787 66.2995 125.366 66.2995C126.944 66.2995 128.128 65.8601 129.005 64.9373C129.882 64.0146 130.364 62.6085 130.364 60.7191V46.7021C130.364 46.4384 130.452 46.2627 130.583 46.0869C130.759 45.9111 130.934 45.8672 131.197 45.8672H134.31C134.573 45.8672 134.749 45.9551 134.88 46.0869C135.056 46.2627 135.099 46.4384 135.099 46.7021V60.7191C135.099 62.9161 134.705 64.7616 133.916 66.1677C133.126 67.5738 132.03 68.6284 130.54 69.2875C129.093 69.9466 127.383 70.2981 125.366 70.2981H125.41Z" fill="white"/>
<path d="M140.142 69.9466C139.879 69.9466 139.703 69.8587 139.528 69.7269C139.352 69.595 139.309 69.3753 139.309 69.1556V46.7021C139.309 46.4384 139.396 46.2627 139.528 46.0869C139.703 45.9111 139.879 45.8672 140.142 45.8672H142.86C143.167 45.8672 143.43 45.9551 143.562 46.1308C143.737 46.3066 143.825 46.4384 143.868 46.5263L150.489 58.9175L157.197 46.5263C157.241 46.4384 157.329 46.3066 157.504 46.1308C157.68 45.9551 157.899 45.8672 158.206 45.8672H160.88C161.143 45.8672 161.319 45.9551 161.494 46.0869C161.669 46.2627 161.757 46.4384 161.757 46.7021V69.1556C161.757 69.3753 161.669 69.595 161.494 69.7269C161.319 69.9026 161.143 69.9466 160.88 69.9466H157.987C157.723 69.9466 157.548 69.8587 157.373 69.7269C157.241 69.5511 157.153 69.3753 157.153 69.1556V54.2159L152.331 63.3994C152.199 63.6191 152.067 63.7949 151.892 63.9707C151.717 64.1025 151.454 64.1904 151.191 64.1904H149.788C149.481 64.1904 149.218 64.1025 149.042 63.9707C148.867 63.7949 148.735 63.6191 148.648 63.3994L143.825 54.2159V69.1556C143.825 69.3753 143.737 69.595 143.605 69.7269C143.474 69.8587 143.255 69.9466 143.035 69.9466H140.142Z" fill="white"/>
<path d="M167.019 69.9466C166.756 69.9466 166.58 69.8587 166.405 69.7269C166.229 69.5511 166.186 69.3753 166.186 69.1556V46.7021C166.186 46.4384 166.273 46.2627 166.405 46.0869C166.58 45.9111 166.756 45.8672 167.019 45.8672H169.737C170.044 45.8672 170.307 45.9551 170.438 46.1308C170.614 46.3066 170.702 46.4384 170.745 46.5263L177.366 58.9175L184.074 46.5263C184.118 46.4384 184.206 46.3066 184.381 46.1308C184.557 45.9551 184.776 45.8672 185.083 45.8672H187.757C188.02 45.8672 188.196 45.9551 188.371 46.0869C188.546 46.2627 188.59 46.4384 188.59 46.7021V69.1556C188.59 69.3753 188.503 69.595 188.371 69.7269C188.196 69.9026 188.02 69.9466 187.757 69.9466H184.863C184.6 69.9466 184.425 69.8587 184.25 69.7269C184.118 69.5511 184.03 69.3753 184.03 69.1556V54.2159L179.207 63.3994C179.076 63.6191 178.944 63.7949 178.769 63.9707C178.594 64.1025 178.331 64.1904 178.068 64.1904H176.664C176.358 64.1904 176.094 64.1025 175.919 63.9707C175.744 63.7949 175.612 63.6191 175.524 63.3994L170.702 54.2159V69.1556C170.702 69.3753 170.614 69.595 170.482 69.7269C170.351 69.8587 170.132 69.9466 169.912 69.9466H167.019Z" fill="white"/>
<path d="M193.808 69.9466C193.589 69.9466 193.369 69.8587 193.238 69.7269C193.062 69.5511 193.019 69.3753 193.019 69.1556V46.6581C193.019 46.4384 193.106 46.2187 193.238 46.0869C193.413 45.9111 193.589 45.8672 193.808 45.8672H197.052C197.315 45.8672 197.491 45.9551 197.622 46.0869C197.798 46.2627 197.841 46.4384 197.841 46.6581V69.1556C197.841 69.3753 197.754 69.595 197.622 69.7269C197.491 69.9026 197.272 69.9466 197.052 69.9466H193.808Z" fill="white"/>
<path d="M208.364 69.9475C208.145 69.9475 207.926 69.8597 207.794 69.7278C207.663 69.596 207.575 69.3763 207.575 69.1566V50.0865H201.217C200.998 50.0865 200.779 49.9986 200.647 49.8668C200.472 49.691 200.428 49.5152 200.428 49.2955V46.747C200.428 46.4833 200.516 46.3076 200.647 46.1318C200.823 45.956 200.998 45.9121 201.217 45.9121H218.755C219.018 45.9121 219.194 46 219.369 46.1318C219.545 46.3076 219.588 46.4833 219.588 46.747V49.2955C219.588 49.5152 219.501 49.7349 219.369 49.8668C219.194 50.0425 219.018 50.0865 218.755 50.0865H212.442V69.1566C212.442 69.3763 212.354 69.596 212.222 69.7278C212.091 69.8597 211.872 69.9475 211.609 69.9475H208.452H208.364Z" fill="white"/>
<path d="M219.676 42.4839C219.413 42.4839 219.15 42.44 218.887 42.3082C218.668 42.2203 218.448 42.0445 218.273 41.8688C218.098 41.693 217.966 41.4733 217.835 41.2536C217.747 41.0339 217.659 40.7703 217.659 40.4627C217.659 40.1551 217.703 39.9354 217.835 39.6717C217.922 39.452 218.098 39.2323 218.273 39.0566C218.448 38.8808 218.668 38.749 218.887 38.6172C219.106 38.5293 219.369 38.4414 219.676 38.4414C219.983 38.4414 220.202 38.4853 220.465 38.6172C220.684 38.705 220.904 38.8808 221.079 39.0566C221.254 39.2323 221.386 39.452 221.518 39.6717C221.605 39.8914 221.693 40.1551 221.693 40.4627C221.693 40.7703 221.649 40.99 221.518 41.2536C221.43 41.4733 221.254 41.693 221.079 41.8688C220.904 42.0445 220.684 42.1763 220.465 42.3082C220.246 42.396 219.983 42.4839 219.676 42.4839ZM219.676 42.1324C219.895 42.1324 220.114 42.1324 220.29 42.0006C220.465 41.9127 220.641 41.7809 220.816 41.6491C220.948 41.5172 221.079 41.3415 221.167 41.1218C221.254 40.9021 221.298 40.7263 221.298 40.4627C221.298 40.199 221.298 40.0233 221.167 39.8036C221.079 39.5839 220.948 39.4081 220.816 39.2763C220.684 39.1445 220.509 39.0126 220.29 38.9248C220.114 38.8369 219.895 38.7929 219.676 38.7929C219.457 38.7929 219.238 38.7929 219.062 38.9248C218.887 39.0126 218.711 39.1445 218.536 39.2763C218.405 39.4081 218.273 39.5839 218.185 39.8036C218.098 40.0233 218.054 40.199 218.054 40.4627C218.054 40.7263 218.054 40.9021 218.185 41.1218C218.273 41.3415 218.405 41.5172 218.536 41.6491C218.668 41.7809 218.843 41.9127 219.062 42.0006C219.238 42.0885 219.457 42.1324 219.676 42.1324ZM219.062 41.4733C218.975 41.4733 218.931 41.4733 218.931 41.3415V39.5399C218.931 39.452 218.931 39.4081 219.062 39.4081H219.808C219.939 39.4081 220.071 39.4081 220.202 39.452C220.334 39.452 220.421 39.5399 220.509 39.6717C220.597 39.7596 220.597 39.8914 220.597 40.0672C220.597 40.243 220.597 40.3308 220.509 40.4187C220.421 40.5066 220.334 40.5945 220.246 40.6384L220.597 41.2536C220.597 41.2536 220.597 41.2536 220.597 41.2975C220.597 41.2975 220.597 41.3415 220.597 41.3854C220.597 41.3854 220.553 41.3854 220.509 41.3854H220.378H220.29C220.29 41.3854 220.246 41.3415 220.202 41.2975L219.851 40.6824H219.413V41.2975C219.413 41.3854 219.413 41.4294 219.281 41.4294H219.106L219.062 41.4733ZM219.325 40.3748H219.764C219.895 40.3748 220.027 40.3748 220.071 40.2869C220.114 40.199 220.158 40.1551 220.158 40.0672C220.158 39.9793 220.158 39.9354 220.071 39.8475C219.983 39.7596 219.939 39.7596 219.764 39.7596H219.325V40.3308V40.3748Z" fill="white"/>
</svg>
