<?xml version="1.0" encoding="UTF-8"?><svg id="Layer_1" xmlns="http://www.w3.org/2000/svg" xmlns:xlink="http://www.w3.org/1999/xlink" viewBox="0 0 1729.47 156.35"><defs><style>.cls-1,.cls-2{fill:none;}.cls-3{clip-path:url(#clippath);}.cls-4{fill:#565c62;}.cls-2{stroke:#565c62;stroke-width:2px;}</style><clipPath id="clippath"><rect class="cls-1" x=".76" y="8.04" width="147.54" height="147.54"/></clipPath></defs><g class="cls-3"><g><path class="cls-4" d="m146.16,8.78c.7-.72,1.92-.21,1.91.79-.19,13.88-.81,29.09-3.22,42.7-2.41,13.63-6.6,25.61-13.88,33.07l-2.95,3.03h0c-3.8,2.46-9.29,4.18-15.89,4.19-8.6.02-19.93-2.65-34.93-9.58.17-.37.26-.78.25-1.21,0-.53-.15-1.02-.4-1.44h.02c11.34-5.44,19.11-11.51,23.62-16.81,2.44-2.85,3.92-5.46,4.53-7.6.58-2.05.35-3.62-.54-4.61l41.5-42.54Z"/><path class="cls-4" d="m72.92,84.18s0,0,0,0c.47.32,1.04.51,1.65.5.56,0,1.07-.17,1.51-.44.02-.01.04-.02.05-.03l.02.03c5.38,11.18,11.4,18.85,16.65,23.33,2.85,2.43,5.45,3.91,7.6,4.52,1.42.41,2.62.42,3.55.09h0c.26-.1.51-.22.72-.37.07,0,.15,0,.22-.01v.02s42.67,41.62,42.67,41.62c.72.7.21,1.92-.79,1.91-13.88-.2-29.08-.82-42.7-3.22-13.63-2.4-25.6-6.6-33.07-13.88l-3.07-3c-2.45-3.79-4.53-9.65-4.54-16.25,0-8.58,2.65-19.88,9.53-34.83Z"/><path class="cls-4" d="m85.67,44.22c0,8.6-2.67,19.95-9.59,34.95l-.23.06c-.4-.2-.86-.32-1.34-.31-.52,0-1.02.15-1.44.4h0c-5.42-11.37-11.51-19.14-16.81-23.67-2.85-2.43-5.45-3.91-7.6-4.52-2.05-.58-3.63-.35-4.62.55L1.5,10.17c-.72-.7-.21-1.92.79-1.91,6.94.1,14.21.3,21.45.78,7.24.48,14.45,1.24,21.25,2.45,13.63,2.41,25.61,6.6,33.07,13.88l3.59,3.5c2.44,3.8,4.01,8.77,4.02,15.34Z"/><path class="cls-4" d="m72.05,80.34h0c-.26.44-.4.95-.4,1.5,0,.4.09.78.24,1.12h-.06c-11.25,5.41-18.96,11.46-23.46,16.73-2.43,2.85-3.92,5.46-4.53,7.61-.52,1.82-.19,3.73.53,4.87.01.03.03.07.05.11L2.94,154.79l-.05.05c-.7.72-1.92.21-1.91-.79.19-13.88.81-29.09,3.22-42.7,2.41-13.63,6.6-25.61,13.88-33.07l23.54-24.12-20.07,20.57c3.8-2.46,8.78-4.04,15.38-4.05,8.64,0,20.02,2.68,35.11,9.67Z"/></g></g><path class="cls-2" d="m2.95,154.8l41.49-42.53h.01s.08-.09.08-.09"/><path class="cls-2" d="m43.61,52.12h.01"/><path class="cls-2" d="m2.91,154.84c-.7.72-1.92.21-1.91-.79.19-13.88.81-29.09,3.22-42.7,2.41-13.63,6.6-25.61,13.88-33.07l23.54-24.12"/><path class="cls-2" d="m104.9,111.82l42.66,41.62c.72.7.21,1.91-.79,1.91-13.88-.19-29.08-.81-42.7-3.22-13.63-2.41-25.6-6.6-33.07-13.88l-3.07-3-23.1-22.54c-.08-.07-.19-.19-.28-.31-.04-.05-.08-.1-.11-.15-.02-.04-.04-.07-.05-.1,0-.02-.02-.05-.02-.07"/><path class="cls-2" d="m72.96,84.11s-.02.05-.03.07c0,0,0,0,0,0-6.88,14.94-9.54,26.25-9.53,34.83,0,6.6,2.08,12.45,4.54,16.25"/><path class="cls-2" d="m44.82,112.71c-.13-.13-.26-.28-.37-.46-.02-.03-.04-.06-.06-.1-.71-1.14-1.04-3.05-.53-4.87.61-2.15,2.09-4.75,4.53-7.6,4.5-5.26,12.21-11.31,23.46-16.72"/><path class="cls-2" d="m131.18,85.54l-.2-.19-2.95,3.03-.68.69"/><path class="cls-2" d="m104.55,51.45l.12-.13,41.5-42.54c.7-.72,1.92-.21,1.91.79-.19,13.88-.82,29.09-3.22,42.7-2.41,13.63-6.6,25.61-13.88,33.07"/><path class="cls-2" d="m104.93,111.79s-.01,0-.02,0c-.07,0-.14.01-.22.01-.07,0-.14,0-.2,0"/><path class="cls-2" d="m104.82,111.71s-.09.07-.14.1c-.22.15-.46.26-.72.36"/><path class="cls-2" d="m105.38,111.61l-.2-.19c-.1.11-.21.2-.33.3"/><path class="cls-2" d="m77.1,82.94s.06.03.08.04h.01c15.01,6.93,26.33,9.6,34.93,9.58,6.6,0,12.1-1.73,15.89-4.19l-22.85,23.05"/><path class="cls-2" d="m103.97,112.17h0c-.92.33-2.12.32-3.55-.08-2.15-.61-4.75-2.09-7.6-4.52-5.25-4.49-11.27-12.15-16.65-23.33"/><path class="cls-2" d="m44.18,51.8l-.12-.12L1.52,10.18c-.72-.7-.21-1.92.79-1.91,6.94.1,14.21.3,21.45.78,7.24.48,14.44,1.24,21.25,2.45,13.63,2.41,25.61,6.6,33.07,13.88l3.59,3.5,22.59,22.03c.16.16.26.33.28.51"/><path class="cls-2" d="m104.73,50.98l-.19.19s.09.09.13.14c.89.98,1.12,2.56.54,4.61-.61,2.15-2.09,4.76-4.53,7.6-4.52,5.29-12.28,11.37-23.62,16.79"/><path class="cls-2" d="m76.1,79.17c6.92-15.01,9.6-26.35,9.59-34.95,0-6.57-1.58-11.55-4.02-15.34,0-.01-.02-.03-.03-.04l22.9,22.34"/><path class="cls-2" d="m72.07,80.34c-15.09-6.98-26.47-9.68-35.11-9.67-6.6,0-11.59,1.59-15.38,4.05l20.07-20.57,1.98-2.03"/><path class="cls-2" d="m43.63,52.11h0s.29-.31.29-.31c.04-.04.09-.09.13-.13.98-.9,2.56-1.13,4.62-.55,2.15.61,4.75,2.09,7.6,4.52,5.3,4.52,11.39,12.3,16.81,23.66"/><path class="cls-2" d="m72.94,84.19s0,0,0,0c-.44-.3-.8-.73-1.02-1.23-.15-.34-.23-.72-.24-1.12,0-.54.14-1.06.4-1.49.25-.42.6-.77,1.02-1.02.42-.25.91-.4,1.44-.4.48,0,.93.11,1.34.31.49.25.9.63,1.18,1.1.25.42.4.91.4,1.44,0,.43-.08.84-.25,1.21,0,0,0,0,0,0"/><path class="cls-2" d="m76.08,84.23c-.44.28-.95.43-1.51.44-.61,0-1.18-.17-1.65-.5,0,0,0,0,0,0"/><path class="cls-2" d="m77.19,82.98h0c-.22.5-.58.93-1.04,1.22-.02.01-.03.02-.05.03"/><path class="cls-4" d="m189.14,153.76h16.02c6.45,0,10.61-2.91,12.69-8.95l6.24-16.85h49.94l6.45,17.06c2.29,5.83,6.66,8.74,12.9,8.74h16.85c8.32,0,11.65-5.2,8.74-12.9l-48.69-124.01c-2.29-5.83-6.45-8.74-12.9-8.74h-16.23c-6.45,0-10.82,2.91-13.11,8.74l-47.65,124.01c-3.12,7.7.42,12.9,8.74,12.9Zm41.61-55.76l18.52-49.94,17.69,49.94h-36.2Z"/><path class="cls-4" d="m351.83,35.79c13.73,0,21.64-7.7,21.64-17.89s-7.28-17.89-21.64-17.89-21.43,7.91-21.43,17.89,7.91,17.89,21.43,17.89Zm-7.49,117.97h14.98c7.28,0,11.24-3.95,11.24-11.24V56.8c0-7.28-3.95-11.24-11.24-11.24h-14.98c-7.28,0-11.24,3.95-11.24,11.24v85.72c0,7.28,3.95,11.24,11.24,11.24Z"/><path class="cls-4" d="m403.22,153.76h14.98c7.28,0,11.23-3.95,11.23-11.24v-34.33c0-19.35,7.7-29.34,22.68-29.34,1.66,0,3.12,0,4.99.21,4.79.62,8.11-2.08,8.11-8.32v-18.73c0-3.95-1.04-8.53-6.45-8.53-.42-.21-2.91-.21-3.12-.21-7.49,0-23.93,4.58-27.46,25.59v-12.07c0-7.28-4.16-11.24-11.24-11.24h-13.73c-7.28,0-11.24,3.95-11.24,11.24v85.72c0,7.28,3.95,11.24,11.24,11.24Z"/><path class="cls-4" d="m495.8,153.76h14.15c7.28,0,11.24-3.95,11.24-11.24v-69.49h16.23c3.54,0,5.83-2.08,5.83-5.83v-13.73c0-3.75-2.29-5.83-5.83-5.83h-16.85v-5.62c0-9.99,7.49-14.15,20.18-14.15,4.58,0,14.57,0,22.26,2.08v112.56c0,7.28,3.95,11.24,11.24,11.24h14.98c7.28,0,11.23-3.95,11.23-11.24V18.52c0-6.66-3.12-11.03-9.78-12.48-18.73-4.16-38.7-4.99-49.52-4.99-31.42,0-56.8,8.53-56.8,40.99v5.62h-8.12c-3.74,0-5.83,2.08-5.83,5.83v13.73c0,3.75,2.08,5.83,5.83,5.83h8.12v69.49c0,7.28,4.16,11.24,11.44,11.24Z"/><path class="cls-4" d="m676.42,156.05c35.79,0,61.17-25.18,61.17-56.39s-25.38-56.39-61.17-56.39-61.17,25.18-61.17,56.39,25.59,56.39,61.17,56.39Zm0-29.55c-14.98,0-26.01-11.65-26.01-26.84s11.03-26.63,26.01-26.63,26.22,11.24,26.22,26.63-11.24,26.84-26.22,26.84Z"/><path class="cls-4" d="m786.72,153.76h9.99c6.45,0,10.82-2.91,12.69-9.36l13.52-44.94,13.52,44.94c1.87,6.45,6.24,9.36,12.9,9.36h9.99c6.45,0,10.61-2.71,12.69-8.95l30.59-86.35c2.7-7.7-1.04-12.9-9.16-12.9h-17.27c-6.66,0-10.82,2.91-12.48,9.57l-13.32,48.06-13.52-45.36c-1.87-6.45-6.03-9.36-12.48-9.36h-2.7c-6.66,0-10.61,2.91-12.48,9.36l-13.73,45.36-13.32-48.06c-1.46-6.66-5.62-9.57-12.28-9.57h-17.27c-8.32,0-12.07,5.2-9.15,12.9l30.59,86.35c2.08,6.03,6.24,8.95,12.69,8.95Z"/><path class="cls-4" d="m1011.27,156.05c31.42,0,57.43-14.77,57.43-44.53-.42-19.35-11.03-33.91-41.41-44.32l-17.47-6.24c-11.03-3.95-13.74-8.74-13.74-13.32,0-7.91,7.91-12.07,16.65-12.07,7.28,0,12.48,2.7,15.6,7.28,4.37,5.41,8.12,7.91,14.57,6.03l9.78-2.7c7.07-2.08,10.4-7.49,6.66-14.36-8.74-16.44-24.56-26.01-47.24-26.01-30.16,0-53.47,17.48-53.47,44.73.42,26.63,28.51,37.87,40.78,41.82l17.69,6.45c10.82,3.54,14.35,8.74,14.35,14.15,0,8.53-8.11,13.32-20.18,13.32-11.23,0-19.35-4.37-23.93-11.44-3.74-6.03-7.28-8.74-13.73-7.28l-10.4,2.5c-7.08,1.66-10.82,6.66-8.11,13.73,8.11,20.18,28.3,32.25,56.18,32.25Z"/><path class="cls-4" d="m1121.61,156.05c15.4,0,26.01-6.66,31.63-17.48v3.95c0,7.28,3.95,11.24,11.23,11.24h14.98c7.29,0,11.24-3.95,11.24-11.24V56.8c0-7.28-3.95-11.24-11.24-11.24h-14.98c-7.28,0-11.23,3.95-11.23,11.24v45.98c0,14.36-6.66,23.72-17.69,23.72s-14.98-9.57-14.98-21.22v-48.48c0-7.28-3.95-11.24-11.23-11.24h-14.99c-7.28,0-11.23,3.95-11.23,11.24v51.6c0,21.64,7.28,47.65,38.49,47.65Z"/><path class="cls-4" d="m1222.96,153.76h14.98c7.28,0,11.24-3.95,11.24-11.24v-46.82c0-14.36,5.82-22.68,14.77-22.68s12.69,8.32,12.69,20.18v49.31c0,7.28,3.95,11.24,11.24,11.24h14.98c7.28,0,11.23-3.95,11.23-11.24v-47.44c.21-14.15,6.04-22.06,14.78-22.06s12.69,8.32,12.69,20.18v49.31c0,7.28,3.95,11.24,11.23,11.24h14.98c7.29,0,11.24-3.95,11.24-11.24v-51.39c0-21.64-9.99-47.86-38.91-47.86-11.86,0-23.3,2.29-33.91,17.06-6.25-11.24-16.86-17.06-29.97-17.06s-23.3,6.66-27.04,17.69v-4.16c0-7.28-3.96-11.24-11.24-11.24h-14.98c-7.28,0-11.24,3.95-11.24,11.24v85.72c0,7.28,3.96,11.24,11.24,11.24Z"/><path class="cls-4" d="m1409.85,153.76h14.98c7.28,0,11.23-3.95,11.23-11.24v-46.82c0-14.36,5.83-22.68,14.78-22.68s12.69,8.32,12.69,20.18v49.31c0,7.28,3.95,11.24,11.23,11.24h14.98c7.29,0,11.24-3.95,11.24-11.24v-47.44c.21-14.15,6.03-22.06,14.77-22.06s12.69,8.32,12.69,20.18v49.31c0,7.28,3.96,11.24,11.24,11.24h14.98c7.28,0,11.24-3.95,11.24-11.24v-51.39c0-21.64-9.99-47.86-38.91-47.86-11.86,0-23.31,2.29-33.92,17.06-6.24-11.24-16.85-17.06-29.96-17.06s-23.3,6.66-27.05,17.69v-4.16c0-7.28-3.95-11.24-11.23-11.24h-14.98c-7.29,0-11.24,3.95-11.24,11.24v85.72c0,7.28,3.95,11.24,11.24,11.24Z"/><path class="cls-4" d="m1604.22,35.79c13.74,0,21.64-7.7,21.64-17.89s-7.28-17.89-21.64-17.89-21.43,7.91-21.43,17.89,7.91,17.89,21.43,17.89Zm-7.49,117.97h14.98c7.29,0,11.24-3.95,11.24-11.24V56.8c0-7.28-3.95-11.24-11.24-11.24h-14.98c-7.28,0-11.23,3.95-11.23,11.24v85.72c0,7.28,3.95,11.24,11.23,11.24Z"/><path class="cls-4" d="m1691.4,156.05c19.14,0,38.07-8.74,38.07-35.37-.2-2.29-.41-5.41-1.45-8.32-.83-3.12-3.33-4.37-6.45-4.37h-13.94c-3.96,0-5.2,2.08-4.79,6.03.21,1.25.21,2.5.21,3.54,0,4.79-2.5,9.15-7.49,9.15-3.75,0-6.87-2.5-6.87-8.95v-44.73h21.85c3.74,0,5.83-2.08,5.83-5.83v-15.81c0-3.75-2.09-5.83-5.83-5.83h-21.85v-19.77c0-4.99-2.7-7.7-7.9-7.7h-13.11c-4.79,0-7.91,2.29-8.53,7.07l-3.75,20.39h-13.11c-3.74,0-5.82,2.08-5.82,5.83v15.81c0,3.75,2.08,5.83,5.82,5.83h9.78v44.11c0,30.79,20.6,38.91,39.33,38.91Z"/></svg>