<svg id="Capa_1" data-name="Capa 1" xmlns="http://www.w3.org/2000/svg" viewBox="0 0 501.27 160.98"><defs><style>.cls-1,.cls-3{fill:#fff;}.cls-2{fill:none;stroke:#fff;stroke-miterlimit:10;stroke-width:2.5px;}.cls-3{fill-rule:evenodd;}.cls-4{isolation:isolate;}</style></defs><path class="cls-1" d="M17.44,69.51l-6,15.32A4.31,4.31,0,0,1,6.9,87.74H2.63A2.51,2.51,0,0,1,.75,87,2.43,2.43,0,0,1,0,85.09a4.63,4.63,0,0,1,.47-1.63L28.88,10.62a5.31,5.31,0,0,1,5.21-3.75H41a5.31,5.31,0,0,1,5.22,3.75l28.23,73a4.22,4.22,0,0,1,.45,1.63,2.34,2.34,0,0,1-.75,1.88,2.4,2.4,0,0,1-1.87.77H68.1a4.31,4.31,0,0,1-4.5-3.06l-6-15.37ZM53.53,59.09l-16-41.3L21.51,59Z"/><path class="cls-1" d="M96.33,17.56a3,3,0,0,1-2.19.92h-6.6a3.11,3.11,0,0,1-3.09-3V8.77a3.14,3.14,0,0,1,3.13-3.11h6.6a3,3,0,0,1,2.19.91,3,3,0,0,1,.92,2.2v6.69A3,3,0,0,1,96.33,17.56ZM95.17,86.93a3,3,0,0,1-2.19.94H88.7a3.18,3.18,0,0,1-3.13-3.13v-54a3.13,3.13,0,0,1,3.13-3.13H93a3.12,3.12,0,0,1,3.11,3.13v53.9a3,3,0,0,1-.92,2.19Z"/><path class="cls-1" d="M146.18,28.59a3,3,0,0,1,.94,2.21v3.75A3.21,3.21,0,0,1,144,37.68h-6.71a13.29,13.29,0,0,0-9.88,3.41A13.36,13.36,0,0,0,124,51V84.72a3.17,3.17,0,0,1-3.12,3.13h-4.27a3.18,3.18,0,0,1-3.13-3.13v-54a3.13,3.13,0,0,1,3.13-3.13h4.27A3.14,3.14,0,0,1,124,30.73v3.61a14.52,14.52,0,0,1,5.62-5.1A19.19,19.19,0,0,1,138,27.63h6A2.94,2.94,0,0,1,146.18,28.59Z"/><path class="cls-1" d="M208.07,86.85a2.93,2.93,0,0,1-2.19.94H201.6a2.94,2.94,0,0,1-2.19-.94,3,3,0,0,1-.94-2.19V37.58H174.1V84.66a3.17,3.17,0,0,1-3.1,3.13h-4.33a3.18,3.18,0,0,1-3.12-3.13V37.58h-9.73a3.17,3.17,0,0,1-3.11-3.13V30.7a3.13,3.13,0,0,1,3.11-3.07h9.73V21.84c0-6.62,1.54-11.57,4.64-14.8s7.89-4.87,14.45-4.87h7.29a3,3,0,0,1,2.2.94A3,3,0,0,1,193,5.3V9.05a3,3,0,0,1-.92,2.21,3,3,0,0,1-2.2.92h-6.11c-3.75,0-6.35.88-7.7,2.66a12.55,12.55,0,0,0-2,7.63v5.22h24.37V5.3a3,3,0,0,1,.94-2.19,2.94,2.94,0,0,1,2.19-.94h4.28a2.93,2.93,0,0,1,2.19.94,3,3,0,0,1,1,2.19V84.66A3,3,0,0,1,208.07,86.85Z"/><path class="cls-1" d="M278.64,57.81a38,38,0,0,1-.23,5.33,28.91,28.91,0,0,1-8.15,18.75q-7.11,7-19.26,7t-19.27-7a29,29,0,0,1-8.15-18.75c0-.85-.12-2.63-.12-5.33s0-4.68.12-5.62a28.28,28.28,0,0,1,8.1-18.75q7.15-7,19.32-7t19.32,7a28.23,28.23,0,0,1,8.09,18.75C278.56,54,278.64,55.81,278.64,57.81ZM263,40.94a18.11,18.11,0,0,0-24,0,19.5,19.5,0,0,0-4.91,11.91c0,.91-.11,2.58-.11,5s0,3.9.11,4.75A19.53,19.53,0,0,0,239,74.48a18.11,18.11,0,0,0,24,0,19.52,19.52,0,0,0,4.93-11.92c.15-1.69.22-3.27.22-4.75a38,38,0,0,0-.22-5A19.47,19.47,0,0,0,263,40.94Z"/><path class="cls-1" d="M362.63,30.46a3.87,3.87,0,0,1,3.94-2.77h3.75a2.57,2.57,0,0,1,1.87.8,2.69,2.69,0,0,1,1,2l-.13.92L355.34,84.6c-.7,2.16-1.88,3.25-3.47,3.25h-3.58A2.83,2.83,0,0,1,346.1,87a7.16,7.16,0,0,1-1.39-2.37L330.93,46.19,317.17,84.6a7.5,7.5,0,0,1-1.39,2.4,2.89,2.89,0,0,1-2.19.88H310c-1.64,0-2.8-1.09-3.49-3.25L288.8,31.32v-.86a2.81,2.81,0,0,1,.81-2,2.65,2.65,0,0,1,2-.8h3.75a3.86,3.86,0,0,1,3.93,2.77l13,38.64,13.85-38.64a3.74,3.74,0,0,1,3.6-2.77h2.53a3.72,3.72,0,0,1,3.6,2.77L349.68,69.1Z"/><path class="cls-2" d="M474.9,27.07l15,15.39c8.65,8.87,9.88,28.36,10.11,44.69a.8.8,0,0,1-.78.83.84.84,0,0,1-.61-.24l-24.2-25.18"/><path class="cls-2" d="M474.2,63,458.79,78c-8.75,8.75-28.35,9.9-44.68,10.12a.78.78,0,0,1-.81-.76v0a.79.79,0,0,1,.24-.6l24.69-24.23"/><path class="cls-3" d="M458.79,78c4.84-4.73,7.09-14.06-2.19-33.32,15,6.75,20.36,15.6,17.77,18.13Z"/><path class="cls-2" d="M438.32,62.33l-15-15.41c-8.66-9-9.9-28.42-10.12-44.75a.79.79,0,0,1,.75-.83h0a.75.75,0,0,1,.6.25l24.21,25"/><path class="cls-3" d="M423.3,46.85c4.73,4.83,14.06,7.08,33.32-2.2-6.75,15-15.6,20.36-18.13,17.78Z"/><path class="cls-2" d="M439,26.37l15.41-15c8.85-8.66,28.35-9.89,44.68-10.12a.81.81,0,0,1,.83.78.79.79,0,0,1-.25.61L475,26.71"/><path class="cls-3" d="M454.42,11.36c-4.83,4.7-7.08,14,2.2,33.29-15-6.73-20.36-15.58-17.78-18.11Z"/><path class="cls-3" d="M489.91,42.46c-4.72-4.84-14.06-7.07-33.31,2.19,6.75-15,15.6-20.34,18.13-17.75Z"/><circle class="cls-1" cx="456.6" cy="44.65" r="1.86"/><g class="cls-4"><path class="cls-1" d="M44.13,119.47a1.83,1.83,0,0,1-1.27.52H39.61a2.37,2.37,0,0,1-1.43-.36,4.45,4.45,0,0,1-1-1.39,14.93,14.93,0,0,0-4.4-4.84A13.4,13.4,0,0,0,24.46,111a14.39,14.39,0,0,0-8,2.15,6.85,6.85,0,0,0-3.3,6.1,6.12,6.12,0,0,0,1.63,4.4,12.92,12.92,0,0,0,4.92,2.94q3.28,1.23,10,3,9,2.38,12.81,5.83a12.11,12.11,0,0,1,3.76,9.4,13.89,13.89,0,0,1-2.65,8.4,17.5,17.5,0,0,1-7.5,5.71A28.19,28.19,0,0,1,24.86,161a25.41,25.41,0,0,1-10.71-2.22,20.57,20.57,0,0,1-7.61-5.67,11.83,11.83,0,0,1-2.93-6.86A1.67,1.67,0,0,1,4.12,145a1.68,1.68,0,0,1,1.23-.52H8.6a2.57,2.57,0,0,1,1.43.36,3.12,3.12,0,0,1,1,1.38,13.13,13.13,0,0,0,4.64,5.24c2.25,1.58,5.3,2.38,9.16,2.38a18.19,18.19,0,0,0,9.79-2.5q4-2.5,4-6.54a5.53,5.53,0,0,0-2.1-4.4,17.46,17.46,0,0,0-5.75-3q-3.64-1.23-10.71-3-7.69-2-11.1-5.75a13.39,13.39,0,0,1-3.41-9.32,14.26,14.26,0,0,1,2.14-7.61A15.35,15.35,0,0,1,14.15,106a22.85,22.85,0,0,1,10.31-2.14A22.63,22.63,0,0,1,35,106.23,19.33,19.33,0,0,1,42,112a12.22,12.22,0,0,1,2.62,6.26A1.4,1.4,0,0,1,44.13,119.47Z"/><path class="cls-1" d="M57.37,119.59a2.1,2.1,0,0,1,1.51-.64h2.93A2.19,2.19,0,0,1,64,121.1V142q0,6,2.73,9.08c1.83,2,4.48,3,8,3a10.14,10.14,0,0,0,7.89-3.09q2.82-3.09,2.82-9V121.1A2.17,2.17,0,0,1,87.51,119h2.93a2.1,2.1,0,0,1,1.51.64,2.05,2.05,0,0,1,.63,1.51v37a2.15,2.15,0,0,1-2.14,2.14H87.51a2.05,2.05,0,0,1-1.51-.63,2.09,2.09,0,0,1-.63-1.51v-2.46Q81.25,161,73.47,161q-7.6,0-12.17-4.75t-4.56-13V121.1A2.05,2.05,0,0,1,57.37,119.59Z"/><path class="cls-1" d="M117.56,119.63a12,12,0,0,1,6.34-1.47q9.28,0,13,6.9a17.46,17.46,0,0,1,5.23-5.11,14.68,14.68,0,0,1,7.7-1.79q7.77,0,11.53,4.68t3.77,13.24v22a2.15,2.15,0,0,1-2.14,2.14h-2.93a2.05,2.05,0,0,1-1.51-.63,2.1,2.1,0,0,1-.64-1.51V136.88q0-11.9-9.35-11.9a8.64,8.64,0,0,0-6.82,2.86c-1.7,1.9-2.54,4.73-2.54,8.48v21.73a2.15,2.15,0,0,1-2.14,2.14h-2.94a2.17,2.17,0,0,1-2.14-2.14V136.88q0-11.9-9.35-11.9a8.64,8.64,0,0,0-6.82,2.86c-1.7,1.9-2.54,4.73-2.54,8.48v21.73a2.17,2.17,0,0,1-2.14,2.14H108.2a2.17,2.17,0,0,1-2.14-2.14v-37a2,2,0,0,1,.64-1.51,2.06,2.06,0,0,1,1.5-.64h2.94a2.06,2.06,0,0,1,1.5.64,2,2,0,0,1,.64,1.51v2.45A16.26,16.26,0,0,1,117.56,119.63Z"/><path class="cls-1" d="M189.72,119.63a12,12,0,0,1,6.35-1.47q9.27,0,13,6.9a17.49,17.49,0,0,1,5.24-5.11,14.64,14.64,0,0,1,7.69-1.79q7.77,0,11.54,4.68t3.76,13.24v22a2.15,2.15,0,0,1-2.14,2.14h-2.93a2.15,2.15,0,0,1-2.14-2.14V136.88q0-11.9-9.36-11.9a8.66,8.66,0,0,0-6.82,2.86q-2.53,2.85-2.54,8.48v21.73a2.15,2.15,0,0,1-2.14,2.14H206.3a2.15,2.15,0,0,1-2.14-2.14V136.88q0-11.9-9.36-11.9a8.64,8.64,0,0,0-6.82,2.86q-2.53,2.85-2.54,8.48v21.73a2.15,2.15,0,0,1-2.14,2.14h-2.93a2.05,2.05,0,0,1-1.51-.63,2.09,2.09,0,0,1-.63-1.51v-37a2.17,2.17,0,0,1,2.14-2.15h2.93a2.1,2.1,0,0,1,1.51.64,2.05,2.05,0,0,1,.63,1.51v2.45A16.42,16.42,0,0,1,189.72,119.63Z"/><path class="cls-1" d="M257.76,112.06a2,2,0,0,1-1.5.63h-4.52a2.05,2.05,0,0,1-1.51-.63,2.1,2.1,0,0,1-.64-1.51V106a2.1,2.1,0,0,1,.64-1.51,2.05,2.05,0,0,1,1.51-.63h4.52A2.17,2.17,0,0,1,258.4,106v4.52A2.06,2.06,0,0,1,257.76,112.06Zm-.79,47.5a2.07,2.07,0,0,1-1.51.63h-2.93a2.15,2.15,0,0,1-2.14-2.14v-37a2.05,2.05,0,0,1,.63-1.51,2.08,2.08,0,0,1,1.51-.64h2.93a2.08,2.08,0,0,1,1.51.64,2.05,2.05,0,0,1,.63,1.51v37A2.09,2.09,0,0,1,257,159.56Z"/><path class="cls-1" d="M283.26,151.55q1.38,1.81,5.27,1.82h4.2a2,2,0,0,1,1.51.64,2.06,2.06,0,0,1,.64,1.5v2.54a2.1,2.1,0,0,1-.64,1.51,2.05,2.05,0,0,1-1.51.63h-5q-6.75,0-9.91-3.53t-3.18-10.35V125.77h-5.86a2.17,2.17,0,0,1-2.15-2.14V121.1a2.19,2.19,0,0,1,2.15-2.15h5.86V106a2.17,2.17,0,0,1,2.14-2.14h2.94a2.15,2.15,0,0,1,2.14,2.14V119h10.07a2.1,2.1,0,0,1,1.51.64,2.05,2.05,0,0,1,.63,1.51v2.53a2.05,2.05,0,0,1-.63,1.51,2.09,2.09,0,0,1-1.51.63H281.87v20.54A8.49,8.49,0,0,0,283.26,151.55Z"/><path class="cls-1" d="M351.81,126.49a12.57,12.57,0,0,0,1.11-5.63,10,10,0,0,0-2.54-7.14q-2.53-2.7-7.69-2.7t-7.61,2.66a15.51,15.51,0,0,0-3.65,7.18,2.66,2.66,0,0,1-.79,1.35,1.92,1.92,0,0,1-1.27.47h-3.65a1.74,1.74,0,0,1-1.74-1.74,17.31,17.31,0,0,1,2.42-8,17.88,17.88,0,0,1,6.46-6.5,18.57,18.57,0,0,1,9.83-2.54,19.28,19.28,0,0,1,9.64,2.26,15.07,15.07,0,0,1,6.06,6.1,17.91,17.91,0,0,1,2.07,8.61,19.38,19.38,0,0,1-1.71,8.52,23.7,23.7,0,0,1-5.83,7.18l-17.68,16.49H359.5a2.08,2.08,0,0,1,1.51.64,2,2,0,0,1,.63,1.5v2.86a2.15,2.15,0,0,1-2.14,2.14H325.33a2.17,2.17,0,0,1-2.15-2.14v-2.86a2.75,2.75,0,0,1,.36-1.46,8.06,8.06,0,0,1,1.39-1.55L348.16,131A15.93,15.93,0,0,0,351.81,126.49Z"/><path class="cls-1" d="M407.28,155q-5,6-15,6t-15-6q-5-6-5.2-15.82l-.08-6.74.08-6.67q.17-9.83,5.2-15.86t15-6q10,0,15,6t5.19,15.86c.06,1.59.08,3.81.08,6.67s0,5.15-.08,6.74Q412.32,149,407.28,155ZM405,139.18q.08-2.38.08-6.74t-.08-6.67Q404.71,111,392.25,111t-12.76,14.75l-.08,6.67.08,6.74q.31,14.67,12.76,14.67T405,139.18Z"/><path class="cls-1" d="M451.41,126.49a12.57,12.57,0,0,0,1.11-5.63,10,10,0,0,0-2.54-7.14q-2.53-2.7-7.69-2.7t-7.61,2.66a15.51,15.51,0,0,0-3.65,7.18,2.66,2.66,0,0,1-.79,1.35,1.94,1.94,0,0,1-1.27.47h-3.65a1.68,1.68,0,0,1-1.23-.51,1.71,1.71,0,0,1-.51-1.23,17.41,17.41,0,0,1,2.41-8,17.91,17.91,0,0,1,6.47-6.5,18.57,18.57,0,0,1,9.83-2.54,19.33,19.33,0,0,1,9.64,2.26,15.14,15.14,0,0,1,6.06,6.1,17.9,17.9,0,0,1,2.06,8.61,19.38,19.38,0,0,1-1.7,8.52,23.7,23.7,0,0,1-5.83,7.18l-17.68,16.49H459.1a2.08,2.08,0,0,1,1.51.64,2,2,0,0,1,.63,1.5v2.86a2.15,2.15,0,0,1-2.14,2.14H424.92a2.17,2.17,0,0,1-2.14-2.14v-2.86a2.75,2.75,0,0,1,.36-1.46,8.06,8.06,0,0,1,1.39-1.55L447.76,131A15.93,15.93,0,0,0,451.41,126.49Z"/><path class="cls-1" d="M493.6,159.56a2.09,2.09,0,0,1-1.51.63h-3.25a2.15,2.15,0,0,1-2.14-2.14V114.36l-12.85,9.75a2,2,0,0,1-1.35.48,2,2,0,0,1-1.66-.8l-1.91-2.46a2.23,2.23,0,0,1-.47-1.34,2,2,0,0,1,.87-1.67l17-13a4.31,4.31,0,0,1,2.54-.63h3.25a2.15,2.15,0,0,1,2.14,2.14v51.23A2.09,2.09,0,0,1,493.6,159.56Z"/></g></svg>