<svg width="475" height="142" viewBox="0 0 475 142" fill="none" xmlns="http://www.w3.org/2000/svg">
<path fill-rule="evenodd" clip-rule="evenodd" d="M68.2196 38.2122C68.1772 38.2122 64.4468 42.116 59.9109 46.8685C55.4175 51.6209 51.6447 55.5248 51.6023 55.5672C51.5175 55.6521 50.7968 54.9731 46.261 50.645C43.3784 47.8868 40.8349 45.5106 40.6654 45.3409C40.4958 45.1711 40.1143 44.8741 39.8176 44.662C39.5208 44.4498 38.9697 44.1103 38.5882 43.8557C38.2067 43.6011 37.5284 43.2617 37.0621 43.0495C36.6382 42.8373 35.8328 42.4979 35.2817 42.2857C34.7306 42.0736 33.7556 41.7765 33.1198 41.5644C32.4839 41.3946 31.3817 41.0976 30.7035 40.9279C30.0252 40.8006 28.9654 40.5884 28.3296 40.4611C27.6937 40.3762 26.2948 40.1641 25.235 40.0368C24.1752 39.9095 22.6916 39.7822 21.9285 39.6973C21.2079 39.6549 19.9785 39.57 19.2155 39.5276C18.4525 39.5276 17.2231 39.4427 16.5025 39.4003C15.7394 39.4003 14.0862 39.4003 12.8568 39.3579C11.5851 39.3579 10.4405 39.3579 10.3134 39.3579C10.1438 39.3579 10.059 39.4003 10.0166 39.57C9.97424 39.6973 10.0166 39.7822 10.1014 39.9095C10.1862 39.9943 14.0862 43.7284 18.7916 48.1839C23.497 52.6393 27.3546 56.2885 27.397 56.331C27.4394 56.3734 26.422 57.5191 22.3524 61.8048C19.5546 64.7751 17.0535 67.4484 16.7992 67.7454C16.5872 68.0424 16.2905 68.4243 16.1633 68.6365C16.0362 68.8062 15.7818 69.2306 15.5699 69.57C15.4003 69.9095 15.0612 70.546 14.8492 71.0127C14.6373 71.4795 14.3405 72.1584 14.2133 72.5403C14.0862 72.9222 13.8318 73.6011 13.7047 74.0255C13.5775 74.4498 13.3655 75.1711 13.2384 75.6379C13.1112 76.1047 12.9416 76.8685 12.8144 77.3777C12.6873 77.8869 12.5177 78.8628 12.3905 79.5842C12.221 80.4328 12.0514 81.8755 11.8818 83.7001C11.7123 85.2702 11.5851 86.9675 11.5427 87.5191C11.5427 88.0707 11.4579 89.0467 11.4579 89.7256C11.4579 90.4045 11.3731 91.9321 11.3731 93.1202C11.3731 94.3083 11.3731 95.8359 11.3731 96.5573C11.3731 97.5757 11.3731 97.8303 11.4579 97.9151C11.5003 97.9576 11.5851 98 11.6699 98C11.7123 98 11.8394 97.9576 11.9242 97.8727C12.009 97.7878 15.697 93.9265 20.1481 89.2588C24.5992 84.5912 28.2872 80.6874 28.3296 80.645C28.4144 80.5601 28.7111 80.7723 33.6709 85.5248C36.5534 88.2829 39.1393 90.6591 39.3513 90.8713C39.6056 91.0835 40.0719 91.4229 40.411 91.6775C40.7502 91.8897 41.3012 92.2291 41.598 92.4413C41.9371 92.6535 42.573 92.9505 43.0393 93.1627C43.5056 93.3748 44.1838 93.6719 44.5654 93.7992C44.9469 93.9265 45.6251 94.181 46.049 94.3083C46.473 94.4356 47.1936 94.6478 47.6599 94.7751C48.1262 94.9024 48.9316 95.0721 49.4403 95.1994C49.949 95.3267 50.8816 95.4965 51.4751 95.5813C52.111 95.7086 53.5523 95.8784 54.7392 96.0057C55.9262 96.133 57.4946 96.3027 58.2153 96.3451C58.9359 96.3876 60.1653 96.4724 60.8859 96.5149C61.6066 96.5149 62.8359 96.5997 63.5989 96.5997C64.362 96.5997 66.0152 96.6422 67.2446 96.6422C68.4739 96.6422 69.5761 96.6422 69.7033 96.6422C69.8728 96.6422 69.9576 96.5573 70 96.4724C70 96.3876 70 96.3027 70 96.2603C70 96.2178 66.0576 92.4413 61.2674 87.901C56.4772 83.3607 52.5773 79.6266 52.5773 79.5842C52.5773 79.5842 54.824 77.1655 57.5794 74.2801C60.3348 71.3946 62.7087 68.8911 62.8359 68.7214C63.0055 68.5516 63.3022 68.1697 63.5142 67.8727C63.7261 67.5757 64.0652 67.024 64.3196 66.5997C64.5739 66.1754 64.9131 65.4965 65.125 65.0721C65.337 64.6478 65.6337 63.9265 65.8033 63.5021C65.9728 63.0354 66.2272 62.314 66.3544 61.8897C66.4815 61.4653 66.6935 60.744 66.8207 60.2348C66.9478 59.768 67.1598 58.9618 67.2446 58.4526C67.3718 57.9434 67.5413 56.8826 67.6685 56.1188C67.8381 55.2277 68.0076 53.8274 68.1772 52.2574C68.3044 50.8996 68.4739 49.1598 68.5163 48.3112C68.5163 47.505 68.6011 46.1471 68.6435 45.2984C68.6435 44.4498 68.7283 43.0071 68.7283 42.0311C68.7283 41.0552 68.7283 39.8246 68.7283 39.273C68.7283 38.3819 68.7283 38.2546 68.6011 38.1273C68.5163 38.0424 68.4739 38 68.4315 38C68.4315 38 68.3467 38 68.3044 38L68.2196 38.2122Z" fill="white"/>
<path d="M43.4086 49.7801C43.2791 49.3995 43.1927 49.0611 43.1927 49.0188C43.1927 49.0188 45.1362 50.8375 51.7442 56.9703V57.351C51.6578 57.5625 51.5714 57.9431 51.485 58.1969C51.3987 58.4507 51.1827 58.8736 51.0532 59.0851C50.9236 59.3389 50.6645 59.7195 50.4917 59.931C50.3189 60.1848 49.9734 60.6077 49.7143 60.9038C49.4552 61.1999 48.9801 61.7074 48.6346 62.0458C48.289 62.3841 47.598 62.9763 47.0797 63.3992C46.5615 63.8222 45.7409 64.4143 45.2226 64.7527C44.7043 65.091 44.0133 65.5563 43.5814 65.7677C43.1927 65.9792 42.3721 66.4445 41.8106 66.7405C41.206 67.0366 40.7309 67.2904 40.7309 67.2904C40.7309 67.2904 40.7309 67.4173 40.8173 67.5864C40.8605 67.7556 40.9037 68.0094 40.8605 68.1363C40.8605 68.2632 40.7741 68.4746 40.7309 68.5592C40.6445 68.6861 40.6445 68.6861 41.1196 68.8976C41.3787 69.0245 41.897 69.236 42.2425 69.3629C42.588 69.4897 43.3654 69.7858 43.9701 70.0396C44.5748 70.2511 45.5681 70.5894 46.1296 70.8009C46.691 70.9701 47.5548 71.2238 48.0299 71.3507C48.505 71.4776 49.1528 71.6468 49.4983 71.6891C49.8439 71.7737 50.7076 71.9006 51.3987 72.0275C52.2193 72.1543 52.9967 72.2389 53.5581 72.2389C54.0332 72.2389 54.6811 72.2389 54.9834 72.2389C55.3289 72.2389 55.8904 72.1966 56.2359 72.1543C56.5814 72.112 57.0997 72.0275 57.3588 71.9852C57.6179 71.9429 58.093 71.816 58.3953 71.6891C58.6977 71.6045 59 71.5199 59 71.5199C59 71.5199 57.186 73.4232 50.8804 79.8944L50.3189 79.8098C49.8439 79.7675 49.6279 79.6829 49.196 79.4714C48.8937 79.3445 48.3754 79.0485 48.0731 78.837C47.7708 78.6255 47.2525 78.2449 46.907 77.9911C46.5615 77.7373 46.0432 77.2298 45.6977 76.9337C45.3522 76.5953 44.6179 75.7917 44.0565 75.0727C43.495 74.3537 42.7608 73.4232 42.5017 73.0002C42.1993 72.5773 41.7674 71.8583 41.5083 71.4353C41.2492 71.0124 40.8605 70.3356 40.6445 69.9127C40.4286 69.4897 40.2558 69.1514 40.2558 69.1514C40.2558 69.1514 40.1262 69.1514 39.9535 69.236C39.7807 69.2783 39.5216 69.3206 39.392 69.2783C39.2625 69.2783 39.0465 69.1937 38.9601 69.1514C38.8306 69.0668 38.8306 69.0668 38.6146 69.532C38.4851 69.8281 38.2691 70.3779 38.0963 70.7586C37.9236 71.1815 37.6645 71.8583 37.4485 72.3235C37.2757 72.7888 36.9734 73.5924 36.8007 74.1422C36.6279 74.6921 36.3688 75.4957 36.2392 75.9186C36.1096 76.3416 35.9369 77.0606 35.8073 77.5681C35.6777 78.2026 35.5482 78.9216 35.3754 80.1482C35.2458 81.2478 35.1595 82.0937 35.1595 82.4744C35.1595 82.8128 35.1595 83.4049 35.2458 83.7856C35.2458 84.2085 35.3754 84.8429 35.4618 85.2236C35.5482 85.6043 35.6777 86.1541 35.8073 86.4502C35.8937 86.7462 35.9801 87 35.9369 87C35.9369 87 33.9934 85.2236 27.3422 79.0485L27.4286 78.4986C27.515 78.118 27.6013 77.8219 27.7741 77.399C27.9037 77.1029 28.206 76.5953 28.4219 76.2993C28.6379 76.0032 29.0266 75.4957 29.2857 75.1573C29.5449 74.8189 30.0631 74.3114 30.4086 73.973C30.7542 73.6347 31.5748 72.958 32.2226 72.4504C32.8704 71.9429 33.7342 71.3084 34.1229 71.0547C34.5116 70.8009 35.2027 70.3779 35.6777 70.0819C36.1528 69.7858 36.9302 69.3628 37.4485 69.1091C37.9668 68.8553 38.3555 68.6438 38.3555 68.6438C38.3555 68.6438 38.3555 68.4746 38.2691 68.3055C38.1827 68.0517 38.1827 67.9248 38.3555 67.2481L37.794 66.9943C37.4917 66.8674 36.9734 66.6559 36.6711 66.5291C36.3688 66.4022 35.7209 66.1484 35.1595 65.9369C34.6412 65.7254 33.7342 65.4294 33.1728 65.2602C32.6113 65.091 31.7907 64.8372 31.3588 64.7104C30.9269 64.5835 30.1495 64.4143 29.6312 64.2874C28.9834 64.1605 28.1628 63.9913 27.0831 63.8645C26.1329 63.7376 25.2259 63.6953 24.8372 63.6953C24.4917 63.6953 23.8439 63.6953 23.412 63.7799C22.9801 63.7799 22.3322 63.9068 21.9867 63.949C21.6412 64.0336 21.0797 64.1605 20.691 64.2451C20.3455 64.372 20 64.4143 20 64.4143C20 64.4143 21.814 62.511 28.1196 56.0398H28.5083C28.7243 56.1244 29.113 56.209 29.3721 56.2936C29.6312 56.3782 30.1063 56.5897 30.3654 56.7588C30.6678 56.928 31.1429 57.2664 31.4884 57.5202C31.8339 57.7739 32.3953 58.2392 32.7409 58.5775C33.0864 58.9159 33.691 59.508 34.0797 59.9733C34.4684 60.3962 35.0299 61.1153 35.3754 61.5382C35.6777 61.9612 36.1528 62.6379 36.412 63.0186C36.6711 63.3992 37.1462 64.1182 37.4485 64.6258C37.7508 65.1333 38.1395 65.81 38.3123 66.1484C38.485 66.4868 38.6146 66.7405 38.6578 66.7828C38.6578 66.7828 38.8306 66.7828 39.0033 66.7405C39.1761 66.6982 39.4352 66.6559 39.5648 66.6982C39.6944 66.6982 39.8671 66.7405 39.9535 66.7828C40.0831 66.8674 40.0831 66.7828 40.4286 66.0638C40.6445 65.6409 41.0332 64.7104 41.2924 63.9913C41.5515 63.3146 41.9834 62.2149 42.1993 61.5382C42.4153 60.9038 42.6744 60.0579 42.7608 59.7195C42.8472 59.3389 43.0199 58.7044 43.1063 58.2392C43.1927 57.8162 43.3654 56.9703 43.4518 56.3782C43.5382 55.7438 43.6246 54.9401 43.6678 54.348C43.6678 53.7982 43.6678 53.0369 43.6678 52.6139C43.6678 52.1909 43.5814 51.5142 43.495 51.1336C43.4086 50.7106 43.2791 50.0762 43.1495 49.6955L43.4086 49.7801Z" fill="#0C0D0F"/>
<path d="M86.6129 67C86.4495 67 86.3269 66.9573 86.1634 66.8293C86.0409 66.7012 86 66.5732 86 66.3598C86 66.1463 86 66.189 86.0409 66.1037L92.9462 46.7683C92.9871 46.5549 93.1097 46.3841 93.2731 46.2561C93.4366 46.0854 93.6817 46 93.9677 46H97.114C97.4 46 97.6043 46.0854 97.7677 46.2561C97.9312 46.3841 98.0538 46.5549 98.0946 46.7683L105 66.1037C105 66.189 105 66.2744 105 66.3598C105 66.5305 104.959 66.7012 104.837 66.8293C104.714 66.9573 104.591 67 104.428 67H101.935C101.649 67 101.486 66.9573 101.323 66.8293C101.2 66.7012 101.118 66.5732 101.077 66.4451L99.729 62.7744H91.1892L89.8409 66.4451C89.8409 66.5732 89.7183 66.7012 89.5957 66.8293C89.4731 66.9573 89.2688 67 89.0237 67H86.5312H86.6129ZM92.2925 59.3171H98.8301L95.5613 50.0549L92.3333 59.3171H92.2925Z" fill="white"/>
<path d="M107.68 67C107.48 67 107.32 66.9146 107.2 66.7866C107.08 66.6585 107 66.4878 107 66.2744V46.7256C107 46.5122 107.08 46.3415 107.2 46.2134C107.32 46.0854 107.48 46 107.68 46H110.32C110.52 46 110.68 46.0854 110.8 46.2134C110.92 46.3415 111 46.5122 111 46.7256V66.2744C111 66.4878 110.92 66.6585 110.8 66.7866C110.68 66.9146 110.52 67 110.32 67H107.68Z" fill="white"/>
<path d="M115.735 67C115.519 67 115.346 66.9148 115.216 66.787C115.087 66.6592 115 66.4888 115 66.2759V46.7667C115 46.5538 115.087 46.3834 115.216 46.213C115.346 46.0852 115.519 46 115.735 46H123.608C126.074 46 127.977 46.5538 129.405 47.6613C130.832 48.7688 131.524 50.3874 131.524 52.5598C131.524 54.7323 131.135 55.286 130.399 56.2231C129.664 57.2028 128.669 57.927 127.458 58.3529L131.913 65.9777C131.957 66.1055 132 66.1907 132 66.3185C132 66.4888 131.913 66.6592 131.784 66.787C131.654 66.9148 131.524 66.9574 131.351 66.9574H128.583C128.237 66.9574 127.977 66.8722 127.804 66.7018C127.631 66.5314 127.458 66.3611 127.372 66.1481L123.435 59.0345H119.196V66.2333C119.196 66.4462 119.109 66.6166 118.98 66.7444C118.85 66.8722 118.677 66.9574 118.461 66.9574H115.692L115.735 67ZM119.239 55.712H123.522C124.776 55.712 125.684 55.4564 126.29 54.9026C126.896 54.3489 127.198 53.5822 127.198 52.5598C127.198 51.5375 126.896 50.7708 126.29 50.217C125.684 49.6207 124.776 49.3651 123.522 49.3651H119.239V55.712Z" fill="white"/>
<path d="M134.75 67C134.529 67 134.353 66.9148 134.221 66.787C134.088 66.6592 134 66.4888 134 66.2759V46.7667C134 46.5538 134.088 46.3834 134.221 46.213C134.353 46.0852 134.529 46 134.75 46H148.206C148.426 46 148.603 46.0852 148.779 46.213C148.912 46.3408 149 46.5112 149 46.7667V48.854C149 49.0669 148.912 49.2373 148.779 49.4077C148.647 49.5355 148.426 49.5781 148.206 49.5781H138.235V55.286H147.588C147.809 55.286 147.985 55.3712 148.162 55.499C148.294 55.6268 148.382 55.7972 148.382 56.0527V58.14C148.382 58.3529 148.294 58.5233 148.162 58.6511C148.029 58.7789 147.809 58.8641 147.588 58.8641H138.235V66.2759C138.235 66.4888 138.147 66.6592 138.015 66.787C137.882 66.9148 137.662 67 137.441 67H134.706H134.75Z" fill="white"/>
<path d="M151.75 66.9574C151.529 66.9574 151.353 66.8722 151.221 66.7444C151.088 66.6166 151 66.4462 151 66.2333V46.7241C151 46.5112 151.088 46.3408 151.221 46.213C151.353 46.0852 151.529 46 151.75 46H154.618C154.838 46 155.015 46.0852 155.147 46.213C155.279 46.3408 155.368 46.5112 155.368 46.7241V63.4219H165.206C165.426 63.4219 165.603 63.5071 165.779 63.6349C165.912 63.7627 166 63.9331 166 64.1886V66.2759C166 66.4888 165.912 66.6592 165.779 66.787C165.647 66.9148 165.426 67 165.206 67H151.75V66.9574Z" fill="white"/>
<path d="M175.459 67C173.726 67 172.24 66.6957 171.002 66.1304C169.765 65.5217 168.816 64.6087 168.114 63.3478C167.413 62.087 167.041 60.5217 167 58.6522C167 57.7826 167 56.913 167 56.0435C167 55.1739 167 54.3043 167 53.4348C167.041 51.5652 167.454 50.0435 168.155 48.7826C168.857 47.5217 169.847 46.6087 171.085 45.9565C172.323 45.3043 173.808 45 175.459 45C177.109 45 178.595 45.3043 179.833 45.9565C181.07 46.6087 182.061 47.5217 182.803 48.7826C183.546 50.0435 183.917 51.5652 183.959 53.4348C183.959 54.3478 184 55.2174 184 56.0435C184 56.8696 184 57.7826 183.959 58.6522C183.917 60.5217 183.505 62.087 182.845 63.3478C182.143 64.6087 181.153 65.5217 179.915 66.1304C178.677 66.7391 177.192 67 175.459 67ZM175.459 63.4783C176.697 63.4783 177.728 63.087 178.553 62.3043C179.337 61.5217 179.791 60.2174 179.833 58.4348C179.833 57.5217 179.874 56.6957 179.874 55.9565C179.874 55.2174 179.874 54.3478 179.833 53.4783C179.833 52.3043 179.585 51.3478 179.214 50.6087C178.842 49.8696 178.347 49.3043 177.687 49C177.068 48.6522 176.325 48.4783 175.5 48.4783C174.675 48.4783 173.973 48.6522 173.313 49C172.694 49.3043 172.158 49.8696 171.786 50.6087C171.415 51.3478 171.209 52.3043 171.167 53.4783C171.167 54.3478 171.167 55.1739 171.167 55.9565C171.167 56.7391 171.167 57.5217 171.167 58.4348C171.209 60.2174 171.663 61.4783 172.447 62.3043C173.231 63.087 174.262 63.4783 175.5 63.4783H175.459Z" fill="white"/>
<path d="M190.62 67C190.324 67 190.069 66.915 189.9 66.7449C189.73 66.5749 189.645 66.3623 189.561 66.1073L186 46.9352C186 46.8927 186 46.8077 186 46.7652V46.6802C186 46.5101 186.042 46.3401 186.17 46.2126C186.297 46.085 186.466 46.0425 186.636 46.0425H189.264C189.773 46.0425 190.027 46.2551 190.112 46.6377L192.57 60.1559L195.241 51.3988C195.283 51.2287 195.41 51.1012 195.538 50.9312C195.707 50.7611 195.919 50.6761 196.216 50.6761H197.827C198.166 50.6761 198.378 50.7611 198.505 50.9312C198.632 51.1012 198.717 51.2287 198.759 51.3988L201.472 60.1134L203.931 46.5951C203.973 46.2126 204.27 46 204.778 46H207.407C207.576 46 207.703 46.0425 207.83 46.17C207.958 46.2976 208 46.4251 208 46.6377V46.7227C208 46.7227 208 46.8077 208 46.8927L204.439 66.0648C204.439 66.3198 204.27 66.5324 204.1 66.7024C203.931 66.8725 203.676 66.9575 203.38 66.9575H201.387C201.091 66.9575 200.836 66.8725 200.667 66.7024C200.497 66.5324 200.412 66.3623 200.328 66.1923L196.979 56.2024L193.63 66.1923C193.545 66.3623 193.418 66.5324 193.291 66.7024C193.121 66.8725 192.909 66.9575 192.57 66.9575H190.578L190.62 67Z" fill="white"/>
<path d="M95.564 93.9118C93.4719 93.9118 91.764 93.6032 90.3551 92.9859C88.9888 92.3245 87.9214 91.5309 87.1528 90.5168C86.427 89.4586 86.0427 88.4004 86 87.254C86 87.0335 86.0854 86.8571 86.2135 86.7249C86.3416 86.5926 86.5124 86.5044 86.7258 86.5044H89.7146C90.0135 86.5044 90.227 86.5926 90.3551 86.7249C90.5258 86.8571 90.6539 86.9894 90.7393 87.1658C90.8674 87.6067 91.1236 88.0476 91.5079 88.4885C91.8921 88.8854 92.4045 89.2381 93.0449 89.5467C93.7281 89.8113 94.5393 89.9436 95.564 89.9436C97.1865 89.9436 98.382 89.679 99.1506 89.1058C99.9618 88.5326 100.346 87.7831 100.346 86.8571C100.346 85.9312 100.133 85.6667 99.7056 85.2698C99.2787 84.873 98.6382 84.4762 97.7416 84.1675C96.8876 83.8148 95.6921 83.4621 94.2405 83.1093C92.5753 82.7125 91.1663 82.1834 90.0135 81.6102C88.9034 80.9929 88.0494 80.2434 87.4517 79.3616C86.8966 78.4797 86.5978 77.3333 86.5978 75.9224C86.5978 74.5115 86.9393 73.4092 87.6225 72.351C88.3483 71.2928 89.3303 70.4991 90.6539 69.8818C91.9775 69.2646 93.5146 69 95.3506 69C97.1865 69 98.0831 69.2205 99.1933 69.6173C100.303 70.0141 101.243 70.5432 101.969 71.2046C102.694 71.866 103.249 72.5714 103.634 73.321C104.018 74.0705 104.231 74.776 104.274 75.4815C104.274 75.6578 104.189 75.8342 104.061 76.0106C103.933 76.1429 103.762 76.231 103.548 76.231H100.431C100.261 76.231 100.09 76.1869 99.8764 76.0988C99.7056 76.0106 99.5348 75.8342 99.4494 75.5697C99.3213 74.8642 98.8944 74.2469 98.1258 73.7178C97.4 73.1887 96.4607 72.9683 95.2652 72.9683C94.0697 72.9683 93.0876 73.1887 92.3618 73.6737C91.636 74.1146 91.2517 74.8642 91.2517 75.8342C91.2517 76.8042 91.4225 77.0247 91.8067 77.4656C92.191 77.8624 92.7888 78.2593 93.6 78.5679C94.4112 78.8765 95.5214 79.2293 96.8449 79.6261C98.7236 80.067 100.303 80.552 101.499 81.1693C102.694 81.7425 103.591 82.4921 104.146 83.3739C104.701 84.2557 105 85.358 105 86.7249C105 88.0917 104.616 89.5467 103.804 90.649C103.036 91.7072 101.926 92.545 100.474 93.1182C99.0652 93.6914 97.4 94 95.4787 94L95.564 93.9118Z" fill="white"/>
<path d="M117.543 93C115.574 93 113.905 92.6691 112.493 92.0486C111.081 91.3867 109.968 90.3939 109.155 89.1115C108.385 87.7878 108 86.0504 108 83.982V70.786C108 70.5378 108.086 70.3723 108.214 70.2068C108.385 70.0414 108.556 70 108.77 70H111.809C112.065 70 112.236 70.0827 112.365 70.2068C112.536 70.3723 112.579 70.5378 112.579 70.786V83.982C112.579 85.7608 113.007 87.0845 113.905 87.9532C114.761 88.7806 115.959 89.2356 117.5 89.2356C119.041 89.2356 120.196 88.8219 121.052 87.9532C121.908 87.0845 122.378 85.7608 122.378 83.982V70.786C122.378 70.5378 122.464 70.3723 122.592 70.2068C122.764 70.0414 122.935 70 123.191 70H126.23C126.486 70 126.658 70.0827 126.786 70.2068C126.957 70.3723 127 70.5378 127 70.786V83.982C127 86.0504 126.615 87.7878 125.845 89.1115C125.074 90.4353 124.004 91.4281 122.55 92.0486C121.137 92.6691 119.468 93 117.5 93H117.543Z" fill="white"/>
<path d="M131.779 93C131.533 93 131.369 92.9161 131.205 92.7901C131.041 92.6642 131 92.4544 131 92.2445V70.7974C131 70.5456 131.082 70.3777 131.205 70.2099C131.369 70.042 131.533 70 131.779 70H134.322C134.609 70 134.855 70.0839 134.979 70.2518C135.143 70.4197 135.225 70.5456 135.266 70.6296L141.459 82.4653L147.734 70.6296C147.775 70.5456 147.857 70.4197 148.021 70.2518C148.186 70.0839 148.391 70 148.678 70H151.18C151.426 70 151.59 70.0839 151.754 70.2099C151.918 70.3777 152 70.5456 152 70.7974V92.2445C152 92.4544 151.918 92.6642 151.754 92.7901C151.59 92.958 151.426 93 151.18 93H148.473C148.227 93 148.063 92.9161 147.898 92.7901C147.775 92.6223 147.693 92.4544 147.693 92.2445V77.9745L143.182 86.7463C143.059 86.9562 142.936 87.1241 142.771 87.292C142.607 87.4179 142.361 87.5018 142.115 87.5018H140.803C140.516 87.5018 140.27 87.4179 140.105 87.292C139.941 87.1241 139.818 86.9562 139.736 86.7463L135.225 77.9745V92.2445C135.225 92.4544 135.143 92.6642 135.02 92.7901C134.896 92.9161 134.691 93 134.486 93H131.779Z" fill="white"/>
<path d="M157.781 93C157.534 93 157.37 92.9161 157.205 92.7901C157.041 92.6223 157 92.4544 157 92.2445V70.7974C157 70.5456 157.082 70.3777 157.205 70.2099C157.37 70.042 157.534 70 157.781 70H160.329C160.616 70 160.863 70.0839 160.986 70.2518C161.151 70.4197 161.233 70.5456 161.274 70.6296L167.479 82.4653L173.767 70.6296C173.808 70.5456 173.89 70.4197 174.055 70.2518C174.219 70.0839 174.425 70 174.712 70H177.219C177.466 70 177.63 70.0839 177.795 70.2099C177.959 70.3777 178 70.5456 178 70.7974V92.2445C178 92.4544 177.918 92.6642 177.795 92.7901C177.63 92.958 177.466 93 177.219 93H174.507C174.26 93 174.096 92.9161 173.931 92.7901C173.808 92.6223 173.726 92.4544 173.726 92.2445V77.9745L169.205 86.7463C169.082 86.9562 168.959 87.1241 168.795 87.292C168.63 87.4179 168.384 87.5018 168.137 87.5018H166.822C166.534 87.5018 166.288 87.4179 166.123 87.292C165.959 87.1241 165.836 86.9562 165.753 86.7463L161.233 77.9745V92.2445C161.233 92.4544 161.151 92.6642 161.027 92.7901C160.904 92.9161 160.699 93 160.493 93H157.781Z" fill="white"/>
<path d="M183.655 93C183.473 93 183.291 92.9161 183.182 92.7901C183.036 92.6223 183 92.4544 183 92.2445V70.7555C183 70.5456 183.073 70.3358 183.182 70.2099C183.327 70.042 183.473 70 183.655 70H186.345C186.564 70 186.709 70.0839 186.818 70.2099C186.964 70.3777 187 70.5456 187 70.7555V92.2445C187 92.4544 186.927 92.6642 186.818 92.7901C186.709 92.958 186.527 93 186.345 93H183.655Z" fill="white"/>
<path d="M197.455 93C197.249 93 197.043 92.9159 196.92 92.7898C196.796 92.6636 196.714 92.4534 196.714 92.2431V73.9945H190.741C190.535 73.9945 190.33 73.9104 190.206 73.7843C190.041 73.6161 190 73.4479 190 73.2377V70.7989C190 70.5466 190.082 70.3784 190.206 70.2102C190.371 70.042 190.535 70 190.741 70H207.217C207.465 70 207.629 70.0841 207.794 70.2102C207.959 70.3784 208 70.5466 208 70.7989V73.2377C208 73.4479 207.918 73.6581 207.794 73.7843C207.629 73.9525 207.465 73.9945 207.217 73.9945H201.286V92.2431C201.286 92.4534 201.204 92.6636 201.08 92.7898C200.957 92.9159 200.751 93 200.503 93H197.538H197.455Z" fill="white"/>
<path d="M208 67C207.739 67 207.478 66.9565 207.217 66.8261C207 66.7391 206.783 66.5652 206.609 66.3913C206.435 66.2174 206.304 66 206.174 65.7826C206.087 65.5652 206 65.3043 206 65C206 64.6957 206.043 64.4783 206.174 64.2174C206.261 64 206.435 63.7826 206.609 63.6087C206.783 63.4348 207 63.3043 207.217 63.1739C207.435 63.087 207.696 63 208 63C208.304 63 208.522 63.0435 208.783 63.1739C209 63.2609 209.217 63.4348 209.391 63.6087C209.565 63.7826 209.696 64 209.826 64.2174C209.913 64.4348 210 64.6957 210 65C210 65.3043 209.957 65.5217 209.826 65.7826C209.739 66 209.565 66.2174 209.391 66.3913C209.217 66.5652 209 66.6957 208.783 66.8261C208.565 66.913 208.304 67 208 67ZM208 66.6522C208.217 66.6522 208.435 66.6522 208.609 66.5217C208.783 66.4348 208.957 66.3043 209.13 66.1739C209.261 66.0435 209.391 65.8696 209.478 65.6522C209.565 65.4348 209.609 65.2609 209.609 65C209.609 64.7391 209.609 64.5652 209.478 64.3478C209.391 64.1304 209.261 63.9565 209.13 63.8261C209 63.6957 208.826 63.5652 208.609 63.4783C208.435 63.3913 208.217 63.3478 208 63.3478C207.783 63.3478 207.565 63.3478 207.391 63.4783C207.217 63.5652 207.043 63.6957 206.87 63.8261C206.739 63.9565 206.609 64.1304 206.522 64.3478C206.435 64.5652 206.391 64.7391 206.391 65C206.391 65.2609 206.391 65.4348 206.522 65.6522C206.609 65.8696 206.739 66.0435 206.87 66.1739C207 66.3043 207.174 66.4348 207.391 66.5217C207.565 66.6087 207.783 66.6522 208 66.6522ZM207.391 66C207.304 66 207.261 66 207.261 65.8696V64.087C207.261 64 207.261 63.9565 207.391 63.9565H208.13C208.261 63.9565 208.391 63.9565 208.522 64C208.652 64 208.739 64.087 208.826 64.2174C208.913 64.3043 208.913 64.4348 208.913 64.6087C208.913 64.7826 208.913 64.8696 208.826 64.9565C208.739 65.0435 208.652 65.1304 208.565 65.1739L208.913 65.7826C208.913 65.7826 208.913 65.7826 208.913 65.8261C208.913 65.8261 208.913 65.8696 208.913 65.913C208.913 65.913 208.87 65.913 208.826 65.913H208.696H208.609C208.609 65.913 208.565 65.8696 208.522 65.8261L208.174 65.2174H207.739V65.8261C207.739 65.913 207.739 65.9565 207.609 65.9565H207.435L207.391 66ZM207.652 64.913H208.087C208.217 64.913 208.348 64.913 208.391 64.8261C208.435 64.7391 208.478 64.6957 208.478 64.6087C208.478 64.5217 208.478 64.4783 208.391 64.3913C208.304 64.3043 208.261 64.3043 208.087 64.3043H207.652V64.8696V64.913Z" fill="white"/>
<path d="M227 38V105" stroke="white"/>
<path d="M257.968 65.28C256.251 65.28 254.757 65 253.488 64.44C252.219 63.88 251.229 63.04 250.52 61.92C249.811 60.7813 249.419 59.3627 249.344 57.664C249.325 56.8613 249.316 56.0587 249.316 55.256C249.316 54.4533 249.325 53.6413 249.344 52.82C249.419 51.14 249.811 49.7307 250.52 48.592C251.248 47.4347 252.247 46.5667 253.516 45.988C254.785 45.4093 256.269 45.12 257.968 45.12C259.648 45.12 261.123 45.4093 262.392 45.988C263.68 46.5667 264.688 47.4347 265.416 48.592C266.144 49.7307 266.536 51.14 266.592 52.82C266.629 53.6413 266.648 54.4533 266.648 55.256C266.648 56.0587 266.629 56.8613 266.592 57.664C266.517 59.3627 266.125 60.7813 265.416 61.92C264.707 63.04 263.717 63.88 262.448 64.44C261.179 65 259.685 65.28 257.968 65.28ZM257.968 61.248C258.957 61.248 259.76 60.9493 260.376 60.352C261.011 59.7547 261.347 58.8027 261.384 57.496C261.421 56.6747 261.44 55.9 261.44 55.172C261.44 54.444 261.421 53.688 261.384 52.904C261.347 52.0267 261.179 51.3173 260.88 50.776C260.6 50.216 260.208 49.8053 259.704 49.544C259.2 49.2827 258.621 49.152 257.968 49.152C257.333 49.152 256.764 49.2827 256.26 49.544C255.756 49.8053 255.355 50.216 255.056 50.776C254.757 51.3173 254.589 52.0267 254.552 52.904C254.533 53.688 254.524 54.444 254.524 55.172C254.524 55.9 254.533 56.6747 254.552 57.496C254.608 58.8027 254.944 59.7547 255.56 60.352C256.176 60.9493 256.979 61.248 257.968 61.248ZM274.094 65C273.888 65 273.72 64.9347 273.59 64.804C273.459 64.6733 273.394 64.5053 273.394 64.3V46.1C273.394 45.8947 273.459 45.7267 273.59 45.596C273.72 45.4653 273.888 45.4 274.094 45.4H277.062C277.379 45.4 277.603 45.4747 277.734 45.624C277.883 45.7547 277.976 45.8573 278.014 45.932L284.846 56.712V46.1C284.846 45.8947 284.911 45.7267 285.042 45.596C285.172 45.4653 285.34 45.4 285.546 45.4H288.906C289.111 45.4 289.279 45.4653 289.41 45.596C289.54 45.7267 289.606 45.8947 289.606 46.1V64.3C289.606 64.4867 289.54 64.6547 289.41 64.804C289.279 64.9347 289.111 65 288.906 65H285.91C285.611 65 285.387 64.9253 285.238 64.776C285.107 64.6267 285.023 64.524 284.986 64.468L278.154 54.108V64.3C278.154 64.5053 278.088 64.6733 277.958 64.804C277.827 64.9347 277.659 65 277.454 65H274.094ZM297.719 65C297.513 65 297.345 64.9347 297.215 64.804C297.084 64.6733 297.019 64.5053 297.019 64.3V46.1C297.019 45.8947 297.084 45.7267 297.215 45.596C297.345 45.4653 297.513 45.4 297.719 45.4H301.415C301.601 45.4 301.76 45.4653 301.891 45.596C302.04 45.7267 302.115 45.8947 302.115 46.1V60.772H310.571C310.776 60.772 310.944 60.8467 311.075 60.996C311.224 61.1267 311.299 61.2947 311.299 61.5V64.3C311.299 64.5053 311.224 64.6733 311.075 64.804C310.944 64.9347 310.776 65 310.571 65H297.719ZM317.926 65C317.72 65 317.552 64.9347 317.422 64.804C317.291 64.6733 317.226 64.5053 317.226 64.3V46.1C317.226 45.8947 317.291 45.7267 317.422 45.596C317.552 45.4653 317.72 45.4 317.926 45.4H321.678C321.883 45.4 322.051 45.4653 322.182 45.596C322.312 45.7267 322.378 45.8947 322.378 46.1V64.3C322.378 64.5053 322.312 64.6733 322.182 64.804C322.051 64.9347 321.883 65 321.678 65H317.926ZM330.504 65C330.298 65 330.13 64.9347 330 64.804C329.869 64.6733 329.804 64.5053 329.804 64.3V46.1C329.804 45.8947 329.869 45.7267 330 45.596C330.13 45.4653 330.298 45.4 330.504 45.4H333.472C333.789 45.4 334.013 45.4747 334.144 45.624C334.293 45.7547 334.386 45.8573 334.424 45.932L341.256 56.712V46.1C341.256 45.8947 341.321 45.7267 341.452 45.596C341.582 45.4653 341.75 45.4 341.956 45.4H345.316C345.521 45.4 345.689 45.4653 345.82 45.596C345.95 45.7267 346.016 45.8947 346.016 46.1V64.3C346.016 64.4867 345.95 64.6547 345.82 64.804C345.689 64.9347 345.521 65 345.316 65H342.32C342.021 65 341.797 64.9253 341.648 64.776C341.517 64.6267 341.433 64.524 341.396 64.468L334.564 54.108V64.3C334.564 64.5053 334.498 64.6733 334.368 64.804C334.237 64.9347 334.069 65 333.864 65H330.504ZM354.129 65C353.923 65 353.755 64.9347 353.625 64.804C353.494 64.6733 353.429 64.5053 353.429 64.3V46.1C353.429 45.8947 353.494 45.7267 353.625 45.596C353.755 45.4653 353.923 45.4 354.129 45.4H367.205C367.41 45.4 367.578 45.4653 367.709 45.596C367.839 45.7267 367.905 45.8947 367.905 46.1V48.732C367.905 48.9373 367.839 49.1053 367.709 49.236C367.578 49.3667 367.41 49.432 367.205 49.432H358.273V53.212H366.589C366.794 53.212 366.962 53.2867 367.093 53.436C367.223 53.5667 367.289 53.7347 367.289 53.94V56.376C367.289 56.5627 367.223 56.7307 367.093 56.88C366.962 57.0107 366.794 57.076 366.589 57.076H358.273V60.968H367.429C367.634 60.968 367.802 61.0333 367.933 61.164C368.063 61.2947 368.129 61.4627 368.129 61.668V64.3C368.129 64.5053 368.063 64.6733 367.933 64.804C367.802 64.9347 367.634 65 367.429 65H354.129ZM250.66 92C250.455 92 250.287 91.9347 250.156 91.804C250.025 91.6733 249.96 91.5053 249.96 91.3V73.1C249.96 72.8947 250.025 72.7267 250.156 72.596C250.287 72.4653 250.455 72.4 250.66 72.4H258.276C260.684 72.4 262.579 72.96 263.96 74.08C265.36 75.1813 266.06 76.7493 266.06 78.784C266.06 80.1093 265.733 81.2293 265.08 82.144C264.445 83.0587 263.605 83.7493 262.56 84.216L266.424 91.104C266.48 91.216 266.508 91.3187 266.508 91.412C266.508 91.5613 266.443 91.7013 266.312 91.832C266.2 91.944 266.06 92 265.892 92H262.196C261.841 92 261.58 91.916 261.412 91.748C261.244 91.5613 261.123 91.3933 261.048 91.244L257.856 85.084H254.972V91.3C254.972 91.5053 254.907 91.6733 254.776 91.804C254.645 91.9347 254.477 92 254.272 92H250.66ZM254.972 81.136H258.22C259.097 81.136 259.751 80.9213 260.18 80.492C260.628 80.0627 260.852 79.4747 260.852 78.728C260.852 78 260.637 77.412 260.208 76.964C259.797 76.516 259.135 76.292 258.22 76.292H254.972V81.136ZM273.519 92C273.314 92 273.146 91.9347 273.015 91.804C272.885 91.6733 272.819 91.5053 272.819 91.3V73.1C272.819 72.8947 272.885 72.7267 273.015 72.596C273.146 72.4653 273.314 72.4 273.519 72.4H286.595C286.801 72.4 286.969 72.4653 287.099 72.596C287.23 72.7267 287.295 72.8947 287.295 73.1V75.732C287.295 75.9373 287.23 76.1053 287.099 76.236C286.969 76.3667 286.801 76.432 286.595 76.432H277.663V80.212H285.979C286.185 80.212 286.353 80.2867 286.483 80.436C286.614 80.5667 286.679 80.7347 286.679 80.94V83.376C286.679 83.5627 286.614 83.7307 286.483 83.88C286.353 84.0107 286.185 84.076 285.979 84.076H277.663V87.968H286.819C287.025 87.968 287.193 88.0333 287.323 88.164C287.454 88.2947 287.519 88.4627 287.519 88.668V91.3C287.519 91.5053 287.454 91.6733 287.323 91.804C287.193 91.9347 287.025 92 286.819 92H273.519ZM302.074 92.28C300.301 92.28 298.779 91.9907 297.51 91.412C296.259 90.8333 295.279 89.984 294.57 88.864C293.879 87.744 293.497 86.3533 293.422 84.692C293.403 83.9267 293.394 83.1053 293.394 82.228C293.394 81.3507 293.403 80.5107 293.422 79.708C293.497 78.084 293.889 76.712 294.598 75.592C295.307 74.4533 296.297 73.5947 297.566 73.016C298.835 72.4187 300.338 72.12 302.074 72.12C303.306 72.12 304.445 72.2787 305.49 72.596C306.535 72.8947 307.45 73.3427 308.234 73.94C309.018 74.5187 309.625 75.228 310.054 76.068C310.502 76.8893 310.735 77.8227 310.754 78.868C310.773 79.036 310.717 79.176 310.586 79.288C310.474 79.4 310.334 79.456 310.166 79.456H306.386C306.143 79.456 305.957 79.4093 305.826 79.316C305.695 79.204 305.583 79.008 305.49 78.728C305.229 77.7387 304.799 77.0667 304.202 76.712C303.623 76.3387 302.905 76.152 302.046 76.152C301.019 76.152 300.207 76.4413 299.61 77.02C299.013 77.58 298.686 78.5227 298.63 79.848C298.574 81.3787 298.574 82.9467 298.63 84.552C298.686 85.8773 299.013 86.8293 299.61 87.408C300.207 87.968 301.019 88.248 302.046 88.248C302.905 88.248 303.633 88.0613 304.23 87.688C304.827 87.3147 305.247 86.6427 305.49 85.672C305.565 85.392 305.667 85.2053 305.798 85.112C305.947 85 306.143 84.944 306.386 84.944H310.166C310.334 84.944 310.474 85 310.586 85.112C310.717 85.224 310.773 85.364 310.754 85.532C310.735 86.5773 310.502 87.52 310.054 88.36C309.625 89.1813 309.018 89.8907 308.234 90.488C307.45 91.0667 306.535 91.5147 305.49 91.832C304.445 92.1307 303.306 92.28 302.074 92.28ZM325.206 92.28C323.489 92.28 321.996 92 320.726 91.44C319.457 90.88 318.468 90.04 317.758 88.92C317.049 87.7813 316.657 86.3627 316.582 84.664C316.564 83.8613 316.554 83.0587 316.554 82.256C316.554 81.4533 316.564 80.6413 316.582 79.82C316.657 78.14 317.049 76.7307 317.758 75.592C318.486 74.4347 319.485 73.5667 320.754 72.988C322.024 72.4093 323.508 72.12 325.206 72.12C326.886 72.12 328.361 72.4093 329.63 72.988C330.918 73.5667 331.926 74.4347 332.654 75.592C333.382 76.7307 333.774 78.14 333.83 79.82C333.868 80.6413 333.886 81.4533 333.886 82.256C333.886 83.0587 333.868 83.8613 333.83 84.664C333.756 86.3627 333.364 87.7813 332.654 88.92C331.945 90.04 330.956 90.88 329.686 91.44C328.417 92 326.924 92.28 325.206 92.28ZM325.206 88.248C326.196 88.248 326.998 87.9493 327.614 87.352C328.249 86.7547 328.585 85.8027 328.622 84.496C328.66 83.6747 328.678 82.9 328.678 82.172C328.678 81.444 328.66 80.688 328.622 79.904C328.585 79.0267 328.417 78.3173 328.118 77.776C327.838 77.216 327.446 76.8053 326.942 76.544C326.438 76.2827 325.86 76.152 325.206 76.152C324.572 76.152 324.002 76.2827 323.498 76.544C322.994 76.8053 322.593 77.216 322.294 77.776C321.996 78.3173 321.828 79.0267 321.79 79.904C321.772 80.688 321.762 81.444 321.762 82.172C321.762 82.9 321.772 83.6747 321.79 84.496C321.846 85.8027 322.182 86.7547 322.798 87.352C323.414 87.9493 324.217 88.248 325.206 88.248ZM341.332 92C341.127 92 340.959 91.9347 340.828 91.804C340.697 91.6733 340.632 91.5053 340.632 91.3V73.1C340.632 72.8947 340.697 72.7267 340.828 72.596C340.959 72.4653 341.127 72.4 341.332 72.4H344.3C344.617 72.4 344.841 72.4747 344.972 72.624C345.121 72.7547 345.215 72.8573 345.252 72.932L352.084 83.712V73.1C352.084 72.8947 352.149 72.7267 352.28 72.596C352.411 72.4653 352.579 72.4 352.784 72.4H356.144C356.349 72.4 356.517 72.4653 356.648 72.596C356.779 72.7267 356.844 72.8947 356.844 73.1V91.3C356.844 91.4867 356.779 91.6547 356.648 91.804C356.517 91.9347 356.349 92 356.144 92H353.148C352.849 92 352.625 91.9253 352.476 91.776C352.345 91.6267 352.261 91.524 352.224 91.468L345.392 81.108V91.3C345.392 91.5053 345.327 91.6733 345.196 91.804C345.065 91.9347 344.897 92 344.692 92H341.332ZM364.957 92C364.752 92 364.584 91.9347 364.453 91.804C364.322 91.6733 364.257 91.5053 364.257 91.3V73.1C364.257 72.8947 364.322 72.7267 364.453 72.596C364.584 72.4653 364.752 72.4 364.957 72.4H367.925C368.242 72.4 368.466 72.4747 368.597 72.624C368.746 72.7547 368.84 72.8573 368.877 72.932L375.709 83.712V73.1C375.709 72.8947 375.774 72.7267 375.905 72.596C376.036 72.4653 376.204 72.4 376.409 72.4H379.769C379.974 72.4 380.142 72.4653 380.273 72.596C380.404 72.7267 380.469 72.8947 380.469 73.1V91.3C380.469 91.4867 380.404 91.6547 380.273 91.804C380.142 91.9347 379.974 92 379.769 92H376.773C376.474 92 376.25 91.9253 376.101 91.776C375.97 91.6267 375.886 91.524 375.849 91.468L369.017 81.108V91.3C369.017 91.5053 368.952 91.6733 368.821 91.804C368.69 91.9347 368.522 92 368.317 92H364.957ZM388.582 92C388.377 92 388.209 91.9347 388.078 91.804C387.947 91.6733 387.882 91.5053 387.882 91.3V73.1C387.882 72.8947 387.947 72.7267 388.078 72.596C388.209 72.4653 388.377 72.4 388.582 72.4H401.658C401.863 72.4 402.031 72.4653 402.162 72.596C402.293 72.7267 402.358 72.8947 402.358 73.1V75.732C402.358 75.9373 402.293 76.1053 402.162 76.236C402.031 76.3667 401.863 76.432 401.658 76.432H392.726V80.212H401.042C401.247 80.212 401.415 80.2867 401.546 80.436C401.677 80.5667 401.742 80.7347 401.742 80.94V83.376C401.742 83.5627 401.677 83.7307 401.546 83.88C401.415 84.0107 401.247 84.076 401.042 84.076H392.726V87.968H401.882C402.087 87.968 402.255 88.0333 402.386 88.164C402.517 88.2947 402.582 88.4627 402.582 88.668V91.3C402.582 91.5053 402.517 91.6733 402.386 91.804C402.255 91.9347 402.087 92 401.882 92H388.582ZM417.137 92.28C415.363 92.28 413.842 91.9907 412.573 91.412C411.322 90.8333 410.342 89.984 409.633 88.864C408.942 87.744 408.559 86.3533 408.485 84.692C408.466 83.9267 408.457 83.1053 408.457 82.228C408.457 81.3507 408.466 80.5107 408.485 79.708C408.559 78.084 408.951 76.712 409.661 75.592C410.37 74.4533 411.359 73.5947 412.629 73.016C413.898 72.4187 415.401 72.12 417.137 72.12C418.369 72.12 419.507 72.2787 420.553 72.596C421.598 72.8947 422.513 73.3427 423.297 73.94C424.081 74.5187 424.687 75.228 425.117 76.068C425.565 76.8893 425.798 77.8227 425.817 78.868C425.835 79.036 425.779 79.176 425.649 79.288C425.537 79.4 425.397 79.456 425.229 79.456H421.449C421.206 79.456 421.019 79.4093 420.889 79.316C420.758 79.204 420.646 79.008 420.553 78.728C420.291 77.7387 419.862 77.0667 419.265 76.712C418.686 76.3387 417.967 76.152 417.109 76.152C416.082 76.152 415.27 76.4413 414.673 77.02C414.075 77.58 413.749 78.5227 413.693 79.848C413.637 81.3787 413.637 82.9467 413.693 84.552C413.749 85.8773 414.075 86.8293 414.673 87.408C415.27 87.968 416.082 88.248 417.109 88.248C417.967 88.248 418.695 88.0613 419.293 87.688C419.89 87.3147 420.31 86.6427 420.553 85.672C420.627 85.392 420.73 85.2053 420.861 85.112C421.01 85 421.206 84.944 421.449 84.944H425.229C425.397 84.944 425.537 85 425.649 85.112C425.779 85.224 425.835 85.364 425.817 85.532C425.798 86.5773 425.565 87.52 425.117 88.36C424.687 89.1813 424.081 89.8907 423.297 90.488C422.513 91.0667 421.598 91.5147 420.553 91.832C419.507 92.1307 418.369 92.28 417.137 92.28ZM437.273 92C437.067 92 436.899 91.9347 436.769 91.804C436.638 91.6733 436.573 91.5053 436.573 91.3V76.796H431.589C431.383 76.796 431.215 76.7307 431.085 76.6C430.954 76.4507 430.889 76.2827 430.889 76.096V73.1C430.889 72.8947 430.954 72.7267 431.085 72.596C431.215 72.4653 431.383 72.4 431.589 72.4H446.653C446.858 72.4 447.026 72.4653 447.157 72.596C447.287 72.7267 447.353 72.8947 447.353 73.1V76.096C447.353 76.2827 447.287 76.4507 447.157 76.6C447.026 76.7307 446.858 76.796 446.653 76.796H441.669V91.3C441.669 91.5053 441.603 91.6733 441.473 91.804C441.342 91.9347 441.174 92 440.969 92H437.273Z" fill="white"/>
</svg>
