<?xml version="1.0" encoding="utf-8"?>
<!-- Generator: Adobe Illustrator 27.2.0, SVG Export Plug-In . SVG Version: 6.00 Build 0)  -->
<svg version="1.1" id="Capa_1" xmlns="http://www.w3.org/2000/svg" xmlns:xlink="http://www.w3.org/1999/xlink" x="0px" y="0px"
	 viewBox="0 0 501.3 161" style="enable-background:new 0 0 501.3 161;" xml:space="preserve">
<style type="text/css">
	.st0{fill:#FFFFFF;}
	.st1{fill:none;stroke:#FFFFFF;stroke-width:2.5;stroke-miterlimit:10;}
	.st2{fill-rule:evenodd;clip-rule:evenodd;fill:#FFFFFF;}
	.st3{font-family:'Rubik-Regular';}
	.st4{font-size:79.7569px;}
</style>
<path class="st0" d="M17.4,69.5l-6,15.3c-0.6,1.9-2.5,3.1-4.5,2.9H2.6c-0.7,0-1.4-0.2-1.9-0.7C0.2,86.5,0,85.8,0,85.1
	c0.1-0.6,0.2-1.1,0.5-1.6l28.4-72.8c0.7-2.3,2.8-3.8,5.2-3.8H41c2.4-0.1,4.5,1.5,5.2,3.8l28.2,73c0.3,0.5,0.4,1.1,0.4,1.6
	c0,0.7-0.2,1.4-0.8,1.9c-0.5,0.5-1.2,0.8-1.9,0.8h-4.2c-2,0.2-3.9-1.1-4.5-3.1l-6-15.4H17.4z M53.5,59.1l-16-41.3L21.5,59L53.5,59.1
	z"/>
<path class="st0" d="M96.3,17.6c-0.6,0.6-1.4,0.9-2.2,0.9h-6.6c-1.7,0-3-1.3-3.1-3V8.8c0-1.7,1.4-3.1,3.1-3.1h6.6
	c0.8,0,1.6,0.3,2.2,0.9s0.9,1.4,0.9,2.2v6.7C97.3,16.3,96.9,17,96.3,17.6z M95.2,86.9c-0.6,0.6-1.4,0.9-2.2,0.9h-4.3
	c-1.7,0-3.1-1.4-3.1-3.1v-54c0-1.7,1.4-3.1,3.1-3.1H93c1.7,0,3.1,1.4,3.1,3.1l0,0v53.9C96.1,85.5,95.8,86.3,95.2,86.9L95.2,86.9z"/>
<path class="st0" d="M146.2,28.6c0.6,0.6,0.9,1.4,0.9,2.2v3.8c0,1.7-1.4,3.1-3.1,3.1h-6.7c-3.6-0.3-7.2,1-9.9,3.4
	c-2.4,2.7-3.7,6.3-3.4,9.9v33.7c0,1.7-1.4,3.1-3.1,3.1h-4.3c-1.7,0-3.1-1.4-3.1-3.1v-54c0-1.7,1.4-3.1,3.1-3.1h4.3
	c1.7,0,3.1,1.4,3.1,3.1v3.6c1.4-2.2,3.3-3.9,5.6-5.1c2.6-1.2,5.5-1.7,8.4-1.6h6C144.8,27.6,145.6,28,146.2,28.6z"/>
<path class="st0" d="M208.1,86.8c-0.6,0.6-1.4,1-2.2,0.9h-4.3c-0.8,0-1.6-0.3-2.2-0.9c-0.6-0.6-0.9-1.4-0.9-2.2v-47h-24.4v47.1
	c0,1.7-1.4,3.1-3.1,3.1h-4.3c-1.7,0-3.1-1.4-3.1-3.1V37.6h-9.7c-1.7,0-3.1-1.4-3.1-3.1v-3.8c0-1.7,1.4-3.1,3.1-3.1h9.7v-5.8
	c0-6.6,1.5-11.6,4.6-14.8s7.9-4.9,14.4-4.9h7.3c0.8,0,1.6,0.3,2.2,0.9c0.6,0.6,0.9,1.4,0.9,2.2V9c0,0.8-0.3,1.6-0.9,2.2
	c-0.6,0.6-1.4,0.9-2.2,0.9h-6.1c-3.8,0-6.4,0.9-7.7,2.7c-1.5,2.3-2.2,4.9-2,7.6v5.2h24.4V5.3c0-0.8,0.3-1.6,0.9-2.2
	c0.6-0.6,1.4-0.9,2.2-0.9h4.3c0.8,0,1.6,0.3,2.2,0.9c0.6,0.6,1,1.4,1,2.2v79.4C209,85.5,208.7,86.3,208.1,86.8z"/>
<path class="st0" d="M278.6,57.8c0,1.8,0,3.6-0.2,5.3c-0.3,7-3.2,13.7-8.1,18.8c-4.7,4.7-11.2,7-19.3,7c-8.1,0-14.5-2.3-19.3-7
	c-4.9-5.1-7.8-11.7-8.1-18.8c0-0.8-0.1-2.6-0.1-5.3s0-4.7,0.1-5.6c0.3-7,3.2-13.7,8.1-18.8c4.8-4.7,11.2-7,19.3-7
	c8.1,0,14.6,2.3,19.3,7c4.9,5,7.8,11.7,8.1,18.8C278.6,54,278.6,55.8,278.6,57.8z M263,40.9c-6.9-6.1-17.1-6.1-24,0
	c-2.9,3.3-4.7,7.5-4.9,11.9c0,0.9-0.1,2.6-0.1,5s0,3.9,0.1,4.8c0.2,4.4,2,8.6,4.9,11.9c6.9,6.1,17.1,6.1,24,0
	c2.9-3.3,4.7-7.5,4.9-11.9c0.1-1.7,0.2-3.3,0.2-4.8c0-1.7,0-3.3-0.2-5C267.7,48.4,265.9,44.2,263,40.9z"/>
<path class="st0" d="M362.6,30.5c0.5-1.7,2.1-2.9,3.9-2.8h3.8c0.7,0,1.4,0.3,1.9,0.8c0.6,0.5,1,1.2,1,2l-0.1,0.9l-17.7,53.2
	c-0.7,2.2-1.9,3.3-3.5,3.3h-3.6c-0.8,0-1.6-0.3-2.2-0.8c-0.6-0.7-1.1-1.5-1.4-2.4l-13.8-38.4l-13.8,38.4c-0.3,0.9-0.8,1.7-1.4,2.4
	c-0.6,0.6-1.4,0.9-2.2,0.9H310c-1.6,0-2.8-1.1-3.5-3.3l-17.7-53.3v-0.9c0-0.7,0.3-1.5,0.8-2s1.3-0.8,2-0.8h3.8
	c1.8-0.1,3.4,1,3.9,2.8l13,38.6l13.9-38.6c0.4-1.6,1.9-2.8,3.6-2.8h2.5c1.7,0,3.2,1.1,3.6,2.8l13.8,38.7L362.6,30.5z"/>
<path class="st1" d="M474.9,27.1l15,15.4c8.6,8.9,9.9,28.4,10.1,44.7c0,0.4-0.3,0.8-0.8,0.8l0,0c-0.2,0-0.4-0.1-0.6-0.2l-24.2-25.2"
	/>
<path class="st1" d="M474.2,63l-15.4,15c-8.8,8.8-28.4,9.9-44.7,10.1c-0.4,0-0.8-0.3-0.8-0.7l0,0l0,0c0-0.2,0.1-0.4,0.2-0.6
	l24.7-24.2"/>
<path class="st2" d="M458.8,78c4.8-4.7,7.1-14.1-2.2-33.3c15,6.8,20.4,15.6,17.8,18.1L458.8,78z"/>
<path class="st1" d="M438.3,62.3l-15-15.4c-8.7-9-9.9-28.4-10.1-44.8c0-0.4,0.3-0.8,0.7-0.8l0,0l0,0c0.2,0,0.4,0.1,0.6,0.3l24.2,25"
	/>
<path class="st2" d="M423.3,46.8c4.7,4.8,14.1,7.1,33.3-2.2c-6.8,15-15.6,20.4-18.1,17.8L423.3,46.8z"/>
<path class="st1" d="M439,26.4l15.4-15c8.9-8.7,28.4-9.9,44.7-10.1c0.4,0,0.8,0.3,0.8,0.8c0,0.2-0.1,0.5-0.3,0.6l-24.6,24"/>
<path class="st2" d="M454.4,11.4c-4.8,4.7-7.1,14,2.2,33.3c-15-6.7-20.4-15.6-17.8-18.1L454.4,11.4z"/>
<path class="st2" d="M489.9,42.5c-4.7-4.8-14.1-7.1-33.3,2.2c6.8-15,15.6-20.3,18.1-17.8L489.9,42.5z"/>
<circle class="st0" cx="456.6" cy="44.7" r="1.9"/>
<text transform="matrix(1 0 0 1 0 158.9434)" class="st0 st3 st4">Summit 2023</text>
</svg>
