<?xml version="1.0" encoding="UTF-8"?>
<svg id="Layer_1" xmlns="http://www.w3.org/2000/svg" version="1.1" viewBox="0 0 474.4 141.1">
  <!-- Generator: Adobe Illustrator 29.2.1, SVG Export Plug-In . SVG Version: 2.1.0 Build 116)  -->
  <defs>
    <style>
      .st0 {
        fill: none;
      }

      .st1 {
        fill-rule: evenodd;
      }

      .st1, .st2 {
        fill: #fff;
      }

      .st3 {
        fill: #0c0d0f;
      }
    </style>
  </defs>
  <rect class="st0" x=".8" y="2" width="140.3" height="138.4"/>
  <path class="st1" d="M137.4,0c-.1,0-8.9,9.2-19.6,20.4-10.6,11.2-19.5,20.4-19.6,20.5-.2.2-1.9-1.4-12.6-11.6-6.8-6.5-12.8-12.1-13.2-12.5-.4-.4-1.3-1.1-2-1.6-.7-.5-2-1.3-2.9-1.9-.9-.6-2.5-1.4-3.6-1.9-1-.5-2.9-1.3-4.2-1.8-1.3-.5-3.6-1.2-5.1-1.7-1.5-.4-4.1-1.1-5.7-1.5-1.6-.3-4.1-.8-5.6-1.1-1.5-.2-4.8-.7-7.3-1-2.5-.3-6-.6-7.8-.8-1.7-.1-4.6-.3-6.4-.4-1.8,0-4.7-.2-6.4-.3-1.8,0-5.7,0-8.6-.1-3,0-5.7,0-6,0-.4,0-.6.1-.7.5-.1.3,0,.5.2.8.2.2,9.4,9,20.5,19.5,11.1,10.5,20.2,19.1,20.3,19.2.1.1-2.3,2.8-11.9,12.9-6.6,7-12.5,13.3-13.1,14-.5.7-1.2,1.6-1.5,2.1-.3.4-.9,1.4-1.4,2.2-.4.8-1.2,2.3-1.7,3.4-.5,1.1-1.2,2.7-1.5,3.6-.3.9-.9,2.5-1.2,3.5-.3,1-.8,2.7-1.1,3.8-.3,1.1-.7,2.9-1,4.1-.3,1.2-.7,3.5-1,5.2-.4,2-.8,5.4-1.2,9.7-.4,3.7-.7,7.7-.8,9,0,1.3-.2,3.6-.2,5.2,0,1.6-.2,5.2-.2,8,0,2.8,0,6.4,0,8.1,0,2.4,0,3,.2,3.2.1.1.3.2.5.2.1,0,.4-.1.6-.3.2-.2,8.9-9.3,19.4-20.3,10.5-11,19.2-20.2,19.3-20.3.2-.2.9.3,12.6,11.5,6.8,6.5,12.9,12.1,13.4,12.6.6.5,1.7,1.3,2.5,1.9.8.5,2.1,1.3,2.8,1.8.8.5,2.3,1.2,3.4,1.7,1.1.5,2.7,1.2,3.6,1.5.9.3,2.5.9,3.5,1.2,1,.3,2.7.8,3.8,1.1,1.1.3,3,.7,4.2,1,1.2.3,3.4.7,4.8.9,1.5.3,4.9.7,7.7,1,2.8.3,6.5.7,8.2.8,1.7.1,4.6.3,6.3.4,1.7,0,4.6.2,6.4.2,1.8,0,5.7.1,8.6.1,2.9,0,5.5,0,5.8,0,.4,0,.6-.2.7-.4,0-.2,0-.4,0-.5,0-.1-9.3-9-20.6-19.7-11.3-10.7-20.5-19.5-20.5-19.6,0,0,5.3-5.7,11.8-12.5,6.5-6.8,12.1-12.7,12.4-13.1.4-.4,1.1-1.3,1.6-2,.5-.7,1.3-2,1.9-3,.6-1,1.4-2.6,1.9-3.6.5-1,1.2-2.7,1.6-3.7.4-1.1,1-2.8,1.3-3.8.3-1,.8-2.7,1.1-3.9.3-1.1.8-3,1-4.2.3-1.2.7-3.7,1-5.5.4-2.1.8-5.4,1.2-9.1.3-3.2.7-7.3.8-9.3,0-1.9.2-5.1.3-7.1,0-2,.2-5.4.2-7.7,0-2.3,0-5.2,0-6.5,0-2.1,0-2.4-.3-2.7-.2-.2-.3-.3-.4-.3,0,0-.2,0-.3,0Z"/>
  <path class="st3" d="M79.5,27.5c-.3-.9-.5-1.7-.5-1.8,0,0,0-.1,0,0,0,0,4.5,4.3,19.8,18.8v.9c-.2.5-.4,1.4-.6,2-.2.6-.7,1.6-1,2.1-.3.6-.9,1.5-1.3,2-.4.6-1.2,1.6-1.8,2.3-.6.7-1.7,1.9-2.5,2.7-.8.8-2.4,2.2-3.6,3.2-1.2,1-3.1,2.4-4.3,3.2-1.2.8-2.8,1.9-3.8,2.4-.9.5-2.8,1.6-4.1,2.3-1.4.7-2.5,1.3-2.5,1.3,0,0,0,.3.2.7.1.4.2,1,.1,1.3,0,.3-.2.8-.3,1-.2.3-.2.3.9.8h0c.6.3,1.8.8,2.6,1.1.8.3,2.6,1,4,1.6,1.4.5,3.7,1.3,5,1.8,1.3.4,3.3,1,4.4,1.3,1.1.3,2.6.7,3.4.8.8.2,2.8.5,4.4.8,1.9.3,3.7.5,5,.5,1.1,0,2.6,0,3.3,0,.8,0,2.1-.1,2.9-.2.8-.1,2-.3,2.6-.4.6-.1,1.7-.4,2.4-.7.7-.2,1.4-.4,1.4-.4,0,0-4.2,4.5-18.8,19.8l-1.3-.2c-1.1-.1-1.6-.3-2.6-.8-.7-.3-1.9-1-2.6-1.5-.7-.5-1.9-1.4-2.7-2-.8-.6-2-1.8-2.8-2.5-.8-.8-2.5-2.7-3.8-4.4-1.3-1.7-3-3.9-3.6-4.9-.7-1-1.7-2.7-2.3-3.7-.6-1-1.5-2.6-2-3.6-.5-1-.9-1.8-.9-1.8,0,0-.3,0-.7.2-.4.1-1,.2-1.3.1-.3,0-.8-.2-1-.3-.3-.2-.3-.2-.8.9h0c-.3.7-.8,2-1.2,2.9-.4,1-1,2.6-1.5,3.7-.4,1.1-1.1,3-1.5,4.3-.4,1.3-1,3.2-1.3,4.2-.3,1-.7,2.7-1,3.9-.3,1.5-.6,3.2-1,6.1-.3,2.6-.5,4.6-.5,5.5,0,.8,0,2.2.2,3.1,0,1,.3,2.5.5,3.4.2.9.5,2.2.8,2.9.2.7.4,1.3.3,1.3,0,0-4.5-4.2-19.9-18.8l.2-1.3c.2-.9.4-1.6.8-2.6.3-.7,1-1.9,1.5-2.6.5-.7,1.4-1.9,2-2.7.6-.8,1.8-2,2.6-2.8.8-.8,2.7-2.4,4.2-3.6,1.5-1.2,3.5-2.7,4.4-3.3.9-.6,2.5-1.6,3.6-2.3s2.9-1.7,4.1-2.3c1.2-.6,2.1-1.1,2.1-1.1,0,0,0-.4-.2-.8-.2-.6-.2-.9.2-2.5l-1.3-.6c-.7-.3-1.9-.8-2.6-1.1h0c-.7-.3-2.2-.9-3.5-1.4-1.2-.5-3.3-1.2-4.6-1.6-1.3-.4-3.2-1-4.2-1.3-1-.3-2.8-.7-4-1-1.5-.3-3.4-.7-5.9-1-2.2-.3-4.3-.4-5.2-.4-.8,0-2.3,0-3.3.2-1,0-2.5.3-3.3.4-.8.2-2.1.5-3,.7-.8.3-1.6.4-1.6.4,0,0,4.2-4.5,18.8-19.8h.9c.5.2,1.4.4,2,.6.6.2,1.7.7,2.3,1.1.7.4,1.8,1.2,2.6,1.8.8.6,2.1,1.7,2.9,2.5.8.8,2.2,2.2,3.1,3.3.9,1,2.2,2.7,3,3.7.7,1,1.8,2.6,2.4,3.5.6.9,1.7,2.6,2.4,3.8.7,1.2,1.6,2.8,2,3.6.4.8.7,1.4.8,1.5,0,0,.4,0,.8-.1.4-.1,1-.2,1.3-.1.3,0,.7.1.9.2.3.2.3,0,1.1-1.7.5-1,1.4-3.2,2-4.9.6-1.6,1.6-4.2,2.1-5.8.5-1.5,1.1-3.5,1.3-4.3.2-.9.6-2.4.8-3.5.2-1,.6-3,.8-4.4.2-1.5.4-3.4.5-4.8,0-1.3,0-3.1,0-4.1,0-1-.2-2.6-.4-3.5-.2-1-.5-2.5-.8-3.4Z"/>
  <path class="st2" d="M180.5,67.1c-.4,0-.7-.1-1.1-.4-.3-.3-.4-.6-.4-1.1s0-.4.1-.6l16.9-45.3c.1-.5.4-.9.8-1.2.4-.4,1-.6,1.7-.6h7.7c.7,0,1.2.2,1.6.6.4.3.7.7.8,1.2l16.9,45.3c0,.2,0,.4,0,.6,0,.4-.1.8-.4,1.1-.3.3-.6.4-1,.4h-6.1c-.7,0-1.1-.1-1.5-.4-.3-.3-.5-.6-.6-.9l-3.3-8.6h-20.9l-3.3,8.6c0,.3-.3.6-.6.9-.3.3-.8.4-1.4.4h-6.1ZM194.4,49.1h16l-8-21.7-7.9,21.7Z"/>
  <path class="st2" d="M231.9,67.1c-.5,0-.9-.2-1.2-.5-.3-.3-.5-.7-.5-1.2V19.6c0-.5.2-.9.5-1.2.3-.3.7-.5,1.2-.5h6.6c.5,0,.9.2,1.2.5.3.3.5.7.5,1.2v45.8c0,.5-.2.9-.5,1.2-.3.3-.7.5-1.2.5h-6.6Z"/>
  <path class="st2" d="M250.8,67.1c-.5,0-.9-.2-1.2-.5-.3-.3-.5-.7-.5-1.2V19.6c0-.5.2-.9.5-1.3.3-.3.7-.5,1.2-.5h18.2c5.7,0,10.1,1.3,13.4,3.9,3.3,2.6,4.9,6.4,4.9,11.5s-.9,6.4-2.6,8.6c-1.7,2.3-4,4-6.8,5l10.3,17.9c.1.3.2.5.2.8,0,.4-.2.8-.5,1.1-.3.3-.6.4-1,.4h-6.4c-.8,0-1.4-.2-1.8-.6-.4-.4-.8-.8-1-1.3l-9.1-16.7h-9.8v16.9c0,.5-.2.9-.5,1.2-.3.3-.7.5-1.2.5h-6.4ZM258.9,40.6h9.9c2.9,0,5-.6,6.4-1.9,1.4-1.3,2.1-3.1,2.1-5.5s-.7-4.2-2.1-5.5c-1.4-1.4-3.5-2-6.4-2h-9.9v14.9Z"/>
  <path class="st2" d="M296,67.1c-.5,0-.9-.2-1.2-.5-.3-.3-.5-.7-.5-1.2V19.6c0-.5.2-.9.5-1.3.3-.3.7-.5,1.2-.5h30.5c.5,0,.9.2,1.3.5.3.3.5.7.5,1.3v4.9c0,.5-.2.9-.5,1.3-.3.3-.8.4-1.3.4h-22.6v13.4h21.2c.5,0,.9.2,1.3.5.3.3.5.7.5,1.3v4.9c0,.5-.2.9-.5,1.2-.3.3-.8.5-1.3.5h-21.2v17.4c0,.5-.2.9-.5,1.2-.3.3-.8.5-1.3.5h-6.2Z"/>
  <path class="st2" d="M336.1,67.1c-.5,0-.9-.2-1.2-.5-.3-.3-.5-.7-.5-1.2V19.6c0-.5.2-.9.5-1.2.3-.3.7-.5,1.2-.5h6.5c.5,0,.9.2,1.2.5.3.3.5.7.5,1.2v39.2h22.3c.5,0,.9.2,1.3.5.3.3.5.7.5,1.3v4.9c0,.5-.2.9-.5,1.2-.3.3-.8.5-1.3.5h-30.5Z"/>
  <path class="st2" d="M391.4,67.8c-4.2,0-7.8-.7-10.8-2-3-1.4-5.3-3.5-7-6.4-1.7-2.9-2.6-6.5-2.7-10.8,0-2,0-4,0-6s0-4,0-6c.1-4.3,1.1-7.8,2.8-10.7,1.7-2.9,4.1-5,7.1-6.5,3-1.5,6.6-2.2,10.6-2.2s7.6.7,10.6,2.2c3,1.5,5.4,3.6,7.2,6.5s2.7,6.4,2.8,10.7c0,2.1.1,4.1.1,6s0,4-.1,6c-.1,4.3-1.1,7.9-2.7,10.8-1.7,2.9-4.1,5-7.1,6.4-3,1.4-6.6,2-10.8,2ZM391.4,59.7c3,0,5.5-.9,7.5-2.7,1.9-1.8,3-4.8,3.1-8.9,0-2.1.1-4,.1-5.7s0-3.7-.1-5.7c0-2.7-.6-4.9-1.5-6.6-.9-1.7-2.1-3-3.7-3.7-1.5-.8-3.3-1.2-5.3-1.2s-3.7.4-5.3,1.2c-1.5.7-2.8,2-3.7,3.7-.9,1.7-1.4,3.9-1.5,6.6,0,2,0,3.9,0,5.7s0,3.6,0,5.7c.1,4.1,1.2,7,3.1,8.9,1.9,1.8,4.4,2.7,7.4,2.7Z"/>
  <path class="st2" d="M426.7,67.1c-.7,0-1.3-.2-1.7-.6-.4-.4-.6-.9-.8-1.5l-8.4-45.1c0-.1,0-.3,0-.4v-.2c0-.4.1-.8.4-1.1.3-.3.7-.4,1.1-.4h6.2c1.2,0,1.8.5,2,1.4l5.8,31.8,6.3-20.6c.1-.4.4-.7.7-1.1.4-.4.9-.6,1.6-.6h3.8c.8,0,1.3.2,1.6.6.3.4.5.7.6,1.1l6.4,20.5,5.8-31.8c.1-.9.8-1.4,2-1.4h6.2c.4,0,.7.1,1,.4.3.3.4.6.4,1.1v.2c0,0,0,.2,0,.4l-8.4,45.1c0,.6-.4,1.1-.8,1.5-.4.4-1,.6-1.7.6h-4.7c-.7,0-1.3-.2-1.7-.6-.4-.4-.6-.8-.8-1.2l-7.9-23.5-7.9,23.5c-.2.4-.5.8-.8,1.2-.4.4-.9.6-1.7.6h-4.7Z"/>
  <path class="st2" d="M203.3,130.4c-4.9,0-8.9-.7-12.2-2.1-3.2-1.5-5.7-3.3-7.5-5.6-1.7-2.4-2.6-4.8-2.7-7.4,0-.5.2-.9.5-1.2.3-.3.7-.5,1.2-.5h7c.7,0,1.2.2,1.5.5.4.3.7.6.9,1,.3,1,.9,2,1.8,3,.9.9,2.1,1.7,3.6,2.4,1.6.6,3.5.9,5.9.9,3.8,0,6.6-.6,8.4-1.9,1.9-1.3,2.8-3,2.8-5.1s-.5-2.7-1.5-3.6c-1-.9-2.5-1.8-4.6-2.5-2-.8-4.8-1.6-8.2-2.4-3.9-.9-7.2-2.1-9.9-3.4-2.6-1.4-4.6-3.1-6-5.1-1.3-2-2-4.6-2-7.8s.8-5.7,2.4-8.1c1.7-2.4,4-4.2,7.1-5.6,3.1-1.4,6.7-2,11-2s6.4.5,9,1.4c2.6.9,4.8,2.1,6.5,3.6,1.7,1.5,3,3.1,3.9,4.8.9,1.7,1.4,3.3,1.5,4.9,0,.4-.2.8-.5,1.2-.3.3-.7.5-1.2.5h-7.3c-.4,0-.8-.1-1.3-.3-.4-.2-.8-.6-1-1.2-.3-1.6-1.3-3-3.1-4.2-1.7-1.2-3.9-1.7-6.7-1.7s-5.1.5-6.8,1.6c-1.7,1-2.6,2.7-2.6,4.9s.4,2.7,1.3,3.7c.9.9,2.3,1.8,4.2,2.5,1.9.7,4.5,1.5,7.6,2.4,4.4,1,8.1,2.1,10.9,3.5,2.8,1.3,4.9,3,6.2,5,1.3,2,2,4.5,2,7.6s-.9,6.4-2.8,8.9c-1.8,2.4-4.4,4.3-7.8,5.6-3.3,1.3-7.2,2-11.7,2Z"/>
  <path class="st2" d="M254.1,130.4c-4.6,0-8.5-.8-11.8-2.3-3.3-1.6-5.9-4-7.8-7.1-1.8-3.2-2.7-7.4-2.7-12.4v-31.9c0-.6.2-1,.5-1.4.4-.4.8-.5,1.3-.5h7.1c.6,0,1,.2,1.3.5.4.4.5.8.5,1.4v31.9c0,4.3,1,7.5,3.1,9.6,2,2,4.8,3.1,8.4,3.1s6.3-1,8.3-3.1c2-2.1,3.1-5.3,3.1-9.6v-31.9c0-.6.2-1,.5-1.4.4-.4.8-.5,1.4-.5h7.1c.6,0,1,.2,1.3.5.4.4.5.8.5,1.4v31.9c0,5-.9,9.2-2.7,12.4-1.8,3.2-4.3,5.6-7.7,7.1-3.3,1.5-7.2,2.3-11.8,2.3Z"/>
  <path class="st2" d="M287.7,129.6c-.6,0-1-.2-1.4-.5s-.5-.8-.5-1.3v-51.1c0-.6.2-1,.5-1.4.4-.4.8-.5,1.4-.5h6.2c.7,0,1.3.2,1.6.6.4.4.6.7.7.9l15.1,28.2,15.3-28.2c.1-.2.3-.5.7-.9.4-.4.9-.6,1.6-.6h6.1c.6,0,1,.2,1.4.5.4.4.6.8.6,1.4v51.1c0,.5-.2,1-.6,1.3-.4.4-.8.5-1.4.5h-6.6c-.6,0-1-.2-1.4-.5-.3-.4-.5-.8-.5-1.3v-34l-11,20.9c-.3.5-.6.9-1,1.3-.4.3-1,.5-1.6.5h-3.2c-.7,0-1.3-.2-1.7-.5-.4-.4-.7-.8-.9-1.3l-11-20.9v34c0,.5-.2,1-.5,1.3s-.8.5-1.3.5h-6.6Z"/>
  <path class="st2" d="M349,129.6c-.6,0-1-.2-1.4-.5-.4-.4-.5-.8-.5-1.3v-51.1c0-.6.2-1,.5-1.4.4-.4.8-.5,1.4-.5h6.2c.7,0,1.3.2,1.6.6.4.4.6.7.7.9l15.1,28.2,15.3-28.2c.1-.2.3-.5.7-.9.4-.4.9-.6,1.6-.6h6.1c.6,0,1,.2,1.4.5.4.4.5.8.5,1.4v51.1c0,.5-.2,1-.5,1.3-.4.4-.8.5-1.4.5h-6.6c-.6,0-1-.2-1.4-.5-.3-.4-.5-.8-.5-1.3v-34l-11,20.9c-.3.5-.6.9-1,1.3-.4.3-1,.5-1.6.5h-3.2c-.7,0-1.3-.2-1.7-.5-.4-.4-.7-.8-.9-1.3l-11-20.9v34c0,.5-.2,1-.5,1.3s-.8.5-1.3.5h-6.6Z"/>
  <path class="st2" d="M410.1,129.6c-.5,0-1-.2-1.3-.5-.4-.4-.5-.8-.5-1.3v-51.2c0-.5.2-1,.5-1.3.4-.4.8-.5,1.3-.5h7.4c.6,0,1,.2,1.3.5.4.4.5.8.5,1.3v51.2c0,.5-.2,1-.5,1.3-.3.4-.8.5-1.3.5h-7.4Z"/>
  <path class="st2" d="M443.3,129.6c-.5,0-1-.2-1.3-.5s-.5-.8-.5-1.3v-43.4h-14.5c-.5,0-1-.2-1.3-.5-.4-.4-.5-.8-.5-1.3v-5.8c0-.6.2-1,.5-1.4.4-.4.8-.5,1.3-.5h40c.6,0,1,.2,1.4.5.4.4.5.8.5,1.4v5.8c0,.5-.2,1-.5,1.3-.4.4-.8.5-1.4.5h-14.4v43.4c0,.5-.2,1-.5,1.3s-.8.5-1.4.5h-7.2Z"/>
  <path class="st2" d="M469.1,67.1c-.6,0-1.2-.1-1.8-.4-.5-.2-1-.6-1.4-1-.4-.4-.7-.9-1-1.4-.2-.5-.4-1.1-.4-1.8s.1-1.2.4-1.8c.2-.5.6-1,1-1.4.4-.4.9-.7,1.4-1,.5-.2,1.1-.4,1.8-.4s1.2.1,1.8.4c.5.2,1,.6,1.4,1,.4.4.7.9,1,1.4.2.5.4,1.1.4,1.8s-.1,1.2-.4,1.8c-.2.5-.6,1-1,1.4-.4.4-.9.7-1.4,1-.5.2-1.1.4-1.8.4ZM469.1,66.3c.5,0,1,0,1.4-.3.4-.2.8-.5,1.2-.8.3-.3.6-.7.8-1.2.2-.5.3-.9.3-1.5s0-1-.3-1.5c-.2-.5-.5-.9-.8-1.2-.3-.3-.7-.6-1.2-.8-.4-.2-.9-.3-1.4-.3s-1,0-1.4.3c-.4.2-.8.5-1.2.8-.3.3-.6.7-.8,1.2-.2.5-.3.9-.3,1.5s0,1,.3,1.5c.2.5.5.9.8,1.2.3.3.7.6,1.2.8.4.2.9.3,1.4.3ZM467.7,64.8c-.2,0-.3,0-.3-.3v-4.1c0-.2,0-.3.3-.3h1.7c.3,0,.6,0,.9.1.3,0,.5.2.7.5.2.2.2.5.2.9s0,.6-.2.8c-.2.2-.4.4-.6.5l.8,1.4s0,0,0,0c0,0,0,0,0,.1,0,0,0,.1,0,.2,0,0-.1,0-.2,0h-.3c0,0-.2,0-.2,0,0,0-.1-.1-.2-.2l-.8-1.4h-1v1.4c0,.2,0,.3-.3.3h-.4ZM468.3,62.3h1c.3,0,.6,0,.7-.2s.2-.3.2-.5,0-.3-.2-.5-.3-.2-.7-.2h-1v1.3Z"/>
</svg>