<svg width="662" height="249" viewBox="0 0 662 249" fill="none" xmlns="http://www.w3.org/2000/svg">
<g clip-path="url(#clip0_68_1096)">
<path d="M171.106 131C170.924 131 170.754 130.932 170.596 130.796C170.46 130.66 170.392 130.49 170.392 130.286C170.392 130.195 170.414 130.093 170.46 129.98L178.654 108.05C178.722 107.823 178.846 107.631 179.028 107.472C179.232 107.291 179.504 107.2 179.844 107.2H183.55C183.89 107.2 184.15 107.291 184.332 107.472C184.513 107.631 184.649 107.823 184.74 108.05L192.934 129.98C192.956 130.093 192.968 130.195 192.968 130.286C192.968 130.49 192.9 130.66 192.764 130.796C192.628 130.932 192.469 131 192.288 131H189.33C189.012 131 188.774 130.932 188.616 130.796C188.48 130.637 188.389 130.49 188.344 130.354L186.746 126.206H176.648L175.05 130.354C175.004 130.49 174.902 130.637 174.744 130.796C174.608 130.932 174.381 131 174.064 131H171.106ZM177.838 122.296H185.556L181.68 111.79L177.838 122.296ZM199.678 131C199.451 131 199.258 130.921 199.1 130.762C198.941 130.603 198.862 130.411 198.862 130.184V108.016C198.862 107.789 198.941 107.597 199.1 107.438C199.258 107.279 199.451 107.2 199.678 107.2H202.874C203.123 107.2 203.316 107.279 203.452 107.438C203.61 107.597 203.69 107.789 203.69 108.016V130.184C203.69 130.411 203.61 130.603 203.452 130.762C203.316 130.921 203.123 131 202.874 131H199.678ZM212.558 131C212.331 131 212.139 130.921 211.98 130.762C211.821 130.603 211.742 130.411 211.742 130.184V108.05C211.742 107.801 211.821 107.597 211.98 107.438C212.139 107.279 212.331 107.2 212.558 107.2H221.364C224.107 107.2 226.271 107.835 227.858 109.104C229.445 110.373 230.238 112.221 230.238 114.646C230.238 116.323 229.819 117.717 228.98 118.828C228.164 119.939 227.065 120.743 225.682 121.242L230.646 129.912C230.714 130.048 230.748 130.173 230.748 130.286C230.748 130.49 230.669 130.66 230.51 130.796C230.374 130.932 230.215 131 230.034 131H226.94C226.555 131 226.26 130.898 226.056 130.694C225.852 130.49 225.693 130.286 225.58 130.082L221.194 122.024H216.468V130.184C216.468 130.411 216.389 130.603 216.23 130.762C216.094 130.921 215.901 131 215.652 131H212.558ZM216.468 118.182H221.262C222.645 118.182 223.676 117.876 224.356 117.264C225.036 116.629 225.376 115.745 225.376 114.612C225.376 113.479 225.036 112.595 224.356 111.96C223.699 111.303 222.667 110.974 221.262 110.974H216.468V118.182ZM238.155 131C237.928 131 237.736 130.921 237.577 130.762C237.418 130.603 237.339 130.411 237.339 130.184V108.05C237.339 107.801 237.418 107.597 237.577 107.438C237.736 107.279 237.928 107.2 238.155 107.2H252.911C253.16 107.2 253.364 107.279 253.523 107.438C253.682 107.597 253.761 107.801 253.761 108.05V110.43C253.761 110.679 253.682 110.883 253.523 111.042C253.364 111.178 253.16 111.246 252.911 111.246H241.997V117.706H252.231C252.48 117.706 252.684 117.785 252.843 117.944C253.002 118.103 253.081 118.307 253.081 118.556V120.936C253.081 121.163 253.002 121.355 252.843 121.514C252.684 121.673 252.48 121.752 252.231 121.752H241.997V130.184C241.997 130.411 241.918 130.603 241.759 130.762C241.6 130.921 241.396 131 241.147 131H238.155ZM261.295 131C261.068 131 260.875 130.921 260.717 130.762C260.558 130.603 260.479 130.411 260.479 130.184V108.016C260.479 107.789 260.558 107.597 260.717 107.438C260.875 107.279 261.068 107.2 261.295 107.2H264.457C264.683 107.2 264.876 107.279 265.035 107.438C265.193 107.597 265.273 107.789 265.273 108.016V126.954H276.051C276.3 126.954 276.504 127.033 276.663 127.192C276.821 127.351 276.901 127.555 276.901 127.804V130.184C276.901 130.411 276.821 130.603 276.663 130.762C276.504 130.921 276.3 131 276.051 131H261.295ZM291.769 131.34C289.751 131.34 288.017 131.011 286.567 130.354C285.116 129.674 283.983 128.643 283.167 127.26C282.351 125.855 281.909 124.109 281.841 122.024C281.818 121.049 281.807 120.086 281.807 119.134C281.807 118.182 281.818 117.207 281.841 116.21C281.909 114.147 282.362 112.425 283.201 111.042C284.039 109.659 285.184 108.617 286.635 107.914C288.108 107.211 289.819 106.86 291.769 106.86C293.718 106.86 295.429 107.211 296.903 107.914C298.376 108.617 299.532 109.659 300.371 111.042C301.209 112.425 301.663 114.147 301.731 116.21C301.776 117.207 301.799 118.182 301.799 119.134C301.799 120.086 301.776 121.049 301.731 122.024C301.663 124.109 301.221 125.855 300.405 127.26C299.589 128.643 298.444 129.674 296.971 130.354C295.52 131.011 293.786 131.34 291.769 131.34ZM291.769 127.43C293.242 127.43 294.443 126.999 295.373 126.138C296.302 125.254 296.801 123.826 296.869 121.854C296.914 120.857 296.937 119.939 296.937 119.1C296.937 118.239 296.914 117.321 296.869 116.346C296.823 115.031 296.574 113.966 296.121 113.15C295.69 112.311 295.101 111.711 294.353 111.348C293.605 110.963 292.743 110.77 291.769 110.77C290.817 110.77 289.967 110.963 289.219 111.348C288.471 111.711 287.87 112.311 287.417 113.15C286.986 113.966 286.748 115.031 286.703 116.346C286.68 117.321 286.669 118.239 286.669 119.1C286.669 119.939 286.68 120.857 286.703 121.854C286.771 123.826 287.269 125.254 288.199 126.138C289.128 126.999 290.318 127.43 291.769 127.43ZM312.628 131C312.288 131 312.016 130.909 311.812 130.728C311.63 130.524 311.506 130.275 311.438 129.98L307.392 108.186C307.392 108.118 307.38 108.061 307.358 108.016C307.358 107.971 307.358 107.937 307.358 107.914C307.358 107.71 307.426 107.54 307.562 107.404C307.72 107.268 307.89 107.2 308.072 107.2H311.064C311.63 107.2 311.948 107.427 312.016 107.88L314.838 123.282L317.898 113.32C317.966 113.139 318.079 112.957 318.238 112.776C318.419 112.572 318.68 112.47 319.02 112.47H320.856C321.218 112.47 321.479 112.572 321.638 112.776C321.796 112.957 321.898 113.139 321.944 113.32L325.038 123.248L327.86 107.88C327.928 107.427 328.245 107.2 328.812 107.2H331.804C331.985 107.2 332.144 107.268 332.28 107.404C332.416 107.54 332.484 107.71 332.484 107.914C332.484 107.937 332.484 107.971 332.484 108.016C332.484 108.061 332.472 108.118 332.45 108.186L328.404 129.98C328.358 130.275 328.234 130.524 328.03 130.728C327.826 130.909 327.554 131 327.214 131H324.936C324.596 131 324.324 130.909 324.12 130.728C323.938 130.547 323.814 130.354 323.746 130.15L319.938 118.794L316.13 130.15C316.039 130.354 315.903 130.547 315.722 130.728C315.54 130.909 315.268 131 314.906 131H312.628ZM357.548 131.34C355.44 131.34 353.672 131.034 352.244 130.422C350.839 129.787 349.762 128.971 349.014 127.974C348.289 126.954 347.904 125.889 347.858 124.778C347.858 124.574 347.926 124.404 348.062 124.268C348.198 124.132 348.368 124.064 348.572 124.064H351.598C351.893 124.064 352.108 124.132 352.244 124.268C352.403 124.381 352.539 124.529 352.652 124.71C352.788 125.141 353.049 125.571 353.434 126.002C353.82 126.41 354.341 126.75 354.998 127.022C355.678 127.294 356.528 127.43 357.548 127.43C359.18 127.43 360.393 127.158 361.186 126.614C362.002 126.07 362.41 125.333 362.41 124.404C362.41 123.747 362.195 123.225 361.764 122.84C361.334 122.432 360.665 122.069 359.758 121.752C358.874 121.412 357.696 121.061 356.222 120.698C354.522 120.29 353.094 119.803 351.938 119.236C350.805 118.647 349.944 117.91 349.354 117.026C348.788 116.142 348.504 115.02 348.504 113.66C348.504 112.345 348.856 111.178 349.558 110.158C350.284 109.138 351.304 108.333 352.618 107.744C353.956 107.155 355.542 106.86 357.378 106.86C358.852 106.86 360.155 107.064 361.288 107.472C362.422 107.857 363.362 108.379 364.11 109.036C364.858 109.671 365.425 110.362 365.81 111.11C366.218 111.835 366.434 112.549 366.456 113.252C366.456 113.433 366.388 113.603 366.252 113.762C366.139 113.898 365.969 113.966 365.742 113.966H362.58C362.399 113.966 362.218 113.921 362.036 113.83C361.855 113.739 361.708 113.569 361.594 113.32C361.458 112.617 361.016 112.017 360.268 111.518C359.52 111.019 358.557 110.77 357.378 110.77C356.154 110.77 355.168 110.997 354.42 111.45C353.672 111.903 353.298 112.606 353.298 113.558C353.298 114.193 353.48 114.725 353.842 115.156C354.228 115.564 354.828 115.927 355.644 116.244C356.483 116.561 357.582 116.901 358.942 117.264C360.869 117.695 362.444 118.193 363.668 118.76C364.892 119.327 365.788 120.052 366.354 120.936C366.921 121.797 367.204 122.897 367.204 124.234C367.204 125.73 366.796 127.011 365.98 128.076C365.187 129.119 364.065 129.923 362.614 130.49C361.164 131.057 359.475 131.34 357.548 131.34ZM383.307 131.34C381.335 131.34 379.624 131.011 378.173 130.354C376.722 129.674 375.6 128.643 374.807 127.26C374.014 125.855 373.617 124.064 373.617 121.888V108.05C373.617 107.801 373.696 107.597 373.855 107.438C374.014 107.279 374.206 107.2 374.433 107.2H377.527C377.776 107.2 377.969 107.279 378.105 107.438C378.264 107.597 378.343 107.801 378.343 108.05V121.888C378.343 123.747 378.785 125.129 379.669 126.036C380.553 126.92 381.766 127.362 383.307 127.362C384.848 127.362 386.05 126.92 386.911 126.036C387.795 125.129 388.237 123.747 388.237 121.888V108.05C388.237 107.801 388.316 107.597 388.475 107.438C388.634 107.279 388.838 107.2 389.087 107.2H392.147C392.396 107.2 392.589 107.279 392.725 107.438C392.884 107.597 392.963 107.801 392.963 108.05V121.888C392.963 124.064 392.566 125.855 391.773 127.26C391.002 128.643 389.892 129.674 388.441 130.354C387.013 131.011 385.302 131.34 383.307 131.34ZM401.629 131C401.38 131 401.176 130.921 401.017 130.762C400.859 130.603 400.779 130.411 400.779 130.184V108.05C400.779 107.801 400.859 107.597 401.017 107.438C401.176 107.279 401.38 107.2 401.629 107.2H404.315C404.633 107.2 404.871 107.291 405.029 107.472C405.188 107.631 405.29 107.755 405.335 107.846L411.897 120.086L418.527 107.846C418.573 107.755 418.675 107.631 418.833 107.472C418.992 107.291 419.23 107.2 419.547 107.2H422.199C422.449 107.2 422.653 107.279 422.811 107.438C422.97 107.597 423.049 107.801 423.049 108.05V130.184C423.049 130.411 422.97 130.603 422.811 130.762C422.653 130.921 422.449 131 422.199 131H419.343C419.094 131 418.89 130.921 418.731 130.762C418.595 130.603 418.527 130.411 418.527 130.184V115.462L413.767 124.54C413.654 124.744 413.507 124.925 413.325 125.084C413.144 125.22 412.906 125.288 412.611 125.288H411.217C410.9 125.288 410.651 125.22 410.469 125.084C410.311 124.925 410.175 124.744 410.061 124.54L405.301 115.462V130.184C405.301 130.411 405.222 130.603 405.063 130.762C404.905 130.921 404.712 131 404.485 131H401.629ZM431.908 131C431.658 131 431.454 130.921 431.296 130.762C431.137 130.603 431.058 130.411 431.058 130.184V108.05C431.058 107.801 431.137 107.597 431.296 107.438C431.454 107.279 431.658 107.2 431.908 107.2H434.594C434.911 107.2 435.149 107.291 435.308 107.472C435.466 107.631 435.568 107.755 435.614 107.846L442.176 120.086L448.806 107.846C448.851 107.755 448.953 107.631 449.112 107.472C449.27 107.291 449.508 107.2 449.826 107.2H452.478C452.727 107.2 452.931 107.279 453.09 107.438C453.248 107.597 453.328 107.801 453.328 108.05V130.184C453.328 130.411 453.248 130.603 453.09 130.762C452.931 130.921 452.727 131 452.478 131H449.622C449.372 131 449.168 130.921 449.01 130.762C448.874 130.603 448.806 130.411 448.806 130.184V115.462L444.046 124.54C443.932 124.744 443.785 124.925 443.604 125.084C443.422 125.22 443.184 125.288 442.89 125.288H441.496C441.178 125.288 440.929 125.22 440.748 125.084C440.589 124.925 440.453 124.744 440.34 124.54L435.58 115.462V130.184C435.58 130.411 435.5 130.603 435.342 130.762C435.183 130.921 434.99 131 434.764 131H431.908ZM462.152 131C461.926 131 461.733 130.921 461.574 130.762C461.416 130.603 461.336 130.411 461.336 130.184V108.016C461.336 107.789 461.416 107.597 461.574 107.438C461.733 107.279 461.926 107.2 462.152 107.2H465.348C465.598 107.2 465.79 107.279 465.926 107.438C466.085 107.597 466.164 107.789 466.164 108.016V130.184C466.164 130.411 466.085 130.603 465.926 130.762C465.79 130.921 465.598 131 465.348 131H462.152ZM480.269 131C480.042 131 479.849 130.921 479.691 130.762C479.532 130.603 479.453 130.411 479.453 130.184V111.382H473.163C472.936 111.382 472.743 111.303 472.585 111.144C472.426 110.985 472.347 110.793 472.347 110.566V108.05C472.347 107.801 472.426 107.597 472.585 107.438C472.743 107.279 472.936 107.2 473.163 107.2H490.503C490.752 107.2 490.956 107.279 491.115 107.438C491.273 107.597 491.353 107.801 491.353 108.05V110.566C491.353 110.793 491.273 110.985 491.115 111.144C490.956 111.303 490.752 111.382 490.503 111.382H484.247V130.184C484.247 130.411 484.167 130.603 484.009 130.762C483.85 130.921 483.646 131 483.397 131H480.269ZM506.876 131C506.649 131 506.457 130.921 506.298 130.762C506.139 130.603 506.06 130.411 506.06 130.184V128.45C506.06 128.246 506.105 128.008 506.196 127.736C506.309 127.441 506.547 127.147 506.91 126.852L512.282 121.514C513.778 120.335 514.979 119.338 515.886 118.522C516.815 117.683 517.484 116.924 517.892 116.244C518.323 115.541 518.538 114.85 518.538 114.17C518.538 113.15 518.255 112.323 517.688 111.688C517.144 111.053 516.271 110.736 515.07 110.736C514.277 110.736 513.608 110.906 513.064 111.246C512.52 111.563 512.089 111.994 511.772 112.538C511.477 113.082 511.273 113.683 511.16 114.34C511.115 114.635 510.99 114.839 510.786 114.952C510.582 115.065 510.378 115.122 510.174 115.122H507.148C506.944 115.122 506.774 115.054 506.638 114.918C506.502 114.782 506.434 114.623 506.434 114.442C506.457 113.467 506.661 112.527 507.046 111.62C507.431 110.691 507.987 109.875 508.712 109.172C509.46 108.447 510.367 107.869 511.432 107.438C512.497 107.007 513.699 106.792 515.036 106.792C516.917 106.792 518.47 107.109 519.694 107.744C520.941 108.379 521.87 109.24 522.482 110.328C523.117 111.416 523.434 112.64 523.434 114C523.434 115.065 523.23 116.051 522.822 116.958C522.414 117.842 521.825 118.703 521.054 119.542C520.283 120.358 519.354 121.197 518.266 122.058L513.438 126.954H523.128C523.377 126.954 523.57 127.033 523.706 127.192C523.865 127.328 523.944 127.521 523.944 127.77V130.184C523.944 130.411 523.865 130.603 523.706 130.762C523.57 130.921 523.377 131 523.128 131H506.876ZM539.453 131.34C537.843 131.34 536.472 131.102 535.339 130.626C534.205 130.15 533.276 129.493 532.551 128.654C531.825 127.815 531.281 126.852 530.919 125.764C530.556 124.653 530.341 123.475 530.273 122.228C530.25 121.616 530.227 120.947 530.205 120.222C530.205 119.474 530.205 118.726 530.205 117.978C530.227 117.23 530.25 116.539 530.273 115.904C530.318 114.657 530.533 113.49 530.919 112.402C531.304 111.291 531.859 110.328 532.585 109.512C533.333 108.696 534.273 108.05 535.407 107.574C536.54 107.098 537.889 106.86 539.453 106.86C541.039 106.86 542.399 107.098 543.533 107.574C544.666 108.05 545.595 108.696 546.321 109.512C547.069 110.328 547.624 111.291 547.987 112.402C548.372 113.49 548.587 114.657 548.633 115.904C548.678 116.539 548.701 117.23 548.701 117.978C548.701 118.726 548.701 119.474 548.701 120.222C548.701 120.947 548.678 121.616 548.633 122.228C548.587 123.475 548.383 124.653 548.021 125.764C547.658 126.852 547.114 127.815 546.389 128.654C545.663 129.493 544.723 130.15 543.567 130.626C542.433 131.102 541.062 131.34 539.453 131.34ZM539.453 127.43C540.926 127.43 542.003 126.954 542.683 126.002C543.385 125.027 543.748 123.713 543.771 122.058C543.816 121.401 543.839 120.743 543.839 120.086C543.839 119.406 543.839 118.726 543.839 118.046C543.839 117.366 543.816 116.72 543.771 116.108C543.748 114.499 543.385 113.207 542.683 112.232C542.003 111.235 540.926 110.736 539.453 110.736C538.002 110.736 536.925 111.235 536.223 112.232C535.543 113.207 535.18 114.499 535.135 116.108C535.135 116.72 535.123 117.366 535.101 118.046C535.101 118.726 535.101 119.406 535.101 120.086C535.123 120.743 535.135 121.401 535.135 122.058C535.18 123.713 535.554 125.027 536.257 126.002C536.959 126.954 538.025 127.43 539.453 127.43ZM555.712 131C555.486 131 555.293 130.921 555.134 130.762C554.976 130.603 554.896 130.411 554.896 130.184V128.45C554.896 128.246 554.942 128.008 555.032 127.736C555.146 127.441 555.384 127.147 555.746 126.852L561.118 121.514C562.614 120.335 563.816 119.338 564.722 118.522C565.652 117.683 566.32 116.924 566.728 116.244C567.159 115.541 567.374 114.85 567.374 114.17C567.374 113.15 567.091 112.323 566.524 111.688C565.98 111.053 565.108 110.736 563.906 110.736C563.113 110.736 562.444 110.906 561.9 111.246C561.356 111.563 560.926 111.994 560.608 112.538C560.314 113.082 560.11 113.683 559.996 114.34C559.951 114.635 559.826 114.839 559.622 114.952C559.418 115.065 559.214 115.122 559.01 115.122H555.984C555.78 115.122 555.61 115.054 555.474 114.918C555.338 114.782 555.27 114.623 555.27 114.442C555.293 113.467 555.497 112.527 555.882 111.62C556.268 110.691 556.823 109.875 557.548 109.172C558.296 108.447 559.203 107.869 560.268 107.438C561.334 107.007 562.535 106.792 563.872 106.792C565.754 106.792 567.306 107.109 568.53 107.744C569.777 108.379 570.706 109.24 571.318 110.328C571.953 111.416 572.27 112.64 572.27 114C572.27 115.065 572.066 116.051 571.658 116.958C571.25 117.842 570.661 118.703 569.89 119.542C569.12 120.358 568.19 121.197 567.102 122.058L562.274 126.954H571.964C572.214 126.954 572.406 127.033 572.542 127.192C572.701 127.328 572.78 127.521 572.78 127.77V130.184C572.78 130.411 572.701 130.603 572.542 130.762C572.406 130.921 572.214 131 571.964 131H555.712ZM590.335 131C590.108 131 589.915 130.921 589.757 130.762C589.598 130.603 589.519 130.411 589.519 130.184V125.832H578.741C578.491 125.832 578.287 125.753 578.129 125.594C577.993 125.435 577.925 125.243 577.925 125.016V122.704C577.925 122.568 577.947 122.409 577.993 122.228C578.061 122.024 578.163 121.843 578.299 121.684L588.329 107.778C588.623 107.393 589.043 107.2 589.587 107.2H593.293C593.519 107.2 593.712 107.279 593.871 107.438C594.029 107.597 594.109 107.789 594.109 108.016V121.82H597.135C597.407 121.82 597.611 121.899 597.747 122.058C597.905 122.194 597.985 122.387 597.985 122.636V125.016C597.985 125.243 597.905 125.435 597.747 125.594C597.588 125.753 597.395 125.832 597.169 125.832H594.109V130.184C594.109 130.411 594.029 130.603 593.871 130.762C593.712 130.921 593.519 131 593.293 131H590.335ZM582.651 121.956H589.621V112.13L582.651 121.956Z" fill="#565C62"/>
<path d="M142 75.7877C142.009 75.0793 141.596 74.4518 140.944 74.1809C140.288 73.9099 139.547 74.062 139.052 74.5707L115.849 98.3541L101.312 84.1734C96.753 79.7286 89.5509 77.2661 81.6216 75.8685C73.6637 74.4661 64.8073 74.1096 56.7876 74.0002C55.2236 73.9765 54.463 75.8685 55.5659 76.9476L79.354 100.151L65.1733 114.688C56.626 123.45 55.2331 142.113 55.0002 159.213C54.9907 159.921 55.4042 160.548 56.0555 160.819C56.2694 160.91 56.4929 160.952 56.7163 160.952C57.1679 160.952 57.6148 160.772 57.9428 160.43L81.1462 136.641L95.6834 150.822C104.445 159.369 123.108 160.762 140.208 161H140.231C140.925 161 141.548 160.586 141.814 159.945C142.085 159.289 141.933 158.547 141.425 158.053L117.637 134.849L131.817 120.312C140.365 111.551 141.757 92.8872 141.99 75.7877H142ZM91.6236 142.821L81.5075 132.905C81.8735 131.103 83.5278 128.736 86.0711 126.387C88.7761 123.887 92.3604 121.505 96.5343 119.428C92.1893 129.064 90.5587 136.884 91.6283 142.826L91.6236 142.821ZM73.1455 110.614L83.062 100.498C84.8637 100.864 87.2311 102.518 89.5794 105.062C92.08 107.767 94.4616 111.351 96.539 115.525C86.9031 111.18 79.083 109.549 73.1407 110.619L73.1455 110.614ZM98.5309 119.314C97.5231 119.328 96.7007 118.52 96.6864 117.517C96.6722 116.509 97.4803 115.687 98.4834 115.672C99.4912 115.658 100.314 116.466 100.328 117.469C100.342 118.477 99.534 119.299 98.5309 119.314ZM105.386 92.1503L115.502 102.067C115.136 103.869 113.482 106.236 110.938 108.584C108.233 111.085 104.649 113.466 100.475 115.544C104.82 105.908 106.451 98.0879 105.381 92.1456L105.386 92.1503ZM113.962 134.493C112.16 134.127 109.793 132.472 107.444 129.929C104.944 127.224 102.562 123.64 100.485 119.466C110.121 123.811 117.941 125.441 123.883 124.372L113.967 134.488L113.962 134.493Z" fill="#565C62"/>
</g>
<defs>
<clipPath id="clip0_68_1096">
<rect width="662" height="249" fill="white"/>
</clipPath>
</defs>
</svg>
