<?xml version="1.0" encoding="utf-8"?>
<!-- Generator: Adobe Illustrator 24.0.2, SVG Export Plug-In . SVG Version: 6.00 Build 0)  -->
<svg version="1.1" baseProfile="basic" id="Layer_1" focusable="false"
	 xmlns="http://www.w3.org/2000/svg" xmlns:xlink="http://www.w3.org/1999/xlink" x="0px" y="0px" viewBox="0 0 44.4 44.4"
	 xml:space="preserve">
<path fill="#FFFFFF" d="M39.6,0H4.8C2.1,0,0,2.1,0,4.8v34.9c0,2.6,2.1,4.8,4.8,4.8h34.9c2.6,0,4.8-2.1,4.8-4.8V4.8
	C44.4,2.1,42.2,0,39.6,0z M17.6,22.8c-9-6.5-8.9-6.5-11.3-8.4v-2.5c0-1.3,1.1-2.4,2.4-2.4h26.9c1.3,0,2.4,1.1,2.4,2.4v2.5
	c-2.4,1.9-2.3,1.9-11.3,8.4c-1,0.8-3.1,2.6-4.5,2.6C20.7,25.4,18.7,23.5,17.6,22.8z M38,18.4v14.1c0,1.3-1.1,2.4-2.4,2.4H8.7
	c-1.3,0-2.4-1.1-2.4-2.4V18.4c1.4,1.1,3.3,2.5,9.4,7c1.4,1,3.8,3.2,6.4,3.2c2.7,0,5.1-2.2,6.4-3.2C34.7,20.9,36.6,19.5,38,18.4z"/>
</svg>
