<svg xmlns="http://www.w3.org/2000/svg" width="589.3" height="190.6" viewBox="0 0 589.3 190.6"><path d="M489.8,101.8l48.3-49.5a.79.79,0,0,0,.1-1.1c-2.9-4.1-8.4-4.8-10.4-7.6-6-8.2-7.5-12.8-10-12.5-.2,0-.3.1-.5.2L499.8,49.2c-10,10.3-11.5,33-11.7,52A1,1,0,0,0,489.8,101.8Z" transform="translate(0 0)" fill="#c1c2c4"/><path d="M588.7,100.6,539.2,52.3a.79.79,0,0,0-1.1-.1c-4.1,2.9-4.8,8.4-7.6,10.4-8.2,6-12.8,7.5-12.5,10,0,.2.1.3.2.5l17.9,17.5c10.3,10,33,11.5,52,11.7A1,1,0,0,0,588.7,100.6Z" transform="translate(0 0)" fill="#c1c2c4"/><path d="M536.1,90.5c-5.6-5.5-8.2-16.3,2.5-38.7-17.5,7.8-23.6,18.1-20.6,21Z" transform="translate(0 0)" fill="#fff" fill-rule="evenodd"/><path d="M587.5,1.7,539.2,51.2a.79.79,0,0,0-.1,1.1c2.9,4.1,8.4,4.8,10.4,7.6,6,8.2,7.5,12.8,10,12.5.2,0,.3-.1.5-.2l17.5-17.9c10-10.3,11.5-33,11.8-52A1.1,1.1,0,0,0,587.5,1.7Z" transform="translate(0 0)" fill="#c1c2c4"/><path d="M577.4,54.3c-5.5,5.6-16.3,8.2-38.7-2.5,7.8,17.5,18.1,23.7,21.1,20.6Z" transform="translate(0 0)" fill="#fff" fill-rule="evenodd"/><path d="M488.6,2.9l49.5,48.3a.79.79,0,0,0,1.1.1c4.1-2.9,4.8-8.4,7.6-10.4,8.2-6,12.8-7.5,12.5-10,0-.2-.1-.3-.2-.5L541.2,13c-10.3-10-33-11.5-52-11.7A.92.92,0,0,0,488.6,2.9Z" transform="translate(0 0)" fill="#c1c2c4"/><path d="M541.2,13c5.6,5.5,8.2,16.3-2.5,38.7,17.5-7.8,23.7-18.1,20.6-21.1Z" transform="translate(0 0)" fill="#fff" fill-rule="evenodd"/><path d="M499.9,49.2c5.5-5.6,16.3-8.2,38.7,2.5-7.8-17.5-18.1-23.7-21.1-20.6Z" transform="translate(0 0)" fill="#fff" fill-rule="evenodd"/><circle cx="538.7" cy="51.8" r="2.2" fill="#636365"/><path d="M7.2,91,7,90.9Z" transform="translate(0 0)" fill="#606060"/><polygon points="3.8 93.9 3.8 93.9 3.7 93.8 3.8 93.9" fill="#606060"/><polygon points="9.6 79.3 9.4 79.2 9.6 79.3 9.4 79.2 9.6 79.3" fill="#606060"/><polygon points="5.8 94.5 5.9 94.6 5.7 94.5 5.8 94.5" fill="#606060"/><path d="M7.9,89h0Z" transform="translate(0 0)" fill="#606060"/><polygon points="9.4 79.2 9.6 79.3 9.6 79.3 9.4 79.2" fill="#606060"/><path d="M20.4,79.1,13.3,97.2c-.8,2.3-2.6,3.4-5.3,3.4H3a2.88,2.88,0,0,1-2.1-.9A2.88,2.88,0,0,1,0,97.6a5.94,5.94,0,0,1,.5-1.9L33.8,9.9c1.2-3,3.2-4.5,6.1-4.5h8.2c2.9,0,4.9,1.5,6.1,4.5L87.4,95.6a4.11,4.11,0,0,1,.5,1.9,3.08,3.08,0,0,1-3,3h-5c-2.7,0-4.5-1.1-5.3-3.4L67.5,79H20.4ZM62.8,66.8,44,18.3,25.1,66.8Z" transform="translate(0 0)" fill="#606060"/><path d="M113,18.1a3.63,3.63,0,0,1-2.6,1.1h-7.7A3.76,3.76,0,0,1,99,15.5V7.7A3.76,3.76,0,0,1,102.7,4h7.7a3.76,3.76,0,0,1,3.7,3.7v7.7A3.48,3.48,0,0,1,113,18.1Zm-1.3,81.4a3.63,3.63,0,0,1-2.6,1.1h-5a3.76,3.76,0,0,1-3.7-3.7V33.6a3.76,3.76,0,0,1,3.7-3.7h5a3.76,3.76,0,0,1,3.7,3.7V96.9A3.81,3.81,0,0,1,111.7,99.5Z" transform="translate(0 0)" fill="#606060"/><path d="M171.6,31a3.63,3.63,0,0,1,1.1,2.6v4.3a3.76,3.76,0,0,1-3.7,3.7h-7.9c-5.1,0-8.9,1.3-11.6,4s-4,6.5-4,11.6V96.9a3.76,3.76,0,0,1-3.7,3.7h-5a3.76,3.76,0,0,1-3.7-3.7V33.6a3.76,3.76,0,0,1,3.7-3.7h5a3.76,3.76,0,0,1,3.7,3.7v4.2a17.61,17.61,0,0,1,6.5-6c2.5-1.3,5.8-1.9,9.9-1.9H169A3.63,3.63,0,0,1,171.6,31Z" transform="translate(0 0)" fill="#606060"/><path d="M244.3,99.5a3.63,3.63,0,0,1-2.6,1.1h-5a3.76,3.76,0,0,1-3.7-3.7V41.6H204.3V96.9a3.76,3.76,0,0,1-3.7,3.7h-5a3.76,3.76,0,0,1-3.7-3.7V41.6H180.5a3.76,3.76,0,0,1-3.7-3.7V33.6a3.76,3.76,0,0,1,3.7-3.7H192V23.1q0-11.7,5.4-17.4c3.6-3.8,9.3-5.7,17-5.7H223a3.63,3.63,0,0,1,2.6,1.1,3.63,3.63,0,0,1,1.1,2.6V8a3.76,3.76,0,0,1-3.7,3.7h-7.2c-4.4,0-7.5,1-9,3.1s-2.4,5.1-2.4,9v6.1H233V3.7a3.63,3.63,0,0,1,1.1-2.6A3.63,3.63,0,0,1,236.7,0h5a3.63,3.63,0,0,1,2.6,1.1,3.63,3.63,0,0,1,1.1,2.6V96.9A3.81,3.81,0,0,1,244.3,99.5Z" transform="translate(0 0)" fill="#606060"/><path d="M327.2,65.4a59.91,59.91,0,0,1-.3,6.2c-.8,9.2-4,16.6-9.6,22.1s-13.1,8.2-22.6,8.2-17.1-2.7-22.6-8.2-8.8-12.8-9.6-22.1c-.1-1-.1-3.1-.1-6.2,0-3.4,0-5.5.1-6.5.7-9.2,3.9-16.6,9.5-22.1s13.2-8.2,22.7-8.2,17.1,2.7,22.7,8.2,8.8,12.8,9.5,22.1A63.17,63.17,0,0,1,327.2,65.4ZM308.8,45.5c-3.3-3.5-8-5.3-14.1-5.3s-10.8,1.8-14.1,5.3-5.2,8.2-5.8,14c-.1,1.1-.1,3-.1,5.8s0,4.6.1,5.6c.5,5.8,2.5,10.5,5.8,14s8,5.3,14.1,5.3,10.8-1.8,14.1-5.3,5.2-8.2,5.8-14a55.45,55.45,0,0,0,.3-5.6c0-1.7-.1-3.7-.3-5.8C314,53.7,312.1,49.1,308.8,45.5Z" transform="translate(0 0)" fill="#606060"/><path d="M425.8,33.2a4.59,4.59,0,0,1,4.6-3.3h4.5a2.9,2.9,0,0,1,2.3,1,3.26,3.26,0,0,1,1,2.3l-.1,1.1L417.3,96.8c-.8,2.5-2.2,3.8-4.1,3.8H409a3.39,3.39,0,0,1-2.6-1,8.25,8.25,0,0,1-1.6-2.8L388.6,51.7,372.4,96.8a10.33,10.33,0,0,1-1.6,2.8,3.25,3.25,0,0,1-2.6,1H364c-1.9,0-3.3-1.3-4.1-3.8L339.1,34.3l-.1-1.1a2.9,2.9,0,0,1,1-2.3,3.26,3.26,0,0,1,2.3-1h4.5a4.51,4.51,0,0,1,4.6,3.3l15.2,45.4,16.3-45.4q1.2-3.3,4.2-3.3h3q3,0,4.2,3.3l16.3,45.4Z" transform="translate(0 0)" fill="#606060"/><path d="M48.3,141.1a2,2,0,0,1-1.5.6H43a2.67,2.67,0,0,1-1.7-.4,4.11,4.11,0,0,1-1.2-1.7,18.32,18.32,0,0,0-5.2-5.8c-2.5-1.9-5.8-2.8-9.9-2.8a17.19,17.19,0,0,0-9.6,2.6,8.17,8.17,0,0,0-3.9,7.3,7.1,7.1,0,0,0,1.9,5.2,14.85,14.85,0,0,0,5.9,3.5,105.45,105.45,0,0,0,11.9,3.5Q42,156,46.5,160c3,2.7,4.5,6.5,4.5,11.2a16.58,16.58,0,0,1-3.2,10,20.61,20.61,0,0,1-8.9,6.8,34.28,34.28,0,0,1-13.3,2.5,31.48,31.48,0,0,1-12.8-2.6,24.74,24.74,0,0,1-9.1-6.8,14,14,0,0,1-3.5-8.2,2.05,2.05,0,0,1,2.1-2.1H6a2.86,2.86,0,0,1,1.7.4,3.38,3.38,0,0,1,1.2,1.7,15.1,15.1,0,0,0,5.5,6.2c2.7,1.9,6.3,2.8,10.9,2.8a21.65,21.65,0,0,0,11.7-3q4.8-3,4.8-7.8a6.39,6.39,0,0,0-2.5-5.2,22.21,22.21,0,0,0-6.9-3.6c-2.9-1-7.2-2.2-12.8-3.6q-9.15-2.4-13.2-6.9a16,16,0,0,1-4.1-11.1,17.18,17.18,0,0,1,2.6-9.1,18.18,18.18,0,0,1,7.7-6.7,27.25,27.25,0,0,1,12.3-2.6,26.6,26.6,0,0,1,12.6,2.8,22.11,22.11,0,0,1,8.3,6.9,13.86,13.86,0,0,1,3.1,7.5A1.58,1.58,0,0,1,48.3,141.1Z" transform="translate(0 0)" fill="#606060"/><path d="M62.2,141.3a2.5,2.5,0,0,1,1.8-.8h3.5a2.74,2.74,0,0,1,2.6,2.6V168q0,7.2,3.3,10.8c2.2,2.4,5.3,3.6,9.5,3.6,4,0,7.2-1.2,9.4-3.7s3.4-6,3.4-10.8V143a2.74,2.74,0,0,1,2.6-2.6h3.5a2.74,2.74,0,0,1,2.6,2.6v44a2.74,2.74,0,0,1-2.6,2.6H98.3a2.74,2.74,0,0,1-2.6-2.6v-2.9c-3.3,4.3-8,6.4-14.2,6.4-6,0-10.9-1.9-14.5-5.7s-5.4-8.9-5.4-15.5V142.9A1.82,1.82,0,0,1,62.2,141.3Z" transform="translate(0 0)" fill="#606060"/><path d="M132.1,141.3c1.9-1.2,4.4-1.7,7.6-1.7,7.4,0,12.5,2.7,15.5,8.2a21.1,21.1,0,0,1,6.2-6.1,17.65,17.65,0,0,1,9.2-2.1c6.2,0,10.8,1.9,13.7,5.6s4.5,9,4.5,15.8v26.2a2.74,2.74,0,0,1-2.6,2.6h-3.5a2.74,2.74,0,0,1-2.6-2.6V162c0-9.5-3.7-14.2-11.2-14.2a10.15,10.15,0,0,0-8.1,3.4c-2,2.3-3,5.6-3,10.1v25.9a2.74,2.74,0,0,1-2.6,2.6h-3.5a2.74,2.74,0,0,1-2.6-2.6V162c0-9.5-3.7-14.2-11.2-14.2a10.15,10.15,0,0,0-8.1,3.4c-2,2.3-3,5.6-3,10.1v25.9a2.74,2.74,0,0,1-2.6,2.6h-3.5a2.74,2.74,0,0,1-2.6-2.6v-44a2.74,2.74,0,0,1,2.6-2.6h3.5a2.74,2.74,0,0,1,2.6,2.6v2.9A23.53,23.53,0,0,1,132.1,141.3Z" transform="translate(0 0)" fill="#606060"/><path d="M216.2,141.3c1.9-1.2,4.4-1.7,7.6-1.7,7.4,0,12.5,2.7,15.5,8.2a21.1,21.1,0,0,1,6.2-6.1,17.65,17.65,0,0,1,9.2-2.1c6.2,0,10.8,1.9,13.7,5.6s4.5,9,4.5,15.8v26.2a2.74,2.74,0,0,1-2.6,2.6h-3.5a2.74,2.74,0,0,1-2.6-2.6V162c0-9.5-3.7-14.2-11.2-14.2a10.15,10.15,0,0,0-8.1,3.4c-2,2.3-3,5.6-3,10.1v25.9a2.74,2.74,0,0,1-2.6,2.6h-3.5a2.74,2.74,0,0,1-2.6-2.6V162c0-9.5-3.7-14.2-11.2-14.2a10.15,10.15,0,0,0-8.1,3.4c-2,2.3-3,5.6-3,10.1v25.9a2.74,2.74,0,0,1-2.6,2.6H205a2.74,2.74,0,0,1-2.6-2.6v-44a2.74,2.74,0,0,1,2.6-2.6h3.5a2.74,2.74,0,0,1,2.6,2.6v2.9A19.23,19.23,0,0,1,216.2,141.3Z" transform="translate(0 0)" fill="#606060"/><path d="M295.4,132.3a2.5,2.5,0,0,1-1.8.8h-5.4a2.74,2.74,0,0,1-2.6-2.6v-5.4a2.74,2.74,0,0,1,2.6-2.6h5.4a2.74,2.74,0,0,1,2.6,2.6v5.4A3,3,0,0,1,295.4,132.3Zm-1,56.6a2.5,2.5,0,0,1-1.8.8h-3.5a2.74,2.74,0,0,1-2.6-2.6v-44a2.74,2.74,0,0,1,2.6-2.6h3.5a2.74,2.74,0,0,1,2.6,2.6v44A2.5,2.5,0,0,1,294.4,188.9Z" transform="translate(0 0)" fill="#606060"/><path d="M323.9,179.4c1.1,1.5,3.2,2.2,6.3,2.2h5a2.74,2.74,0,0,1,2.6,2.6v3a2.74,2.74,0,0,1-2.6,2.6h-6c-5.4,0-9.3-1.4-11.8-4.2s-3.8-6.9-3.8-12.3V148.8h-7a2.74,2.74,0,0,1-2.6-2.6v-3a2.74,2.74,0,0,1,2.6-2.6h7V125.2a2.74,2.74,0,0,1,2.6-2.6h3.5a2.74,2.74,0,0,1,2.6,2.6v15.4h12a2.74,2.74,0,0,1,2.6,2.6v3a2.74,2.74,0,0,1-2.6,2.6h-12v24.5A9.58,9.58,0,0,0,323.9,179.4Z" transform="translate(0 0)" fill="#606060"/><path d="M401.8,149.5a14.83,14.83,0,0,0,1.3-6.7,11.92,11.92,0,0,0-3-8.5c-2-2.1-5.1-3.2-9.2-3.2s-7.1,1.1-9.1,3.2a17.93,17.93,0,0,0-4.3,8.6,3.54,3.54,0,0,1-.9,1.6,2,2,0,0,1-1.5.6h-4.3a2.05,2.05,0,0,1-2.1-2.1,20.16,20.16,0,0,1,2.9-9.5,21.84,21.84,0,0,1,7.7-7.7,22.14,22.14,0,0,1,11.7-3,23,23,0,0,1,11.5,2.7,17.46,17.46,0,0,1,7.2,7.3,22.08,22.08,0,0,1,2.5,10.3,24.08,24.08,0,0,1-2,10.2,30.26,30.26,0,0,1-6.9,8.6L382,181.2h28.9a2.74,2.74,0,0,1,2.6,2.6v3.4a2.74,2.74,0,0,1-2.6,2.6H370.2a2.74,2.74,0,0,1-2.6-2.6v-3.4a2.86,2.86,0,0,1,.4-1.7,6.7,6.7,0,0,1,1.7-1.8l27.7-25.2A22.77,22.77,0,0,0,401.8,149.5Z" transform="translate(0 0)" fill="#606060"/><path d="M466,183.5c-4,4.8-10,7.1-17.9,7.1s-13.9-2.4-17.9-7.1-6.1-11-6.2-18.9l-.1-8,.1-7.9c.1-7.8,2.2-14.1,6.2-18.9s10-7.2,17.9-7.2S462,125,466,129.8s6.1,11.1,6.2,18.9c.1,1.9.1,4.5.1,7.9s0,6.1-.1,8C472,172.4,470,178.7,466,183.5Zm-2.7-18.9c.1-1.9.1-4.6.1-8s0-6-.1-7.9c-.3-11.7-5.3-17.6-15.2-17.6s-15,5.9-15.2,17.6l-.1,7.9.1,8c.3,11.7,5.3,17.5,15.2,17.5S463,176.3,463.3,164.6Z" transform="translate(0 0)" fill="#606060"/><path d="M516.7,149.5a14.83,14.83,0,0,0,1.3-6.7,11.92,11.92,0,0,0-3-8.5c-2-2.1-5.1-3.2-9.2-3.2s-7.1,1.1-9.1,3.2a17.93,17.93,0,0,0-4.3,8.6,3.54,3.54,0,0,1-.9,1.6,2,2,0,0,1-1.5.6h-4.3a2.05,2.05,0,0,1-2.1-2.1,20.16,20.16,0,0,1,2.9-9.5,21.84,21.84,0,0,1,7.7-7.7,22.14,22.14,0,0,1,11.7-3,23,23,0,0,1,11.5,2.7,17.46,17.46,0,0,1,7.2,7.3,22.08,22.08,0,0,1,2.5,10.3,24.08,24.08,0,0,1-2,10.2,30.26,30.26,0,0,1-6.9,8.6l-21.1,19.7H526a2.74,2.74,0,0,1,2.6,2.6v3.4a2.74,2.74,0,0,1-2.6,2.6H485.3a2.74,2.74,0,0,1-2.6-2.6v-3.4a2.86,2.86,0,0,1,.4-1.7,6.7,6.7,0,0,1,1.7-1.8l27.7-25.2A37.27,37.27,0,0,0,516.7,149.5Z" transform="translate(0 0)" fill="#606060"/><path d="M580.9,183.5c-4,4.8-10,7.1-17.9,7.1s-13.9-2.4-17.9-7.1-6.1-11-6.2-18.9l-.1-8,.1-7.9c.1-7.8,2.2-14.1,6.2-18.9s10-7.2,17.9-7.2,13.9,2.4,17.9,7.2,6.1,11.1,6.2,18.9c.1,1.9.1,4.5.1,7.9s0,6.1-.1,8C587,172.4,584.9,178.7,580.9,183.5Zm-2.7-18.9c.1-1.9.1-4.6.1-8s0-6-.1-7.9c-.3-11.7-5.3-17.6-15.2-17.6s-15,5.9-15.2,17.6l-.1,7.9.1,8c.3,11.7,5.3,17.5,15.2,17.5S578,176.3,578.2,164.6Z" transform="translate(0 0)" fill="#606060"/></svg>