<?xml version="1.0" encoding="utf-8"?>
<!-- Generator: Adobe Illustrator 24.0.2, SVG Export Plug-In . SVG Version: 6.00 Build 0)  -->
<svg version="1.1" id="Layer_1" xmlns="http://www.w3.org/2000/svg" xmlns:xlink="http://www.w3.org/1999/xlink" x="0px" y="0px"
	 viewBox="0 0 589.1 190.6" style="enable-background:new 0 0 589.1 190.6;" xml:space="preserve">
<style type="text/css">
	.st0{fill:#C1C2C4;}
	.st1{fill-rule:evenodd;clip-rule:evenodd;fill:#FFFFFF;}
	.st2{fill:#636365;}
	.st3{fill:#FFFFFF;}
</style>
<g>
	<path class="st0" d="M489.8,101.8l48.3-49.5c0.3-0.3,0.4-0.8,0.1-1.1c-2.9-4.1-8.4-4.8-10.4-7.6c-6-8.2-7.5-12.8-10-12.5
		c-0.2,0-0.3,0.1-0.5,0.2l-17.5,17.9c-10,10.3-11.5,33-11.7,52C488.2,102,489.2,102.5,489.8,101.8z"/>
	<path class="st0" d="M588.7,100.6l-49.5-48.3c-0.3-0.3-0.8-0.4-1.1-0.1c-4.1,2.9-4.8,8.4-7.6,10.4c-8.2,6-12.8,7.5-12.5,10
		c0,0.2,0.1,0.3,0.2,0.5l17.9,17.5c10.3,10,33,11.5,52,11.7C588.9,102.3,589.3,101.2,588.7,100.6z"/>
	<path class="st1" d="M536.1,90.5c-5.6-5.5-8.2-16.3,2.5-38.7C521.1,59.6,515,69.9,518,72.8L536.1,90.5z"/>
	<path class="st0" d="M587.5,1.7l-48.3,49.5c-0.3,0.3-0.4,0.8-0.1,1.1c2.9,4.1,8.4,4.8,10.4,7.6c6,8.2,7.5,12.8,10,12.5
		c0.2,0,0.3-0.1,0.5-0.2l17.5-17.9c10-10.3,11.5-33,11.8-52C589.1,1.5,588.1,1.1,587.5,1.7z"/>
	<path class="st1" d="M577.4,54.3c-5.5,5.6-16.3,8.2-38.7-2.5c7.8,17.5,18.1,23.7,21.1,20.6L577.4,54.3z"/>
	<path class="st0" d="M488.6,2.9l49.5,48.3c0.3,0.3,0.8,0.4,1.1,0.1c4.1-2.9,4.8-8.4,7.6-10.4c8.2-6,12.8-7.5,12.5-10
		c0-0.2-0.1-0.3-0.2-0.5L541.2,13c-10.3-10-33-11.5-52-11.7C488.4,1.3,488,2.3,488.6,2.9z"/>
	<path class="st1" d="M541.2,13c5.6,5.5,8.2,16.3-2.5,38.7c17.5-7.8,23.7-18.1,20.6-21.1L541.2,13z"/>
	<path class="st1" d="M499.9,49.2c5.5-5.6,16.3-8.2,38.7,2.5c-7.8-17.5-18.1-23.7-21.1-20.6L499.9,49.2z"/>
	<circle class="st2" cx="538.7" cy="51.8" r="2.2"/>
</g>
<polygon class="st3" points="7.2,91 7,90.9 7.2,91 "/>
<polygon class="st3" points="3.8,93.9 3.8,93.9 3.7,93.8 "/>
<polygon class="st3" points="9.6,79.3 9.4,79.2 9.6,79.3 9.4,79.2 "/>
<polygon class="st3" points="5.8,94.5 5.9,94.6 5.7,94.5 "/>
<polygon class="st3" points="7.9,89 7.7,89 7.9,89 "/>
<polygon class="st3" points="9.4,79.2 9.6,79.3 9.6,79.3 "/>
<g>
	<path class="st3" d="M20.4,79.1l-7.1,18.1c-0.8,2.3-2.6,3.4-5.3,3.4H3c-0.8,0-1.5-0.3-2.1-0.9C0.3,99.1,0,98.4,0,97.6
		c0-0.5,0.2-1.1,0.5-1.9L33.8,9.9c1.2-3,3.2-4.5,6.1-4.5h8.2c2.9,0,4.9,1.5,6.1,4.5l33.2,85.7c0.4,0.8,0.5,1.4,0.5,1.9
		c0,0.8-0.3,1.5-0.9,2.1c-0.6,0.6-1.3,0.9-2.1,0.9h-5c-2.7,0-4.5-1.1-5.3-3.4l-7.1-18.1H20.4z M62.8,66.8L44,18.3L25.1,66.8H62.8z"
		/>
	<path class="st3" d="M113,18.1c-0.7,0.7-1.6,1.1-2.6,1.1h-7.7c-1,0-1.9-0.4-2.6-1.1c-0.7-0.7-1.1-1.6-1.1-2.6V7.7
		c0-1,0.4-1.9,1.1-2.6c0.7-0.7,1.6-1.1,2.6-1.1h7.7c1,0,1.9,0.4,2.6,1.1c0.7,0.7,1.1,1.6,1.1,2.6v7.7
		C114.1,16.5,113.8,17.3,113,18.1z M111.7,99.5c-0.7,0.7-1.6,1.1-2.6,1.1h-5c-1,0-1.9-0.4-2.6-1.1c-0.7-0.7-1.1-1.6-1.1-2.6V33.6
		c0-1,0.4-1.9,1.1-2.6c0.7-0.7,1.6-1.1,2.6-1.1h5c1,0,1.9,0.4,2.6,1.1c0.7,0.7,1.1,1.6,1.1,2.6v63.3
		C112.8,97.9,112.4,98.7,111.7,99.5z"/>
	<path class="st3" d="M171.6,31c0.7,0.7,1.1,1.6,1.1,2.6v4.3c0,1-0.4,1.9-1.1,2.6c-0.7,0.7-1.6,1.1-2.6,1.1h-7.9
		c-5.1,0-8.9,1.3-11.6,4c-2.7,2.7-4,6.5-4,11.6v39.7c0,1-0.4,1.9-1.1,2.6c-0.7,0.7-1.6,1.1-2.6,1.1h-5c-1,0-1.9-0.4-2.6-1.1
		c-0.7-0.7-1.1-1.6-1.1-2.6V33.6c0-1,0.4-1.9,1.1-2.6c0.7-0.7,1.6-1.1,2.6-1.1h5c1,0,1.9,0.4,2.6,1.1c0.7,0.7,1.1,1.6,1.1,2.6v4.2
		c1.8-2.7,4-4.7,6.5-6c2.5-1.3,5.8-1.9,9.9-1.9h7.1C170,29.9,170.9,30.3,171.6,31z"/>
	<path class="st3" d="M244.3,99.5c-0.7,0.7-1.6,1.1-2.6,1.1h-5c-1,0-1.9-0.4-2.6-1.1c-0.7-0.7-1.1-1.6-1.1-2.6V41.6h-28.7v55.3
		c0,1-0.4,1.9-1.1,2.6c-0.7,0.7-1.6,1.1-2.6,1.1h-5c-1,0-1.9-0.4-2.6-1.1c-0.7-0.7-1.1-1.6-1.1-2.6V41.6h-11.4c-1,0-1.9-0.4-2.6-1.1
		c-0.7-0.7-1.1-1.6-1.1-2.6v-4.3c0-1,0.4-1.9,1.1-2.6c0.7-0.7,1.6-1.1,2.6-1.1H192v-6.8c0-7.8,1.8-13.6,5.4-17.4
		c3.6-3.8,9.3-5.7,17-5.7h8.6c1,0,1.9,0.4,2.6,1.1c0.7,0.7,1.1,1.6,1.1,2.6V8c0,1-0.4,1.9-1.1,2.6c-0.7,0.7-1.6,1.1-2.6,1.1h-7.2
		c-4.4,0-7.5,1-9,3.1c-1.6,2.1-2.4,5.1-2.4,9v6.1H233V3.7c0-1,0.4-1.9,1.1-2.6c0.7-0.7,1.6-1.1,2.6-1.1h5c1,0,1.9,0.4,2.6,1.1
		c0.7,0.7,1.1,1.6,1.1,2.6v93.2C245.4,97.9,245,98.7,244.3,99.5z"/>
	<path class="st3" d="M327.2,65.4c0,2.2-0.1,4.3-0.3,6.2c-0.8,9.2-4,16.6-9.6,22.1c-5.6,5.5-13.1,8.2-22.6,8.2
		c-9.5,0-17.1-2.7-22.6-8.2c-5.6-5.5-8.8-12.8-9.6-22.1c-0.1-1-0.1-3.1-0.1-6.2c0-3.4,0-5.5,0.1-6.5c0.7-9.2,3.9-16.6,9.5-22.1
		c5.6-5.5,13.2-8.2,22.7-8.2c9.5,0,17.1,2.7,22.7,8.2c5.6,5.5,8.8,12.8,9.5,22.1C327.1,60.8,327.2,63,327.2,65.4z M308.8,45.5
		c-3.3-3.5-8-5.3-14.1-5.3c-6.1,0-10.8,1.8-14.1,5.3c-3.3,3.5-5.2,8.2-5.8,14c-0.1,1.1-0.1,3-0.1,5.8c0,2.7,0,4.6,0.1,5.6
		c0.5,5.8,2.5,10.5,5.8,14c3.3,3.5,8,5.3,14.1,5.3c6.1,0,10.8-1.8,14.1-5.3c3.3-3.5,5.2-8.2,5.8-14c0.2-2,0.3-3.8,0.3-5.6
		c0-1.7-0.1-3.7-0.3-5.8C314,53.7,312.1,49.1,308.8,45.5z"/>
	<path class="st3" d="M425.8,33.2c0.8-2.2,2.4-3.3,4.6-3.3h4.5c0.9,0,1.7,0.3,2.3,1c0.6,0.6,1,1.4,1,2.3l-0.1,1.1l-20.8,62.5
		c-0.8,2.5-2.2,3.8-4.1,3.8H409c-1.1,0-1.9-0.3-2.6-1c-0.6-0.7-1.2-1.6-1.6-2.8l-16.2-45.1l-16.2,45.1c-0.5,1.2-1,2.1-1.6,2.8
		c-0.6,0.7-1.5,1-2.6,1H364c-1.9,0-3.3-1.3-4.1-3.8l-20.8-62.5l-0.1-1.1c0-0.9,0.3-1.7,1-2.3c0.6-0.6,1.4-1,2.3-1h4.5
		c2.3,0,3.8,1.1,4.6,3.3l15.2,45.4l16.3-45.4c0.8-2.2,2.2-3.3,4.2-3.3h3c2,0,3.4,1.1,4.2,3.3l16.3,45.4L425.8,33.2z"/>
</g>
<g>
	<path class="st3" d="M48.3,141.1c-0.4,0.4-0.9,0.6-1.5,0.6H43c-0.8,0-1.3-0.1-1.7-0.4c-0.4-0.3-0.8-0.8-1.2-1.7
		c-1-2-2.8-3.9-5.2-5.8c-2.5-1.9-5.8-2.8-9.9-2.8c-3.8,0-7,0.9-9.6,2.6c-2.6,1.7-3.9,4.1-3.9,7.3c0,2.1,0.6,3.9,1.9,5.2
		c1.3,1.4,3.2,2.5,5.9,3.5c2.6,1,6.6,2.2,11.9,3.5c7.2,1.9,12.3,4.2,15.3,6.9c3,2.7,4.5,6.5,4.5,11.2c0,3.8-1.1,7.1-3.2,10
		c-2.1,2.9-5.1,5.2-8.9,6.8c-3.8,1.6-8.3,2.5-13.3,2.5c-4.7,0-8.9-0.9-12.8-2.6c-3.8-1.8-6.9-4-9.1-6.8c-2.2-2.7-3.4-5.5-3.5-8.2
		c0-0.6,0.2-1.1,0.6-1.5c0.4-0.4,0.9-0.6,1.5-0.6H6c0.7,0,1.3,0.1,1.7,0.4c0.4,0.3,0.9,0.8,1.2,1.7c1,2.3,2.8,4.3,5.5,6.2
		c2.7,1.9,6.3,2.8,10.9,2.8c4.6,0,8.5-1,11.7-3c3.2-2,4.8-4.6,4.8-7.8c0-2.1-0.8-3.8-2.5-5.2c-1.7-1.4-4-2.6-6.9-3.6
		c-2.9-1-7.2-2.2-12.8-3.6c-6.1-1.6-10.5-3.9-13.2-6.9c-2.7-3-4.1-6.7-4.1-11.1c0-3.3,0.9-6.3,2.6-9.1c1.7-2.8,4.3-5,7.7-6.7
		c3.4-1.7,7.5-2.6,12.3-2.6c4.8,0,9,0.9,12.6,2.8c3.6,1.9,6.4,4.1,8.3,6.9c2,2.7,3,5.2,3.1,7.5C49,140.2,48.8,140.7,48.3,141.1z"/>
	<path class="st3" d="M62.2,141.3c0.5-0.5,1.1-0.8,1.8-0.8h3.5c0.7,0,1.3,0.3,1.8,0.8c0.5,0.5,0.8,1.1,0.8,1.8V168
		c0,4.8,1.1,8.4,3.3,10.8c2.2,2.4,5.3,3.6,9.5,3.6c4,0,7.2-1.2,9.4-3.7c2.2-2.5,3.4-6,3.4-10.8v-24.9c0-0.7,0.3-1.3,0.8-1.8
		c0.5-0.5,1.1-0.8,1.8-0.8h3.5c0.7,0,1.3,0.3,1.8,0.8c0.5,0.5,0.8,1.1,0.8,1.8v44c0,0.7-0.3,1.3-0.8,1.8c-0.5,0.5-1.1,0.8-1.8,0.8
		h-3.5c-0.7,0-1.3-0.3-1.8-0.8c-0.5-0.5-0.8-1.1-0.8-1.8v-2.9c-3.3,4.3-8,6.4-14.2,6.4c-6,0-10.9-1.9-14.5-5.7
		c-3.6-3.8-5.4-8.9-5.4-15.5v-26.4C61.5,142.4,61.7,141.8,62.2,141.3z"/>
	<path class="st3" d="M132.1,141.3c1.9-1.2,4.4-1.7,7.6-1.7c7.4,0,12.5,2.7,15.5,8.2c1.8-2.6,3.9-4.7,6.2-6.1
		c2.3-1.4,5.4-2.1,9.2-2.1c6.2,0,10.8,1.9,13.7,5.6c3,3.7,4.5,9,4.5,15.8v26.2c0,0.7-0.3,1.3-0.8,1.8c-0.5,0.5-1.1,0.8-1.8,0.8h-3.5
		c-0.7,0-1.3-0.3-1.8-0.8c-0.5-0.5-0.8-1.1-0.8-1.8v-25.2c0-9.5-3.7-14.2-11.2-14.2c-3.4,0-6.1,1.1-8.1,3.4c-2,2.3-3,5.6-3,10.1
		v25.9c0,0.7-0.3,1.3-0.8,1.8c-0.5,0.5-1.1,0.8-1.8,0.8h-3.5c-0.7,0-1.3-0.3-1.8-0.8c-0.5-0.5-0.8-1.1-0.8-1.8v-25.2
		c0-9.5-3.7-14.2-11.2-14.2c-3.4,0-6.1,1.1-8.1,3.4c-2,2.3-3,5.6-3,10.1v25.9c0,0.7-0.3,1.3-0.8,1.8c-0.5,0.5-1.1,0.8-1.8,0.8h-3.5
		c-0.7,0-1.3-0.3-1.8-0.8c-0.5-0.5-0.8-1.1-0.8-1.8v-44c0-0.7,0.3-1.3,0.8-1.8c0.5-0.5,1.1-0.8,1.8-0.8h3.5c0.7,0,1.3,0.3,1.8,0.8
		c0.5,0.5,0.8,1.1,0.8,1.8v2.9C128.5,144.1,130.2,142.5,132.1,141.3z"/>
	<path class="st3" d="M216.2,141.3c1.9-1.2,4.4-1.7,7.6-1.7c7.4,0,12.5,2.7,15.5,8.2c1.8-2.6,3.9-4.7,6.2-6.1
		c2.3-1.4,5.4-2.1,9.2-2.1c6.2,0,10.8,1.9,13.7,5.6c3,3.7,4.5,9,4.5,15.8v26.2c0,0.7-0.3,1.3-0.8,1.8c-0.5,0.5-1.1,0.8-1.8,0.8h-3.5
		c-0.7,0-1.3-0.3-1.8-0.8c-0.5-0.5-0.8-1.1-0.8-1.8v-25.2c0-9.5-3.7-14.2-11.2-14.2c-3.4,0-6.1,1.1-8.1,3.4c-2,2.3-3,5.6-3,10.1
		v25.9c0,0.7-0.3,1.3-0.8,1.8c-0.5,0.5-1.1,0.8-1.8,0.8h-3.5c-0.7,0-1.3-0.3-1.8-0.8c-0.5-0.5-0.8-1.1-0.8-1.8v-25.2
		c0-9.5-3.7-14.2-11.2-14.2c-3.4,0-6.1,1.1-8.1,3.4c-2,2.3-3,5.6-3,10.1v25.9c0,0.7-0.3,1.3-0.8,1.8c-0.5,0.5-1.1,0.8-1.8,0.8H205
		c-0.7,0-1.3-0.3-1.8-0.8c-0.5-0.5-0.8-1.1-0.8-1.8v-44c0-0.7,0.3-1.3,0.8-1.8c0.5-0.5,1.1-0.8,1.8-0.8h3.5c0.7,0,1.3,0.3,1.8,0.8
		c0.5,0.5,0.8,1.1,0.8,1.8v2.9C212.6,144.1,214.3,142.5,216.2,141.3z"/>
	<path class="st3" d="M295.4,132.3c-0.5,0.5-1.1,0.8-1.8,0.8h-5.4c-0.7,0-1.3-0.3-1.8-0.8c-0.5-0.5-0.8-1.1-0.8-1.8v-5.4
		c0-0.7,0.3-1.3,0.8-1.8c0.5-0.5,1.1-0.8,1.8-0.8h5.4c0.7,0,1.3,0.3,1.8,0.8c0.5,0.5,0.8,1.1,0.8,1.8v5.4
		C296.1,131.2,295.9,131.8,295.4,132.3z M294.4,188.9c-0.5,0.5-1.1,0.8-1.8,0.8h-3.5c-0.7,0-1.3-0.3-1.8-0.8
		c-0.5-0.5-0.8-1.1-0.8-1.8v-44c0-0.7,0.3-1.3,0.8-1.8c0.5-0.5,1.1-0.8,1.8-0.8h3.5c0.7,0,1.3,0.3,1.8,0.8c0.5,0.5,0.8,1.1,0.8,1.8
		v44C295.2,187.8,294.9,188.4,294.4,188.9z"/>
	<path class="st3" d="M323.9,179.4c1.1,1.5,3.2,2.2,6.3,2.2h5c0.7,0,1.3,0.3,1.8,0.8c0.5,0.5,0.8,1.1,0.8,1.8v3
		c0,0.7-0.3,1.3-0.8,1.8c-0.5,0.5-1.1,0.8-1.8,0.8h-6c-5.4,0-9.3-1.4-11.8-4.2c-2.5-2.8-3.8-6.9-3.8-12.3v-24.5h-7
		c-0.7,0-1.3-0.3-1.8-0.8c-0.5-0.5-0.8-1.1-0.8-1.8v-3c0-0.7,0.3-1.3,0.8-1.8c0.5-0.5,1.1-0.8,1.8-0.8h7v-15.4
		c0-0.7,0.3-1.3,0.8-1.8c0.5-0.5,1.1-0.8,1.8-0.8h3.5c0.7,0,1.3,0.3,1.8,0.8c0.5,0.5,0.8,1.1,0.8,1.8v15.4h12c0.7,0,1.3,0.3,1.8,0.8
		c0.5,0.5,0.8,1.1,0.8,1.8v3c0,0.7-0.3,1.3-0.8,1.8c-0.5,0.5-1.1,0.8-1.8,0.8h-12v24.5C322.2,175.8,322.8,177.9,323.9,179.4z"/>
	<path class="st3" d="M401.8,149.5c0.9-1.8,1.3-4,1.3-6.7c0-3.5-1-6.4-3-8.5c-2-2.1-5.1-3.2-9.2-3.2c-4,0-7.1,1.1-9.1,3.2
		c-2,2.1-3.5,5-4.3,8.6c-0.2,0.7-0.5,1.2-0.9,1.6c-0.4,0.4-0.9,0.6-1.5,0.6h-4.3c-0.6,0-1.1-0.2-1.5-0.6c-0.4-0.4-0.6-0.9-0.6-1.5
		c0.1-3.2,1.1-6.4,2.9-9.5c1.8-3.1,4.4-5.7,7.7-7.7c3.3-2,7.2-3,11.7-3c4.5,0,8.3,0.9,11.5,2.7c3.2,1.8,5.6,4.2,7.2,7.3
		c1.6,3.1,2.5,6.5,2.5,10.3c0,4-0.7,7.4-2,10.2c-1.4,2.8-3.7,5.7-6.9,8.6L382,181.2h28.9c0.7,0,1.3,0.3,1.8,0.8
		c0.5,0.5,0.8,1.1,0.8,1.8v3.4c0,0.7-0.3,1.3-0.8,1.8c-0.5,0.5-1.1,0.8-1.8,0.8h-40.7c-0.7,0-1.3-0.3-1.8-0.8
		c-0.5-0.5-0.8-1.1-0.8-1.8v-3.4c0-0.7,0.1-1.3,0.4-1.7c0.3-0.5,0.8-1.1,1.7-1.8l27.7-25.2C399.4,153.1,400.9,151.3,401.8,149.5z"/>
	<path class="st3" d="M466,183.5c-4,4.8-10,7.1-17.9,7.1s-13.9-2.4-17.9-7.1c-4-4.8-6.1-11-6.2-18.9l-0.1-8l0.1-7.9
		c0.1-7.8,2.2-14.1,6.2-18.9c4-4.8,10-7.2,17.9-7.2s13.9,2.4,17.9,7.2c4,4.8,6.1,11.1,6.2,18.9c0.1,1.9,0.1,4.5,0.1,7.9
		c0,3.5,0,6.1-0.1,8C472,172.4,470,178.7,466,183.5z M463.3,164.6c0.1-1.9,0.1-4.6,0.1-8c0-3.4,0-6-0.1-7.9
		c-0.3-11.7-5.3-17.6-15.2-17.6c-9.9,0-15,5.9-15.2,17.6l-0.1,7.9l0.1,8c0.3,11.7,5.3,17.5,15.2,17.5
		C458,182.1,463,176.3,463.3,164.6z"/>
	<path class="st3" d="M516.7,149.5c0.9-1.8,1.3-4,1.3-6.7c0-3.5-1-6.4-3-8.5c-2-2.1-5.1-3.2-9.2-3.2c-4,0-7.1,1.1-9.1,3.2
		c-2,2.1-3.5,5-4.3,8.6c-0.2,0.7-0.5,1.2-0.9,1.6c-0.4,0.4-0.9,0.6-1.5,0.6h-4.3c-0.6,0-1.1-0.2-1.5-0.6c-0.4-0.4-0.6-0.9-0.6-1.5
		c0.1-3.2,1.1-6.4,2.9-9.5c1.8-3.1,4.4-5.7,7.7-7.7c3.3-2,7.2-3,11.7-3c4.5,0,8.3,0.9,11.5,2.7c3.2,1.8,5.6,4.2,7.2,7.3
		c1.6,3.1,2.5,6.5,2.5,10.3c0,4-0.7,7.4-2,10.2c-1.4,2.8-3.7,5.7-6.9,8.6l-21.1,19.7h28.9c0.7,0,1.3,0.3,1.8,0.8
		c0.5,0.5,0.8,1.1,0.8,1.8v3.4c0,0.7-0.3,1.3-0.8,1.8c-0.5,0.5-1.1,0.8-1.8,0.8h-40.7c-0.7,0-1.3-0.3-1.8-0.8
		c-0.5-0.5-0.8-1.1-0.8-1.8v-3.4c0-0.7,0.1-1.3,0.4-1.7c0.3-0.5,0.8-1.1,1.7-1.8l27.7-25.2C514.4,153.1,515.8,151.3,516.7,149.5z"/>
	<path class="st3" d="M580.9,183.5c-4,4.8-10,7.1-17.9,7.1s-13.9-2.4-17.9-7.1c-4-4.8-6.1-11-6.2-18.9l-0.1-8l0.1-7.9
		c0.1-7.8,2.2-14.1,6.2-18.9c4-4.8,10-7.2,17.9-7.2s13.9,2.4,17.9,7.2c4,4.8,6.1,11.1,6.2,18.9c0.1,1.9,0.1,4.5,0.1,7.9
		c0,3.5,0,6.1-0.1,8C587,172.4,584.9,178.7,580.9,183.5z M578.2,164.6c0.1-1.9,0.1-4.6,0.1-8c0-3.4,0-6-0.1-7.9
		c-0.3-11.7-5.3-17.6-15.2-17.6c-9.9,0-15,5.9-15.2,17.6l-0.1,7.9l0.1,8c0.3,11.7,5.3,17.5,15.2,17.5
		C572.9,182.1,578,176.3,578.2,164.6z"/>
</g>
</svg>
