<svg width="537" height="110" viewBox="0 0 537 110" fill="none" xmlns="http://www.w3.org/2000/svg">
<path d="M24.2016 93.989C20.3893 93.9825 16.6458 92.9727 13.3465 91.061C10.0471 89.1492 7.30799 86.4028 5.40382 83.097C3.49965 79.7913 2.4974 76.0425 2.49756 72.2266C2.49771 68.4108 3.50028 64.6621 5.40471 61.3565L32.0791 15.0817C35.0842 10.3532 39.7959 6.96733 45.2328 5.62936C50.6698 4.29139 56.4129 5.10448 61.2658 7.89924C66.1188 10.694 69.7075 15.2549 71.2845 20.6321C72.8615 26.0093 72.3052 31.7882 69.7314 36.7651L43.0375 83.04C41.1404 86.3646 38.3991 89.1283 35.0913 91.0511C31.7835 92.9739 28.0267 93.9874 24.2016 93.989V93.989Z" fill="#4354F7"/>
<path d="M83.5948 30.7629C89.6785 40.619 95.7816 50.28 101.67 60.0385C103.519 62.8036 104.724 65.9489 105.197 69.2423C105.669 72.5358 105.397 75.8934 104.4 79.0675C102.772 84.0276 99.4099 88.2331 94.9323 90.9114C90.4548 93.5897 85.1621 94.561 80.0265 93.6468C75.0465 92.7964 70.5262 90.2138 67.2623 86.3541C63.9984 82.4945 62.2004 77.6056 62.1851 72.5489C62.3038 69.1421 63.1903 65.8061 64.7784 62.7904C67.7032 57.2476 71.408 52.1341 74.6253 46.7474C77.5307 41.8681 80.202 36.8327 82.9709 31.8559C83.2243 31.5046 83.4583 31.0557 83.5948 30.7629Z" fill="#00C5F4"/>
<path fill-rule="evenodd" clip-rule="evenodd" d="M190.198 16.7413V24.2413C187.135 21.1897 183.482 18.7971 179.461 17.2107C175.441 15.6243 171.139 14.8776 166.82 15.0163C149.935 15.0163 134.875 28.7913 134.875 49.0663C134.875 69.3413 149.861 83.1413 166.82 83.1413C171.139 83.2801 175.441 82.5334 179.461 80.947C183.482 79.3606 187.135 76.968 190.198 73.9163V81.4163H203.71V16.7413H190.198ZM169.018 71.0663C157.204 71.0663 147.987 62.6164 147.987 48.9664C147.987 35.3164 157.204 26.8663 169.018 26.8663C174.543 26.9406 179.828 29.1436 183.773 33.0174C187.717 36.8913 190.019 42.1379 190.198 47.6663V50.1663C190.069 55.7204 187.786 61.0065 183.834 64.9068C179.881 68.8071 174.568 71.0159 169.018 71.0663ZM285.484 16.7415H272.346V22.9665C267.351 17.9665 260.008 15.0415 250.142 15.0415C241.862 15.0415 233.92 18.3338 228.065 24.1943C222.21 30.0548 218.921 38.0035 218.921 46.2915C218.921 54.5795 222.21 62.528 228.065 68.3885C233.92 74.249 241.862 77.5415 250.142 77.5415C260.008 77.5415 267.426 74.5664 272.346 69.4914V73.6415C272.346 86.1415 264.304 93.7915 252.09 93.7915C241.825 93.7915 236.505 89.8915 231.709 82.3665L220.669 90.5415C225.865 100.167 236.63 106.017 252.09 106.017C272.221 106.017 285.484 94.8414 285.484 75.5914V16.7415ZM252.365 65.7414C240.801 65.7414 231.709 57.9415 231.709 46.1165C231.709 34.2915 240.801 26.4915 252.365 26.4915C257.565 26.4915 262.552 28.5591 266.229 32.2395C269.906 35.9199 271.972 40.9116 271.972 46.1165C271.972 51.3214 269.906 56.313 266.229 59.9934C262.552 63.6738 257.565 65.7414 252.365 65.7414ZM354.171 16.7415H367.284V75.5914C367.284 94.8414 354.046 106.017 333.915 106.017C318.454 106.017 307.664 100.167 302.469 90.5415L313.509 82.3665C318.329 89.8915 323.649 93.7915 333.915 93.7915C346.103 93.7915 354.171 86.1415 354.171 73.6415V69.4914C349.225 74.5664 341.832 77.5415 331.966 77.5415C323.686 77.5415 315.745 74.249 309.89 68.3885C304.035 62.528 300.745 54.5795 300.745 46.2915C300.745 38.0035 304.035 30.0548 309.89 24.1943C315.745 18.3338 323.686 15.0415 331.966 15.0415C341.832 15.0415 349.175 17.9665 354.171 22.9665V16.7415ZM313.509 46.1165C313.509 57.9415 322.6 65.7414 334.164 65.7414C339.364 65.7414 344.351 63.6738 348.028 59.9934C351.705 56.313 353.771 51.3214 353.771 46.1165C353.771 40.9116 351.705 35.9199 348.028 32.2395C344.351 28.5591 339.364 26.4915 334.164 26.4915C322.6 26.4915 313.509 34.2915 313.509 46.1165ZM434.37 16.7413V46.4163C434.37 62.6663 426.877 70.4663 415.263 70.4663C405.922 70.4663 399.803 63.3163 399.803 52.7663V16.7413H386.315V55.6163C386.315 71.8663 396.556 83.1163 412.141 83.1163C416.342 83.2792 420.525 82.4865 424.375 80.7977C428.225 79.1089 431.643 76.5681 434.37 73.3664V81.2913H447.858V16.7413H434.37ZM517.818 24.2413V16.7413H531.33V81.4163H517.818V73.9163C514.755 76.968 511.101 79.3606 507.081 80.947C503.061 82.5334 498.759 83.2801 494.44 83.1413C477.48 83.1413 462.494 69.3413 462.494 49.0663C462.494 28.7913 477.555 15.0163 494.44 15.0163C498.759 14.8776 503.061 15.6243 507.081 17.2107C511.101 18.7971 514.755 21.1897 517.818 24.2413ZM475.607 48.9664C475.607 62.6164 484.823 71.0663 496.637 71.0663C502.188 71.0159 507.501 68.8071 511.453 64.9068C515.406 61.0065 517.688 55.7204 517.818 50.1663V47.6663C517.638 42.1379 515.337 36.8913 511.392 33.0174C507.448 29.1436 502.163 26.9406 496.637 26.8663C484.823 26.8663 475.607 35.3164 475.607 48.9664Z" fill="black"/>
</svg>
