<svg width="82" height="16" fill="none" xmlns="http://www.w3.org/2000/svg"><path fill-rule="evenodd" clip-rule="evenodd" d="M9.736 12.065l1.563 3.402 3.61-.005L7.424 0 0 15.467h3.606l1.561-3.402h4.569zM6.09 9.65l1.253-2.756 1.39 2.756H6.092z" fill="#121826"/><path d="M37.805 15.467V0H41v15.467h-3.195zm40.75 0V7.429l-4.216 4.457-4.342-4.494v8.075H66.56V.057l7.828 7.81L82 0v15.467h-3.445zM17.04 2.093L19.132 0l5.36 5.36v2.107H22.48l-5.44-5.374zm15.973 0L30.919 0l-5.36 5.36v2.107h2.014l5.44-5.374zM19.133 16l5.36-5.36V8.532H22.48l-5.44 5.374L19.133 16zm13.88-2.093L30.919 16l-5.36-5.36V8.532h2.014l5.44 5.374z" fill="#121826"/><path fill-rule="evenodd" clip-rule="evenodd" d="M46.333 7.773C46.313 3.511 49.74.036 53.997.004V0a7.745 7.745 0 015.489 2.254 7.766 7.766 0 012.289 5.482c0 4.262-3.446 7.72-7.702 7.73-4.257.011-7.719-3.43-7.74-7.693zm12.426-.01a4.8 4.8 0 00-4.761-4.83 4.822 4.822 0 00-4.834 4.803 4.801 4.801 0 004.785 4.806 4.8 4.8 0 004.81-4.78z" fill="#121826"/></svg>