<?xml version="1.0" encoding="UTF-8"?>
<svg id="Layer_1" data-name="Layer 1" xmlns="http://www.w3.org/2000/svg" viewBox="0 0 208 40">
  <defs>
    <style>
      .cls-1 {
        fill: #000;
      }

      .cls-1, .cls-2, .cls-3 {
        stroke-width: 0px;
      }

      .cls-2 {
        fill: #cc2030;
      }

      .cls-3 {
        fill: #fff;
      }
    </style>
  </defs>
  <path class="cls-1" d="M196.2226,12.10535c-1.039,0-1.884.84497-1.884,1.88501,0,1.03894.845,1.88397,1.884,1.88397s1.88399-.84503,1.88399-1.88397c0-1.04004-.845-1.88501-1.88399-1.88501M196.2226,15.5033c-.83401,0-1.513-.67896-1.513-1.51294,0-.83502.67899-1.51404,1.513-1.51404.83499,0,1.51399.67902,1.51399,1.51404,0,.83398-.679,1.51294-1.51399,1.51294"/>
  <path class="cls-1" d="M196.99809,13.66394c-.004-.33099-.23399-.57098-.605-.56598l-.834.00995.02299,1.78204.38-.005-.008-.633.27699-.00299.35901.62799.435-.00604-.41-.67297c.192-.04797.388-.21899.383-.534M196.34711,13.9129l-.39801.005-.006-.48096.39799-.005c.15201-.00201.26801.08698.27.237.002.14996-.112.242-.26399.24396"/>
  <path class="cls-1" d="M162.6118,12.13525c-5.00201,0-9.05801,4.05597-9.05801,9.05798,0,5.00299,4.056,9.05798,9.05801,9.05798,5.00299,0,9.058-4.05499,9.058-9.05798,0-5.00201-4.05501-9.05798-9.058-9.05798M162.6118,26.7002c-3.041,0-5.507-2.46594-5.507-5.50696s2.466-5.50598,5.507-5.50598,5.50699,2.46497,5.50699,5.50598-2.466,5.50696-5.50699,5.50696"/>
  <path class="cls-1" d="M53.1314,20.87872c1.62299-.33496,2.962-1.77698,2.962-3.94,0-2.29297-1.674-4.37994-4.945-4.37994h-9.041v17.18097h9.324c3.271,0,4.997-2.06097,4.997-4.63702,0-2.16296-1.468-3.94-3.297-4.224M45.7644,15.70172h4.585c1.237,0,2.009.79901,2.009,1.88,0,1.08203-.772,1.85504-2.009,1.85504h-4.585v-3.73505ZM50.4784,26.57172h-4.714v-3.99194h4.714c1.44299,0,2.215.927,2.215,2.008,0,1.237-.824,1.98395-2.215,1.98395"/>
  <path class="cls-1" d="M73.4461,18.09723c0-3.19397-2.19-5.53796-5.77-5.53796h-8.03699v17.18097h3.658v-6.10498h2.679l3.374,6.10498h4.199l-3.864-6.54297c1.855-.43799,3.761-2.06104,3.761-5.10004M67.1351,20.41522h-3.83801v-4.63599h3.83801c1.46799,0,2.576.87604,2.576,2.31799,0,1.44299-1.108,2.31799-2.576,2.31799"/>
  <path class="cls-1" d="M101.63858,12.55939l-6.64499,17.17999h4.172l1.082-2.90997h7.367l1.056,2.90997h4.17299l-6.62-17.17999h-4.58501ZM101.25259,23.60938l2.67899-7.39294,2.679,7.39294h-5.35799Z"/>
  <path class="cls-1" d="M122.7789,12.55902h-6.77501v17.18103h6.77501c5.383,0,9.118-3.40002,9.118-8.57703,0-5.17798-3.735-8.604-9.118-8.604M122.7789,26.52002h-3.117v-10.74097h3.117c3.52899,0,5.383,2.34399,5.383,5.38397,0,2.91003-1.983,5.35699-5.383,5.35699"/>
  <path class="cls-1" d="M187.3098,12.55603l-4.505,7.28406-4.506-7.28406h-4.04401v17.18402h3.659v-11.23102l3.938,5.98804c.451.685,1.45399.685,1.905,0l3.939-5.98804v11.23102h3.658V12.55603h-4.04399Z"/>
  <path class="cls-1" d="M85.0444,12.13525c-5.00301,0-9.05801,4.05597-9.05801,9.05798,0,5.00299,4.055,9.05798,9.05801,9.05798,5.002,0,9.058-4.05499,9.058-9.05798,0-5.00201-4.056-9.05798-9.058-9.05798M85.0444,26.7002c-3.041,0-5.507-2.46594-5.507-5.50696s2.466-5.50598,5.507-5.50598,5.507,2.46497,5.507,5.50598-2.466,5.50696-5.507,5.50696"/>
  <path class="cls-1" d="M148.3584,23.85809c-.93901,1.69403-2.744,2.84204-4.81801,2.84204-3.041,0-5.507-2.46503-5.507-5.50702,0-3.04102,2.466-5.50598,5.507-5.50598,2.05701,0,3.84801,1.13,4.793,2.80096l2.569-2.56897c-1.644-2.28998-4.328-3.784-7.362-3.784-5.00301,0-9.058,4.05597-9.058,9.05798,0,5.00299,4.05499,9.05798,9.058,9.05798,3.05099,0,5.748-1.50995,7.38901-3.82196l-2.571-2.57104Z"/>
  <path class="cls-2" d="M22.7303,8.56268c-7.046,0-12.757,5.71204-12.757,12.75702,0,1.34503.209,2.64099.595,3.85803.299-.14502.602-.284.921-.41101,1.459-.58099,2.795-.38702,4.134.42499,0,0,.488.29797.634.39001.624.39099,1.213.76196,1.778.76196.54,0,1.071-.14398,1.296-1.18896.35-1.62903,1.206-5.63098,1.579-7.61304.219-1.16595.339-1.79395.464-2.21997.219-.74603.618-1.15399,1.185-1.22198,0,0,.098-.01404.171-.01404.073,0,.162.013.162.013.571.065.974.47302,1.194,1.22302.125.42603.245,1.05402.464,2.21997.373,1.98206,1.229,5.98401,1.579,7.61304.225,1.04498.756,1.18896,1.296,1.18896.565,0,1.154-.37097,1.778-.76196.146-.09204.634-.39001.634-.39001,1.338-.81201,2.675-1.00598,4.134-.42499.319.12701.622.26599.921.41101.386-1.21704.595-2.513.595-3.85803,0-7.04498-5.711-12.75702-12.757-12.75702"/>
  <path class="cls-2" d="M31.634,26.61011c-.481.16101-.909.44702-1.336.71405-.803.505-1.715,1.078-2.873,1.078-1.718,0-2.924-1.026-3.309-2.81403-.298-1.38501-1.387-6.61401-1.387-6.61401-.425,2.13403-1.087,5.229-1.385,6.61401-.385,1.78802-1.591,2.81403-3.309,2.81403-1.158,0-2.069-.573-2.873-1.078-.427-.26703-.854-.55304-1.336-.71405-.494-.16595-1.005-.15796-1.503-.01099-.351.10303-.684.24902-1.011.41003,2.091,4.18896,6.322,7.06799,11.323,7.06799,5,0,9.422-2.87903,11.513-7.06799-.326-.16101-.66-.30701-1.01-.41003-.499-.14697-1.009-.15497-1.504.01099"/>
  <path class="cls-3" d="M33.9708,24.76672c-1.459-.58099-2.795-.38696-4.134.42505,0,0-.488.29797-.634.38995-.624.39105-1.213.76202-1.778.76202-.54,0-1.071-.14398-1.296-1.18903-.35-1.62897-1.205-5.63098-1.578-7.61298-.22-1.16602-.34-1.79401-.465-2.21997-.22-.75-.622-1.15802-1.194-1.22302,0,0-.089-.013-.162-.013-.072,0-.171.01398-.171.01398-.566.06799-.966.47601-1.184,1.22205-.125.42596-.245,1.05396-.465,2.21997-.373,1.98199-1.228,5.98401-1.579,7.61298-.224,1.04504-.755,1.18903-1.295,1.18903-.565,0-1.155-.37097-1.778-.76202-.147-.09198-.635-.38995-.635-.38995-1.338-.81201-2.674-1.00604-4.133-.42505-.315.12604-.615.263-.911.40601.202.633.452,1.245.746,1.83002.322-.15802.652-.302.998-.40399.498-.14697,1.009-.15503,1.504.01099.481.16199.909.44702,1.335.71503.804.505,1.715,1.07697,2.874,1.07697,1.717,0,2.923-1.02496,3.308-2.81299.298-1.38599.96-4.48102,1.385-6.61499,0,0,1.09,5.229,1.387,6.61499.386,1.78802,1.591,2.81299,3.309,2.81299,1.159,0,2.07-.57196,2.874-1.07697.426-.26801.854-.55304,1.335-.71503.495-.16602,1.006-.15796,1.504-.01099.346.10199.675.24597.998.40399.294-.58502.544-1.19702.746-1.83002-.296-.14301-.596-.27997-.911-.40601"/>
</svg>