<?xml version="1.0" encoding="UTF-8"?> <svg xmlns="http://www.w3.org/2000/svg" id="Layer_1" data-name="Layer 1" viewBox="0 0 800 288.46"><defs><style>.cls-1{fill:#1e5e82;}.cls-2{fill:#81ccea;}.cls-3{fill:#d86e89;}</style></defs><path class="cls-1" d="M114.39,10.25V123.84a2,2,0,0,1-2.27,2.27H97.49a2,2,0,0,1-2.11-2.27V59.49c0-9.1.65-23.24,1.3-32.17H96L70,123.19c-.48,2-1.46,2.92-3.57,2.92h-14c-2.12,0-3.09-1.14-3.58-2.92L22.59,27.32H22.1c.65,8.77,1.46,23.07,1.46,32.17v64.35a2.05,2.05,0,0,1-2.27,2.27H6.82a2.09,2.09,0,0,1-2.11-2.27V10.25A2.75,2.75,0,0,1,7.8,7.17H31.52a3.43,3.43,0,0,1,3.74,2.92l16.09,58.5c3.57,13.65,6.17,23.07,8.28,34.93h.49c2.11-11.86,4.39-21.44,8.13-35.09L84.33,10.25c.49-2.11,1.63-3.08,3.58-3.08h23.4A2.81,2.81,0,0,1,114.39,10.25Z"></path><path class="cls-1" d="M201.14,64.2v59.64a2.06,2.06,0,0,1-2.28,2.27h-14.3a2.05,2.05,0,0,1-2.27-2.27V113.27c-5.53,8.94-14.63,14.63-25.68,14.63-16.9,0-27.62-11.05-27.62-27.14,0-16.25,10.72-25.67,34.12-27.3a141.1,141.1,0,0,1,18.36-.16V65c0-10.07-5.52-14.13-14.78-14.13S154,54.29,151.74,60.63c-.65,1.78-1.3,2.11-3.09,1.62l-14.14-3.57c-1.46-.49-1.95-1.3-1.46-2.6,2.6-12.68,14.14-21.45,34.45-21.45C188.46,34.63,201.14,44.54,201.14,64.2Zm-19.67,33v-11a145.28,145.28,0,0,0-16.73.32c-10.56,1.14-16.58,4.72-16.58,13.16,0,7.32,5,12,13.65,12C170.91,111.65,177.9,106.29,181.47,97.19Z"></path><path class="cls-1" d="M237.81,68.59v55.25a2.05,2.05,0,0,1-2.27,2.27H220.1c-1.62,0-2.44-.81-2.44-2.27V38.53a2,2,0,0,1,2.28-2.11h15.11a2,2,0,0,1,2.27,2.11V49.41c5.53-8,14.63-14.78,27-14.78,17.06,0,26.32,12.35,26.32,30.55v58.66a2,2,0,0,1-2.27,2.27H272.91c-1.63,0-2.44-.81-2.44-2.27V68.59c0-9.75-4.55-15.6-13.65-15.6C248.21,53,241.06,59.33,237.81,68.59Z"></path><path class="cls-1" d="M334.54,16.59V37.07h17.88c1.3,0,2.11.81,2.11,2.43V51.2c0,1.63-.81,2.28-2.11,2.28H334.54V98.65c0,6.5,3.58,9.75,10.89,9.75h6.83a2,2,0,0,1,2.27,2.27v13.17a2,2,0,0,1-2.27,2.27H342.18c-18.2,0-27.3-9.75-27.3-24.7V53.48H303.67a2,2,0,0,1-2.28-2.28V39.5c0-1.62.82-2.43,2.28-2.43H315V16.59a2.13,2.13,0,0,1,2.28-2.27h14.95A2,2,0,0,1,334.54,16.59Z"></path><path class="cls-1" d="M383.53,87.44v5.2c0,11.53,6,18.68,18.85,18.85,12,0,15.76-4.72,18.85-10.73,1.3-2.11,2.12-2.43,4.23-1.46l10.24,5.2c2.27,1.14,2.43,2.44,1.46,4.39-5.37,11.86-17.88,19-34.94,19-24.86,0-38-14.79-38-35.59V70.21c0-20.31,12.67-35.58,37.7-35.58,24,0,36.23,15.27,36.23,35.26V83.54c0,2.6-1,3.9-4.06,3.9Zm0-18v4.71h36.08V69.4c0-11.05-6.18-18.36-18-18.36S383.53,58.35,383.53,69.4Z"></path><path class="cls-1" d="M472.43,4.4V123.84a2.05,2.05,0,0,1-2.27,2.27H454.72c-1.62,0-2.44-.81-2.44-2.27V4.4c0-1.46.82-2.27,2.44-2.27h15.44A2.05,2.05,0,0,1,472.43,4.4Z"></path><path class="cls-1" d="M70.52,171.79h-18c6.17,4.07,11.37,12.19,11.37,24.54,0,18.2-11.21,29.41-30.39,29.41H23.24c-7.32,0-10.57,3.74-10.57,7.8s3.25,7.64,10.57,7.64H43.71C64.51,241.18,72,251.9,72,263.6c0,13.65-10.4,24.86-36.39,24.86C10.24,288.46,0,277.9,0,264.25,0,255.8,3.9,248,12.51,244.1a13.7,13.7,0,0,1-5.85-10.72c0-5,3.74-9.91,9.43-11.7-8.61-4.88-13.33-14-13.33-26,0-18.69,11.38-29.9,30.55-29.9H70.52c1,0,1.46.33,1.46,1.79V170C72,171.47,71.5,171.79,70.52,171.79Zm-43.38,75.4c-16.42,0-21,8-21,16.41,0,11.7,8.94,18.85,29.25,18.85,21,0,30.39-7.64,30.39-19.34,0-8.12-4.55-15.92-22.1-15.92Zm6.17-75.4c-15.27,0-24.37,8.29-24.37,23.73,0,15.27,8.77,24.21,24.86,24.21,14.46,0,23.89-7.15,23.89-23.4C57.69,181.38,49.72,171.79,33.31,171.79Z"></path><path class="cls-1" d="M124.78,166.11v3.41c0,1-.33,1.46-1.63,1.46h-1.3c-13.16,0-22.1,8.78-27,19.66V253c0,1.3-.81,1.3-1.79,1.3h-2.6c-1,0-1.78,0-1.78-1.3v-86c0-1.3.81-1.3,1.62-1.3h2.93c.81,0,1.62,0,1.62,1.3l-.16,14.79a31.74,31.74,0,0,1,28.6-17.23C124.29,164.64,124.78,165,124.78,166.11Z"></path><path class="cls-1" d="M200.71,196.82V223.3c0,20-11.86,32.67-33,32.67s-33-12.68-33-32.67V196.82c0-20,11.86-32.66,33-32.66S200.71,176.83,200.71,196.82Zm-59.8.32V223c0,18.2,10.4,27,26.82,27s26.81-8.77,26.81-27V197.14c0-18.2-10.4-27-26.81-27S140.91,178.94,140.91,197.14Z"></path><path class="cls-1" d="M220.42,228.5V167.24c0-1,.33-1.46,1.79-1.46h2.6c1.46,0,1.79.49,1.79,1.46v60.13c0,14.46,6.33,22.58,20.47,22.58,11.54,0,22.59-8,27.95-19.82V167.24c0-1,.32-1.46,1.79-1.46h2.6c1.46,0,1.78.49,1.78,1.46v85.64c0,1-.32,1.46-1.78,1.46h-2.6c-1.47,0-1.79-.49-1.79-1.46v-13C269,249,259.09,256,246.26,256,229.19,256,220.42,244.43,220.42,228.5Z"></path><path class="cls-1" d="M304.67,286.84a1.19,1.19,0,0,1-1.3-1.3V167.08c0-1.3.65-1.3,1.63-1.3h2.92c.65,0,1.63,0,1.63,1.3v11.86c4.22-7.8,13.48-14.78,27.3-14.78,19.33.16,31.2,12.67,31.2,32.66V223.3c0,20-11.87,32.5-31.2,32.67-13.82,0-23.08-7-27.3-14.95v44.52c0,1-.49,1.3-1.47,1.3ZM361.87,223V197.14c0-18.2-10.24-26.81-25.35-27-13.65,0-27,9.1-27,27.14v25.51c0,18,13.32,27.13,27,27.13C351.63,249.79,361.87,241.18,361.87,223Z"></path><path class="cls-1" d="M792.92,212.22,694.86,49.7a32,32,0,0,0-54.78-.06L578,149.3c-12.93-20.84-21.87-36-22-36.19a24.35,24.35,0,0,0-41.7,0l-71,117.68A36.4,36.4,0,0,0,474.48,286H751.27a48.64,48.64,0,0,0,41.65-73.77Z"></path><path class="cls-2" d="M450.23,263.28a27.53,27.53,0,0,1,.4-28.07l71-117.68a15.81,15.81,0,0,1,27,0c.1.18,10.1,17.14,24.28,39.88l-7.2,11.39c-63.49,100.47-68.68,108.68-91.27,108.68A27.52,27.52,0,0,1,450.23,263.28Z"></path><path class="cls-3" d="M786.18,257.06a39.65,39.65,0,0,1-34.91,20.38H500.54l.35-.3.38-.32c.62-.53,1.24-1.09,1.86-1.67l.37-.35c.64-.61,1.28-1.24,1.94-1.92l.34-.35c.67-.7,1.35-1.42,2-2.2a4.12,4.12,0,0,0,.28-.31c.7-.78,1.41-1.6,2.14-2.46l.1-.12c12.72-15.12,30.45-43.18,62.64-94.11l8.63-13.66h0v0L647.37,54.12a23.45,23.45,0,0,1,40.16,0l98.06,162.52A39.65,39.65,0,0,1,786.18,257.06Z"></path></svg> 