<?xml version="1.0" encoding="utf-8"?>
<!-- Generator: Adobe Illustrator 24.1.0, SVG Export Plug-In . SVG Version: 6.00 Build 0)  -->
<svg version="1.1" id="Layer_1" xmlns="http://www.w3.org/2000/svg" xmlns:xlink="http://www.w3.org/1999/xlink" x="0px" y="0px"
	 viewBox="0 0 561 86" style="enable-background:new 0 0 561 86;" xml:space="preserve">
<style type="text/css">
	.st0{fill:#0D3052;}
	.st1{fill:#268BF0;}
	.st2{fill:#FFFFFF;}
</style>
<g>
	<path class="st0" d="M146.81,61.46l-12.05-33.15h-0.12v33.15h-7.21V19.28h11.11L149.88,51H150l11.34-31.73h10.75v42.18h-7.5V28.32
		h-0.12l-11.99,33.15H146.81z"/>
	<path class="st0" d="M199.56,62.17c-12.41,0-20.15-9.1-20.15-21.8c0-12.64,7.74-21.8,20.15-21.8s20.15,9.16,20.15,21.8
		C219.71,53.07,211.97,62.17,199.56,62.17z M199.56,24.77c-8.09,0-12.17,6.26-12.17,15.6c0,9.39,4.08,15.6,12.17,15.6
		c8.04,0,12.17-6.2,12.17-15.6C211.73,31.03,207.6,24.77,199.56,24.77z"/>
	<path class="st0" d="M255.92,49.17h0.12v-29.9h7.44v42.18h-7.27l-21.68-32.67h-0.12v32.67h-7.5V19.28h9.16L255.92,49.17z"/>
	<path class="st0" d="M283.98,25.48h-15.12v-6.2h38.11v6.2h-15.18v35.98h-7.8V25.48z"/>
	<path class="st0" d="M312.22,61.46V19.28h30.31v6.2H319.9v11.76h20.03v6.2H319.9v11.82h22.86v6.2H312.22z"/>
	<path class="st0" d="M380.98,55.97c6.03,0,8.8-3.43,9.63-7.74h7.62c-1.48,8.21-7.15,13.94-17.25,13.94
		c-11.82,0-19.85-8.74-19.85-21.86c0-13,8.04-21.74,19.85-21.74c10.1,0,15.78,5.67,17.25,13.94h-7.62c-0.83-4.31-3.6-7.74-9.63-7.74
		c-7.62,0-11.88,5.97-11.88,15.54C369.11,49.94,373.36,55.97,380.98,55.97z"/>
	<path class="st0" d="M431.02,51.12h-19.02l-4.02,10.34h-7.68l16.96-42.18h8.8l16.96,42.18h-8.04L431.02,51.12z M414.42,45.04h14.24
		l-6.97-18.2h-0.18L414.42,45.04z"/>
	<path class="st0" d="M447.91,61.46V19.28h18.08c9.87,0,15.66,4.61,15.66,13.23c0,6.56-4.19,10.46-8.98,11.99l10.58,16.96h-8.57
		l-9.63-15.78h-9.45v15.78H447.91z M465.1,39.54c5.85,0,8.8-2.42,8.8-7.03s-2.95-7.03-8.8-7.03h-9.51v14.06H465.1z"/>
	<path class="st0" d="M489.79,19.28h7.86v35.98h21.74v6.2h-29.6V19.28z"/>
	<path class="st0" d="M540.84,62.17c-12.41,0-20.15-9.1-20.15-21.8c0-12.64,7.74-21.8,20.15-21.8c12.41,0,20.15,9.16,20.15,21.8
		C560.98,53.07,553.25,62.17,540.84,62.17z M540.84,24.77c-8.09,0-12.17,6.26-12.17,15.6c0,9.39,4.08,15.6,12.17,15.6
		c8.04,0,12.17-6.2,12.17-15.6C553.01,31.03,548.87,24.77,540.84,24.77z"/>
</g>
<g>
	<rect x="0.37" y="0.25" class="st1" width="85.5" height="85.5"/>
	<g>
		<polygon class="st2" points="44.86,30.12 44.86,55.8 40.62,55.8 40.62,34.52 32.81,55.8 28.58,55.8 20.77,34.52 20.77,55.8 
			16.53,55.8 16.53,30.12 23.67,30.12 30.7,49.31 37.72,30.12 		"/>
		<path class="st2" d="M72.38,50.72c-2.27,3.38-5.99,5.59-10.21,5.59c-6.93,0-12.55-5.96-12.55-13.3c0-7.35,5.62-13.32,12.55-13.32
			c4.18,0,7.89,2.17,10.16,5.52l-3.47,2.58c-1.5-2.18-3.94-3.59-6.69-3.59c-4.59,0-8.32,3.94-8.32,8.81c0,4.87,3.73,8.81,8.32,8.81
			c2.75,0,5.19-1.42,6.69-3.61L72.38,50.72z"/>
	</g>
</g>
</svg>
