<svg id="Layer_1" data-name="Layer 1" xmlns="http://www.w3.org/2000/svg" xmlns:xlink="http://www.w3.org/1999/xlink" viewBox="0 0 1535.12 565.67"><defs><style>.cls-1{fill:none;}.cls-2{clip-path:url(#clip-path);}.cls-3{fill:#2924fa;}</style><clipPath id="clip-path"><rect class="cls-1" x="167.52" y="166.58" width="1201.02" height="457.44"/></clipPath></defs><title>Polidea_logo</title><g class="cls-2"><path d="M209.56,275h52.57c27.51,0,44.65-11.09,44.65-37.4,0-24.9-17-37.09-43.87-37.09H209.56Zm-42-108.27h99.7c50.11,0,82,27.18,82,70,0,47.35-34.43,72.11-82.93,72.11h-56.7v90h-42Z"/><path d="M390,313.64c0,33.14,16.78,57.67,45.43,57.67,29.39,0,44.79-23.66,44.79-57.35,0-34.56-15.68-58-45.43-58S390,278.89,390,313.64m131.15-.27c0,50.42-30.85,89.66-87.09,89.66-54.1,0-85-39.38-85-89.11s31.49-89.71,87.09-89.71c53.45,0,85,39,85,89.16"/></g><rect x="541.39" y="166.68" width="40.02" height="232.14"/><path d="M611.62,398.86h40V228.47h-40Zm0-193.49h40V166.68h-40Z"/><g class="cls-2"><path d="M713,314.14c0,34.48,16.6,56.43,44,56.43,35.44,0,44.74-26.17,44.74-57.94,0-33.42-8.16-56-43.36-56-29.52,0-45.34,23.43-45.34,57.48m127.3-147.46V351c0,15.87,0,31.82.37,47.91H802a210.86,210.86,0,0,1-1.65-21.59c-8.57,15-23.61,25.81-53.86,25.81-45.06,0-74.63-35.39-74.63-87.93,0-53.91,34.06-90.94,80.27-90.94,30.39,0,43.82,11.78,48.22,19.94V166.68Z"/><path d="M984,296.31c-.64-21.45-11-42.58-40.29-42.58-28.05,0-40,18.33-42.36,42.58Zm-83.52,25.9c.6,27.51,16.09,49.28,43.51,49.28,23.33,0,32.08-10.08,37.95-22.14H1022c-7.52,23.52-28.1,53.73-79.12,53.73-58.45,0-82.51-43.69-82.51-87.88,0-51.25,28.69-91,83.61-91,59.59,0,80.59,44.32,80.59,84.94,0,4.86,0,8.43-.41,13.06Z"/><path d="M1155.34,319.14h-28.15c-31.81,0-46.21,8.67-46.21,28.1,0,14.67,10.13,26.27,30.72,26.27,36,0,43.64-22.92,43.64-49.37Zm39,37.68a386.47,386.47,0,0,0,2.06,42.08h-38.09a100.2,100.2,0,0,1-2.39-20.35c-7.06,12.38-22,24.57-54.36,24.57-42.87,0-60.47-27.5-60.47-53.59,0-40.34,33.47-56.2,83.52-56.2h30.62V282.56c0-14.39-5.36-29.2-33.46-29.2-25.39,0-30.53,11.32-33.23,24.07h-38.92c2.2-25.17,18.33-53.36,72.93-53.22,51.8.13,71.79,22.6,71.79,58.49Z"/></g><rect class="cls-3" x="1226.89" y="315.66" width="83.29" height="83.29"/><g class="cls-2"><path class="cls-3" d="M1368.54,228.47v-3.58a84.7,84.7,0,0,1-58.4-58.31h-3.53a84.72,84.72,0,0,1-58.4,58.41v3.48a84.77,84.77,0,0,1,58.4,58.35h3.53a84.77,84.77,0,0,1,58.4-58.35"/></g></svg>