<svg xmlns="http://www.w3.org/2000/svg" width="162.33" height="72.859" viewBox="0 0 162.33 72.859"><defs><style>.a{fill:#707171;}.b{fill:#33357d;}.c{fill:#27235a;}</style></defs><g transform="translate(-121.214 -229.164)"><g transform="translate(211.212 293.4)"><g transform="translate(0 0)"><path class="a" d="M390.687,433.627a3.1,3.1,0,0,1-2.215-.769l.264-.54a3.262,3.262,0,0,0,.918.534,3.132,3.132,0,0,0,1.068.166,1.962,1.962,0,0,0,1.091-.247.81.81,0,0,0,.367-.717.794.794,0,0,0-.247-.608,1.844,1.844,0,0,0-.81-.367l-.976-.229a2.061,2.061,0,0,1-1.085-.562,1.352,1.352,0,0,1-.4-.964,1.481,1.481,0,0,1,.264-.878,1.718,1.718,0,0,1,.74-.58,2.8,2.8,0,0,1,1.119-.207,3.225,3.225,0,0,1,1.125.2,2.239,2.239,0,0,1,.872.562l-.264.54a3.056,3.056,0,0,0-.821-.517,2.384,2.384,0,0,0-.913-.172,1.746,1.746,0,0,0-1.033.264.842.842,0,0,0-.367.723.873.873,0,0,0,.23.637,1.53,1.53,0,0,0,.735.362l.976.241a2.3,2.3,0,0,1,1.171.556,1.327,1.327,0,0,1,.379.97,1.385,1.385,0,0,1-.591,1.165A2.616,2.616,0,0,1,390.687,433.627Z" transform="translate(-388.472 -425.052)"/><path class="a" d="M407.883,433.627a2.566,2.566,0,0,1-1.383-.367,2.494,2.494,0,0,1-.924-1.039,3.537,3.537,0,0,1-.333-1.59,3.483,3.483,0,0,1,.333-1.567,2.5,2.5,0,0,1,.924-1.039,2.809,2.809,0,0,1,2.778,0,2.458,2.458,0,0,1,.918,1.039,3.538,3.538,0,0,1,.327,1.567,3.593,3.593,0,0,1-.327,1.59,2.457,2.457,0,0,1-.918,1.039A2.59,2.59,0,0,1,407.883,433.627Zm0-.62a1.729,1.729,0,0,0,1.418-.608,3.3,3.3,0,0,0-.006-3.5,1.707,1.707,0,0,0-1.4-.62,1.736,1.736,0,0,0-1.418.62,2.67,2.67,0,0,0-.511,1.745,2.706,2.706,0,0,0,.5,1.756A1.729,1.729,0,0,0,407.883,433.007Z" transform="translate(-399.595 -425.052)"/><path class="a" d="M422.935,423.226v-.563h3.306v.563Zm3.444-2.583a2.228,2.228,0,0,0-.608-.092,1.267,1.267,0,0,0-.511.1.726.726,0,0,0-.356.361,1.7,1.7,0,0,0-.132.747v6.658h-.7V421.63a1.728,1.728,0,0,1,.43-1.3,1.6,1.6,0,0,1,1.154-.413,2.915,2.915,0,0,1,.361.023,3.178,3.178,0,0,1,.362.069Z" transform="translate(-411.33 -419.92)"/><path class="a" d="M433.263,425.1v-.563H436.8v.563Zm3.5,4.534v.631a2.783,2.783,0,0,1-.35.069,3.09,3.09,0,0,1-.4.023,1.5,1.5,0,0,1-1.618-1.7v-5.648l.7-.264v5.774a1.7,1.7,0,0,0,.132.746.741.741,0,0,0,.367.367,1.318,1.318,0,0,0,.534.1,1.962,1.962,0,0,0,.322-.023A2.032,2.032,0,0,0,436.764,429.637Z" transform="translate(-418.18 -421.797)"/><path class="a" d="M447.907,433.818l-2.066-5.751h.746l1.837,5.35h-.3l1.94-5.35h.7l1.883,5.35h-.3l1.894-5.35h.712l-2.089,5.751h-.723l-1.963-5.441h.425l-1.963,5.441Z" transform="translate(-426.522 -425.324)"/><path class="a" d="M478.194,433.627a2.465,2.465,0,0,1-1.349-.367,2.42,2.42,0,0,1-.9-1.027,3.6,3.6,0,0,1-.316-1.567,3.657,3.657,0,0,1,.322-1.584,2.477,2.477,0,0,1,.9-1.05,2.417,2.417,0,0,1,1.337-.373,2.287,2.287,0,0,1,1.372.4,1.984,1.984,0,0,1,.752,1.16l-.138.092V427.8h.7v5.751h-.7v-1.573l.138.08a2.008,2.008,0,0,1-.752,1.165A2.26,2.26,0,0,1,478.194,433.627Zm.092-.62a1.683,1.683,0,0,0,1.406-.62,2.762,2.762,0,0,0,.488-1.745,2.731,2.731,0,0,0-.493-1.756,1.7,1.7,0,0,0-1.4-.608,1.73,1.73,0,0,0-1.418.626,2.717,2.717,0,0,0-.511,1.762,2.624,2.624,0,0,0,.511,1.733A1.75,1.75,0,0,0,478.286,433.007Z" transform="translate(-446.283 -425.052)"/><path class="a" d="M496.69,433.547v-4.155q0-.391-.017-.8a7.7,7.7,0,0,0-.075-.8h.666l.115,1.378-.115-.023a1.813,1.813,0,0,1,.706-1.114,2.022,2.022,0,0,1,1.2-.379c.1,0,.19,0,.27.011s.159.02.235.035l-.023.643a2.15,2.15,0,0,0-.539-.058,1.542,1.542,0,0,0-1.555,1,2.413,2.413,0,0,0-.167.878v3.375Z" transform="translate(-460.187 -425.052)"/><path class="a" d="M512.318,432.836a2.557,2.557,0,0,1-.953.579,3.5,3.5,0,0,1-1.205.212,3.015,3.015,0,0,1-1.5-.356,2.415,2.415,0,0,1-.976-1.022,3.434,3.434,0,0,1-.345-1.6,3.472,3.472,0,0,1,.339-1.573,2.522,2.522,0,0,1,.947-1.05,2.627,2.627,0,0,1,1.4-.373,2.432,2.432,0,0,1,1.286.327,2.111,2.111,0,0,1,.826.947,3.563,3.563,0,0,1,.287,1.5v.149h-4.465l-.011-.528h4.1l-.264.448a2.572,2.572,0,0,0-.419-1.687,1.587,1.587,0,0,0-1.337-.586,1.748,1.748,0,0,0-1.429.637,2.683,2.683,0,0,0-.522,1.75,2.622,2.622,0,0,0,.534,1.779,1.943,1.943,0,0,0,1.544.608,2.845,2.845,0,0,0,.993-.172,3.214,3.214,0,0,0,.913-.54Z" transform="translate(-467.309 -425.052)"/></g></g><g transform="translate(121.214 229.164)"><g transform="translate(0)"><g transform="translate(0 18.238)"><path class="b" d="M130.319,294.7a2.222,2.222,0,0,1,.176-.881,2.276,2.276,0,0,1,2.1-1.394h14.789a4.551,4.551,0,1,0,0-9.1H132.592A11.381,11.381,0,0,0,121.214,294.7Z" transform="translate(-121.214 -283.324)"/><path class="b" d="M155.316,357.639a11.378,11.378,0,0,1-11.378,11.378H129.154a4.549,4.549,0,1,1,0-9.1h14.783a2.241,2.241,0,0,0,1.271-.386,2.392,2.392,0,0,0,.831-1,2.469,2.469,0,0,0,.176-.89Z" transform="translate(-123.459 -332.614)"/><path class="c" d="M153.07,330.759a11.379,11.379,0,0,0-11.378-11.374h-9.1a2.228,2.228,0,0,1-.88-.175,2.316,2.316,0,0,1-1.008-.827,2.279,2.279,0,0,1-.386-1.271h-9.1a11.389,11.389,0,0,0,11.378,11.378h9.1a2.234,2.234,0,0,1,1.888,1,2.27,2.27,0,0,1,.39,1.267Z" transform="translate(-121.214 -305.734)"/></g><g transform="translate(139.56 4.551)"><path class="b" d="M580.781,242.679a4.555,4.555,0,1,0,4.553,4.553A4.555,4.555,0,0,0,580.781,242.679Z" transform="translate(-562.564 -242.679)"/><path class="c" d="M585.334,310.575V287.8a4.553,4.553,0,1,0-9.105,0v22.771Z" transform="translate(-562.564 -269.589)"/><path class="b" d="M558.42,364.391v9.1A18.211,18.211,0,0,1,540.2,391.713a4.553,4.553,0,1,1,0-9.105,9.026,9.026,0,0,0,5.089-1.554,9.13,9.13,0,0,0,3.3-4.008,9,9,0,0,0,.719-3.549v-9.1Z" transform="translate(-535.65 -323.405)"/></g><g transform="translate(76.049)"><path class="b" d="M356.156,256.487v22.766a4.552,4.552,0,1,1-9.1,0V233.885c0-.054,0-.108,0-.163a4.554,4.554,0,1,1,9.108,0v22.764" transform="translate(-347.048 -229.164)"/><path class="c" d="M377.673,293a15.932,15.932,0,0,0-14.682-9.732H351.607a4.552,4.552,0,0,0,0,9.1h11.384a6.725,6.725,0,0,1,2.657.536,6.847,6.847,0,0,1,3.008,2.481,6.747,6.747,0,0,1,1.164,3.816v15.933a4.554,4.554,0,0,0,9.108,0V299.2A15.877,15.877,0,0,0,377.673,293Z" transform="translate(-347.054 -265.047)"/></g><g transform="translate(35.191 18.217)"><path class="b" d="M243.93,283.262a18.212,18.212,0,0,0-18.212,18.212h9.1a9.108,9.108,0,0,1,18.216-.026v.026h9.1v-.043A18.212,18.212,0,0,0,243.93,283.262Z" transform="translate(-225.718 -283.262)"/><path class="c" d="M253.038,337.344v.026a9.108,9.108,0,0,1-18.216-.026h-9.1a18.215,18.215,0,0,0,27.738,15.524,4.552,4.552,0,0,0,8.686-1.906V337.344Z" transform="translate(-225.718 -319.132)"/></g><g transform="translate(112.364 18.217)"><path class="c" d="M463.993,301.474a9.108,9.108,0,0,1,9.108-9.108v-9.1a18.212,18.212,0,0,0,0,36.424v-9.1A9.108,9.108,0,0,1,463.993,301.474Z" transform="translate(-454.889 -283.262)"/><path class="b" d="M527.183,301.431a18.212,18.212,0,0,0-18.212-18.169v9.1a9.108,9.108,0,0,1,9.108,9.082v.052a9.108,9.108,0,0,1-9.108,9.082v9.1A18.125,18.125,0,0,0,518.5,317a4.552,4.552,0,0,0,8.686-1.906V301.431Z" transform="translate(-490.759 -283.262)"/></g></g></g></g></svg>