<svg id="Layer_1" data-name="Layer 1" xmlns="http://www.w3.org/2000/svg" viewBox="0 0 888.2 404.4">
  <g>
    <g>
      <g>
        <path d="M54.75,166.5a10.87,10.87,0,0,1,1-4.8,12.65,12.65,0,0,1,4.5-5.5,12.16,12.16,0,0,1,6.8-2.1H147a24.6,24.6,0,1,0,0-49.2H67.05a59.74,59.74,0,0,0-23.9,4.9,61.35,61.35,0,0,0-37.5,56.6h49.1Z" style="fill: #fff"/>
        <path d="M177.65,240.3a61.57,61.57,0,0,1-61.4,61.5H36.35a24.6,24.6,0,0,1,0-49.2h79.9a12.49,12.49,0,0,0,6.9-2.1,13.77,13.77,0,0,0,4.5-5.4,12.44,12.44,0,0,0,.9-4.8Z" style="fill: #fff"/>
        <path d="M177.65,240.3a60.1,60.1,0,0,0-4.9-23.9,61.35,61.35,0,0,0-56.6-37.5H67a12.44,12.44,0,0,1-4.8-.9,12.65,12.65,0,0,1-5.5-4.5,12.24,12.24,0,0,1-2.1-6.9H5.35a59.74,59.74,0,0,0,4.9,23.9A61.63,61.63,0,0,0,67,228h49.2a12.44,12.44,0,0,1,4.8.9,11.86,11.86,0,0,1,5.4,4.5,12.16,12.16,0,0,1,2.1,6.8h49.2Z" style="fill: #ddd"/>
      </g>
      <g>
        <path d="M858.25,31a24.6,24.6,0,1,0,24.6,24.6A24.58,24.58,0,0,0,858.25,31Z" style="fill: #fff"/>
        <path d="M882.85,252.5v-123a24.6,24.6,0,0,0-49.2,0V252.6h49.2Z" style="fill: #ddd"/>
        <path d="M882.85,252.5v49.2a98.52,98.52,0,0,1-98.4,98.5,24.6,24.6,0,0,1,0-49.2,48.83,48.83,0,0,0,27.5-8.4,50,50,0,0,0,17.9-21.7,48.78,48.78,0,0,0,3.9-19.2V252.5Z" style="fill: #fff"/>
      </g>
      <g>
        <path d="M465.75,154.1V277.2a24.6,24.6,0,0,1-49.2,0V31a24.6,24.6,0,0,1,49.2,0V154.1" style="fill: #fff"/>
        <path d="M582.05,157.5a87,87,0,0,0-31.2-37.9,85.74,85.74,0,0,0-48.2-14.7h-61.5a24.6,24.6,0,1,0,0,49.2h61.5a36,36,0,0,1,14.4,2.9,37.44,37.44,0,0,1,16.3,13.4,36.35,36.35,0,0,1,6.3,20.6v86.1a24.6,24.6,0,0,0,49.2,0V191A85.33,85.33,0,0,0,582.05,157.5Z" style="fill: #ddd"/>
      </g>
      <g>
        <path d="M294.15,104.9a98.39,98.39,0,0,0-98.4,98.4H245a49.2,49.2,0,0,1,98.4-.1v.1h49.2v-.2A98.35,98.35,0,0,0,294.15,104.9Z" style="fill: #fff"/>
        <path d="M343.35,203.3v.1a49.2,49.2,0,0,1-98.4-.1h-49.2a98.47,98.47,0,0,0,149.9,83.9,24.58,24.58,0,0,0,46.9-10.3V203.3Z" style="fill: #ddd"/>
      </g>
      <g>
        <path d="M662.05,203.3a49.16,49.16,0,0,1,49.2-49.2V104.9a98.4,98.4,0,1,0,0,196.8V252.5A49.16,49.16,0,0,1,662.05,203.3Z" style="fill: #ddd"/>
        <path d="M809.65,203.1a98.35,98.35,0,0,0-98.4-98.2v49.2a49.21,49.21,0,0,1,49.2,49.1v.3a49.27,49.27,0,0,1-49.2,49.1v49.2a98.09,98.09,0,0,0,51.5-14.5,24.58,24.58,0,0,0,46.9-10.3V203.1Z" style="fill: #fff"/>
      </g>
    </g>
    <g>
      <path d="M503.65,399.9c-5.1,0-9-1.4-12-4.2l1.4-2.9a18.47,18.47,0,0,0,5,2.9,17.23,17.23,0,0,0,5.8.9c2.6,0,4.6-.4,5.9-1.3a4.49,4.49,0,0,0,2-3.9,4.16,4.16,0,0,0-1.3-3.3,10.64,10.64,0,0,0-4.4-2l-5.3-1.2a11.83,11.83,0,0,1-5.9-3,7.34,7.34,0,0,1-2.1-5.2,8.72,8.72,0,0,1,1.4-4.8,9.62,9.62,0,0,1,4-3.1,15.83,15.83,0,0,1,6.1-1.1,17.39,17.39,0,0,1,6.1,1.1,11.9,11.9,0,0,1,4.7,3l-1.4,2.9a16.28,16.28,0,0,0-4.4-2.8,13.33,13.33,0,0,0-4.9-.9,9.84,9.84,0,0,0-5.6,1.4,5.05,5.05,0,0,0-.8,7.3,9.3,9.3,0,0,0,4,2l5.3,1.3q4.35.9,6.3,3a6.93,6.93,0,0,1,2,5.2,7.59,7.59,0,0,1-3.2,6.3A14.46,14.46,0,0,1,503.65,399.9Z" style="fill: #848484"/>
      <path d="M536.45,399.9a14,14,0,0,1-7.5-2,13.64,13.64,0,0,1-5-5.6,21.21,21.21,0,0,1,0-17.1,13.64,13.64,0,0,1,5-5.6,15.06,15.06,0,0,1,15,0,13.64,13.64,0,0,1,5,5.6,18.7,18.7,0,0,1,1.8,8.5,19.14,19.14,0,0,1-1.8,8.6,13,13,0,0,1-5,5.6A14,14,0,0,1,536.45,399.9Zm0-3.4a9.43,9.43,0,0,0,7.7-3.3c1.8-2.2,2.7-5.4,2.7-9.5s-.9-7.2-2.7-9.4a10.31,10.31,0,0,0-15.3,0c-1.8,2.2-2.8,5.4-2.8,9.4s.9,7.3,2.7,9.5A9.43,9.43,0,0,0,536.45,396.5Z" style="fill: #848484"/>
      <path d="M554.45,371.4v-3h17.9v3Zm18.6-14a13.93,13.93,0,0,0-3.3-.5,8.21,8.21,0,0,0-2.8.5,4.13,4.13,0,0,0-1.9,2,9,9,0,0,0-.7,4v36h-3.8V362.7c0-3.2.8-5.5,2.3-7a8.56,8.56,0,0,1,6.2-2.2,13.4,13.4,0,0,1,2,.1,17.66,17.66,0,0,1,2,.4v3.4Z" style="fill: #848484"/>
      <path d="M573.25,371.4v-3h19.1v3Zm18.9,24.5v3.4a12.86,12.86,0,0,1-1.9.4,14.08,14.08,0,0,1-2.1.1,8.81,8.81,0,0,1-6.3-2.2c-1.6-1.5-2.4-3.8-2.4-7V360l3.8-1.4v31.2a8.69,8.69,0,0,0,.7,4,3.9,3.9,0,0,0,2,2,6.53,6.53,0,0,0,2.9.6,8.62,8.62,0,0,0,1.7-.1A6.18,6.18,0,0,0,592.15,395.9Z" style="fill: #848484"/>
      <path d="M607.35,399.5l-11.2-31.1h4l9.9,28.9h-1.6L619,368.4h3.8L633,397.3h-1.6l10.2-28.9h3.9l-11.3,31.1h-3.9l-10.6-29.4H622l-10.6,29.4Z" style="fill: #848484"/>
      <path d="M664.25,399.9a13.53,13.53,0,0,1-7.3-2,12.57,12.57,0,0,1-4.8-5.6,20.13,20.13,0,0,1-1.7-8.5,20.94,20.94,0,0,1,1.7-8.6,14.36,14.36,0,0,1,4.9-5.7,13.43,13.43,0,0,1,7.2-2,12,12,0,0,1,7.4,2.2,10.79,10.79,0,0,1,4.1,6.3l-.7.5v-8.2h3.8v31.1h-3.8V391l.7.4a11.12,11.12,0,0,1-4.1,6.3A12,12,0,0,1,664.25,399.9Zm.5-3.4a9,9,0,0,0,7.6-3.4c1.8-2.2,2.6-5.4,2.6-9.4s-.9-7.3-2.7-9.5a9.22,9.22,0,0,0-7.6-3.3,9.34,9.34,0,0,0-7.7,3.4c-1.8,2.3-2.8,5.4-2.8,9.5s.9,7.2,2.8,9.4A9.91,9.91,0,0,0,664.75,396.5Z" style="fill: #848484"/>
      <path d="M689.05,399.5V377c0-1.4,0-2.8-.1-4.3s-.2-2.9-.4-4.3h3.6l.6,7.5-.6-.1a9.69,9.69,0,0,1,3.8-6,10.66,10.66,0,0,1,6.5-2,7.57,7.57,0,0,1,1.5.1,5.85,5.85,0,0,1,1.3.2l-.1,3.5a12.31,12.31,0,0,0-2.9-.3,8.57,8.57,0,0,0-5.5,1.6,7.49,7.49,0,0,0-2.9,3.9,13.19,13.19,0,0,0-.9,4.8v18.3h-3.9Z" style="fill: #848484"/>
      <path d="M735.15,395.6a12.66,12.66,0,0,1-5.2,3.1,18.14,18.14,0,0,1-6.5,1.1,15.92,15.92,0,0,1-8.1-1.9,13.39,13.39,0,0,1-5.3-5.5,20.69,20.69,0,0,1-.1-17.1,14.07,14.07,0,0,1,5.1-5.7,14.6,14.6,0,0,1,7.6-2,13.26,13.26,0,0,1,7,1.8,12.45,12.45,0,0,1,4.5,5.1,19.47,19.47,0,0,1,1.6,8.1v.8h-24.2l-.1-2.9h22.2l-1.4,2.4c.1-4-.6-7-2.3-9.1a8.51,8.51,0,0,0-7.2-3.2,9.34,9.34,0,0,0-7.7,3.4c-1.9,2.3-2.8,5.5-2.8,9.5,0,4.2,1,7.4,2.9,9.6s4.7,3.3,8.4,3.3a16.11,16.11,0,0,0,5.4-.9,16.64,16.64,0,0,0,4.9-2.9Z" style="fill: #848484"/>
    </g>
  </g>
</svg>
