<?xml version="1.0" encoding="utf-8"?>
<!-- Generator: Adobe Illustrator 24.0.2, SVG Export Plug-In . SVG Version: 6.00 Build 0)  -->
<svg version="1.1" id="Layer_1" xmlns="http://www.w3.org/2000/svg" xmlns:xlink="http://www.w3.org/1999/xlink" x="0px" y="0px"
	 viewBox="0 0 19.8 19.8" style="enable-background:new 0 0 19.8 19.8;" xml:space="preserve">
<style type="text/css">
	.st0{fill:#FFFFFF;}
</style>
<g id="Group_1574" transform="translate(-41.892 290.899)">
	<g id="Group_1291" transform="rotate(-45 -308.114 -187.077)">
		<path id="Rectangle_461" class="st0" d="M0.8,0h24c0.6,0,1,0.4,1,1l0,0c0,0.6-0.4,1-1,1h-24c-0.6,0-1-0.4-1-1l0,0
			C-0.2,0.4,0.2,0,0.8,0z"/>
	</g>
	<g id="Group_1292" transform="rotate(45 372.48 -93.011)">
		<path id="Rectangle_462" class="st0" d="M0.8-0.2h24c0.6,0,1,0.4,1,1l0,0c0,0.6-0.4,1-1,1h-24c-0.6,0-1-0.4-1-1l0,0
			C-0.2,0.3,0.2-0.2,0.8-0.2z"/>
	</g>
</g>
</svg>
